M48
; DRILL file {KiCad 8.0.3} date 2025-01-26T01:34:39+0900
; FORMAT={-:-/ absolute / inch / decimal}
; #@! TF.CreationDate,2025-01-26T01:34:39+09:00
; #@! TF.GenerationSoftware,Kicad,Pcbnew,8.0.3
; #@! TF.FileFunction,Plated,1,2,PTH
FMAT,2
INCH
; #@! TA.AperFunction,Plated,PTH,ViaDrill
T1C0.0118
; #@! TA.AperFunction,Plated,PTH,ComponentDrill
T2C0.0315
; #@! TA.AperFunction,Plated,PTH,ComponentDrill
T3C0.0374
; #@! TA.AperFunction,Plated,PTH,ComponentDrill
T4C0.0394
%
G90
G05
T1
X4.6205Y-5.2697
X4.624Y-5.4181
X4.6469Y-5.1201
X4.7094Y-5.5417
X4.8039Y-5.3555
X4.8043Y-5.1992
X4.8051Y-5.0472
X4.85Y-4.813
X4.8913Y-5.2827
X4.9425Y-4.7154
X4.9437Y-4.9299
X4.9543Y-5.0579
X4.9567Y-5.4961
X4.961Y-5.2075
X4.961Y-5.3563
X5.0819Y-5.1594
X5.0878Y-5.0736
X5.1134Y-4.7886
X5.1173Y-5.3752
X5.1287Y-5.2886
X5.1335Y-5.4972
X5.1843Y-5.2602
X5.1858Y-5.1315
X5.2165Y-4.9602
X5.2287Y-4.911
X5.2606Y-4.7047
X5.2752Y-5.448
X5.2992Y-5.1618
X5.3031Y-5.0748
X5.3504Y-4.8567
X5.3898Y-5.5087
X5.4626Y-5.4067
X5.5386Y-4.7024
X5.5888Y-4.9004
X5.639Y-4.8457
X5.7024Y-5.1614
X5.7185Y-5.2524
X5.7957Y-5.5764
X5.8067Y-5.1555
X5.8252Y-4.8579
X5.8396Y-5.2098
X5.8402Y-4.7024
X5.8606Y-4.9154
X5.8854Y-5.0839
X5.9417Y-4.7843
X6.0236Y-5.0465
X6.0476Y-4.7039
X6.0874Y-5.0244
X6.1768Y-5.5902
X6.2085Y-5.538
X6.2319Y-5.285
X6.2512Y-5.4677
X6.2776Y-4.8866
X6.2783Y-4.7161
X6.3354Y-5.5681
X6.3673Y-5.0717
X6.3752Y-4.874
X6.3953Y-5.4012
X6.4268Y-5.4898
X6.428Y-4.7882
X6.4591Y-5.2102
X6.5043Y-5.5969
X6.5299Y-4.8508
X6.5346Y-5.0508
X6.5413Y-5.3354
X6.5693Y-4.9098
X6.5807Y-5.4783
X6.5961Y-4.7028
X6.624Y-4.7996
X6.624Y-4.9567
X6.6433Y-5.2319
X6.6457Y-5.5843
X6.7224Y-5.287
X6.726Y-5.0815
X6.7567Y-4.926
X6.7874Y-5.3941
X6.8154Y-5.5354
X6.8295Y-5.222
X6.8319Y-5.0433
X6.9122Y-5.1531
X6.9173Y-5.4272
X6.9441Y-5.3177
T2
X5.8904Y-4.9843
X5.8904Y-5.2843
X5.9904Y-4.9843
X5.9904Y-5.2843
X6.1835Y-5.0571
X6.1835Y-5.3571
X6.2835Y-5.0571
X6.2835Y-5.3571
T3
X6.0024Y-4.7776
X6.1008Y-4.7776
X6.1992Y-4.7776
T4
X4.8559Y-5.1445
X4.8559Y-5.4398
X5.0277Y-4.7274
X5.0277Y-5.4164
X5.3382Y-4.7776
X5.4366Y-4.7776
X5.6693Y-4.7776
X5.7677Y-4.7776
X6.5041Y-4.7274
X6.5041Y-5.4164
X6.6756Y-5.1445
X6.6756Y-5.4398
M30
