%TF.GenerationSoftware,KiCad,Pcbnew,8.0.3*%
%TF.CreationDate,2025-01-26T01:34:35+09:00*%
%TF.ProjectId,Kicker_V1,4b69636b-6572-45f5-9631-2e6b69636164,rev?*%
%TF.SameCoordinates,Original*%
%TF.FileFunction,Legend,Bot*%
%TF.FilePolarity,Positive*%
%FSLAX46Y46*%
G04 Gerber Fmt 4.6, Leading zero omitted, Abs format (unit mm)*
G04 Created by KiCad (PCBNEW 8.0.3) date 2025-01-26 01:34:35*
%MOMM*%
%LPD*%
G01*
G04 APERTURE LIST*
G04 Aperture macros list*
%AMRoundRect*
0 Rectangle with rounded corners*
0 $1 Rounding radius*
0 $2 $3 $4 $5 $6 $7 $8 $9 X,Y pos of 4 corners*
0 Add a 4 corners polygon primitive as box body*
4,1,4,$2,$3,$4,$5,$6,$7,$8,$9,$2,$3,0*
0 Add four circle primitives for the rounded corners*
1,1,$1+$1,$2,$3*
1,1,$1+$1,$4,$5*
1,1,$1+$1,$6,$7*
1,1,$1+$1,$8,$9*
0 Add four rect primitives between the rounded corners*
20,1,$1+$1,$2,$3,$4,$5,0*
20,1,$1+$1,$4,$5,$6,$7,0*
20,1,$1+$1,$6,$7,$8,$9,0*
20,1,$1+$1,$8,$9,$2,$3,0*%
G04 Aperture macros list end*
%ADD10C,0.150000*%
%ADD11C,0.120000*%
%ADD12RoundRect,0.250000X-0.600000X-0.725000X0.600000X-0.725000X0.600000X0.725000X-0.600000X0.725000X0*%
%ADD13O,1.700000X1.950000*%
%ADD14R,1.600000X1.600000*%
%ADD15O,1.600000X1.600000*%
%ADD16RoundRect,0.250000X-0.600000X-0.750000X0.600000X-0.750000X0.600000X0.750000X-0.600000X0.750000X0*%
%ADD17O,1.700000X2.000000*%
%ADD18C,2.000000*%
%ADD19R,1.700000X1.700000*%
G04 APERTURE END LIST*
D10*
X129085669Y-135261221D02*
X129085669Y-134261221D01*
X128609479Y-135261221D02*
X128609479Y-134261221D01*
X128609479Y-134261221D02*
X128038051Y-135261221D01*
X128038051Y-135261221D02*
X128038051Y-134261221D01*
X127799956Y-135356459D02*
X127038051Y-135356459D01*
X126847574Y-134356459D02*
X126799955Y-134308840D01*
X126799955Y-134308840D02*
X126704717Y-134261221D01*
X126704717Y-134261221D02*
X126466622Y-134261221D01*
X126466622Y-134261221D02*
X126371384Y-134308840D01*
X126371384Y-134308840D02*
X126323765Y-134356459D01*
X126323765Y-134356459D02*
X126276146Y-134451697D01*
X126276146Y-134451697D02*
X126276146Y-134546935D01*
X126276146Y-134546935D02*
X126323765Y-134689792D01*
X126323765Y-134689792D02*
X126895193Y-135261221D01*
X126895193Y-135261221D02*
X126276146Y-135261221D01*
D11*
%TO.C,IN_1*%
X126374718Y-118746402D02*
X127704718Y-118746402D01*
X126374718Y-120076402D02*
X126374718Y-118746402D01*
X126374718Y-121406402D02*
X126374718Y-121286402D01*
X126374718Y-121406402D02*
X129034718Y-121406402D01*
X129034718Y-121406402D02*
X129034718Y-121286402D01*
%TO.C,OUT_1*%
X163874718Y-118746402D02*
X165204718Y-118746402D01*
X163874718Y-120076402D02*
X163874718Y-118746402D01*
X163874718Y-121406402D02*
X163874718Y-121286402D01*
X163874718Y-121406402D02*
X166534718Y-121406402D01*
X166534718Y-121406402D02*
X166534718Y-121286402D01*
%TO.C,IN_2*%
X126374718Y-136246402D02*
X127704718Y-136246402D01*
X126374718Y-137576402D02*
X126374718Y-136246402D01*
X126374718Y-138906402D02*
X126374718Y-138786402D01*
X126374718Y-138906402D02*
X129034718Y-138906402D01*
X129034718Y-138906402D02*
X129034718Y-138786402D01*
%TO.C,OUT_2*%
X163874718Y-136246402D02*
X165204718Y-136246402D01*
X163874718Y-137576402D02*
X163874718Y-136246402D01*
X163874718Y-138906402D02*
X163874718Y-138786402D01*
X163874718Y-138906402D02*
X166534718Y-138906402D01*
X166534718Y-138906402D02*
X166534718Y-138786402D01*
%TD*%
%LPC*%
D12*
%TO.C,main_1*%
X152460000Y-121350000D03*
D13*
X154960000Y-121350000D03*
X157460000Y-121350000D03*
%TD*%
D14*
%TO.C,U1*%
X159600000Y-128450000D03*
D15*
X157060000Y-128450000D03*
X157060000Y-136070000D03*
X159600000Y-136070000D03*
%TD*%
D16*
%TO.C,J1*%
X135589939Y-121350000D03*
D17*
X138089939Y-121350000D03*
%TD*%
D18*
%TO.C,C2*%
X123340000Y-130670000D03*
X123340000Y-138170000D03*
%TD*%
D14*
%TO.C,U2*%
X149615000Y-134220000D03*
D15*
X152155000Y-134220000D03*
X152155000Y-126600000D03*
X149615000Y-126600000D03*
%TD*%
D16*
%TO.C,sole1*%
X144000000Y-121350000D03*
D17*
X146500000Y-121350000D03*
%TD*%
D18*
%TO.C,C1*%
X169560001Y-130670001D03*
X169560001Y-138170001D03*
%TD*%
D19*
%TO.C,IN_1*%
X127704718Y-120076402D03*
%TD*%
%TO.C,OUT_1*%
X165204718Y-120076402D03*
%TD*%
%TO.C,IN_2*%
X127704718Y-137576402D03*
%TD*%
%TO.C,OUT_2*%
X165204718Y-137576402D03*
%TD*%
%LPD*%
M02*
