%TF.GenerationSoftware,KiCad,Pcbnew,8.0.3*%
%TF.CreationDate,2025-01-26T01:34:35+09:00*%
%TF.ProjectId,Kicker_V1,4b69636b-6572-45f5-9631-2e6b69636164,rev?*%
%TF.SameCoordinates,Original*%
%TF.FileFunction,Soldermask,Top*%
%TF.FilePolarity,Negative*%
%FSLAX46Y46*%
G04 Gerber Fmt 4.6, Leading zero omitted, Abs format (unit mm)*
G04 Created by KiCad (PCBNEW 8.0.3) date 2025-01-26 01:34:35*
%MOMM*%
%LPD*%
G01*
G04 APERTURE LIST*
G04 Aperture macros list*
%AMRoundRect*
0 Rectangle with rounded corners*
0 $1 Rounding radius*
0 $2 $3 $4 $5 $6 $7 $8 $9 X,Y pos of 4 corners*
0 Add a 4 corners polygon primitive as box body*
4,1,4,$2,$3,$4,$5,$6,$7,$8,$9,$2,$3,0*
0 Add four circle primitives for the rounded corners*
1,1,$1+$1,$2,$3*
1,1,$1+$1,$4,$5*
1,1,$1+$1,$6,$7*
1,1,$1+$1,$8,$9*
0 Add four rect primitives between the rounded corners*
20,1,$1+$1,$2,$3,$4,$5,0*
20,1,$1+$1,$4,$5,$6,$7,0*
20,1,$1+$1,$6,$7,$8,$9,0*
20,1,$1+$1,$8,$9,$2,$3,0*%
G04 Aperture macros list end*
%ADD10RoundRect,0.250000X0.300000X-0.300000X0.300000X0.300000X-0.300000X0.300000X-0.300000X-0.300000X0*%
%ADD11RoundRect,0.250000X0.362500X1.425000X-0.362500X1.425000X-0.362500X-1.425000X0.362500X-1.425000X0*%
%ADD12RoundRect,0.200000X-0.275000X0.200000X-0.275000X-0.200000X0.275000X-0.200000X0.275000X0.200000X0*%
%ADD13RoundRect,0.250000X-0.600000X-0.725000X0.600000X-0.725000X0.600000X0.725000X-0.600000X0.725000X0*%
%ADD14O,1.700000X1.950000*%
%ADD15RoundRect,0.250000X0.312500X0.625000X-0.312500X0.625000X-0.312500X-0.625000X0.312500X-0.625000X0*%
%ADD16R,1.600000X1.600000*%
%ADD17O,1.600000X1.600000*%
%ADD18RoundRect,0.250000X1.425000X-0.362500X1.425000X0.362500X-1.425000X0.362500X-1.425000X-0.362500X0*%
%ADD19RoundRect,0.237500X0.287500X0.237500X-0.287500X0.237500X-0.287500X-0.237500X0.287500X-0.237500X0*%
%ADD20RoundRect,0.250000X-0.850000X-0.350000X0.850000X-0.350000X0.850000X0.350000X-0.850000X0.350000X0*%
%ADD21RoundRect,0.249997X-2.950003X-2.650003X2.950003X-2.650003X2.950003X2.650003X-2.950003X2.650003X0*%
%ADD22RoundRect,0.250000X-0.600000X-0.750000X0.600000X-0.750000X0.600000X0.750000X-0.600000X0.750000X0*%
%ADD23O,1.700000X2.000000*%
%ADD24C,2.000000*%
%ADD25RoundRect,0.250000X-0.312500X-0.625000X0.312500X-0.625000X0.312500X0.625000X-0.312500X0.625000X0*%
%ADD26RoundRect,0.250000X-1.425000X0.362500X-1.425000X-0.362500X1.425000X-0.362500X1.425000X0.362500X0*%
%ADD27RoundRect,0.200000X-0.200000X-0.275000X0.200000X-0.275000X0.200000X0.275000X-0.200000X0.275000X0*%
%ADD28RoundRect,0.250000X-0.300000X0.300000X-0.300000X-0.300000X0.300000X-0.300000X0.300000X0.300000X0*%
%ADD29R,1.700000X1.700000*%
G04 APERTURE END LIST*
D10*
%TO.C,D2*%
X142450000Y-140500000D03*
X142450000Y-137700000D03*
%TD*%
D11*
%TO.C,R4*%
X169985000Y-124060000D03*
X164060000Y-124060000D03*
%TD*%
D12*
%TO.C,R2*%
X154620000Y-128910000D03*
X154620000Y-130560000D03*
%TD*%
D13*
%TO.C,main_1*%
X152460000Y-121350000D03*
D14*
X154960000Y-121350000D03*
X157460000Y-121350000D03*
%TD*%
D15*
%TO.C,R7*%
X147060000Y-126650000D03*
X144135000Y-126650000D03*
%TD*%
D10*
%TO.C,D1*%
X161930000Y-122857500D03*
X161930000Y-120057500D03*
%TD*%
D16*
%TO.C,U1*%
X159600000Y-128450000D03*
D17*
X157060000Y-128450000D03*
X157060000Y-136070000D03*
X159600000Y-136070000D03*
%TD*%
D10*
%TO.C,D3*%
X130490000Y-127540000D03*
X130490000Y-124740000D03*
%TD*%
D18*
%TO.C,R8*%
X139110000Y-141425000D03*
X139110000Y-135500000D03*
%TD*%
D19*
%TO.C,LED_D1*%
X128615000Y-122880000D03*
X126865000Y-122880000D03*
%TD*%
D20*
%TO.C,Q2*%
X133310000Y-127760000D03*
D21*
X139610000Y-130040000D03*
D20*
X133310000Y-132320000D03*
%TD*%
%TO.C,Q1*%
X145155000Y-137085000D03*
D21*
X151455000Y-139365000D03*
D20*
X145155000Y-141645000D03*
%TD*%
D22*
%TO.C,J1*%
X135589939Y-121350000D03*
D23*
X138089939Y-121350000D03*
%TD*%
D18*
%TO.C,R5*%
X145820000Y-134835000D03*
X145820000Y-128910000D03*
%TD*%
D24*
%TO.C,C2*%
X123340000Y-130670000D03*
X123340000Y-138170000D03*
%TD*%
D25*
%TO.C,R6*%
X159527500Y-141430000D03*
X162452500Y-141430000D03*
%TD*%
D26*
%TO.C,R3*%
X135190000Y-135495000D03*
X135190000Y-141420000D03*
%TD*%
D27*
%TO.C,R1*%
X157660000Y-126340000D03*
X159310000Y-126340000D03*
%TD*%
D16*
%TO.C,U2*%
X149615000Y-134220000D03*
D17*
X152155000Y-134220000D03*
X152155000Y-126600000D03*
X149615000Y-126600000D03*
%TD*%
D28*
%TO.C,D4*%
X131110000Y-120090000D03*
X131110000Y-122890000D03*
%TD*%
D22*
%TO.C,sole1*%
X144000000Y-121350000D03*
D23*
X146500000Y-121350000D03*
%TD*%
D24*
%TO.C,C1*%
X169560001Y-130670001D03*
X169560001Y-138170001D03*
%TD*%
D29*
%TO.C,IN_1*%
X127704718Y-120076402D03*
%TD*%
%TO.C,OUT_1*%
X165204718Y-120076402D03*
%TD*%
%TO.C,IN_2*%
X127704718Y-137576402D03*
%TD*%
%TO.C,OUT_2*%
X165204718Y-137576402D03*
%TD*%
M02*
