G04 #@! TF.GenerationSoftware,KiCad,Pcbnew,8.0.3*
G04 #@! TF.CreationDate,2025-10-23T09:13:21+09:00*
G04 #@! TF.ProjectId,dcdc_V8,64636463-5f56-4382-9e6b-696361645f70,rev?*
G04 #@! TF.SameCoordinates,Original*
G04 #@! TF.FileFunction,Legend,Top*
G04 #@! TF.FilePolarity,Positive*
%FSLAX46Y46*%
G04 Gerber Fmt 4.6, Leading zero omitted, Abs format (unit mm)*
G04 Created by KiCad (PCBNEW 8.0.3) date 2025-10-23 09:13:21*
%MOMM*%
%LPD*%
G01*
G04 APERTURE LIST*
G04 Aperture macros list*
%AMRoundRect*
0 Rectangle with rounded corners*
0 $1 Rounding radius*
0 $2 $3 $4 $5 $6 $7 $8 $9 X,Y pos of 4 corners*
0 Add a 4 corners polygon primitive as box body*
4,1,4,$2,$3,$4,$5,$6,$7,$8,$9,$2,$3,0*
0 Add four circle primitives for the rounded corners*
1,1,$1+$1,$2,$3*
1,1,$1+$1,$4,$5*
1,1,$1+$1,$6,$7*
1,1,$1+$1,$8,$9*
0 Add four rect primitives between the rounded corners*
20,1,$1+$1,$2,$3,$4,$5,0*
20,1,$1+$1,$4,$5,$6,$7,0*
20,1,$1+$1,$6,$7,$8,$9,0*
20,1,$1+$1,$8,$9,$2,$3,0*%
G04 Aperture macros list end*
%ADD10C,0.170000*%
%ADD11C,0.150000*%
%ADD12C,0.120000*%
%ADD13C,0.127000*%
%ADD14C,0.200000*%
%ADD15RoundRect,0.237500X-0.287500X-0.237500X0.287500X-0.237500X0.287500X0.237500X-0.287500X0.237500X0*%
%ADD16RoundRect,0.250000X-0.600000X-0.725000X0.600000X-0.725000X0.600000X0.725000X-0.600000X0.725000X0*%
%ADD17O,1.700000X1.950000*%
%ADD18RoundRect,0.675000X0.530344X0.793716X-0.793716X0.530344X-0.530344X-0.793716X0.793716X-0.530344X0*%
%ADD19C,2.700000*%
%ADD20R,1.800000X1.800000*%
%ADD21O,1.800000X1.800000*%
%ADD22RoundRect,0.162500X0.162500X-0.612500X0.162500X0.612500X-0.162500X0.612500X-0.162500X-0.612500X0*%
%ADD23RoundRect,0.250000X0.850000X0.350000X-0.850000X0.350000X-0.850000X-0.350000X0.850000X-0.350000X0*%
%ADD24RoundRect,0.249997X2.950003X2.650003X-2.950003X2.650003X-2.950003X-2.650003X2.950003X-2.650003X0*%
%ADD25R,1.600000X1.600000*%
%ADD26C,1.600000*%
%ADD27O,1.600000X1.600000*%
%ADD28C,3.200000*%
%ADD29RoundRect,0.250000X-0.600000X-0.750000X0.600000X-0.750000X0.600000X0.750000X-0.600000X0.750000X0*%
%ADD30O,1.700000X2.000000*%
%ADD31R,3.250000X5.500000*%
%ADD32RoundRect,0.250000X-0.300000X0.300000X-0.300000X-0.300000X0.300000X-0.300000X0.300000X0.300000X0*%
%ADD33R,3.800000X3.800000*%
%ADD34C,3.800000*%
%ADD35RoundRect,0.237500X0.287500X0.237500X-0.287500X0.237500X-0.287500X-0.237500X0.287500X-0.237500X0*%
%ADD36RoundRect,0.150000X-0.825000X-0.150000X0.825000X-0.150000X0.825000X0.150000X-0.825000X0.150000X0*%
%ADD37C,0.480000*%
%ADD38RoundRect,0.102000X-0.275000X-0.575000X0.275000X-0.575000X0.275000X0.575000X-0.275000X0.575000X0*%
%ADD39RoundRect,0.102000X-0.125000X-0.575000X0.125000X-0.575000X0.125000X0.575000X-0.125000X0.575000X0*%
%ADD40O,1.204000X2.004000*%
%ADD41O,1.204000X2.304000*%
%ADD42RoundRect,0.250000X0.300000X-2.050000X0.300000X2.050000X-0.300000X2.050000X-0.300000X-2.050000X0*%
%ADD43RoundRect,0.250002X5.149998X-4.449998X5.149998X4.449998X-5.149998X4.449998X-5.149998X-4.449998X0*%
%ADD44R,1.700000X1.700000*%
%ADD45O,1.700000X1.700000*%
G04 APERTURE END LIST*
D10*
X134222318Y-87693255D02*
X134222318Y-87159921D01*
X134222318Y-87236112D02*
X134260413Y-87198017D01*
X134260413Y-87198017D02*
X134336603Y-87159921D01*
X134336603Y-87159921D02*
X134450889Y-87159921D01*
X134450889Y-87159921D02*
X134527080Y-87198017D01*
X134527080Y-87198017D02*
X134565175Y-87274207D01*
X134565175Y-87274207D02*
X134565175Y-87693255D01*
X134565175Y-87274207D02*
X134603270Y-87198017D01*
X134603270Y-87198017D02*
X134679461Y-87159921D01*
X134679461Y-87159921D02*
X134793746Y-87159921D01*
X134793746Y-87159921D02*
X134869937Y-87198017D01*
X134869937Y-87198017D02*
X134908032Y-87274207D01*
X134908032Y-87274207D02*
X134908032Y-87693255D01*
X135746128Y-87693255D02*
X135479461Y-87312302D01*
X135288985Y-87693255D02*
X135288985Y-86893255D01*
X135288985Y-86893255D02*
X135593747Y-86893255D01*
X135593747Y-86893255D02*
X135669937Y-86931350D01*
X135669937Y-86931350D02*
X135708032Y-86969445D01*
X135708032Y-86969445D02*
X135746128Y-87045636D01*
X135746128Y-87045636D02*
X135746128Y-87159921D01*
X135746128Y-87159921D02*
X135708032Y-87236112D01*
X135708032Y-87236112D02*
X135669937Y-87274207D01*
X135669937Y-87274207D02*
X135593747Y-87312302D01*
X135593747Y-87312302D02*
X135288985Y-87312302D01*
X136012794Y-86893255D02*
X136546128Y-87693255D01*
X136546128Y-86893255D02*
X136012794Y-87693255D01*
X137422318Y-86855160D02*
X136736604Y-87883731D01*
X137688985Y-87693255D02*
X137688985Y-87159921D01*
X137688985Y-87236112D02*
X137727080Y-87198017D01*
X137727080Y-87198017D02*
X137803270Y-87159921D01*
X137803270Y-87159921D02*
X137917556Y-87159921D01*
X137917556Y-87159921D02*
X137993747Y-87198017D01*
X137993747Y-87198017D02*
X138031842Y-87274207D01*
X138031842Y-87274207D02*
X138031842Y-87693255D01*
X138031842Y-87274207D02*
X138069937Y-87198017D01*
X138069937Y-87198017D02*
X138146128Y-87159921D01*
X138146128Y-87159921D02*
X138260413Y-87159921D01*
X138260413Y-87159921D02*
X138336604Y-87198017D01*
X138336604Y-87198017D02*
X138374699Y-87274207D01*
X138374699Y-87274207D02*
X138374699Y-87693255D01*
X138641366Y-86893255D02*
X139098509Y-86893255D01*
X138869937Y-87693255D02*
X138869937Y-86893255D01*
X139288985Y-86893255D02*
X139822319Y-87693255D01*
X139822319Y-86893255D02*
X139288985Y-87693255D01*
X110996320Y-101151216D02*
X110958225Y-101227406D01*
X110958225Y-101227406D02*
X110958225Y-101341692D01*
X110958225Y-101341692D02*
X110996320Y-101455978D01*
X110996320Y-101455978D02*
X111072510Y-101532168D01*
X111072510Y-101532168D02*
X111148701Y-101570263D01*
X111148701Y-101570263D02*
X111301082Y-101608359D01*
X111301082Y-101608359D02*
X111415368Y-101608359D01*
X111415368Y-101608359D02*
X111567749Y-101570263D01*
X111567749Y-101570263D02*
X111643939Y-101532168D01*
X111643939Y-101532168D02*
X111720130Y-101455978D01*
X111720130Y-101455978D02*
X111758225Y-101341692D01*
X111758225Y-101341692D02*
X111758225Y-101265501D01*
X111758225Y-101265501D02*
X111720130Y-101151216D01*
X111720130Y-101151216D02*
X111682034Y-101113120D01*
X111682034Y-101113120D02*
X111415368Y-101113120D01*
X111415368Y-101113120D02*
X111415368Y-101265501D01*
X111758225Y-100770263D02*
X110958225Y-100770263D01*
X110958225Y-100770263D02*
X111758225Y-100313120D01*
X111758225Y-100313120D02*
X110958225Y-100313120D01*
X111758225Y-99932168D02*
X110958225Y-99932168D01*
X110958225Y-99932168D02*
X110958225Y-99741692D01*
X110958225Y-99741692D02*
X110996320Y-99627406D01*
X110996320Y-99627406D02*
X111072510Y-99551216D01*
X111072510Y-99551216D02*
X111148701Y-99513121D01*
X111148701Y-99513121D02*
X111301082Y-99475025D01*
X111301082Y-99475025D02*
X111415368Y-99475025D01*
X111415368Y-99475025D02*
X111567749Y-99513121D01*
X111567749Y-99513121D02*
X111643939Y-99551216D01*
X111643939Y-99551216D02*
X111720130Y-99627406D01*
X111720130Y-99627406D02*
X111758225Y-99741692D01*
X111758225Y-99741692D02*
X111758225Y-99932168D01*
X110920130Y-98560740D02*
X111948701Y-99246454D01*
X111453463Y-98294073D02*
X111453463Y-97684550D01*
X111758225Y-97989311D02*
X111148701Y-97989311D01*
X111758225Y-96884550D02*
X111758225Y-97341693D01*
X111758225Y-97113121D02*
X110958225Y-97113121D01*
X110958225Y-97113121D02*
X111072510Y-97189312D01*
X111072510Y-97189312D02*
X111148701Y-97265502D01*
X111148701Y-97265502D02*
X111186796Y-97341693D01*
X111034415Y-96579788D02*
X110996320Y-96541692D01*
X110996320Y-96541692D02*
X110958225Y-96465502D01*
X110958225Y-96465502D02*
X110958225Y-96275026D01*
X110958225Y-96275026D02*
X110996320Y-96198835D01*
X110996320Y-96198835D02*
X111034415Y-96160740D01*
X111034415Y-96160740D02*
X111110606Y-96122645D01*
X111110606Y-96122645D02*
X111186796Y-96122645D01*
X111186796Y-96122645D02*
X111301082Y-96160740D01*
X111301082Y-96160740D02*
X111758225Y-96617883D01*
X111758225Y-96617883D02*
X111758225Y-96122645D01*
X111224891Y-95855978D02*
X111758225Y-95665502D01*
X111758225Y-95665502D02*
X111224891Y-95475025D01*
X121652318Y-87388493D02*
X122261842Y-87388493D01*
X121957080Y-87693255D02*
X121957080Y-87083731D01*
X123061841Y-87693255D02*
X122604698Y-87693255D01*
X122833270Y-87693255D02*
X122833270Y-86893255D01*
X122833270Y-86893255D02*
X122757079Y-87007540D01*
X122757079Y-87007540D02*
X122680889Y-87083731D01*
X122680889Y-87083731D02*
X122604698Y-87121826D01*
X123366603Y-86969445D02*
X123404699Y-86931350D01*
X123404699Y-86931350D02*
X123480889Y-86893255D01*
X123480889Y-86893255D02*
X123671365Y-86893255D01*
X123671365Y-86893255D02*
X123747556Y-86931350D01*
X123747556Y-86931350D02*
X123785651Y-86969445D01*
X123785651Y-86969445D02*
X123823746Y-87045636D01*
X123823746Y-87045636D02*
X123823746Y-87121826D01*
X123823746Y-87121826D02*
X123785651Y-87236112D01*
X123785651Y-87236112D02*
X123328508Y-87693255D01*
X123328508Y-87693255D02*
X123823746Y-87693255D01*
X124090413Y-87159921D02*
X124280889Y-87693255D01*
X124280889Y-87693255D02*
X124471366Y-87159921D01*
X125347556Y-86855160D02*
X124661842Y-87883731D01*
X125614223Y-87388493D02*
X126223747Y-87388493D01*
X125918985Y-87693255D02*
X125918985Y-87083731D01*
X126528508Y-86893255D02*
X127023746Y-86893255D01*
X127023746Y-86893255D02*
X126757080Y-87198017D01*
X126757080Y-87198017D02*
X126871365Y-87198017D01*
X126871365Y-87198017D02*
X126947556Y-87236112D01*
X126947556Y-87236112D02*
X126985651Y-87274207D01*
X126985651Y-87274207D02*
X127023746Y-87350398D01*
X127023746Y-87350398D02*
X127023746Y-87540874D01*
X127023746Y-87540874D02*
X126985651Y-87617064D01*
X126985651Y-87617064D02*
X126947556Y-87655160D01*
X126947556Y-87655160D02*
X126871365Y-87693255D01*
X126871365Y-87693255D02*
X126642794Y-87693255D01*
X126642794Y-87693255D02*
X126566603Y-87655160D01*
X126566603Y-87655160D02*
X126528508Y-87617064D01*
X127290413Y-87159921D02*
X127480889Y-87693255D01*
X127480889Y-87693255D02*
X127671366Y-87159921D01*
X127899937Y-86893255D02*
X128395175Y-86893255D01*
X128395175Y-86893255D02*
X128128509Y-87198017D01*
X128128509Y-87198017D02*
X128242794Y-87198017D01*
X128242794Y-87198017D02*
X128318985Y-87236112D01*
X128318985Y-87236112D02*
X128357080Y-87274207D01*
X128357080Y-87274207D02*
X128395175Y-87350398D01*
X128395175Y-87350398D02*
X128395175Y-87540874D01*
X128395175Y-87540874D02*
X128357080Y-87617064D01*
X128357080Y-87617064D02*
X128318985Y-87655160D01*
X128318985Y-87655160D02*
X128242794Y-87693255D01*
X128242794Y-87693255D02*
X128014223Y-87693255D01*
X128014223Y-87693255D02*
X127938032Y-87655160D01*
X127938032Y-87655160D02*
X127899937Y-87617064D01*
X129309461Y-86855160D02*
X128623747Y-87883731D01*
X129995175Y-86931350D02*
X129918985Y-86893255D01*
X129918985Y-86893255D02*
X129804699Y-86893255D01*
X129804699Y-86893255D02*
X129690413Y-86931350D01*
X129690413Y-86931350D02*
X129614223Y-87007540D01*
X129614223Y-87007540D02*
X129576128Y-87083731D01*
X129576128Y-87083731D02*
X129538032Y-87236112D01*
X129538032Y-87236112D02*
X129538032Y-87350398D01*
X129538032Y-87350398D02*
X129576128Y-87502779D01*
X129576128Y-87502779D02*
X129614223Y-87578969D01*
X129614223Y-87578969D02*
X129690413Y-87655160D01*
X129690413Y-87655160D02*
X129804699Y-87693255D01*
X129804699Y-87693255D02*
X129880890Y-87693255D01*
X129880890Y-87693255D02*
X129995175Y-87655160D01*
X129995175Y-87655160D02*
X130033271Y-87617064D01*
X130033271Y-87617064D02*
X130033271Y-87350398D01*
X130033271Y-87350398D02*
X129880890Y-87350398D01*
X130376128Y-87693255D02*
X130376128Y-86893255D01*
X130376128Y-86893255D02*
X130833271Y-87693255D01*
X130833271Y-87693255D02*
X130833271Y-86893255D01*
X131214223Y-87693255D02*
X131214223Y-86893255D01*
X131214223Y-86893255D02*
X131404699Y-86893255D01*
X131404699Y-86893255D02*
X131518985Y-86931350D01*
X131518985Y-86931350D02*
X131595175Y-87007540D01*
X131595175Y-87007540D02*
X131633270Y-87083731D01*
X131633270Y-87083731D02*
X131671366Y-87236112D01*
X131671366Y-87236112D02*
X131671366Y-87350398D01*
X131671366Y-87350398D02*
X131633270Y-87502779D01*
X131633270Y-87502779D02*
X131595175Y-87578969D01*
X131595175Y-87578969D02*
X131518985Y-87655160D01*
X131518985Y-87655160D02*
X131404699Y-87693255D01*
X131404699Y-87693255D02*
X131214223Y-87693255D01*
D11*
X180578571Y-83214700D02*
X181721429Y-83214700D01*
X181150000Y-83786128D02*
X181150000Y-82643271D01*
D12*
G04 #@! TO.C,D3*
X150085000Y-109255000D02*
X150085000Y-110725000D01*
X150085000Y-110725000D02*
X152545000Y-110725000D01*
X152545000Y-109255000D02*
X150085000Y-109255000D01*
G04 #@! TO.C,MDR_1*
X121530000Y-80295000D02*
X121530000Y-81545000D01*
X121820000Y-80585000D02*
X121820000Y-86555000D01*
X121820000Y-86555000D02*
X131940000Y-86555000D01*
X121830000Y-80595000D02*
X121830000Y-81345000D01*
X121830000Y-81345000D02*
X123630000Y-81345000D01*
X121830000Y-82845000D02*
X122580000Y-82845000D01*
X122580000Y-82845000D02*
X122580000Y-85795000D01*
X122580000Y-85795000D02*
X126880000Y-85795000D01*
X122780000Y-80295000D02*
X121530000Y-80295000D01*
X123630000Y-80595000D02*
X121830000Y-80595000D01*
X123630000Y-81345000D02*
X123630000Y-80595000D01*
X125130000Y-80595000D02*
X125130000Y-81345000D01*
X125130000Y-81345000D02*
X128630000Y-81345000D01*
X128630000Y-80595000D02*
X125130000Y-80595000D01*
X128630000Y-81345000D02*
X128630000Y-80595000D01*
X130130000Y-80595000D02*
X130130000Y-81345000D01*
X130130000Y-81345000D02*
X131930000Y-81345000D01*
X131180000Y-82845000D02*
X131180000Y-85795000D01*
X131180000Y-85795000D02*
X126880000Y-85795000D01*
X131930000Y-80595000D02*
X130130000Y-80595000D01*
X131930000Y-81345000D02*
X131930000Y-80595000D01*
X131930000Y-82845000D02*
X131180000Y-82845000D01*
X131940000Y-80585000D02*
X121820000Y-80585000D01*
X131940000Y-86555000D02*
X131940000Y-80585000D01*
G04 #@! TO.C,F1*
X157854982Y-114805265D02*
X157547715Y-113260528D01*
X158479271Y-117943778D02*
X158786538Y-119488515D01*
X158786538Y-119488515D02*
X164916446Y-118269200D01*
X163677623Y-112041215D02*
X157547715Y-113260528D01*
X163677623Y-112041215D02*
X163984890Y-113585950D01*
X163809309Y-112703244D02*
X173715240Y-110732831D01*
X164784760Y-117607170D02*
X174690692Y-115636758D01*
X164916446Y-118269200D02*
X164609179Y-116724463D01*
X173583554Y-110070801D02*
X173851803Y-111419381D01*
X173583554Y-110070801D02*
X179713462Y-108851487D01*
X174822378Y-116298788D02*
X174554128Y-114950208D01*
X174822378Y-116298788D02*
X180952287Y-115079473D01*
X179713462Y-108851487D02*
X179981711Y-110200067D01*
X180952287Y-115079473D02*
X180684036Y-113730894D01*
G04 #@! TO.C,SBD1*
X157280000Y-90750000D02*
X157280000Y-96190000D01*
X157280000Y-95170000D02*
X160220000Y-95170000D01*
X157280000Y-95290000D02*
X160220000Y-95290000D01*
X157280000Y-95410000D02*
X160220000Y-95410000D01*
X157280000Y-96190000D02*
X160220000Y-96190000D01*
X158750000Y-89530000D02*
X158750000Y-90750000D01*
X158750000Y-97410000D02*
X158750000Y-96190000D01*
X160220000Y-90750000D02*
X157280000Y-90750000D01*
X160220000Y-96190000D02*
X160220000Y-90750000D01*
G04 #@! TO.C,Q1*
X177250000Y-98770000D02*
X183670000Y-98770000D01*
X177250000Y-105670000D02*
X183670000Y-105670000D01*
X183670000Y-98770000D02*
X183670000Y-99040000D01*
X183670000Y-105670000D02*
X183670000Y-105400000D01*
X185330000Y-105690000D02*
X184850000Y-105690000D01*
X185090000Y-105360000D01*
X185330000Y-105690000D01*
G36*
X185330000Y-105690000D02*
G01*
X184850000Y-105690000D01*
X185090000Y-105360000D01*
X185330000Y-105690000D01*
G37*
G04 #@! TO.C,C12*
X122385225Y-101605000D02*
X122885225Y-101605000D01*
X122635225Y-101355000D02*
X122635225Y-101855000D01*
X125190000Y-100500000D02*
X125190000Y-102040000D01*
X125190000Y-104120000D02*
X125190000Y-105660000D01*
X125230000Y-100500000D02*
X125230000Y-102040000D01*
X125230000Y-104120000D02*
X125230000Y-105660000D01*
X125270000Y-100501000D02*
X125270000Y-102040000D01*
X125270000Y-104120000D02*
X125270000Y-105659000D01*
X125310000Y-100502000D02*
X125310000Y-102040000D01*
X125310000Y-104120000D02*
X125310000Y-105658000D01*
X125350000Y-100504000D02*
X125350000Y-102040000D01*
X125350000Y-104120000D02*
X125350000Y-105656000D01*
X125390000Y-100507000D02*
X125390000Y-102040000D01*
X125390000Y-104120000D02*
X125390000Y-105653000D01*
X125430000Y-100511000D02*
X125430000Y-102040000D01*
X125430000Y-104120000D02*
X125430000Y-105649000D01*
X125470000Y-100515000D02*
X125470000Y-102040000D01*
X125470000Y-104120000D02*
X125470000Y-105645000D01*
X125510000Y-100519000D02*
X125510000Y-102040000D01*
X125510000Y-104120000D02*
X125510000Y-105641000D01*
X125550000Y-100524000D02*
X125550000Y-102040000D01*
X125550000Y-104120000D02*
X125550000Y-105636000D01*
X125590000Y-100530000D02*
X125590000Y-102040000D01*
X125590000Y-104120000D02*
X125590000Y-105630000D01*
X125630000Y-100537000D02*
X125630000Y-102040000D01*
X125630000Y-104120000D02*
X125630000Y-105623000D01*
X125670000Y-100544000D02*
X125670000Y-102040000D01*
X125670000Y-104120000D02*
X125670000Y-105616000D01*
X125710000Y-100552000D02*
X125710000Y-102040000D01*
X125710000Y-104120000D02*
X125710000Y-105608000D01*
X125750000Y-100560000D02*
X125750000Y-102040000D01*
X125750000Y-104120000D02*
X125750000Y-105600000D01*
X125790000Y-100569000D02*
X125790000Y-102040000D01*
X125790000Y-104120000D02*
X125790000Y-105591000D01*
X125830000Y-100579000D02*
X125830000Y-102040000D01*
X125830000Y-104120000D02*
X125830000Y-105581000D01*
X125870000Y-100589000D02*
X125870000Y-102040000D01*
X125870000Y-104120000D02*
X125870000Y-105571000D01*
X125911000Y-100600000D02*
X125911000Y-102040000D01*
X125911000Y-104120000D02*
X125911000Y-105560000D01*
X125951000Y-100612000D02*
X125951000Y-102040000D01*
X125951000Y-104120000D02*
X125951000Y-105548000D01*
X125991000Y-100625000D02*
X125991000Y-102040000D01*
X125991000Y-104120000D02*
X125991000Y-105535000D01*
X126031000Y-100638000D02*
X126031000Y-102040000D01*
X126031000Y-104120000D02*
X126031000Y-105522000D01*
X126071000Y-100652000D02*
X126071000Y-102040000D01*
X126071000Y-104120000D02*
X126071000Y-105508000D01*
X126111000Y-100666000D02*
X126111000Y-102040000D01*
X126111000Y-104120000D02*
X126111000Y-105494000D01*
X126151000Y-100682000D02*
X126151000Y-102040000D01*
X126151000Y-104120000D02*
X126151000Y-105478000D01*
X126191000Y-100698000D02*
X126191000Y-102040000D01*
X126191000Y-104120000D02*
X126191000Y-105462000D01*
X126231000Y-100715000D02*
X126231000Y-102040000D01*
X126231000Y-104120000D02*
X126231000Y-105445000D01*
X126271000Y-100732000D02*
X126271000Y-102040000D01*
X126271000Y-104120000D02*
X126271000Y-105428000D01*
X126311000Y-100751000D02*
X126311000Y-102040000D01*
X126311000Y-104120000D02*
X126311000Y-105409000D01*
X126351000Y-100770000D02*
X126351000Y-102040000D01*
X126351000Y-104120000D02*
X126351000Y-105390000D01*
X126391000Y-100790000D02*
X126391000Y-102040000D01*
X126391000Y-104120000D02*
X126391000Y-105370000D01*
X126431000Y-100812000D02*
X126431000Y-102040000D01*
X126431000Y-104120000D02*
X126431000Y-105348000D01*
X126471000Y-100833000D02*
X126471000Y-102040000D01*
X126471000Y-104120000D02*
X126471000Y-105327000D01*
X126511000Y-100856000D02*
X126511000Y-102040000D01*
X126511000Y-104120000D02*
X126511000Y-105304000D01*
X126551000Y-100880000D02*
X126551000Y-102040000D01*
X126551000Y-104120000D02*
X126551000Y-105280000D01*
X126591000Y-100905000D02*
X126591000Y-102040000D01*
X126591000Y-104120000D02*
X126591000Y-105255000D01*
X126631000Y-100931000D02*
X126631000Y-102040000D01*
X126631000Y-104120000D02*
X126631000Y-105229000D01*
X126671000Y-100958000D02*
X126671000Y-102040000D01*
X126671000Y-104120000D02*
X126671000Y-105202000D01*
X126711000Y-100985000D02*
X126711000Y-102040000D01*
X126711000Y-104120000D02*
X126711000Y-105175000D01*
X126751000Y-101015000D02*
X126751000Y-102040000D01*
X126751000Y-104120000D02*
X126751000Y-105145000D01*
X126791000Y-101045000D02*
X126791000Y-102040000D01*
X126791000Y-104120000D02*
X126791000Y-105115000D01*
X126831000Y-101076000D02*
X126831000Y-102040000D01*
X126831000Y-104120000D02*
X126831000Y-105084000D01*
X126871000Y-101109000D02*
X126871000Y-102040000D01*
X126871000Y-104120000D02*
X126871000Y-105051000D01*
X126911000Y-101143000D02*
X126911000Y-102040000D01*
X126911000Y-104120000D02*
X126911000Y-105017000D01*
X126951000Y-101179000D02*
X126951000Y-102040000D01*
X126951000Y-104120000D02*
X126951000Y-104981000D01*
X126991000Y-101216000D02*
X126991000Y-102040000D01*
X126991000Y-104120000D02*
X126991000Y-104944000D01*
X127031000Y-101254000D02*
X127031000Y-102040000D01*
X127031000Y-104120000D02*
X127031000Y-104906000D01*
X127071000Y-101295000D02*
X127071000Y-102040000D01*
X127071000Y-104120000D02*
X127071000Y-104865000D01*
X127111000Y-101337000D02*
X127111000Y-102040000D01*
X127111000Y-104120000D02*
X127111000Y-104823000D01*
X127151000Y-101381000D02*
X127151000Y-102040000D01*
X127151000Y-104120000D02*
X127151000Y-104779000D01*
X127191000Y-101427000D02*
X127191000Y-102040000D01*
X127191000Y-104120000D02*
X127191000Y-104733000D01*
X127231000Y-101475000D02*
X127231000Y-104685000D01*
X127271000Y-101526000D02*
X127271000Y-104634000D01*
X127311000Y-101580000D02*
X127311000Y-104580000D01*
X127351000Y-101637000D02*
X127351000Y-104523000D01*
X127391000Y-101697000D02*
X127391000Y-104463000D01*
X127431000Y-101761000D02*
X127431000Y-104399000D01*
X127471000Y-101829000D02*
X127471000Y-104331000D01*
X127511000Y-101902000D02*
X127511000Y-104258000D01*
X127551000Y-101982000D02*
X127551000Y-104178000D01*
X127591000Y-102069000D02*
X127591000Y-104091000D01*
X127631000Y-102165000D02*
X127631000Y-103995000D01*
X127671000Y-102275000D02*
X127671000Y-103885000D01*
X127711000Y-102403000D02*
X127711000Y-103757000D01*
X127751000Y-102562000D02*
X127751000Y-103598000D01*
X127791000Y-102796000D02*
X127791000Y-103364000D01*
X127810000Y-103080000D02*
G75*
G02*
X122570000Y-103080000I-2620000J0D01*
G01*
X122570000Y-103080000D02*
G75*
G02*
X127810000Y-103080000I2620000J0D01*
G01*
G04 #@! TO.C,R2*
X157380000Y-102870000D02*
X157380000Y-109410000D01*
X157380000Y-109410000D02*
X160120000Y-109410000D01*
X158750000Y-102100000D02*
X158750000Y-102870000D01*
X158750000Y-110180000D02*
X158750000Y-109410000D01*
X160120000Y-102870000D02*
X157380000Y-102870000D01*
X160120000Y-109410000D02*
X160120000Y-102870000D01*
G04 #@! TO.C,U3*
X120955000Y-108425000D02*
X127375000Y-108425000D01*
X120955000Y-115325000D02*
X127375000Y-115325000D01*
X127375000Y-108425000D02*
X127375000Y-108695000D01*
X127375000Y-115325000D02*
X127375000Y-115055000D01*
X129035000Y-115345000D02*
X128555000Y-115345000D01*
X128795000Y-115015000D01*
X129035000Y-115345000D01*
G36*
X129035000Y-115345000D02*
G01*
X128555000Y-115345000D01*
X128795000Y-115015000D01*
X129035000Y-115345000D01*
G37*
G04 #@! TO.C,Line_1*
X159780000Y-80280000D02*
X159780000Y-81530000D01*
X160070000Y-80570000D02*
X160070000Y-86540000D01*
X160070000Y-86540000D02*
X167690000Y-86540000D01*
X160080000Y-80580000D02*
X160080000Y-81330000D01*
X160080000Y-81330000D02*
X161880000Y-81330000D01*
X160080000Y-82830000D02*
X160830000Y-82830000D01*
X160830000Y-82830000D02*
X160830000Y-85780000D01*
X160830000Y-85780000D02*
X163880000Y-85780000D01*
X161030000Y-80280000D02*
X159780000Y-80280000D01*
X161880000Y-80580000D02*
X160080000Y-80580000D01*
X161880000Y-81330000D02*
X161880000Y-80580000D01*
X163380000Y-80580000D02*
X163380000Y-81330000D01*
X163380000Y-81330000D02*
X164380000Y-81330000D01*
X164380000Y-80580000D02*
X163380000Y-80580000D01*
X164380000Y-81330000D02*
X164380000Y-80580000D01*
X165880000Y-80580000D02*
X165880000Y-81330000D01*
X165880000Y-81330000D02*
X167680000Y-81330000D01*
X166930000Y-82830000D02*
X166930000Y-85780000D01*
X166930000Y-85780000D02*
X163880000Y-85780000D01*
X167680000Y-80580000D02*
X165880000Y-80580000D01*
X167680000Y-81330000D02*
X167680000Y-80580000D01*
X167680000Y-82830000D02*
X166930000Y-82830000D01*
X167690000Y-80570000D02*
X160070000Y-80570000D01*
X167690000Y-86540000D02*
X167690000Y-80570000D01*
G04 #@! TO.C,L1*
X141145000Y-87360000D02*
X141145000Y-91010000D01*
X141145000Y-100680000D02*
X141145000Y-97030000D01*
X155115000Y-87360000D02*
X141145000Y-87360000D01*
X155115000Y-87360000D02*
X155115000Y-91010000D01*
X155115000Y-100680000D02*
X141145000Y-100680000D01*
X155115000Y-100680000D02*
X155115000Y-97030000D01*
G04 #@! TO.C,C2*
X126270000Y-93570000D02*
G75*
G02*
X116030000Y-93570000I-5120000J0D01*
G01*
X116030000Y-93570000D02*
G75*
G02*
X126270000Y-93570000I5120000J0D01*
G01*
G04 #@! TO.C,R4*
X144450000Y-102670000D02*
X145220000Y-102670000D01*
X145220000Y-101300000D02*
X145220000Y-104040000D01*
X145220000Y-104040000D02*
X151760000Y-104040000D01*
X151760000Y-101300000D02*
X145220000Y-101300000D01*
X151760000Y-104040000D02*
X151760000Y-101300000D01*
X152530000Y-102670000D02*
X151760000Y-102670000D01*
G04 #@! TO.C,R1*
X178460000Y-96450000D02*
X179230000Y-96450000D01*
X179230000Y-95080000D02*
X179230000Y-97820000D01*
X179230000Y-97820000D02*
X185770000Y-97820000D01*
X185770000Y-95080000D02*
X179230000Y-95080000D01*
X185770000Y-97820000D02*
X185770000Y-95080000D01*
X186540000Y-96450000D02*
X185770000Y-96450000D01*
G04 #@! TO.C,D1*
X187200000Y-100090000D02*
X187200000Y-103950000D01*
X189200000Y-100090000D02*
X187200000Y-100090000D01*
X189200000Y-100090000D02*
X189200000Y-103950000D01*
G04 #@! TO.C,LiPo_1*
X169440000Y-81690000D02*
X169440000Y-84510000D01*
X169440000Y-81690000D02*
X171140000Y-80390000D01*
X169440000Y-84510000D02*
X171140000Y-85810000D01*
X171140000Y-80390000D02*
X179860000Y-80390000D01*
X171140000Y-85810000D02*
X179860000Y-85810000D01*
X179860000Y-80390000D02*
X179860000Y-85810000D01*
G04 #@! TO.C,D5*
X147455000Y-110725000D02*
X149915000Y-110725000D01*
X149915000Y-109255000D02*
X147455000Y-109255000D01*
X149915000Y-110725000D02*
X149915000Y-109255000D01*
G04 #@! TO.C,U4*
X135630000Y-108275000D02*
X133680000Y-108275000D01*
X135630000Y-108275000D02*
X137580000Y-108275000D01*
X135630000Y-117145000D02*
X133680000Y-117145000D01*
X135630000Y-117145000D02*
X137580000Y-117145000D01*
X132930000Y-108340000D02*
X132690000Y-108010000D01*
X133170000Y-108010000D01*
X132930000Y-108340000D01*
G36*
X132930000Y-108340000D02*
G01*
X132690000Y-108010000D01*
X133170000Y-108010000D01*
X132930000Y-108340000D01*
G37*
G04 #@! TO.C,main_psu1*
X141880000Y-80305000D02*
X141880000Y-81555000D01*
X142170000Y-80595000D02*
X142170000Y-86565000D01*
X142170000Y-86565000D02*
X149790000Y-86565000D01*
X142180000Y-80605000D02*
X142180000Y-81355000D01*
X142180000Y-81355000D02*
X143980000Y-81355000D01*
X142180000Y-82855000D02*
X142930000Y-82855000D01*
X142930000Y-82855000D02*
X142930000Y-85805000D01*
X142930000Y-85805000D02*
X145980000Y-85805000D01*
X143130000Y-80305000D02*
X141880000Y-80305000D01*
X143980000Y-80605000D02*
X142180000Y-80605000D01*
X143980000Y-81355000D02*
X143980000Y-80605000D01*
X145480000Y-80605000D02*
X145480000Y-81355000D01*
X145480000Y-81355000D02*
X146480000Y-81355000D01*
X146480000Y-80605000D02*
X145480000Y-80605000D01*
X146480000Y-81355000D02*
X146480000Y-80605000D01*
X147980000Y-80605000D02*
X147980000Y-81355000D01*
X147980000Y-81355000D02*
X149780000Y-81355000D01*
X149030000Y-82855000D02*
X149030000Y-85805000D01*
X149030000Y-85805000D02*
X145980000Y-85805000D01*
X149780000Y-80605000D02*
X147980000Y-80605000D01*
X149780000Y-81355000D02*
X149780000Y-80605000D01*
X149780000Y-82855000D02*
X149030000Y-82855000D01*
X149790000Y-80595000D02*
X142170000Y-80595000D01*
X149790000Y-86565000D02*
X149790000Y-80595000D01*
G04 #@! TO.C,UI_1*
X150840000Y-80295000D02*
X150840000Y-81545000D01*
X151130000Y-80585000D02*
X151130000Y-86555000D01*
X151130000Y-86555000D02*
X158750000Y-86555000D01*
X151140000Y-80595000D02*
X151140000Y-81345000D01*
X151140000Y-81345000D02*
X152940000Y-81345000D01*
X151140000Y-82845000D02*
X151890000Y-82845000D01*
X151890000Y-82845000D02*
X151890000Y-85795000D01*
X151890000Y-85795000D02*
X154940000Y-85795000D01*
X152090000Y-80295000D02*
X150840000Y-80295000D01*
X152940000Y-80595000D02*
X151140000Y-80595000D01*
X152940000Y-81345000D02*
X152940000Y-80595000D01*
X154440000Y-80595000D02*
X154440000Y-81345000D01*
X154440000Y-81345000D02*
X155440000Y-81345000D01*
X155440000Y-80595000D02*
X154440000Y-80595000D01*
X155440000Y-81345000D02*
X155440000Y-80595000D01*
X156940000Y-80595000D02*
X156940000Y-81345000D01*
X156940000Y-81345000D02*
X158740000Y-81345000D01*
X157990000Y-82845000D02*
X157990000Y-85795000D01*
X157990000Y-85795000D02*
X154940000Y-85795000D01*
X158740000Y-80595000D02*
X156940000Y-80595000D01*
X158740000Y-81345000D02*
X158740000Y-80595000D01*
X158740000Y-82845000D02*
X157990000Y-82845000D01*
X158750000Y-80585000D02*
X151130000Y-80585000D01*
X158750000Y-86555000D02*
X158750000Y-80585000D01*
D13*
G04 #@! TO.C,J1*
X145530000Y-116560000D02*
X145530000Y-114970000D01*
X145530000Y-120380000D02*
X145530000Y-119000000D01*
X154470000Y-116560000D02*
X154470000Y-114970000D01*
X154470000Y-120380000D02*
X145530000Y-120380000D01*
X154470000Y-120380000D02*
X154470000Y-119000000D01*
D14*
X146900000Y-111780000D02*
G75*
G02*
X146700000Y-111780000I-100000J0D01*
G01*
X146700000Y-111780000D02*
G75*
G02*
X146900000Y-111780000I100000J0D01*
G01*
D12*
G04 #@! TO.C,R5*
X144420000Y-105840000D02*
X145190000Y-105840000D01*
X145190000Y-104470000D02*
X145190000Y-107210000D01*
X145190000Y-107210000D02*
X151730000Y-107210000D01*
X151730000Y-104470000D02*
X145190000Y-104470000D01*
X151730000Y-107210000D02*
X151730000Y-104470000D01*
X152500000Y-105840000D02*
X151730000Y-105840000D01*
G04 #@! TO.C,U1*
X128715000Y-97800000D02*
X128715000Y-99300000D01*
X128715000Y-99300000D02*
X129665000Y-99300000D01*
X139115000Y-97800000D02*
X139115000Y-99300000D01*
X139115000Y-99300000D02*
X138165000Y-99300000D01*
X129665000Y-101862500D02*
X129335000Y-102102500D01*
X129335000Y-101622500D01*
X129665000Y-101862500D01*
G36*
X129665000Y-101862500D02*
G01*
X129335000Y-102102500D01*
X129335000Y-101622500D01*
X129665000Y-101862500D01*
G37*
G04 #@! TO.C,C1*
X121910000Y-103100000D02*
G75*
G02*
X115370000Y-103100000I-3270000J0D01*
G01*
X115370000Y-103100000D02*
G75*
G02*
X121910000Y-103100000I3270000J0D01*
G01*
G04 #@! TO.C,SW1*
X175895000Y-91570000D02*
X175895000Y-94170000D01*
X175895000Y-91570000D02*
X178555000Y-91570000D01*
X175895000Y-94170000D02*
X178555000Y-94170000D01*
X177225000Y-88970000D02*
X178555000Y-88970000D01*
X178555000Y-88970000D02*
X178555000Y-90300000D01*
X178555000Y-91570000D02*
X178555000Y-94170000D01*
G04 #@! TO.C,OLED_1*
X112184970Y-98612582D02*
X112184970Y-101212582D01*
X112184970Y-98612582D02*
X114844970Y-98612582D01*
X112184970Y-101212582D02*
X114844970Y-101212582D01*
X113514970Y-96012582D02*
X114844970Y-96012582D01*
X114844970Y-96012582D02*
X114844970Y-97342582D01*
X114844970Y-98612582D02*
X114844970Y-101212582D01*
G04 #@! TO.C,main_uart1*
X132970000Y-80305000D02*
X132970000Y-81555000D01*
X133260000Y-80595000D02*
X133260000Y-86565000D01*
X133260000Y-86565000D02*
X140880000Y-86565000D01*
X133270000Y-80605000D02*
X133270000Y-81355000D01*
X133270000Y-81355000D02*
X135070000Y-81355000D01*
X133270000Y-82855000D02*
X134020000Y-82855000D01*
X134020000Y-82855000D02*
X134020000Y-85805000D01*
X134020000Y-85805000D02*
X137070000Y-85805000D01*
X134220000Y-80305000D02*
X132970000Y-80305000D01*
X135070000Y-80605000D02*
X133270000Y-80605000D01*
X135070000Y-81355000D02*
X135070000Y-80605000D01*
X136570000Y-80605000D02*
X136570000Y-81355000D01*
X136570000Y-81355000D02*
X137570000Y-81355000D01*
X137570000Y-80605000D02*
X136570000Y-80605000D01*
X137570000Y-81355000D02*
X137570000Y-80605000D01*
X139070000Y-80605000D02*
X139070000Y-81355000D01*
X139070000Y-81355000D02*
X140870000Y-81355000D01*
X140120000Y-82855000D02*
X140120000Y-85805000D01*
X140120000Y-85805000D02*
X137070000Y-85805000D01*
X140870000Y-80605000D02*
X139070000Y-80605000D01*
X140870000Y-81355000D02*
X140870000Y-80605000D01*
X140870000Y-82855000D02*
X140120000Y-82855000D01*
X140880000Y-80595000D02*
X133260000Y-80595000D01*
X140880000Y-86565000D02*
X140880000Y-80595000D01*
G04 #@! TD*
%LPC*%
D15*
G04 #@! TO.C,D3*
X150870000Y-109990000D03*
X152620000Y-109990000D03*
G04 #@! TD*
D16*
G04 #@! TO.C,MDR_1*
X124380000Y-83045000D03*
D17*
X126880000Y-83045000D03*
X129380000Y-83045000D03*
G04 #@! TD*
D18*
G04 #@! TO.C,F1*
X180582974Y-111915732D03*
X173952866Y-113234544D03*
D19*
X164547135Y-115105459D03*
X157917026Y-116424269D03*
G04 #@! TD*
D20*
G04 #@! TO.C,SBD1*
X158750000Y-98550000D03*
D21*
X158750000Y-88390000D03*
G04 #@! TD*
D22*
G04 #@! TO.C,SW2*
X141500000Y-116310000D03*
X141500000Y-111660000D03*
X143650000Y-116310000D03*
X143650000Y-111660000D03*
G04 #@! TD*
D23*
G04 #@! TO.C,Q1*
X185400000Y-104500000D03*
D24*
X179100000Y-102220000D03*
D23*
X185400000Y-99940000D03*
G04 #@! TD*
D25*
G04 #@! TO.C,C12*
X124190000Y-103080000D03*
D26*
X126190000Y-103080000D03*
G04 #@! TD*
G04 #@! TO.C,R2*
X158750000Y-101060000D03*
D27*
X158750000Y-111220000D03*
G04 #@! TD*
D28*
G04 #@! TO.C,H4*
X185909210Y-110417583D03*
G04 #@! TD*
D23*
G04 #@! TO.C,U3*
X129105000Y-114155000D03*
D24*
X122805000Y-111875000D03*
D23*
X129105000Y-109595000D03*
G04 #@! TD*
D28*
G04 #@! TO.C,H4*
X185909210Y-87875465D03*
G04 #@! TD*
G04 #@! TO.C,H3*
X114089679Y-110417583D03*
G04 #@! TD*
D29*
G04 #@! TO.C,Line_1*
X162630000Y-83030000D03*
D30*
X165130000Y-83030000D03*
G04 #@! TD*
D31*
G04 #@! TO.C,L1*
X153755000Y-94020000D03*
X142505000Y-94020000D03*
G04 #@! TD*
D26*
G04 #@! TO.C,C2*
X118650000Y-93570000D03*
X123650000Y-93570000D03*
G04 #@! TD*
G04 #@! TO.C,R4*
X143410000Y-102670000D03*
D27*
X153570000Y-102670000D03*
G04 #@! TD*
D26*
G04 #@! TO.C,R1*
X187580000Y-96450000D03*
D27*
X177420000Y-96450000D03*
G04 #@! TD*
D32*
G04 #@! TO.C,D1*
X188200000Y-100900000D03*
X188200000Y-103700000D03*
G04 #@! TD*
D33*
G04 #@! TO.C,LiPo_1*
X172150000Y-83100000D03*
D34*
X177150000Y-83100000D03*
G04 #@! TD*
D35*
G04 #@! TO.C,D5*
X149130000Y-109990000D03*
X147380000Y-109990000D03*
G04 #@! TD*
D36*
G04 #@! TO.C,U4*
X133155000Y-108900000D03*
X133155000Y-110170000D03*
X133155000Y-111440000D03*
X133155000Y-112710000D03*
X133155000Y-113980000D03*
X133155000Y-115250000D03*
X133155000Y-116520000D03*
X138105000Y-116520000D03*
X138105000Y-115250000D03*
X138105000Y-113980000D03*
X138105000Y-112710000D03*
X138105000Y-111440000D03*
X138105000Y-110170000D03*
X138105000Y-108900000D03*
G04 #@! TD*
D28*
G04 #@! TO.C,H3*
X114089679Y-87878294D03*
G04 #@! TD*
D29*
G04 #@! TO.C,main_psu1*
X144730000Y-83055000D03*
D30*
X147230000Y-83055000D03*
G04 #@! TD*
D29*
G04 #@! TO.C,UI_1*
X153690000Y-83045000D03*
D30*
X156190000Y-83045000D03*
G04 #@! TD*
D37*
G04 #@! TO.C,J1*
X147110000Y-114100000D03*
X152890000Y-114100000D03*
D38*
X146800000Y-113035000D03*
X147600000Y-113035000D03*
D39*
X148750000Y-113035000D03*
X149750000Y-113035000D03*
X150250000Y-113035000D03*
X151250000Y-113035000D03*
D38*
X153200000Y-113035000D03*
X152400000Y-113035000D03*
D39*
X151750000Y-113035000D03*
X150750000Y-113035000D03*
X149250000Y-113035000D03*
X148250000Y-113035000D03*
D40*
X145680000Y-117780000D03*
X154320000Y-117780000D03*
D41*
X145680000Y-113600000D03*
X154320000Y-113600000D03*
G04 #@! TD*
D26*
G04 #@! TO.C,R5*
X153540000Y-105840000D03*
D27*
X143380000Y-105840000D03*
G04 #@! TD*
D42*
G04 #@! TO.C,U1*
X130515000Y-102125000D03*
X132215000Y-102125000D03*
X133915000Y-102125000D03*
X135615000Y-102125000D03*
X137315000Y-102125000D03*
D43*
X133915000Y-92975000D03*
G04 #@! TD*
D26*
G04 #@! TO.C,C1*
X117390000Y-103100000D03*
X119890000Y-103100000D03*
G04 #@! TD*
D44*
G04 #@! TO.C,SW1*
X177225000Y-90300000D03*
D45*
X177225000Y-92840000D03*
G04 #@! TD*
D44*
G04 #@! TO.C,OLED_1*
X113514970Y-97342582D03*
D45*
X113514970Y-99882582D03*
G04 #@! TD*
D29*
G04 #@! TO.C,main_uart1*
X135820000Y-83055000D03*
D30*
X138320000Y-83055000D03*
G04 #@! TD*
D20*
G04 #@! TO.C,SBD2*
X142460000Y-108850000D03*
D21*
X142460000Y-119010000D03*
G04 #@! TD*
%LPD*%
M02*
