M48
; DRILL file {KiCad 8.0.3} date 2025-10-23T09:13:21+0900
; FORMAT={-:-/ absolute / metric / decimal}
; #@! TF.CreationDate,2025-10-23T09:13:21+09:00
; #@! TF.GenerationSoftware,Kicad,Pcbnew,8.0.3
; #@! TF.FileFunction,Plated,1,2,PTH
FMAT,2
METRIC
; #@! TA.AperFunction,Plated,PTH,ViaDrill
T1C0.300
; #@! TA.AperFunction,Plated,PTH,ViaDrill
T2C0.400
; #@! TA.AperFunction,Plated,PTH,ViaDrill
T3C0.500
; #@! TA.AperFunction,Plated,PTH,ComponentDrill
T4C0.600
; #@! TA.AperFunction,Plated,PTH,ViaDrill
T5C0.700
; #@! TA.AperFunction,Plated,PTH,ComponentDrill
T6C0.800
; #@! TA.AperFunction,Plated,PTH,ComponentDrill
T7C0.900
; #@! TA.AperFunction,Plated,PTH,ComponentDrill
T8C0.950
; #@! TA.AperFunction,Plated,PTH,ComponentDrill
T9C1.000
; #@! TA.AperFunction,Plated,PTH,ComponentDrill
T10C1.700
; #@! TA.AperFunction,Plated,PTH,ComponentDrill
T11C2.700
%
G90
G05
T1
X111.09Y-91.13
X111.14Y-96.69
X111.14Y-102.1
X111.15Y-106.37
X114.06Y-93.48
X114.65Y-106.23
X115.12Y-101.74
X115.89Y-114.17
X116.58Y-91.19
X117.07Y-95.24
X118.25Y-108.1
X118.33Y-112.02
X118.4Y-104.94
X120.27Y-115.76
X124.48Y-107.16
X125.17Y-94.96
X125.41Y-116.78
X127.37Y-88.65
X127.44Y-92.32
X127.48Y-96.09
X127.48Y-114.15
X127.81Y-111.86
X127.91Y-108.0
X128.53Y-103.36
X129.65Y-107.99
X130.0Y-115.76
X130.23Y-118.05
X130.29Y-114.155
X131.41Y-83.19
X131.76Y-108.17
X132.21Y-98.7
X132.68Y-87.04
X134.147Y-111.91
X134.31Y-84.81
X134.94Y-109.4
X136.347Y-109.11
X137.45Y-87.23
X139.08Y-85.06
X139.45Y-113.97
X140.36Y-88.33
X140.69Y-108.51
X141.64Y-102.55
X141.77Y-83.18
X141.9Y-106.56
X142.48Y-116.13
X142.48Y-117.29
X144.15Y-107.8
X144.19Y-113.37
X145.037Y-111.02
X145.21Y-91.62
X145.37Y-115.39
X145.4Y-105.6
X145.41Y-102.79
X145.53Y-95.77
X146.5Y-112.05
X147.39Y-109.07
X147.44Y-85.2
X147.45Y-104.46
X147.77Y-105.97
X148.06Y-119.0
X148.32Y-111.84
X148.68Y-90.28
X148.991Y-118.144
X149.284Y-111.996
X149.513Y-114.265
X149.7Y-107.25
X149.92Y-118.26
X149.99Y-82.96
X150.0Y-111.1
X150.2Y-95.24
X150.27Y-108.4
X151.6Y-116.7
X151.7Y-88.45
X151.747Y-111.799
X151.8Y-119.01
X152.32Y-97.95
X152.34Y-115.39
X152.55Y-120.2
X153.25Y-111.65
X153.45Y-109.16
X153.58Y-118.8
X155.45Y-102.75
X155.5Y-120.05
X155.7Y-117.35
X156.65Y-88.4
X156.65Y-91.3
X156.75Y-98.05
X157.2Y-106.75
X159.3Y-113.8
X159.75Y-94.2
X159.75Y-102.7
X159.8Y-90.0
X160.25Y-119.4
X161.1Y-108.95
X165.85Y-118.65
X166.7Y-111.05
X167.55Y-115.05
X168.55Y-80.15
X168.95Y-86.5
X171.7Y-114.25
X171.85Y-117.65
X172.7Y-109.85
X173.55Y-86.65
X175.15Y-80.2
X175.6Y-98.1
X175.65Y-88.65
X175.75Y-106.35
X177.58Y-110.71
X178.95Y-116.0
X179.01Y-89.85
X179.45Y-80.95
X179.55Y-98.2
X180.25Y-106.25
X180.52Y-94.33
X183.45Y-101.61
X184.45Y-97.64
X184.5Y-114.2
X184.9Y-83.7
T2
X145.48Y-94.02
T3
X126.69Y-101.23
T5
X137.935Y-106.87
X148.6Y-95.28
X148.68Y-102.2
T6
X117.39Y-103.1
X118.65Y-93.57
X119.89Y-103.1
X123.65Y-93.57
X124.19Y-103.08
X126.19Y-103.08
X143.38Y-105.84
X143.41Y-102.67
X153.54Y-105.84
X153.57Y-102.67
X158.75Y-101.06
X158.75Y-111.22
X177.42Y-96.45
X187.58Y-96.45
T7
X142.46Y-108.85
X142.46Y-119.01
X158.75Y-88.39
X158.75Y-98.55
T8
X124.38Y-83.045
X126.88Y-83.045
X129.38Y-83.045
T9
X113.515Y-97.343
X113.515Y-99.883
X135.82Y-83.055
X138.32Y-83.055
X144.73Y-83.055
X147.23Y-83.055
X153.69Y-83.045
X156.19Y-83.045
X162.63Y-83.03
X165.13Y-83.03
X177.225Y-90.3
X177.225Y-92.84
T10
X157.917Y-116.424
X164.547Y-115.105
X173.953Y-113.235
X180.583Y-111.916
T11
X172.15Y-83.1
X177.15Y-83.1
T4
G00X145.68Y-113.05
M15
G01X145.68Y-114.15
M16
G05
G00X145.68Y-117.38
M15
G01X145.68Y-118.18
M16
G05
G00X154.32Y-113.05
M15
G01X154.32Y-114.15
M16
G05
G00X154.32Y-117.38
M15
G01X154.32Y-118.18
M16
G05
M30
