%TF.GenerationSoftware,KiCad,Pcbnew,8.0.3*%
%TF.CreationDate,2025-10-23T09:13:21+09:00*%
%TF.ProjectId,dcdc_V8,64636463-5f56-4382-9e6b-696361645f70,rev?*%
%TF.SameCoordinates,Original*%
%TF.FileFunction,Drillmap*%
%TF.FilePolarity,Positive*%
%FSLAX45Y45*%
G04 Gerber Fmt 4.5, Leading zero omitted, Abs format (unit mm)*
G04 Created by KiCad (PCBNEW 8.0.3) date 2025-10-23 09:13:21*
%MOMM*%
%LPD*%
G01*
G04 APERTURE LIST*
%ADD10C,0.200000*%
%ADD11C,0.100000*%
%ADD12C,0.320000*%
G04 APERTURE END LIST*
D10*
X17475000Y-10770000D02*
X17475000Y-8770000D01*
X19000497Y-8500758D02*
X17849395Y-7897463D01*
X10999392Y-8501041D02*
X12150494Y-7897746D01*
X17475000Y-8770000D02*
X16075000Y-8770000D01*
X19000497Y-11310258D02*
G75*
G02*
X10999498Y-11310284I-4000531J9707736D01*
G01*
X16075000Y-10770000D02*
X17475000Y-10770000D01*
X16075000Y-8770000D02*
X16075000Y-10770000D01*
X10999392Y-8501041D02*
X10999498Y-11310284D01*
X12150494Y-7897746D02*
X17849489Y-7897752D01*
X19000497Y-8500758D02*
X19000497Y-11310258D01*
D11*
X14687000Y-11386000D02*
X14735000Y-11434000D01*
X14735000Y-11386000D02*
X14687000Y-11434000D01*
X15265000Y-11386000D02*
X15313000Y-11434000D01*
X15313000Y-11386000D02*
X15265000Y-11434000D01*
D12*
X11568968Y-8787829D02*
G75*
G02*
X11248968Y-8787829I-160000J0D01*
G01*
X11248968Y-8787829D02*
G75*
G02*
X11568968Y-8787829I160000J0D01*
G01*
X11568968Y-11041758D02*
G75*
G02*
X11248968Y-11041758I-160000J0D01*
G01*
X11248968Y-11041758D02*
G75*
G02*
X11568968Y-11041758I160000J0D01*
G01*
X18750921Y-8787547D02*
G75*
G02*
X18430921Y-8787547I-160000J0D01*
G01*
X18430921Y-8787547D02*
G75*
G02*
X18750921Y-8787547I160000J0D01*
G01*
X18750921Y-11041758D02*
G75*
G02*
X18430921Y-11041758I-160000J0D01*
G01*
X18430921Y-11041758D02*
G75*
G02*
X18750921Y-11041758I160000J0D01*
G01*
D10*
X11250169Y-12423739D02*
X11250169Y-12223739D01*
X11250169Y-12223739D02*
X11297788Y-12223739D01*
X11297788Y-12223739D02*
X11326359Y-12233262D01*
X11326359Y-12233262D02*
X11345407Y-12252310D01*
X11345407Y-12252310D02*
X11354931Y-12271358D01*
X11354931Y-12271358D02*
X11364454Y-12309453D01*
X11364454Y-12309453D02*
X11364454Y-12338024D01*
X11364454Y-12338024D02*
X11354931Y-12376120D01*
X11354931Y-12376120D02*
X11345407Y-12395167D01*
X11345407Y-12395167D02*
X11326359Y-12414215D01*
X11326359Y-12414215D02*
X11297788Y-12423739D01*
X11297788Y-12423739D02*
X11250169Y-12423739D01*
X11450169Y-12423739D02*
X11450169Y-12290405D01*
X11450169Y-12328501D02*
X11459692Y-12309453D01*
X11459692Y-12309453D02*
X11469216Y-12299929D01*
X11469216Y-12299929D02*
X11488264Y-12290405D01*
X11488264Y-12290405D02*
X11507312Y-12290405D01*
X11573978Y-12423739D02*
X11573978Y-12290405D01*
X11573978Y-12223739D02*
X11564454Y-12233262D01*
X11564454Y-12233262D02*
X11573978Y-12242786D01*
X11573978Y-12242786D02*
X11583502Y-12233262D01*
X11583502Y-12233262D02*
X11573978Y-12223739D01*
X11573978Y-12223739D02*
X11573978Y-12242786D01*
X11697788Y-12423739D02*
X11678740Y-12414215D01*
X11678740Y-12414215D02*
X11669216Y-12395167D01*
X11669216Y-12395167D02*
X11669216Y-12223739D01*
X11802550Y-12423739D02*
X11783502Y-12414215D01*
X11783502Y-12414215D02*
X11773978Y-12395167D01*
X11773978Y-12395167D02*
X11773978Y-12223739D01*
X12031121Y-12423739D02*
X12031121Y-12223739D01*
X12031121Y-12223739D02*
X12097788Y-12366596D01*
X12097788Y-12366596D02*
X12164454Y-12223739D01*
X12164454Y-12223739D02*
X12164454Y-12423739D01*
X12345407Y-12423739D02*
X12345407Y-12318977D01*
X12345407Y-12318977D02*
X12335883Y-12299929D01*
X12335883Y-12299929D02*
X12316835Y-12290405D01*
X12316835Y-12290405D02*
X12278740Y-12290405D01*
X12278740Y-12290405D02*
X12259692Y-12299929D01*
X12345407Y-12414215D02*
X12326359Y-12423739D01*
X12326359Y-12423739D02*
X12278740Y-12423739D01*
X12278740Y-12423739D02*
X12259692Y-12414215D01*
X12259692Y-12414215D02*
X12250169Y-12395167D01*
X12250169Y-12395167D02*
X12250169Y-12376120D01*
X12250169Y-12376120D02*
X12259692Y-12357072D01*
X12259692Y-12357072D02*
X12278740Y-12347548D01*
X12278740Y-12347548D02*
X12326359Y-12347548D01*
X12326359Y-12347548D02*
X12345407Y-12338024D01*
X12440645Y-12290405D02*
X12440645Y-12490405D01*
X12440645Y-12299929D02*
X12459692Y-12290405D01*
X12459692Y-12290405D02*
X12497788Y-12290405D01*
X12497788Y-12290405D02*
X12516835Y-12299929D01*
X12516835Y-12299929D02*
X12526359Y-12309453D01*
X12526359Y-12309453D02*
X12535883Y-12328501D01*
X12535883Y-12328501D02*
X12535883Y-12385643D01*
X12535883Y-12385643D02*
X12526359Y-12404691D01*
X12526359Y-12404691D02*
X12516835Y-12414215D01*
X12516835Y-12414215D02*
X12497788Y-12423739D01*
X12497788Y-12423739D02*
X12459692Y-12423739D01*
X12459692Y-12423739D02*
X12440645Y-12414215D01*
X12621597Y-12404691D02*
X12631121Y-12414215D01*
X12631121Y-12414215D02*
X12621597Y-12423739D01*
X12621597Y-12423739D02*
X12612073Y-12414215D01*
X12612073Y-12414215D02*
X12621597Y-12404691D01*
X12621597Y-12404691D02*
X12621597Y-12423739D01*
X12621597Y-12299929D02*
X12631121Y-12309453D01*
X12631121Y-12309453D02*
X12621597Y-12318977D01*
X12621597Y-12318977D02*
X12612073Y-12309453D01*
X12612073Y-12309453D02*
X12621597Y-12299929D01*
X12621597Y-12299929D02*
X12621597Y-12318977D01*
D11*
X10941392Y-12728255D02*
X10989392Y-12776255D01*
X10989392Y-12728255D02*
X10941392Y-12776255D01*
D10*
X11288264Y-12643739D02*
X11307312Y-12643739D01*
X11307312Y-12643739D02*
X11326359Y-12653262D01*
X11326359Y-12653262D02*
X11335883Y-12662786D01*
X11335883Y-12662786D02*
X11345407Y-12681834D01*
X11345407Y-12681834D02*
X11354931Y-12719929D01*
X11354931Y-12719929D02*
X11354931Y-12767548D01*
X11354931Y-12767548D02*
X11345407Y-12805643D01*
X11345407Y-12805643D02*
X11335883Y-12824691D01*
X11335883Y-12824691D02*
X11326359Y-12834215D01*
X11326359Y-12834215D02*
X11307312Y-12843739D01*
X11307312Y-12843739D02*
X11288264Y-12843739D01*
X11288264Y-12843739D02*
X11269216Y-12834215D01*
X11269216Y-12834215D02*
X11259692Y-12824691D01*
X11259692Y-12824691D02*
X11250169Y-12805643D01*
X11250169Y-12805643D02*
X11240645Y-12767548D01*
X11240645Y-12767548D02*
X11240645Y-12719929D01*
X11240645Y-12719929D02*
X11250169Y-12681834D01*
X11250169Y-12681834D02*
X11259692Y-12662786D01*
X11259692Y-12662786D02*
X11269216Y-12653262D01*
X11269216Y-12653262D02*
X11288264Y-12643739D01*
X11440645Y-12824691D02*
X11450169Y-12834215D01*
X11450169Y-12834215D02*
X11440645Y-12843739D01*
X11440645Y-12843739D02*
X11431121Y-12834215D01*
X11431121Y-12834215D02*
X11440645Y-12824691D01*
X11440645Y-12824691D02*
X11440645Y-12843739D01*
X11621597Y-12710405D02*
X11621597Y-12843739D01*
X11573978Y-12634215D02*
X11526359Y-12777072D01*
X11526359Y-12777072D02*
X11650169Y-12777072D01*
X11754931Y-12729453D02*
X11735883Y-12719929D01*
X11735883Y-12719929D02*
X11726359Y-12710405D01*
X11726359Y-12710405D02*
X11716835Y-12691358D01*
X11716835Y-12691358D02*
X11716835Y-12681834D01*
X11716835Y-12681834D02*
X11726359Y-12662786D01*
X11726359Y-12662786D02*
X11735883Y-12653262D01*
X11735883Y-12653262D02*
X11754931Y-12643739D01*
X11754931Y-12643739D02*
X11793026Y-12643739D01*
X11793026Y-12643739D02*
X11812073Y-12653262D01*
X11812073Y-12653262D02*
X11821597Y-12662786D01*
X11821597Y-12662786D02*
X11831121Y-12681834D01*
X11831121Y-12681834D02*
X11831121Y-12691358D01*
X11831121Y-12691358D02*
X11821597Y-12710405D01*
X11821597Y-12710405D02*
X11812073Y-12719929D01*
X11812073Y-12719929D02*
X11793026Y-12729453D01*
X11793026Y-12729453D02*
X11754931Y-12729453D01*
X11754931Y-12729453D02*
X11735883Y-12738977D01*
X11735883Y-12738977D02*
X11726359Y-12748501D01*
X11726359Y-12748501D02*
X11716835Y-12767548D01*
X11716835Y-12767548D02*
X11716835Y-12805643D01*
X11716835Y-12805643D02*
X11726359Y-12824691D01*
X11726359Y-12824691D02*
X11735883Y-12834215D01*
X11735883Y-12834215D02*
X11754931Y-12843739D01*
X11754931Y-12843739D02*
X11793026Y-12843739D01*
X11793026Y-12843739D02*
X11812073Y-12834215D01*
X11812073Y-12834215D02*
X11821597Y-12824691D01*
X11821597Y-12824691D02*
X11831121Y-12805643D01*
X11831121Y-12805643D02*
X11831121Y-12767548D01*
X11831121Y-12767548D02*
X11821597Y-12748501D01*
X11821597Y-12748501D02*
X11812073Y-12738977D01*
X11812073Y-12738977D02*
X11793026Y-12729453D01*
X11954931Y-12643739D02*
X11973978Y-12643739D01*
X11973978Y-12643739D02*
X11993026Y-12653262D01*
X11993026Y-12653262D02*
X12002550Y-12662786D01*
X12002550Y-12662786D02*
X12012073Y-12681834D01*
X12012073Y-12681834D02*
X12021597Y-12719929D01*
X12021597Y-12719929D02*
X12021597Y-12767548D01*
X12021597Y-12767548D02*
X12012073Y-12805643D01*
X12012073Y-12805643D02*
X12002550Y-12824691D01*
X12002550Y-12824691D02*
X11993026Y-12834215D01*
X11993026Y-12834215D02*
X11973978Y-12843739D01*
X11973978Y-12843739D02*
X11954931Y-12843739D01*
X11954931Y-12843739D02*
X11935883Y-12834215D01*
X11935883Y-12834215D02*
X11926359Y-12824691D01*
X11926359Y-12824691D02*
X11916835Y-12805643D01*
X11916835Y-12805643D02*
X11907312Y-12767548D01*
X11907312Y-12767548D02*
X11907312Y-12719929D01*
X11907312Y-12719929D02*
X11916835Y-12681834D01*
X11916835Y-12681834D02*
X11926359Y-12662786D01*
X11926359Y-12662786D02*
X11935883Y-12653262D01*
X11935883Y-12653262D02*
X11954931Y-12643739D01*
X12107312Y-12843739D02*
X12107312Y-12710405D01*
X12107312Y-12729453D02*
X12116835Y-12719929D01*
X12116835Y-12719929D02*
X12135883Y-12710405D01*
X12135883Y-12710405D02*
X12164454Y-12710405D01*
X12164454Y-12710405D02*
X12183502Y-12719929D01*
X12183502Y-12719929D02*
X12193026Y-12738977D01*
X12193026Y-12738977D02*
X12193026Y-12843739D01*
X12193026Y-12738977D02*
X12202550Y-12719929D01*
X12202550Y-12719929D02*
X12221597Y-12710405D01*
X12221597Y-12710405D02*
X12250169Y-12710405D01*
X12250169Y-12710405D02*
X12269216Y-12719929D01*
X12269216Y-12719929D02*
X12278740Y-12738977D01*
X12278740Y-12738977D02*
X12278740Y-12843739D01*
X12373978Y-12843739D02*
X12373978Y-12710405D01*
X12373978Y-12729453D02*
X12383502Y-12719929D01*
X12383502Y-12719929D02*
X12402550Y-12710405D01*
X12402550Y-12710405D02*
X12431121Y-12710405D01*
X12431121Y-12710405D02*
X12450169Y-12719929D01*
X12450169Y-12719929D02*
X12459693Y-12738977D01*
X12459693Y-12738977D02*
X12459693Y-12843739D01*
X12459693Y-12738977D02*
X12469216Y-12719929D01*
X12469216Y-12719929D02*
X12488264Y-12710405D01*
X12488264Y-12710405D02*
X12516835Y-12710405D01*
X12516835Y-12710405D02*
X12535883Y-12719929D01*
X12535883Y-12719929D02*
X12545407Y-12738977D01*
X12545407Y-12738977D02*
X12545407Y-12843739D01*
X12935883Y-12634215D02*
X12764455Y-12891358D01*
X13193026Y-12643739D02*
X13212074Y-12643739D01*
X13212074Y-12643739D02*
X13231121Y-12653262D01*
X13231121Y-12653262D02*
X13240645Y-12662786D01*
X13240645Y-12662786D02*
X13250169Y-12681834D01*
X13250169Y-12681834D02*
X13259693Y-12719929D01*
X13259693Y-12719929D02*
X13259693Y-12767548D01*
X13259693Y-12767548D02*
X13250169Y-12805643D01*
X13250169Y-12805643D02*
X13240645Y-12824691D01*
X13240645Y-12824691D02*
X13231121Y-12834215D01*
X13231121Y-12834215D02*
X13212074Y-12843739D01*
X13212074Y-12843739D02*
X13193026Y-12843739D01*
X13193026Y-12843739D02*
X13173978Y-12834215D01*
X13173978Y-12834215D02*
X13164455Y-12824691D01*
X13164455Y-12824691D02*
X13154931Y-12805643D01*
X13154931Y-12805643D02*
X13145407Y-12767548D01*
X13145407Y-12767548D02*
X13145407Y-12719929D01*
X13145407Y-12719929D02*
X13154931Y-12681834D01*
X13154931Y-12681834D02*
X13164455Y-12662786D01*
X13164455Y-12662786D02*
X13173978Y-12653262D01*
X13173978Y-12653262D02*
X13193026Y-12643739D01*
X13345407Y-12824691D02*
X13354931Y-12834215D01*
X13354931Y-12834215D02*
X13345407Y-12843739D01*
X13345407Y-12843739D02*
X13335883Y-12834215D01*
X13335883Y-12834215D02*
X13345407Y-12824691D01*
X13345407Y-12824691D02*
X13345407Y-12843739D01*
X13478740Y-12643739D02*
X13497788Y-12643739D01*
X13497788Y-12643739D02*
X13516836Y-12653262D01*
X13516836Y-12653262D02*
X13526359Y-12662786D01*
X13526359Y-12662786D02*
X13535883Y-12681834D01*
X13535883Y-12681834D02*
X13545407Y-12719929D01*
X13545407Y-12719929D02*
X13545407Y-12767548D01*
X13545407Y-12767548D02*
X13535883Y-12805643D01*
X13535883Y-12805643D02*
X13526359Y-12824691D01*
X13526359Y-12824691D02*
X13516836Y-12834215D01*
X13516836Y-12834215D02*
X13497788Y-12843739D01*
X13497788Y-12843739D02*
X13478740Y-12843739D01*
X13478740Y-12843739D02*
X13459693Y-12834215D01*
X13459693Y-12834215D02*
X13450169Y-12824691D01*
X13450169Y-12824691D02*
X13440645Y-12805643D01*
X13440645Y-12805643D02*
X13431121Y-12767548D01*
X13431121Y-12767548D02*
X13431121Y-12719929D01*
X13431121Y-12719929D02*
X13440645Y-12681834D01*
X13440645Y-12681834D02*
X13450169Y-12662786D01*
X13450169Y-12662786D02*
X13459693Y-12653262D01*
X13459693Y-12653262D02*
X13478740Y-12643739D01*
X13735883Y-12843739D02*
X13621597Y-12843739D01*
X13678740Y-12843739D02*
X13678740Y-12643739D01*
X13678740Y-12643739D02*
X13659693Y-12672310D01*
X13659693Y-12672310D02*
X13640645Y-12691358D01*
X13640645Y-12691358D02*
X13621597Y-12700881D01*
X13850169Y-12729453D02*
X13831121Y-12719929D01*
X13831121Y-12719929D02*
X13821597Y-12710405D01*
X13821597Y-12710405D02*
X13812074Y-12691358D01*
X13812074Y-12691358D02*
X13812074Y-12681834D01*
X13812074Y-12681834D02*
X13821597Y-12662786D01*
X13821597Y-12662786D02*
X13831121Y-12653262D01*
X13831121Y-12653262D02*
X13850169Y-12643739D01*
X13850169Y-12643739D02*
X13888264Y-12643739D01*
X13888264Y-12643739D02*
X13907312Y-12653262D01*
X13907312Y-12653262D02*
X13916836Y-12662786D01*
X13916836Y-12662786D02*
X13926359Y-12681834D01*
X13926359Y-12681834D02*
X13926359Y-12691358D01*
X13926359Y-12691358D02*
X13916836Y-12710405D01*
X13916836Y-12710405D02*
X13907312Y-12719929D01*
X13907312Y-12719929D02*
X13888264Y-12729453D01*
X13888264Y-12729453D02*
X13850169Y-12729453D01*
X13850169Y-12729453D02*
X13831121Y-12738977D01*
X13831121Y-12738977D02*
X13821597Y-12748501D01*
X13821597Y-12748501D02*
X13812074Y-12767548D01*
X13812074Y-12767548D02*
X13812074Y-12805643D01*
X13812074Y-12805643D02*
X13821597Y-12824691D01*
X13821597Y-12824691D02*
X13831121Y-12834215D01*
X13831121Y-12834215D02*
X13850169Y-12843739D01*
X13850169Y-12843739D02*
X13888264Y-12843739D01*
X13888264Y-12843739D02*
X13907312Y-12834215D01*
X13907312Y-12834215D02*
X13916836Y-12824691D01*
X13916836Y-12824691D02*
X13926359Y-12805643D01*
X13926359Y-12805643D02*
X13926359Y-12767548D01*
X13926359Y-12767548D02*
X13916836Y-12748501D01*
X13916836Y-12748501D02*
X13907312Y-12738977D01*
X13907312Y-12738977D02*
X13888264Y-12729453D01*
X14021597Y-12843739D02*
X14059693Y-12843739D01*
X14059693Y-12843739D02*
X14078740Y-12834215D01*
X14078740Y-12834215D02*
X14088264Y-12824691D01*
X14088264Y-12824691D02*
X14107312Y-12796120D01*
X14107312Y-12796120D02*
X14116836Y-12758024D01*
X14116836Y-12758024D02*
X14116836Y-12681834D01*
X14116836Y-12681834D02*
X14107312Y-12662786D01*
X14107312Y-12662786D02*
X14097788Y-12653262D01*
X14097788Y-12653262D02*
X14078740Y-12643739D01*
X14078740Y-12643739D02*
X14040645Y-12643739D01*
X14040645Y-12643739D02*
X14021597Y-12653262D01*
X14021597Y-12653262D02*
X14012074Y-12662786D01*
X14012074Y-12662786D02*
X14002550Y-12681834D01*
X14002550Y-12681834D02*
X14002550Y-12729453D01*
X14002550Y-12729453D02*
X14012074Y-12748501D01*
X14012074Y-12748501D02*
X14021597Y-12758024D01*
X14021597Y-12758024D02*
X14040645Y-12767548D01*
X14040645Y-12767548D02*
X14078740Y-12767548D01*
X14078740Y-12767548D02*
X14097788Y-12758024D01*
X14097788Y-12758024D02*
X14107312Y-12748501D01*
X14107312Y-12748501D02*
X14116836Y-12729453D01*
X14193026Y-12643739D02*
X14193026Y-12681834D01*
X14269217Y-12643739D02*
X14269217Y-12681834D01*
X14564455Y-12919929D02*
X14554931Y-12910405D01*
X14554931Y-12910405D02*
X14535883Y-12881834D01*
X14535883Y-12881834D02*
X14526359Y-12862786D01*
X14526359Y-12862786D02*
X14516836Y-12834215D01*
X14516836Y-12834215D02*
X14507312Y-12786596D01*
X14507312Y-12786596D02*
X14507312Y-12748501D01*
X14507312Y-12748501D02*
X14516836Y-12700881D01*
X14516836Y-12700881D02*
X14526359Y-12672310D01*
X14526359Y-12672310D02*
X14535883Y-12653262D01*
X14535883Y-12653262D02*
X14554931Y-12624691D01*
X14554931Y-12624691D02*
X14564455Y-12615167D01*
X14631121Y-12662786D02*
X14640645Y-12653262D01*
X14640645Y-12653262D02*
X14659693Y-12643739D01*
X14659693Y-12643739D02*
X14707312Y-12643739D01*
X14707312Y-12643739D02*
X14726359Y-12653262D01*
X14726359Y-12653262D02*
X14735883Y-12662786D01*
X14735883Y-12662786D02*
X14745407Y-12681834D01*
X14745407Y-12681834D02*
X14745407Y-12700881D01*
X14745407Y-12700881D02*
X14735883Y-12729453D01*
X14735883Y-12729453D02*
X14621598Y-12843739D01*
X14621598Y-12843739D02*
X14745407Y-12843739D01*
X14983502Y-12843739D02*
X14983502Y-12643739D01*
X15069217Y-12843739D02*
X15069217Y-12738977D01*
X15069217Y-12738977D02*
X15059693Y-12719929D01*
X15059693Y-12719929D02*
X15040645Y-12710405D01*
X15040645Y-12710405D02*
X15012074Y-12710405D01*
X15012074Y-12710405D02*
X14993026Y-12719929D01*
X14993026Y-12719929D02*
X14983502Y-12729453D01*
X15193026Y-12843739D02*
X15173979Y-12834215D01*
X15173979Y-12834215D02*
X15164455Y-12824691D01*
X15164455Y-12824691D02*
X15154931Y-12805643D01*
X15154931Y-12805643D02*
X15154931Y-12748501D01*
X15154931Y-12748501D02*
X15164455Y-12729453D01*
X15164455Y-12729453D02*
X15173979Y-12719929D01*
X15173979Y-12719929D02*
X15193026Y-12710405D01*
X15193026Y-12710405D02*
X15221598Y-12710405D01*
X15221598Y-12710405D02*
X15240645Y-12719929D01*
X15240645Y-12719929D02*
X15250169Y-12729453D01*
X15250169Y-12729453D02*
X15259693Y-12748501D01*
X15259693Y-12748501D02*
X15259693Y-12805643D01*
X15259693Y-12805643D02*
X15250169Y-12824691D01*
X15250169Y-12824691D02*
X15240645Y-12834215D01*
X15240645Y-12834215D02*
X15221598Y-12843739D01*
X15221598Y-12843739D02*
X15193026Y-12843739D01*
X15373979Y-12843739D02*
X15354931Y-12834215D01*
X15354931Y-12834215D02*
X15345407Y-12815167D01*
X15345407Y-12815167D02*
X15345407Y-12643739D01*
X15526360Y-12834215D02*
X15507312Y-12843739D01*
X15507312Y-12843739D02*
X15469217Y-12843739D01*
X15469217Y-12843739D02*
X15450169Y-12834215D01*
X15450169Y-12834215D02*
X15440645Y-12815167D01*
X15440645Y-12815167D02*
X15440645Y-12738977D01*
X15440645Y-12738977D02*
X15450169Y-12719929D01*
X15450169Y-12719929D02*
X15469217Y-12710405D01*
X15469217Y-12710405D02*
X15507312Y-12710405D01*
X15507312Y-12710405D02*
X15526360Y-12719929D01*
X15526360Y-12719929D02*
X15535883Y-12738977D01*
X15535883Y-12738977D02*
X15535883Y-12758024D01*
X15535883Y-12758024D02*
X15440645Y-12777072D01*
X15612074Y-12834215D02*
X15631121Y-12843739D01*
X15631121Y-12843739D02*
X15669217Y-12843739D01*
X15669217Y-12843739D02*
X15688264Y-12834215D01*
X15688264Y-12834215D02*
X15697788Y-12815167D01*
X15697788Y-12815167D02*
X15697788Y-12805643D01*
X15697788Y-12805643D02*
X15688264Y-12786596D01*
X15688264Y-12786596D02*
X15669217Y-12777072D01*
X15669217Y-12777072D02*
X15640645Y-12777072D01*
X15640645Y-12777072D02*
X15621598Y-12767548D01*
X15621598Y-12767548D02*
X15612074Y-12748501D01*
X15612074Y-12748501D02*
X15612074Y-12738977D01*
X15612074Y-12738977D02*
X15621598Y-12719929D01*
X15621598Y-12719929D02*
X15640645Y-12710405D01*
X15640645Y-12710405D02*
X15669217Y-12710405D01*
X15669217Y-12710405D02*
X15688264Y-12719929D01*
X15764455Y-12919929D02*
X15773979Y-12910405D01*
X15773979Y-12910405D02*
X15793026Y-12881834D01*
X15793026Y-12881834D02*
X15802550Y-12862786D01*
X15802550Y-12862786D02*
X15812074Y-12834215D01*
X15812074Y-12834215D02*
X15821598Y-12786596D01*
X15821598Y-12786596D02*
X15821598Y-12748501D01*
X15821598Y-12748501D02*
X15812074Y-12700881D01*
X15812074Y-12700881D02*
X15802550Y-12672310D01*
X15802550Y-12672310D02*
X15793026Y-12653262D01*
X15793026Y-12653262D02*
X15773979Y-12624691D01*
X15773979Y-12624691D02*
X15764455Y-12615167D01*
X16126360Y-12919929D02*
X16116836Y-12910405D01*
X16116836Y-12910405D02*
X16097788Y-12881834D01*
X16097788Y-12881834D02*
X16088264Y-12862786D01*
X16088264Y-12862786D02*
X16078741Y-12834215D01*
X16078741Y-12834215D02*
X16069217Y-12786596D01*
X16069217Y-12786596D02*
X16069217Y-12748501D01*
X16069217Y-12748501D02*
X16078741Y-12700881D01*
X16078741Y-12700881D02*
X16088264Y-12672310D01*
X16088264Y-12672310D02*
X16097788Y-12653262D01*
X16097788Y-12653262D02*
X16116836Y-12624691D01*
X16116836Y-12624691D02*
X16126360Y-12615167D01*
X16202550Y-12710405D02*
X16202550Y-12843739D01*
X16202550Y-12729453D02*
X16212074Y-12719929D01*
X16212074Y-12719929D02*
X16231121Y-12710405D01*
X16231121Y-12710405D02*
X16259693Y-12710405D01*
X16259693Y-12710405D02*
X16278741Y-12719929D01*
X16278741Y-12719929D02*
X16288264Y-12738977D01*
X16288264Y-12738977D02*
X16288264Y-12843739D01*
X16412074Y-12843739D02*
X16393026Y-12834215D01*
X16393026Y-12834215D02*
X16383502Y-12824691D01*
X16383502Y-12824691D02*
X16373979Y-12805643D01*
X16373979Y-12805643D02*
X16373979Y-12748501D01*
X16373979Y-12748501D02*
X16383502Y-12729453D01*
X16383502Y-12729453D02*
X16393026Y-12719929D01*
X16393026Y-12719929D02*
X16412074Y-12710405D01*
X16412074Y-12710405D02*
X16440645Y-12710405D01*
X16440645Y-12710405D02*
X16459693Y-12719929D01*
X16459693Y-12719929D02*
X16469217Y-12729453D01*
X16469217Y-12729453D02*
X16478741Y-12748501D01*
X16478741Y-12748501D02*
X16478741Y-12805643D01*
X16478741Y-12805643D02*
X16469217Y-12824691D01*
X16469217Y-12824691D02*
X16459693Y-12834215D01*
X16459693Y-12834215D02*
X16440645Y-12843739D01*
X16440645Y-12843739D02*
X16412074Y-12843739D01*
X16535883Y-12710405D02*
X16612074Y-12710405D01*
X16564455Y-12643739D02*
X16564455Y-12815167D01*
X16564455Y-12815167D02*
X16573979Y-12834215D01*
X16573979Y-12834215D02*
X16593026Y-12843739D01*
X16593026Y-12843739D02*
X16612074Y-12843739D01*
X16831122Y-12710405D02*
X16831122Y-12910405D01*
X16831122Y-12719929D02*
X16850169Y-12710405D01*
X16850169Y-12710405D02*
X16888265Y-12710405D01*
X16888265Y-12710405D02*
X16907312Y-12719929D01*
X16907312Y-12719929D02*
X16916836Y-12729453D01*
X16916836Y-12729453D02*
X16926360Y-12748501D01*
X16926360Y-12748501D02*
X16926360Y-12805643D01*
X16926360Y-12805643D02*
X16916836Y-12824691D01*
X16916836Y-12824691D02*
X16907312Y-12834215D01*
X16907312Y-12834215D02*
X16888265Y-12843739D01*
X16888265Y-12843739D02*
X16850169Y-12843739D01*
X16850169Y-12843739D02*
X16831122Y-12834215D01*
X17040645Y-12843739D02*
X17021598Y-12834215D01*
X17021598Y-12834215D02*
X17012074Y-12815167D01*
X17012074Y-12815167D02*
X17012074Y-12643739D01*
X17202550Y-12843739D02*
X17202550Y-12738977D01*
X17202550Y-12738977D02*
X17193026Y-12719929D01*
X17193026Y-12719929D02*
X17173979Y-12710405D01*
X17173979Y-12710405D02*
X17135884Y-12710405D01*
X17135884Y-12710405D02*
X17116836Y-12719929D01*
X17202550Y-12834215D02*
X17183503Y-12843739D01*
X17183503Y-12843739D02*
X17135884Y-12843739D01*
X17135884Y-12843739D02*
X17116836Y-12834215D01*
X17116836Y-12834215D02*
X17107312Y-12815167D01*
X17107312Y-12815167D02*
X17107312Y-12796120D01*
X17107312Y-12796120D02*
X17116836Y-12777072D01*
X17116836Y-12777072D02*
X17135884Y-12767548D01*
X17135884Y-12767548D02*
X17183503Y-12767548D01*
X17183503Y-12767548D02*
X17202550Y-12758024D01*
X17269217Y-12710405D02*
X17345407Y-12710405D01*
X17297788Y-12643739D02*
X17297788Y-12815167D01*
X17297788Y-12815167D02*
X17307312Y-12834215D01*
X17307312Y-12834215D02*
X17326360Y-12843739D01*
X17326360Y-12843739D02*
X17345407Y-12843739D01*
X17488265Y-12834215D02*
X17469217Y-12843739D01*
X17469217Y-12843739D02*
X17431122Y-12843739D01*
X17431122Y-12843739D02*
X17412074Y-12834215D01*
X17412074Y-12834215D02*
X17402550Y-12815167D01*
X17402550Y-12815167D02*
X17402550Y-12738977D01*
X17402550Y-12738977D02*
X17412074Y-12719929D01*
X17412074Y-12719929D02*
X17431122Y-12710405D01*
X17431122Y-12710405D02*
X17469217Y-12710405D01*
X17469217Y-12710405D02*
X17488265Y-12719929D01*
X17488265Y-12719929D02*
X17497788Y-12738977D01*
X17497788Y-12738977D02*
X17497788Y-12758024D01*
X17497788Y-12758024D02*
X17402550Y-12777072D01*
X17669217Y-12843739D02*
X17669217Y-12643739D01*
X17669217Y-12834215D02*
X17650169Y-12843739D01*
X17650169Y-12843739D02*
X17612074Y-12843739D01*
X17612074Y-12843739D02*
X17593026Y-12834215D01*
X17593026Y-12834215D02*
X17583503Y-12824691D01*
X17583503Y-12824691D02*
X17573979Y-12805643D01*
X17573979Y-12805643D02*
X17573979Y-12748501D01*
X17573979Y-12748501D02*
X17583503Y-12729453D01*
X17583503Y-12729453D02*
X17593026Y-12719929D01*
X17593026Y-12719929D02*
X17612074Y-12710405D01*
X17612074Y-12710405D02*
X17650169Y-12710405D01*
X17650169Y-12710405D02*
X17669217Y-12719929D01*
X17745407Y-12919929D02*
X17754931Y-12910405D01*
X17754931Y-12910405D02*
X17773979Y-12881834D01*
X17773979Y-12881834D02*
X17783503Y-12862786D01*
X17783503Y-12862786D02*
X17793026Y-12834215D01*
X17793026Y-12834215D02*
X17802550Y-12786596D01*
X17802550Y-12786596D02*
X17802550Y-12748501D01*
X17802550Y-12748501D02*
X17793026Y-12700881D01*
X17793026Y-12700881D02*
X17783503Y-12672310D01*
X17783503Y-12672310D02*
X17773979Y-12653262D01*
X17773979Y-12653262D02*
X17754931Y-12624691D01*
X17754931Y-12624691D02*
X17745407Y-12615167D01*
X10989392Y-13016255D02*
G75*
G02*
X10789392Y-13016255I-100000J0D01*
G01*
X10789392Y-13016255D02*
G75*
G02*
X10989392Y-13016255I100000J0D01*
G01*
X11231121Y-12907739D02*
X11354931Y-12907739D01*
X11354931Y-12907739D02*
X11288264Y-12983929D01*
X11288264Y-12983929D02*
X11316835Y-12983929D01*
X11316835Y-12983929D02*
X11335883Y-12993453D01*
X11335883Y-12993453D02*
X11345407Y-13002977D01*
X11345407Y-13002977D02*
X11354931Y-13022024D01*
X11354931Y-13022024D02*
X11354931Y-13069643D01*
X11354931Y-13069643D02*
X11345407Y-13088691D01*
X11345407Y-13088691D02*
X11335883Y-13098215D01*
X11335883Y-13098215D02*
X11316835Y-13107739D01*
X11316835Y-13107739D02*
X11259692Y-13107739D01*
X11259692Y-13107739D02*
X11240645Y-13098215D01*
X11240645Y-13098215D02*
X11231121Y-13088691D01*
X11440645Y-13088691D02*
X11450169Y-13098215D01*
X11450169Y-13098215D02*
X11440645Y-13107739D01*
X11440645Y-13107739D02*
X11431121Y-13098215D01*
X11431121Y-13098215D02*
X11440645Y-13088691D01*
X11440645Y-13088691D02*
X11440645Y-13107739D01*
X11526359Y-12926786D02*
X11535883Y-12917262D01*
X11535883Y-12917262D02*
X11554931Y-12907739D01*
X11554931Y-12907739D02*
X11602550Y-12907739D01*
X11602550Y-12907739D02*
X11621597Y-12917262D01*
X11621597Y-12917262D02*
X11631121Y-12926786D01*
X11631121Y-12926786D02*
X11640645Y-12945834D01*
X11640645Y-12945834D02*
X11640645Y-12964881D01*
X11640645Y-12964881D02*
X11631121Y-12993453D01*
X11631121Y-12993453D02*
X11516835Y-13107739D01*
X11516835Y-13107739D02*
X11640645Y-13107739D01*
X11764454Y-12907739D02*
X11783502Y-12907739D01*
X11783502Y-12907739D02*
X11802550Y-12917262D01*
X11802550Y-12917262D02*
X11812073Y-12926786D01*
X11812073Y-12926786D02*
X11821597Y-12945834D01*
X11821597Y-12945834D02*
X11831121Y-12983929D01*
X11831121Y-12983929D02*
X11831121Y-13031548D01*
X11831121Y-13031548D02*
X11821597Y-13069643D01*
X11821597Y-13069643D02*
X11812073Y-13088691D01*
X11812073Y-13088691D02*
X11802550Y-13098215D01*
X11802550Y-13098215D02*
X11783502Y-13107739D01*
X11783502Y-13107739D02*
X11764454Y-13107739D01*
X11764454Y-13107739D02*
X11745407Y-13098215D01*
X11745407Y-13098215D02*
X11735883Y-13088691D01*
X11735883Y-13088691D02*
X11726359Y-13069643D01*
X11726359Y-13069643D02*
X11716835Y-13031548D01*
X11716835Y-13031548D02*
X11716835Y-12983929D01*
X11716835Y-12983929D02*
X11726359Y-12945834D01*
X11726359Y-12945834D02*
X11735883Y-12926786D01*
X11735883Y-12926786D02*
X11745407Y-12917262D01*
X11745407Y-12917262D02*
X11764454Y-12907739D01*
X11954931Y-12907739D02*
X11973978Y-12907739D01*
X11973978Y-12907739D02*
X11993026Y-12917262D01*
X11993026Y-12917262D02*
X12002550Y-12926786D01*
X12002550Y-12926786D02*
X12012073Y-12945834D01*
X12012073Y-12945834D02*
X12021597Y-12983929D01*
X12021597Y-12983929D02*
X12021597Y-13031548D01*
X12021597Y-13031548D02*
X12012073Y-13069643D01*
X12012073Y-13069643D02*
X12002550Y-13088691D01*
X12002550Y-13088691D02*
X11993026Y-13098215D01*
X11993026Y-13098215D02*
X11973978Y-13107739D01*
X11973978Y-13107739D02*
X11954931Y-13107739D01*
X11954931Y-13107739D02*
X11935883Y-13098215D01*
X11935883Y-13098215D02*
X11926359Y-13088691D01*
X11926359Y-13088691D02*
X11916835Y-13069643D01*
X11916835Y-13069643D02*
X11907312Y-13031548D01*
X11907312Y-13031548D02*
X11907312Y-12983929D01*
X11907312Y-12983929D02*
X11916835Y-12945834D01*
X11916835Y-12945834D02*
X11926359Y-12926786D01*
X11926359Y-12926786D02*
X11935883Y-12917262D01*
X11935883Y-12917262D02*
X11954931Y-12907739D01*
X12107312Y-13107739D02*
X12107312Y-12974405D01*
X12107312Y-12993453D02*
X12116835Y-12983929D01*
X12116835Y-12983929D02*
X12135883Y-12974405D01*
X12135883Y-12974405D02*
X12164454Y-12974405D01*
X12164454Y-12974405D02*
X12183502Y-12983929D01*
X12183502Y-12983929D02*
X12193026Y-13002977D01*
X12193026Y-13002977D02*
X12193026Y-13107739D01*
X12193026Y-13002977D02*
X12202550Y-12983929D01*
X12202550Y-12983929D02*
X12221597Y-12974405D01*
X12221597Y-12974405D02*
X12250169Y-12974405D01*
X12250169Y-12974405D02*
X12269216Y-12983929D01*
X12269216Y-12983929D02*
X12278740Y-13002977D01*
X12278740Y-13002977D02*
X12278740Y-13107739D01*
X12373978Y-13107739D02*
X12373978Y-12974405D01*
X12373978Y-12993453D02*
X12383502Y-12983929D01*
X12383502Y-12983929D02*
X12402550Y-12974405D01*
X12402550Y-12974405D02*
X12431121Y-12974405D01*
X12431121Y-12974405D02*
X12450169Y-12983929D01*
X12450169Y-12983929D02*
X12459693Y-13002977D01*
X12459693Y-13002977D02*
X12459693Y-13107739D01*
X12459693Y-13002977D02*
X12469216Y-12983929D01*
X12469216Y-12983929D02*
X12488264Y-12974405D01*
X12488264Y-12974405D02*
X12516835Y-12974405D01*
X12516835Y-12974405D02*
X12535883Y-12983929D01*
X12535883Y-12983929D02*
X12545407Y-13002977D01*
X12545407Y-13002977D02*
X12545407Y-13107739D01*
X12935883Y-12898215D02*
X12764455Y-13155358D01*
X13193026Y-12907739D02*
X13212074Y-12907739D01*
X13212074Y-12907739D02*
X13231121Y-12917262D01*
X13231121Y-12917262D02*
X13240645Y-12926786D01*
X13240645Y-12926786D02*
X13250169Y-12945834D01*
X13250169Y-12945834D02*
X13259693Y-12983929D01*
X13259693Y-12983929D02*
X13259693Y-13031548D01*
X13259693Y-13031548D02*
X13250169Y-13069643D01*
X13250169Y-13069643D02*
X13240645Y-13088691D01*
X13240645Y-13088691D02*
X13231121Y-13098215D01*
X13231121Y-13098215D02*
X13212074Y-13107739D01*
X13212074Y-13107739D02*
X13193026Y-13107739D01*
X13193026Y-13107739D02*
X13173978Y-13098215D01*
X13173978Y-13098215D02*
X13164455Y-13088691D01*
X13164455Y-13088691D02*
X13154931Y-13069643D01*
X13154931Y-13069643D02*
X13145407Y-13031548D01*
X13145407Y-13031548D02*
X13145407Y-12983929D01*
X13145407Y-12983929D02*
X13154931Y-12945834D01*
X13154931Y-12945834D02*
X13164455Y-12926786D01*
X13164455Y-12926786D02*
X13173978Y-12917262D01*
X13173978Y-12917262D02*
X13193026Y-12907739D01*
X13345407Y-13088691D02*
X13354931Y-13098215D01*
X13354931Y-13098215D02*
X13345407Y-13107739D01*
X13345407Y-13107739D02*
X13335883Y-13098215D01*
X13335883Y-13098215D02*
X13345407Y-13088691D01*
X13345407Y-13088691D02*
X13345407Y-13107739D01*
X13545407Y-13107739D02*
X13431121Y-13107739D01*
X13488264Y-13107739D02*
X13488264Y-12907739D01*
X13488264Y-12907739D02*
X13469216Y-12936310D01*
X13469216Y-12936310D02*
X13450169Y-12955358D01*
X13450169Y-12955358D02*
X13431121Y-12964881D01*
X13621597Y-12926786D02*
X13631121Y-12917262D01*
X13631121Y-12917262D02*
X13650169Y-12907739D01*
X13650169Y-12907739D02*
X13697788Y-12907739D01*
X13697788Y-12907739D02*
X13716836Y-12917262D01*
X13716836Y-12917262D02*
X13726359Y-12926786D01*
X13726359Y-12926786D02*
X13735883Y-12945834D01*
X13735883Y-12945834D02*
X13735883Y-12964881D01*
X13735883Y-12964881D02*
X13726359Y-12993453D01*
X13726359Y-12993453D02*
X13612074Y-13107739D01*
X13612074Y-13107739D02*
X13735883Y-13107739D01*
X13907312Y-12907739D02*
X13869216Y-12907739D01*
X13869216Y-12907739D02*
X13850169Y-12917262D01*
X13850169Y-12917262D02*
X13840645Y-12926786D01*
X13840645Y-12926786D02*
X13821597Y-12955358D01*
X13821597Y-12955358D02*
X13812074Y-12993453D01*
X13812074Y-12993453D02*
X13812074Y-13069643D01*
X13812074Y-13069643D02*
X13821597Y-13088691D01*
X13821597Y-13088691D02*
X13831121Y-13098215D01*
X13831121Y-13098215D02*
X13850169Y-13107739D01*
X13850169Y-13107739D02*
X13888264Y-13107739D01*
X13888264Y-13107739D02*
X13907312Y-13098215D01*
X13907312Y-13098215D02*
X13916836Y-13088691D01*
X13916836Y-13088691D02*
X13926359Y-13069643D01*
X13926359Y-13069643D02*
X13926359Y-13022024D01*
X13926359Y-13022024D02*
X13916836Y-13002977D01*
X13916836Y-13002977D02*
X13907312Y-12993453D01*
X13907312Y-12993453D02*
X13888264Y-12983929D01*
X13888264Y-12983929D02*
X13850169Y-12983929D01*
X13850169Y-12983929D02*
X13831121Y-12993453D01*
X13831121Y-12993453D02*
X13821597Y-13002977D01*
X13821597Y-13002977D02*
X13812074Y-13022024D01*
X14050169Y-12907739D02*
X14069217Y-12907739D01*
X14069217Y-12907739D02*
X14088264Y-12917262D01*
X14088264Y-12917262D02*
X14097788Y-12926786D01*
X14097788Y-12926786D02*
X14107312Y-12945834D01*
X14107312Y-12945834D02*
X14116836Y-12983929D01*
X14116836Y-12983929D02*
X14116836Y-13031548D01*
X14116836Y-13031548D02*
X14107312Y-13069643D01*
X14107312Y-13069643D02*
X14097788Y-13088691D01*
X14097788Y-13088691D02*
X14088264Y-13098215D01*
X14088264Y-13098215D02*
X14069217Y-13107739D01*
X14069217Y-13107739D02*
X14050169Y-13107739D01*
X14050169Y-13107739D02*
X14031121Y-13098215D01*
X14031121Y-13098215D02*
X14021597Y-13088691D01*
X14021597Y-13088691D02*
X14012074Y-13069643D01*
X14012074Y-13069643D02*
X14002550Y-13031548D01*
X14002550Y-13031548D02*
X14002550Y-12983929D01*
X14002550Y-12983929D02*
X14012074Y-12945834D01*
X14012074Y-12945834D02*
X14021597Y-12926786D01*
X14021597Y-12926786D02*
X14031121Y-12917262D01*
X14031121Y-12917262D02*
X14050169Y-12907739D01*
X14193026Y-12907739D02*
X14193026Y-12945834D01*
X14269217Y-12907739D02*
X14269217Y-12945834D01*
X14564455Y-13183929D02*
X14554931Y-13174405D01*
X14554931Y-13174405D02*
X14535883Y-13145834D01*
X14535883Y-13145834D02*
X14526359Y-13126786D01*
X14526359Y-13126786D02*
X14516836Y-13098215D01*
X14516836Y-13098215D02*
X14507312Y-13050596D01*
X14507312Y-13050596D02*
X14507312Y-13012501D01*
X14507312Y-13012501D02*
X14516836Y-12964881D01*
X14516836Y-12964881D02*
X14526359Y-12936310D01*
X14526359Y-12936310D02*
X14535883Y-12917262D01*
X14535883Y-12917262D02*
X14554931Y-12888691D01*
X14554931Y-12888691D02*
X14564455Y-12879167D01*
X14726359Y-12974405D02*
X14726359Y-13107739D01*
X14678740Y-12898215D02*
X14631121Y-13041072D01*
X14631121Y-13041072D02*
X14754931Y-13041072D01*
X14983502Y-13107739D02*
X14983502Y-12907739D01*
X15069217Y-13107739D02*
X15069217Y-13002977D01*
X15069217Y-13002977D02*
X15059693Y-12983929D01*
X15059693Y-12983929D02*
X15040645Y-12974405D01*
X15040645Y-12974405D02*
X15012074Y-12974405D01*
X15012074Y-12974405D02*
X14993026Y-12983929D01*
X14993026Y-12983929D02*
X14983502Y-12993453D01*
X15193026Y-13107739D02*
X15173979Y-13098215D01*
X15173979Y-13098215D02*
X15164455Y-13088691D01*
X15164455Y-13088691D02*
X15154931Y-13069643D01*
X15154931Y-13069643D02*
X15154931Y-13012501D01*
X15154931Y-13012501D02*
X15164455Y-12993453D01*
X15164455Y-12993453D02*
X15173979Y-12983929D01*
X15173979Y-12983929D02*
X15193026Y-12974405D01*
X15193026Y-12974405D02*
X15221598Y-12974405D01*
X15221598Y-12974405D02*
X15240645Y-12983929D01*
X15240645Y-12983929D02*
X15250169Y-12993453D01*
X15250169Y-12993453D02*
X15259693Y-13012501D01*
X15259693Y-13012501D02*
X15259693Y-13069643D01*
X15259693Y-13069643D02*
X15250169Y-13088691D01*
X15250169Y-13088691D02*
X15240645Y-13098215D01*
X15240645Y-13098215D02*
X15221598Y-13107739D01*
X15221598Y-13107739D02*
X15193026Y-13107739D01*
X15373979Y-13107739D02*
X15354931Y-13098215D01*
X15354931Y-13098215D02*
X15345407Y-13079167D01*
X15345407Y-13079167D02*
X15345407Y-12907739D01*
X15526360Y-13098215D02*
X15507312Y-13107739D01*
X15507312Y-13107739D02*
X15469217Y-13107739D01*
X15469217Y-13107739D02*
X15450169Y-13098215D01*
X15450169Y-13098215D02*
X15440645Y-13079167D01*
X15440645Y-13079167D02*
X15440645Y-13002977D01*
X15440645Y-13002977D02*
X15450169Y-12983929D01*
X15450169Y-12983929D02*
X15469217Y-12974405D01*
X15469217Y-12974405D02*
X15507312Y-12974405D01*
X15507312Y-12974405D02*
X15526360Y-12983929D01*
X15526360Y-12983929D02*
X15535883Y-13002977D01*
X15535883Y-13002977D02*
X15535883Y-13022024D01*
X15535883Y-13022024D02*
X15440645Y-13041072D01*
X15612074Y-13098215D02*
X15631121Y-13107739D01*
X15631121Y-13107739D02*
X15669217Y-13107739D01*
X15669217Y-13107739D02*
X15688264Y-13098215D01*
X15688264Y-13098215D02*
X15697788Y-13079167D01*
X15697788Y-13079167D02*
X15697788Y-13069643D01*
X15697788Y-13069643D02*
X15688264Y-13050596D01*
X15688264Y-13050596D02*
X15669217Y-13041072D01*
X15669217Y-13041072D02*
X15640645Y-13041072D01*
X15640645Y-13041072D02*
X15621598Y-13031548D01*
X15621598Y-13031548D02*
X15612074Y-13012501D01*
X15612074Y-13012501D02*
X15612074Y-13002977D01*
X15612074Y-13002977D02*
X15621598Y-12983929D01*
X15621598Y-12983929D02*
X15640645Y-12974405D01*
X15640645Y-12974405D02*
X15669217Y-12974405D01*
X15669217Y-12974405D02*
X15688264Y-12983929D01*
X15764455Y-13183929D02*
X15773979Y-13174405D01*
X15773979Y-13174405D02*
X15793026Y-13145834D01*
X15793026Y-13145834D02*
X15802550Y-13126786D01*
X15802550Y-13126786D02*
X15812074Y-13098215D01*
X15812074Y-13098215D02*
X15821598Y-13050596D01*
X15821598Y-13050596D02*
X15821598Y-13012501D01*
X15821598Y-13012501D02*
X15812074Y-12964881D01*
X15812074Y-12964881D02*
X15802550Y-12936310D01*
X15802550Y-12936310D02*
X15793026Y-12917262D01*
X15793026Y-12917262D02*
X15773979Y-12888691D01*
X15773979Y-12888691D02*
X15764455Y-12879167D01*
X16126360Y-13183929D02*
X16116836Y-13174405D01*
X16116836Y-13174405D02*
X16097788Y-13145834D01*
X16097788Y-13145834D02*
X16088264Y-13126786D01*
X16088264Y-13126786D02*
X16078741Y-13098215D01*
X16078741Y-13098215D02*
X16069217Y-13050596D01*
X16069217Y-13050596D02*
X16069217Y-13012501D01*
X16069217Y-13012501D02*
X16078741Y-12964881D01*
X16078741Y-12964881D02*
X16088264Y-12936310D01*
X16088264Y-12936310D02*
X16097788Y-12917262D01*
X16097788Y-12917262D02*
X16116836Y-12888691D01*
X16116836Y-12888691D02*
X16126360Y-12879167D01*
X16202550Y-12974405D02*
X16202550Y-13107739D01*
X16202550Y-12993453D02*
X16212074Y-12983929D01*
X16212074Y-12983929D02*
X16231121Y-12974405D01*
X16231121Y-12974405D02*
X16259693Y-12974405D01*
X16259693Y-12974405D02*
X16278741Y-12983929D01*
X16278741Y-12983929D02*
X16288264Y-13002977D01*
X16288264Y-13002977D02*
X16288264Y-13107739D01*
X16412074Y-13107739D02*
X16393026Y-13098215D01*
X16393026Y-13098215D02*
X16383502Y-13088691D01*
X16383502Y-13088691D02*
X16373979Y-13069643D01*
X16373979Y-13069643D02*
X16373979Y-13012501D01*
X16373979Y-13012501D02*
X16383502Y-12993453D01*
X16383502Y-12993453D02*
X16393026Y-12983929D01*
X16393026Y-12983929D02*
X16412074Y-12974405D01*
X16412074Y-12974405D02*
X16440645Y-12974405D01*
X16440645Y-12974405D02*
X16459693Y-12983929D01*
X16459693Y-12983929D02*
X16469217Y-12993453D01*
X16469217Y-12993453D02*
X16478741Y-13012501D01*
X16478741Y-13012501D02*
X16478741Y-13069643D01*
X16478741Y-13069643D02*
X16469217Y-13088691D01*
X16469217Y-13088691D02*
X16459693Y-13098215D01*
X16459693Y-13098215D02*
X16440645Y-13107739D01*
X16440645Y-13107739D02*
X16412074Y-13107739D01*
X16535883Y-12974405D02*
X16612074Y-12974405D01*
X16564455Y-12907739D02*
X16564455Y-13079167D01*
X16564455Y-13079167D02*
X16573979Y-13098215D01*
X16573979Y-13098215D02*
X16593026Y-13107739D01*
X16593026Y-13107739D02*
X16612074Y-13107739D01*
X16831122Y-12974405D02*
X16831122Y-13174405D01*
X16831122Y-12983929D02*
X16850169Y-12974405D01*
X16850169Y-12974405D02*
X16888265Y-12974405D01*
X16888265Y-12974405D02*
X16907312Y-12983929D01*
X16907312Y-12983929D02*
X16916836Y-12993453D01*
X16916836Y-12993453D02*
X16926360Y-13012501D01*
X16926360Y-13012501D02*
X16926360Y-13069643D01*
X16926360Y-13069643D02*
X16916836Y-13088691D01*
X16916836Y-13088691D02*
X16907312Y-13098215D01*
X16907312Y-13098215D02*
X16888265Y-13107739D01*
X16888265Y-13107739D02*
X16850169Y-13107739D01*
X16850169Y-13107739D02*
X16831122Y-13098215D01*
X17040645Y-13107739D02*
X17021598Y-13098215D01*
X17021598Y-13098215D02*
X17012074Y-13079167D01*
X17012074Y-13079167D02*
X17012074Y-12907739D01*
X17202550Y-13107739D02*
X17202550Y-13002977D01*
X17202550Y-13002977D02*
X17193026Y-12983929D01*
X17193026Y-12983929D02*
X17173979Y-12974405D01*
X17173979Y-12974405D02*
X17135884Y-12974405D01*
X17135884Y-12974405D02*
X17116836Y-12983929D01*
X17202550Y-13098215D02*
X17183503Y-13107739D01*
X17183503Y-13107739D02*
X17135884Y-13107739D01*
X17135884Y-13107739D02*
X17116836Y-13098215D01*
X17116836Y-13098215D02*
X17107312Y-13079167D01*
X17107312Y-13079167D02*
X17107312Y-13060120D01*
X17107312Y-13060120D02*
X17116836Y-13041072D01*
X17116836Y-13041072D02*
X17135884Y-13031548D01*
X17135884Y-13031548D02*
X17183503Y-13031548D01*
X17183503Y-13031548D02*
X17202550Y-13022024D01*
X17269217Y-12974405D02*
X17345407Y-12974405D01*
X17297788Y-12907739D02*
X17297788Y-13079167D01*
X17297788Y-13079167D02*
X17307312Y-13098215D01*
X17307312Y-13098215D02*
X17326360Y-13107739D01*
X17326360Y-13107739D02*
X17345407Y-13107739D01*
X17488265Y-13098215D02*
X17469217Y-13107739D01*
X17469217Y-13107739D02*
X17431122Y-13107739D01*
X17431122Y-13107739D02*
X17412074Y-13098215D01*
X17412074Y-13098215D02*
X17402550Y-13079167D01*
X17402550Y-13079167D02*
X17402550Y-13002977D01*
X17402550Y-13002977D02*
X17412074Y-12983929D01*
X17412074Y-12983929D02*
X17431122Y-12974405D01*
X17431122Y-12974405D02*
X17469217Y-12974405D01*
X17469217Y-12974405D02*
X17488265Y-12983929D01*
X17488265Y-12983929D02*
X17497788Y-13002977D01*
X17497788Y-13002977D02*
X17497788Y-13022024D01*
X17497788Y-13022024D02*
X17402550Y-13041072D01*
X17669217Y-13107739D02*
X17669217Y-12907739D01*
X17669217Y-13098215D02*
X17650169Y-13107739D01*
X17650169Y-13107739D02*
X17612074Y-13107739D01*
X17612074Y-13107739D02*
X17593026Y-13098215D01*
X17593026Y-13098215D02*
X17583503Y-13088691D01*
X17583503Y-13088691D02*
X17573979Y-13069643D01*
X17573979Y-13069643D02*
X17573979Y-13012501D01*
X17573979Y-13012501D02*
X17583503Y-12993453D01*
X17583503Y-12993453D02*
X17593026Y-12983929D01*
X17593026Y-12983929D02*
X17612074Y-12974405D01*
X17612074Y-12974405D02*
X17650169Y-12974405D01*
X17650169Y-12974405D02*
X17669217Y-12983929D01*
X17745407Y-13183929D02*
X17754931Y-13174405D01*
X17754931Y-13174405D02*
X17773979Y-13145834D01*
X17773979Y-13145834D02*
X17783503Y-13126786D01*
X17783503Y-13126786D02*
X17793026Y-13098215D01*
X17793026Y-13098215D02*
X17802550Y-13050596D01*
X17802550Y-13050596D02*
X17802550Y-13012501D01*
X17802550Y-13012501D02*
X17793026Y-12964881D01*
X17793026Y-12964881D02*
X17783503Y-12936310D01*
X17783503Y-12936310D02*
X17773979Y-12917262D01*
X17773979Y-12917262D02*
X17754931Y-12888691D01*
X17754931Y-12888691D02*
X17745407Y-12879167D01*
M02*
