G04 #@! TF.GenerationSoftware,KiCad,Pcbnew,8.0.3*
G04 #@! TF.CreationDate,2025-10-23T09:13:21+09:00*
G04 #@! TF.ProjectId,dcdc_V8,64636463-5f56-4382-9e6b-696361645f70,rev?*
G04 #@! TF.SameCoordinates,Original*
G04 #@! TF.FileFunction,Paste,Top*
G04 #@! TF.FilePolarity,Positive*
%FSLAX46Y46*%
G04 Gerber Fmt 4.6, Leading zero omitted, Abs format (unit mm)*
G04 Created by KiCad (PCBNEW 8.0.3) date 2025-10-23 09:13:21*
%MOMM*%
%LPD*%
G01*
G04 APERTURE LIST*
G04 Aperture macros list*
%AMRoundRect*
0 Rectangle with rounded corners*
0 $1 Rounding radius*
0 $2 $3 $4 $5 $6 $7 $8 $9 X,Y pos of 4 corners*
0 Add a 4 corners polygon primitive as box body*
4,1,4,$2,$3,$4,$5,$6,$7,$8,$9,$2,$3,0*
0 Add four circle primitives for the rounded corners*
1,1,$1+$1,$2,$3*
1,1,$1+$1,$4,$5*
1,1,$1+$1,$6,$7*
1,1,$1+$1,$8,$9*
0 Add four rect primitives between the rounded corners*
20,1,$1+$1,$2,$3,$4,$5,0*
20,1,$1+$1,$4,$5,$6,$7,0*
20,1,$1+$1,$6,$7,$8,$9,0*
20,1,$1+$1,$8,$9,$2,$3,0*%
G04 Aperture macros list end*
%ADD10RoundRect,0.237500X-0.287500X-0.237500X0.287500X-0.237500X0.287500X0.237500X-0.287500X0.237500X0*%
%ADD11RoundRect,0.162500X0.162500X-0.612500X0.162500X0.612500X-0.162500X0.612500X-0.162500X-0.612500X0*%
%ADD12RoundRect,0.250000X0.850000X0.350000X-0.850000X0.350000X-0.850000X-0.350000X0.850000X-0.350000X0*%
%ADD13RoundRect,0.250000X1.275000X1.125000X-1.275000X1.125000X-1.275000X-1.125000X1.275000X-1.125000X0*%
%ADD14R,3.250000X5.500000*%
%ADD15RoundRect,0.250000X-0.300000X0.300000X-0.300000X-0.300000X0.300000X-0.300000X0.300000X0.300000X0*%
%ADD16RoundRect,0.237500X0.287500X0.237500X-0.287500X0.237500X-0.287500X-0.237500X0.287500X-0.237500X0*%
%ADD17RoundRect,0.150000X-0.825000X-0.150000X0.825000X-0.150000X0.825000X0.150000X-0.825000X0.150000X0*%
%ADD18R,0.550000X1.150000*%
%ADD19R,0.250000X1.150000*%
%ADD20RoundRect,0.250000X0.300000X-2.050000X0.300000X2.050000X-0.300000X2.050000X-0.300000X-2.050000X0*%
%ADD21RoundRect,0.250000X2.375000X-2.025000X2.375000X2.025000X-2.375000X2.025000X-2.375000X-2.025000X0*%
G04 APERTURE END LIST*
D10*
G04 #@! TO.C,D3*
X150870000Y-109990000D03*
X152620000Y-109990000D03*
G04 #@! TD*
D11*
G04 #@! TO.C,SW2*
X141500000Y-116310000D03*
X141500000Y-111660000D03*
X143650000Y-116310000D03*
X143650000Y-111660000D03*
G04 #@! TD*
D12*
G04 #@! TO.C,Q1*
X185400000Y-104500000D03*
D13*
X180775000Y-103745000D03*
X180775000Y-100695000D03*
X177425000Y-103745000D03*
X177425000Y-100695000D03*
D12*
X185400000Y-99940000D03*
G04 #@! TD*
G04 #@! TO.C,U3*
X129105000Y-114155000D03*
D13*
X124480000Y-113400000D03*
X124480000Y-110350000D03*
X121130000Y-113400000D03*
X121130000Y-110350000D03*
D12*
X129105000Y-109595000D03*
G04 #@! TD*
D14*
G04 #@! TO.C,L1*
X153755000Y-94020000D03*
X142505000Y-94020000D03*
G04 #@! TD*
D15*
G04 #@! TO.C,D1*
X188200000Y-100900000D03*
X188200000Y-103700000D03*
G04 #@! TD*
D16*
G04 #@! TO.C,D5*
X149130000Y-109990000D03*
X147380000Y-109990000D03*
G04 #@! TD*
D17*
G04 #@! TO.C,U4*
X133155000Y-108900000D03*
X133155000Y-110170000D03*
X133155000Y-111440000D03*
X133155000Y-112710000D03*
X133155000Y-113980000D03*
X133155000Y-115250000D03*
X133155000Y-116520000D03*
X138105000Y-116520000D03*
X138105000Y-115250000D03*
X138105000Y-113980000D03*
X138105000Y-112710000D03*
X138105000Y-111440000D03*
X138105000Y-110170000D03*
X138105000Y-108900000D03*
G04 #@! TD*
D18*
G04 #@! TO.C,J1*
X146800000Y-113035000D03*
X147600000Y-113035000D03*
D19*
X148750000Y-113035000D03*
X149750000Y-113035000D03*
X150250000Y-113035000D03*
X151250000Y-113035000D03*
D18*
X153200000Y-113035000D03*
X152400000Y-113035000D03*
D19*
X151750000Y-113035000D03*
X150750000Y-113035000D03*
X149250000Y-113035000D03*
X148250000Y-113035000D03*
G04 #@! TD*
D20*
G04 #@! TO.C,U1*
X130515000Y-102125000D03*
X132215000Y-102125000D03*
X133915000Y-102125000D03*
X135615000Y-102125000D03*
X137315000Y-102125000D03*
D21*
X131140000Y-95400000D03*
X136690000Y-95400000D03*
X131140000Y-90550000D03*
X136690000Y-90550000D03*
G04 #@! TD*
M02*
