G04 #@! TF.GenerationSoftware,KiCad,Pcbnew,8.0.3*
G04 #@! TF.CreationDate,2025-10-23T09:13:21+09:00*
G04 #@! TF.ProjectId,dcdc_V8,64636463-5f56-4382-9e6b-696361645f70,rev?*
G04 #@! TF.SameCoordinates,Original*
G04 #@! TF.FileFunction,Soldermask,Bot*
G04 #@! TF.FilePolarity,Negative*
%FSLAX46Y46*%
G04 Gerber Fmt 4.6, Leading zero omitted, Abs format (unit mm)*
G04 Created by KiCad (PCBNEW 8.0.3) date 2025-10-23 09:13:21*
%MOMM*%
%LPD*%
G01*
G04 APERTURE LIST*
G04 Aperture macros list*
%AMRoundRect*
0 Rectangle with rounded corners*
0 $1 Rounding radius*
0 $2 $3 $4 $5 $6 $7 $8 $9 X,Y pos of 4 corners*
0 Add a 4 corners polygon primitive as box body*
4,1,4,$2,$3,$4,$5,$6,$7,$8,$9,$2,$3,0*
0 Add four circle primitives for the rounded corners*
1,1,$1+$1,$2,$3*
1,1,$1+$1,$4,$5*
1,1,$1+$1,$6,$7*
1,1,$1+$1,$8,$9*
0 Add four rect primitives between the rounded corners*
20,1,$1+$1,$2,$3,$4,$5,0*
20,1,$1+$1,$4,$5,$6,$7,0*
20,1,$1+$1,$6,$7,$8,$9,0*
20,1,$1+$1,$8,$9,$2,$3,0*%
G04 Aperture macros list end*
%ADD10RoundRect,0.250000X-0.600000X-0.725000X0.600000X-0.725000X0.600000X0.725000X-0.600000X0.725000X0*%
%ADD11O,1.700000X1.950000*%
%ADD12RoundRect,0.675000X0.530344X0.793716X-0.793716X0.530344X-0.530344X-0.793716X0.793716X-0.530344X0*%
%ADD13C,2.700000*%
%ADD14R,1.800000X1.800000*%
%ADD15O,1.800000X1.800000*%
%ADD16R,1.600000X1.600000*%
%ADD17C,1.600000*%
%ADD18O,1.600000X1.600000*%
%ADD19C,3.200000*%
%ADD20RoundRect,0.250000X-0.600000X-0.750000X0.600000X-0.750000X0.600000X0.750000X-0.600000X0.750000X0*%
%ADD21O,1.700000X2.000000*%
%ADD22R,3.800000X3.800000*%
%ADD23C,3.800000*%
%ADD24C,0.480000*%
%ADD25O,1.204000X2.004000*%
%ADD26O,1.204000X2.304000*%
%ADD27R,1.700000X1.700000*%
%ADD28O,1.700000X1.700000*%
%ADD29RoundRect,0.237500X0.237500X-0.300000X0.237500X0.300000X-0.237500X0.300000X-0.237500X-0.300000X0*%
%ADD30RoundRect,0.237500X0.300000X0.237500X-0.300000X0.237500X-0.300000X-0.237500X0.300000X-0.237500X0*%
%ADD31RoundRect,0.087500X-0.087500X0.725000X-0.087500X-0.725000X0.087500X-0.725000X0.087500X0.725000X0*%
%ADD32RoundRect,0.237500X-0.300000X-0.237500X0.300000X-0.237500X0.300000X0.237500X-0.300000X0.237500X0*%
%ADD33RoundRect,0.250000X0.475000X-0.250000X0.475000X0.250000X-0.475000X0.250000X-0.475000X-0.250000X0*%
%ADD34RoundRect,0.237500X0.250000X0.237500X-0.250000X0.237500X-0.250000X-0.237500X0.250000X-0.237500X0*%
%ADD35RoundRect,0.250000X0.300000X0.300000X-0.300000X0.300000X-0.300000X-0.300000X0.300000X-0.300000X0*%
%ADD36RoundRect,0.237500X-0.250000X-0.237500X0.250000X-0.237500X0.250000X0.237500X-0.250000X0.237500X0*%
%ADD37RoundRect,0.250000X0.312500X0.625000X-0.312500X0.625000X-0.312500X-0.625000X0.312500X-0.625000X0*%
%ADD38RoundRect,0.200000X-0.275000X0.200000X-0.275000X-0.200000X0.275000X-0.200000X0.275000X0.200000X0*%
G04 APERTURE END LIST*
D10*
G04 #@! TO.C,MDR_1*
X124380000Y-83045000D03*
D11*
X126880000Y-83045000D03*
X129380000Y-83045000D03*
G04 #@! TD*
D12*
G04 #@! TO.C,F1*
X180582974Y-111915732D03*
X173952866Y-113234544D03*
D13*
X164547135Y-115105459D03*
X157917026Y-116424269D03*
G04 #@! TD*
D14*
G04 #@! TO.C,SBD1*
X158750000Y-98550000D03*
D15*
X158750000Y-88390000D03*
G04 #@! TD*
D16*
G04 #@! TO.C,C12*
X124190000Y-103080000D03*
D17*
X126190000Y-103080000D03*
G04 #@! TD*
G04 #@! TO.C,R2*
X158750000Y-101060000D03*
D18*
X158750000Y-111220000D03*
G04 #@! TD*
D19*
G04 #@! TO.C,H4*
X185909210Y-110417583D03*
G04 #@! TD*
G04 #@! TO.C,H4*
X185909210Y-87875465D03*
G04 #@! TD*
G04 #@! TO.C,H3*
X114089679Y-110417583D03*
G04 #@! TD*
D20*
G04 #@! TO.C,Line_1*
X162630000Y-83030000D03*
D21*
X165130000Y-83030000D03*
G04 #@! TD*
D17*
G04 #@! TO.C,C2*
X118650000Y-93570000D03*
X123650000Y-93570000D03*
G04 #@! TD*
G04 #@! TO.C,R4*
X143410000Y-102670000D03*
D18*
X153570000Y-102670000D03*
G04 #@! TD*
D17*
G04 #@! TO.C,R1*
X187580000Y-96450000D03*
D18*
X177420000Y-96450000D03*
G04 #@! TD*
D22*
G04 #@! TO.C,LiPo_1*
X172150000Y-83100000D03*
D23*
X177150000Y-83100000D03*
G04 #@! TD*
D19*
G04 #@! TO.C,H3*
X114089679Y-87878294D03*
G04 #@! TD*
D20*
G04 #@! TO.C,main_psu1*
X144730000Y-83055000D03*
D21*
X147230000Y-83055000D03*
G04 #@! TD*
D20*
G04 #@! TO.C,UI_1*
X153690000Y-83045000D03*
D21*
X156190000Y-83045000D03*
G04 #@! TD*
D24*
G04 #@! TO.C,J1*
X147110000Y-114100000D03*
X152890000Y-114100000D03*
D25*
X145680000Y-117780000D03*
X154320000Y-117780000D03*
D26*
X145680000Y-113600000D03*
X154320000Y-113600000D03*
G04 #@! TD*
D17*
G04 #@! TO.C,R5*
X153540000Y-105840000D03*
D18*
X143380000Y-105840000D03*
G04 #@! TD*
D17*
G04 #@! TO.C,C1*
X117390000Y-103100000D03*
X119890000Y-103100000D03*
G04 #@! TD*
D27*
G04 #@! TO.C,SW1*
X177225000Y-90300000D03*
D28*
X177225000Y-92840000D03*
G04 #@! TD*
D27*
G04 #@! TO.C,OLED_1*
X113514970Y-97342582D03*
D28*
X113514970Y-99882582D03*
G04 #@! TD*
D20*
G04 #@! TO.C,main_uart1*
X135820000Y-83055000D03*
D21*
X138320000Y-83055000D03*
G04 #@! TD*
D29*
G04 #@! TO.C,C8*
X141620000Y-105055000D03*
X141620000Y-103330000D03*
G04 #@! TD*
D14*
G04 #@! TO.C,SBD2*
X142460000Y-108850000D03*
D15*
X142460000Y-119010000D03*
G04 #@! TD*
D30*
G04 #@! TO.C,C11*
X128282500Y-107240000D03*
X126557500Y-107240000D03*
G04 #@! TD*
D31*
G04 #@! TO.C,U2*
X148995000Y-115357500D03*
X149495000Y-115357500D03*
X149995000Y-115357500D03*
X150495000Y-115357500D03*
X150995000Y-115357500D03*
X150995000Y-119582500D03*
X150495000Y-119582500D03*
X149995000Y-119582500D03*
X149495000Y-119582500D03*
X148995000Y-119582500D03*
G04 #@! TD*
D32*
G04 #@! TO.C,C10*
X131537500Y-113400000D03*
X133262500Y-113400000D03*
G04 #@! TD*
D33*
G04 #@! TO.C,C9*
X131890000Y-111870000D03*
X131890000Y-109970000D03*
G04 #@! TD*
D34*
G04 #@! TO.C,R6*
X147412500Y-111020000D03*
X145587500Y-111020000D03*
G04 #@! TD*
D35*
G04 #@! TO.C,D2*
X129750000Y-111960000D03*
X126950000Y-111960000D03*
G04 #@! TD*
D36*
G04 #@! TO.C,R9*
X152425000Y-111000000D03*
X154250000Y-111000000D03*
G04 #@! TD*
D29*
G04 #@! TO.C,C5*
X152530000Y-119005000D03*
X152530000Y-117280000D03*
G04 #@! TD*
D37*
G04 #@! TO.C,R7*
X154695000Y-108710000D03*
X151770000Y-108710000D03*
G04 #@! TD*
D32*
G04 #@! TO.C,C3*
X130967500Y-106330000D03*
X132692500Y-106330000D03*
G04 #@! TD*
D29*
G04 #@! TO.C,C4*
X147460000Y-119000000D03*
X147460000Y-117275000D03*
G04 #@! TD*
D37*
G04 #@! TO.C,R8*
X148740000Y-108700000D03*
X145815000Y-108700000D03*
G04 #@! TD*
D38*
G04 #@! TO.C,R3*
X140080000Y-113985000D03*
X140080000Y-115635000D03*
G04 #@! TD*
M02*
