G04 #@! TF.GenerationSoftware,KiCad,Pcbnew,8.0.3*
G04 #@! TF.CreationDate,2025-10-23T09:13:21+09:00*
G04 #@! TF.ProjectId,dcdc_V8,64636463-5f56-4382-9e6b-696361645f70,rev?*
G04 #@! TF.SameCoordinates,Original*
G04 #@! TF.FileFunction,Copper,L2,Bot*
G04 #@! TF.FilePolarity,Positive*
%FSLAX46Y46*%
G04 Gerber Fmt 4.6, Leading zero omitted, Abs format (unit mm)*
G04 Created by KiCad (PCBNEW 8.0.3) date 2025-10-23 09:13:21*
%MOMM*%
%LPD*%
G01*
G04 APERTURE LIST*
G04 Aperture macros list*
%AMRoundRect*
0 Rectangle with rounded corners*
0 $1 Rounding radius*
0 $2 $3 $4 $5 $6 $7 $8 $9 X,Y pos of 4 corners*
0 Add a 4 corners polygon primitive as box body*
4,1,4,$2,$3,$4,$5,$6,$7,$8,$9,$2,$3,0*
0 Add four circle primitives for the rounded corners*
1,1,$1+$1,$2,$3*
1,1,$1+$1,$4,$5*
1,1,$1+$1,$6,$7*
1,1,$1+$1,$8,$9*
0 Add four rect primitives between the rounded corners*
20,1,$1+$1,$2,$3,$4,$5,0*
20,1,$1+$1,$4,$5,$6,$7,0*
20,1,$1+$1,$6,$7,$8,$9,0*
20,1,$1+$1,$8,$9,$2,$3,0*%
G04 Aperture macros list end*
G04 #@! TA.AperFunction,ComponentPad*
%ADD10RoundRect,0.250000X-0.600000X-0.725000X0.600000X-0.725000X0.600000X0.725000X-0.600000X0.725000X0*%
G04 #@! TD*
G04 #@! TA.AperFunction,ComponentPad*
%ADD11O,1.700000X1.950000*%
G04 #@! TD*
G04 #@! TA.AperFunction,ComponentPad*
%ADD12RoundRect,0.675000X0.530344X0.793716X-0.793716X0.530344X-0.530344X-0.793716X0.793716X-0.530344X0*%
G04 #@! TD*
G04 #@! TA.AperFunction,ComponentPad*
%ADD13C,2.700000*%
G04 #@! TD*
G04 #@! TA.AperFunction,ComponentPad*
%ADD14R,1.800000X1.800000*%
G04 #@! TD*
G04 #@! TA.AperFunction,ComponentPad*
%ADD15O,1.800000X1.800000*%
G04 #@! TD*
G04 #@! TA.AperFunction,ComponentPad*
%ADD16R,1.600000X1.600000*%
G04 #@! TD*
G04 #@! TA.AperFunction,ComponentPad*
%ADD17C,1.600000*%
G04 #@! TD*
G04 #@! TA.AperFunction,ComponentPad*
%ADD18O,1.600000X1.600000*%
G04 #@! TD*
G04 #@! TA.AperFunction,ComponentPad*
%ADD19RoundRect,0.250000X-0.600000X-0.750000X0.600000X-0.750000X0.600000X0.750000X-0.600000X0.750000X0*%
G04 #@! TD*
G04 #@! TA.AperFunction,ComponentPad*
%ADD20O,1.700000X2.000000*%
G04 #@! TD*
G04 #@! TA.AperFunction,ComponentPad*
%ADD21R,3.800000X3.800000*%
G04 #@! TD*
G04 #@! TA.AperFunction,ComponentPad*
%ADD22C,3.800000*%
G04 #@! TD*
G04 #@! TA.AperFunction,ComponentPad*
%ADD23O,1.000000X1.800000*%
G04 #@! TD*
G04 #@! TA.AperFunction,ComponentPad*
%ADD24O,1.000000X2.100000*%
G04 #@! TD*
G04 #@! TA.AperFunction,ComponentPad*
%ADD25R,1.700000X1.700000*%
G04 #@! TD*
G04 #@! TA.AperFunction,ComponentPad*
%ADD26O,1.700000X1.700000*%
G04 #@! TD*
G04 #@! TA.AperFunction,SMDPad,CuDef*
%ADD27RoundRect,0.237500X0.237500X-0.300000X0.237500X0.300000X-0.237500X0.300000X-0.237500X-0.300000X0*%
G04 #@! TD*
G04 #@! TA.AperFunction,SMDPad,CuDef*
%ADD28RoundRect,0.237500X0.300000X0.237500X-0.300000X0.237500X-0.300000X-0.237500X0.300000X-0.237500X0*%
G04 #@! TD*
G04 #@! TA.AperFunction,SMDPad,CuDef*
%ADD29RoundRect,0.087500X-0.087500X0.725000X-0.087500X-0.725000X0.087500X-0.725000X0.087500X0.725000X0*%
G04 #@! TD*
G04 #@! TA.AperFunction,SMDPad,CuDef*
%ADD30RoundRect,0.237500X-0.300000X-0.237500X0.300000X-0.237500X0.300000X0.237500X-0.300000X0.237500X0*%
G04 #@! TD*
G04 #@! TA.AperFunction,SMDPad,CuDef*
%ADD31RoundRect,0.250000X0.475000X-0.250000X0.475000X0.250000X-0.475000X0.250000X-0.475000X-0.250000X0*%
G04 #@! TD*
G04 #@! TA.AperFunction,SMDPad,CuDef*
%ADD32RoundRect,0.237500X0.250000X0.237500X-0.250000X0.237500X-0.250000X-0.237500X0.250000X-0.237500X0*%
G04 #@! TD*
G04 #@! TA.AperFunction,SMDPad,CuDef*
%ADD33RoundRect,0.250000X0.300000X0.300000X-0.300000X0.300000X-0.300000X-0.300000X0.300000X-0.300000X0*%
G04 #@! TD*
G04 #@! TA.AperFunction,SMDPad,CuDef*
%ADD34RoundRect,0.237500X-0.250000X-0.237500X0.250000X-0.237500X0.250000X0.237500X-0.250000X0.237500X0*%
G04 #@! TD*
G04 #@! TA.AperFunction,SMDPad,CuDef*
%ADD35RoundRect,0.250000X0.312500X0.625000X-0.312500X0.625000X-0.312500X-0.625000X0.312500X-0.625000X0*%
G04 #@! TD*
G04 #@! TA.AperFunction,SMDPad,CuDef*
%ADD36RoundRect,0.200000X-0.275000X0.200000X-0.275000X-0.200000X0.275000X-0.200000X0.275000X0.200000X0*%
G04 #@! TD*
G04 #@! TA.AperFunction,ViaPad*
%ADD37C,1.000000*%
G04 #@! TD*
G04 #@! TA.AperFunction,ViaPad*
%ADD38C,0.500000*%
G04 #@! TD*
G04 #@! TA.AperFunction,ViaPad*
%ADD39C,0.800000*%
G04 #@! TD*
G04 #@! TA.AperFunction,ViaPad*
%ADD40C,0.700000*%
G04 #@! TD*
G04 #@! TA.AperFunction,Conductor*
%ADD41C,3.000000*%
G04 #@! TD*
G04 #@! TA.AperFunction,Conductor*
%ADD42C,0.600000*%
G04 #@! TD*
G04 #@! TA.AperFunction,Conductor*
%ADD43C,2.500000*%
G04 #@! TD*
G04 #@! TA.AperFunction,Conductor*
%ADD44C,2.000000*%
G04 #@! TD*
G04 #@! TA.AperFunction,Conductor*
%ADD45C,1.000000*%
G04 #@! TD*
G04 #@! TA.AperFunction,Conductor*
%ADD46C,0.250000*%
G04 #@! TD*
G04 #@! TA.AperFunction,Conductor*
%ADD47C,0.200000*%
G04 #@! TD*
G04 #@! TA.AperFunction,Conductor*
%ADD48C,0.500000*%
G04 #@! TD*
G04 #@! TA.AperFunction,Conductor*
%ADD49C,1.500000*%
G04 #@! TD*
G04 #@! TA.AperFunction,Conductor*
%ADD50C,0.800000*%
G04 #@! TD*
G04 #@! TA.AperFunction,Conductor*
%ADD51C,1.200000*%
G04 #@! TD*
G04 #@! TA.AperFunction,Conductor*
%ADD52C,0.700000*%
G04 #@! TD*
G04 #@! TA.AperFunction,Conductor*
%ADD53C,4.000000*%
G04 #@! TD*
G04 #@! TA.AperFunction,Conductor*
%ADD54C,0.300000*%
G04 #@! TD*
G04 APERTURE END LIST*
D10*
G04 #@! TO.P,MDR_1,1,Pin_1*
G04 #@! TO.N,VCC*
X124380000Y-83045000D03*
D11*
G04 #@! TO.P,MDR_1,2,Pin_2*
G04 #@! TO.N,+3.3V*
X126880000Y-83045000D03*
G04 #@! TO.P,MDR_1,3,Pin_3*
G04 #@! TO.N,GND*
X129380000Y-83045000D03*
G04 #@! TD*
D12*
G04 #@! TO.P,F1,1*
G04 #@! TO.N,Net-(D1-A)*
X180582974Y-111915732D03*
X173952866Y-113234544D03*
D13*
G04 #@! TO.P,F1,2*
G04 #@! TO.N,VCC*
X164547135Y-115105459D03*
X157917026Y-116424269D03*
G04 #@! TD*
D14*
G04 #@! TO.P,SBD1,1,K*
G04 #@! TO.N,Net-(SBD1-K)*
X158750000Y-98550000D03*
D15*
G04 #@! TO.P,SBD1,2,A*
G04 #@! TO.N,GND*
X158750000Y-88390000D03*
G04 #@! TD*
D16*
G04 #@! TO.P,C12,1*
G04 #@! TO.N,+3.3V*
X124190000Y-103080000D03*
D17*
G04 #@! TO.P,C12,2*
G04 #@! TO.N,GND*
X126190000Y-103080000D03*
G04 #@! TD*
G04 #@! TO.P,R2,1*
G04 #@! TO.N,+5V*
X158750000Y-101060000D03*
D18*
G04 #@! TO.P,R2,2*
G04 #@! TO.N,UPDI*
X158750000Y-111220000D03*
G04 #@! TD*
D19*
G04 #@! TO.P,Line_1,1,Pin_1*
G04 #@! TO.N,+5V*
X162630000Y-83030000D03*
D20*
G04 #@! TO.P,Line_1,2,Pin_2*
G04 #@! TO.N,GND*
X165130000Y-83030000D03*
G04 #@! TD*
D17*
G04 #@! TO.P,C2,1*
G04 #@! TO.N,+5V*
X118650000Y-93570000D03*
G04 #@! TO.P,C2,2*
G04 #@! TO.N,GND*
X123650000Y-93570000D03*
G04 #@! TD*
G04 #@! TO.P,R4,1*
G04 #@! TO.N,VOUT*
X143410000Y-102670000D03*
D18*
G04 #@! TO.P,R4,2*
G04 #@! TO.N,GND*
X153570000Y-102670000D03*
G04 #@! TD*
D17*
G04 #@! TO.P,R1,1*
G04 #@! TO.N,Net-(D1-K)*
X187580000Y-96450000D03*
D18*
G04 #@! TO.P,R1,2*
G04 #@! TO.N,Net-(Q1-G)*
X177420000Y-96450000D03*
G04 #@! TD*
D21*
G04 #@! TO.P,LiPo_1,1,-*
G04 #@! TO.N,GND*
X172150000Y-83100000D03*
D22*
G04 #@! TO.P,LiPo_1,2,+*
G04 #@! TO.N,Net-(D1-K)*
X177150000Y-83100000D03*
G04 #@! TD*
D19*
G04 #@! TO.P,main_psu1,1,Pin_1*
G04 #@! TO.N,+5V*
X144730000Y-83055000D03*
D20*
G04 #@! TO.P,main_psu1,2,Pin_2*
G04 #@! TO.N,GND*
X147230000Y-83055000D03*
G04 #@! TD*
D19*
G04 #@! TO.P,UI_1,1,Pin_1*
G04 #@! TO.N,+5V*
X153690000Y-83045000D03*
D20*
G04 #@! TO.P,UI_1,2,Pin_2*
G04 #@! TO.N,GND*
X156190000Y-83045000D03*
G04 #@! TD*
D23*
G04 #@! TO.P,J1,S1,SHIELD*
G04 #@! TO.N,GND*
X145680000Y-117780000D03*
G04 #@! TO.P,J1,S2,SHIELD*
X154320000Y-117780000D03*
D24*
G04 #@! TO.P,J1,S3,SHIELD*
X145680000Y-113600000D03*
G04 #@! TO.P,J1,S4,SHIELD*
X154320000Y-113600000D03*
G04 #@! TD*
D17*
G04 #@! TO.P,R5,1*
G04 #@! TO.N,VCC*
X153540000Y-105840000D03*
D18*
G04 #@! TO.P,R5,2*
G04 #@! TO.N,VOUT*
X143380000Y-105840000D03*
G04 #@! TD*
D17*
G04 #@! TO.P,C1,1*
G04 #@! TO.N,VCC*
X117390000Y-103100000D03*
G04 #@! TO.P,C1,2*
G04 #@! TO.N,GND*
X119890000Y-103100000D03*
G04 #@! TD*
D25*
G04 #@! TO.P,SW1,1,A*
G04 #@! TO.N,GND*
X177225000Y-90300000D03*
D26*
G04 #@! TO.P,SW1,2,B*
G04 #@! TO.N,Net-(Q1-G)*
X177225000Y-92840000D03*
G04 #@! TD*
D25*
G04 #@! TO.P,OLED_1,1,Pin_1*
G04 #@! TO.N,VCC*
X113514970Y-97342582D03*
D26*
G04 #@! TO.P,OLED_1,2,Pin_2*
G04 #@! TO.N,GND*
X113514970Y-99882582D03*
G04 #@! TD*
D19*
G04 #@! TO.P,main_uart1,1,Pin_1*
G04 #@! TO.N,mainRX\u2192subTX*
X135820000Y-83055000D03*
D20*
G04 #@! TO.P,main_uart1,2,Pin_2*
G04 #@! TO.N,mainTX\u2192subRX*
X138320000Y-83055000D03*
G04 #@! TD*
D27*
G04 #@! TO.P,C8,1*
G04 #@! TO.N,VOUT*
X141620000Y-105055000D03*
G04 #@! TO.P,C8,2*
G04 #@! TO.N,GND*
X141620000Y-103330000D03*
G04 #@! TD*
D14*
G04 #@! TO.P,SBD2,1,K*
G04 #@! TO.N,Net-(SBD2-K)*
X142460000Y-108850000D03*
D15*
G04 #@! TO.P,SBD2,2,A*
G04 #@! TO.N,Net-(SBD2-A)*
X142460000Y-119010000D03*
G04 #@! TD*
D28*
G04 #@! TO.P,C11,1*
G04 #@! TO.N,+3.3V*
X128282500Y-107240000D03*
G04 #@! TO.P,C11,2*
G04 #@! TO.N,GND*
X126557500Y-107240000D03*
G04 #@! TD*
D29*
G04 #@! TO.P,U2,1,UD+*
G04 #@! TO.N,D+*
X148995000Y-115357500D03*
G04 #@! TO.P,U2,2,UD-*
G04 #@! TO.N,D-*
X149495000Y-115357500D03*
G04 #@! TO.P,U2,3,GND*
G04 #@! TO.N,GND*
X149995000Y-115357500D03*
G04 #@! TO.P,U2,4,~{RTS}*
G04 #@! TO.N,unconnected-(U2-~{RTS}-Pad4)*
X150495000Y-115357500D03*
G04 #@! TO.P,U2,5,~{CTS}*
G04 #@! TO.N,unconnected-(U2-~{CTS}-Pad5)*
X150995000Y-115357500D03*
G04 #@! TO.P,U2,6,TNOW*
G04 #@! TO.N,unconnected-(U2-TNOW-Pad6)*
X150995000Y-119582500D03*
G04 #@! TO.P,U2,7,VCC*
G04 #@! TO.N,+3.3V*
X150495000Y-119582500D03*
G04 #@! TO.P,U2,8,TXD*
G04 #@! TO.N,Net-(SBD2-K)*
X149995000Y-119582500D03*
G04 #@! TO.P,U2,9,RXD*
G04 #@! TO.N,Net-(SBD2-A)*
X149495000Y-119582500D03*
G04 #@! TO.P,U2,10,V3*
G04 #@! TO.N,+3.3V*
X148995000Y-119582500D03*
G04 #@! TD*
D30*
G04 #@! TO.P,C10,1*
G04 #@! TO.N,+5V*
X131537500Y-113400000D03*
G04 #@! TO.P,C10,2*
G04 #@! TO.N,GND*
X133262500Y-113400000D03*
G04 #@! TD*
D31*
G04 #@! TO.P,C9,1*
G04 #@! TO.N,+5V*
X131890000Y-111870000D03*
G04 #@! TO.P,C9,2*
G04 #@! TO.N,GND*
X131890000Y-109970000D03*
G04 #@! TD*
D32*
G04 #@! TO.P,R6,1*
G04 #@! TO.N,Net-(J1-CC1)*
X147412500Y-111020000D03*
G04 #@! TO.P,R6,2*
G04 #@! TO.N,GND*
X145587500Y-111020000D03*
G04 #@! TD*
D33*
G04 #@! TO.P,D2,1,K*
G04 #@! TO.N,+5V*
X129750000Y-111960000D03*
G04 #@! TO.P,D2,2,A*
G04 #@! TO.N,+3.3V*
X126950000Y-111960000D03*
G04 #@! TD*
D34*
G04 #@! TO.P,R9,1*
G04 #@! TO.N,Net-(J1-CC2)*
X152425000Y-111000000D03*
G04 #@! TO.P,R9,2*
G04 #@! TO.N,GND*
X154250000Y-111000000D03*
G04 #@! TD*
D27*
G04 #@! TO.P,C5,1*
G04 #@! TO.N,GND*
X152530000Y-119005000D03*
G04 #@! TO.P,C5,2*
G04 #@! TO.N,+3.3V*
X152530000Y-117280000D03*
G04 #@! TD*
D35*
G04 #@! TO.P,R7,1*
G04 #@! TO.N,Net-(D3-A)*
X154695000Y-108710000D03*
G04 #@! TO.P,R7,2*
G04 #@! TO.N,Net-(J1-VBUS-PadA4_B9)*
X151770000Y-108710000D03*
G04 #@! TD*
D30*
G04 #@! TO.P,C3,1*
G04 #@! TO.N,+3.3V*
X130967500Y-106330000D03*
G04 #@! TO.P,C3,2*
G04 #@! TO.N,GND*
X132692500Y-106330000D03*
G04 #@! TD*
D27*
G04 #@! TO.P,C4,1*
G04 #@! TO.N,GND*
X147460000Y-119000000D03*
G04 #@! TO.P,C4,2*
G04 #@! TO.N,+3.3V*
X147460000Y-117275000D03*
G04 #@! TD*
D35*
G04 #@! TO.P,R8,1*
G04 #@! TO.N,Net-(D5-A)*
X148740000Y-108700000D03*
G04 #@! TO.P,R8,2*
G04 #@! TO.N,Net-(U4-PA5)*
X145815000Y-108700000D03*
G04 #@! TD*
D36*
G04 #@! TO.P,R3,1*
G04 #@! TO.N,UPDI*
X140080000Y-113985000D03*
G04 #@! TO.P,R3,2*
G04 #@! TO.N,Net-(SBD2-A)*
X140080000Y-115635000D03*
G04 #@! TD*
D37*
G04 #@! TO.N,VCC*
X137935000Y-106870000D03*
X148680000Y-102200000D03*
D38*
G04 #@! TO.N,GND*
X139080000Y-85060000D03*
X155700000Y-117350000D03*
X111150000Y-106370000D03*
X184500000Y-114200000D03*
X179550000Y-98200000D03*
X180250000Y-106250000D03*
X141640000Y-102550000D03*
X151800000Y-119010000D03*
X134310000Y-84810000D03*
X175600000Y-98100000D03*
D37*
X148600000Y-95280000D03*
D38*
X111090000Y-91130000D03*
X149990000Y-82960000D03*
X144190000Y-113370000D03*
X184450000Y-97640000D03*
X156650000Y-88400000D03*
X111140000Y-96690000D03*
X155450000Y-102750000D03*
X156650000Y-91300000D03*
X127370000Y-88650000D03*
X129650000Y-107990000D03*
X178950000Y-116000000D03*
X132210000Y-98700000D03*
X115890000Y-114170000D03*
X166700000Y-111050000D03*
X159750000Y-102700000D03*
X175650000Y-88650000D03*
X148680000Y-90280000D03*
X161100000Y-108950000D03*
X175750000Y-106350000D03*
X150000000Y-111100000D03*
X184900000Y-83700000D03*
X125410000Y-116780000D03*
X115120000Y-101740000D03*
X173550000Y-86650000D03*
X130000000Y-115760000D03*
X147770000Y-105970000D03*
X111140000Y-102100000D03*
X147450000Y-104460000D03*
X145530000Y-95770000D03*
X149700000Y-107250000D03*
X177580000Y-110710000D03*
X145410000Y-102790000D03*
X127480000Y-96090000D03*
X117070000Y-95240000D03*
X118400000Y-104940000D03*
X150270000Y-108400000D03*
X168950000Y-86500000D03*
X131410000Y-83190000D03*
X159750000Y-94200000D03*
X145210000Y-91620000D03*
X118250000Y-108100000D03*
X145400000Y-105600000D03*
X171850000Y-117650000D03*
X141900000Y-106560000D03*
X118330000Y-112020000D03*
X152320000Y-97950000D03*
X159800000Y-90000000D03*
X145037500Y-111020000D03*
X172700000Y-109850000D03*
X124480000Y-107160000D03*
X147440000Y-85200000D03*
X179010000Y-89850000D03*
X114060000Y-93480000D03*
X155500000Y-120050000D03*
X153580000Y-118800000D03*
X146500000Y-112050000D03*
X144150000Y-107800000D03*
X127440000Y-92320000D03*
X175150000Y-80200000D03*
X150200000Y-95240000D03*
X160250000Y-119400000D03*
X180520000Y-94330000D03*
X156750000Y-98050000D03*
X152550000Y-120200000D03*
X130230000Y-118050000D03*
X140360000Y-88330000D03*
X159300000Y-113800000D03*
X151600000Y-116700000D03*
X171700000Y-114250000D03*
X167550000Y-115050000D03*
X168550000Y-80150000D03*
X141770000Y-83180000D03*
X165850000Y-118650000D03*
X120270000Y-115760000D03*
X114650000Y-106230000D03*
X116580000Y-91190000D03*
X132680000Y-87040000D03*
X125170000Y-94960000D03*
X148060000Y-119000000D03*
X151700000Y-88450000D03*
X128530000Y-103360000D03*
X183450000Y-101610000D03*
X157200000Y-106750000D03*
D39*
X126690000Y-101230000D03*
D38*
X179450000Y-80950000D03*
G04 #@! TO.N,+3.3V*
X142480000Y-117290000D03*
X127910000Y-108000000D03*
X127810000Y-111860000D03*
X131760000Y-108170000D03*
G04 #@! TO.N,Net-(SBD2-K)*
X149920000Y-118260000D03*
G04 #@! TO.N,+5V*
X127480000Y-114150000D03*
D40*
X145480000Y-94020000D03*
D38*
X130290000Y-114155000D03*
G04 #@! TO.N,VOUT*
X140690000Y-108510000D03*
G04 #@! TO.N,Net-(D5-A)*
X147390000Y-109070000D03*
G04 #@! TO.N,D+*
X149283917Y-111996261D03*
G04 #@! TO.N,Net-(J1-CC2)*
X151746656Y-111798714D03*
G04 #@! TO.N,Net-(J1-CC1)*
X148320000Y-111840000D03*
G04 #@! TO.N,Net-(J1-VBUS-PadA4_B9)*
X153250000Y-111650000D03*
G04 #@! TO.N,D-*
X149512876Y-114265143D03*
G04 #@! TO.N,mainTX\u2192subRX*
X134940000Y-109400000D03*
G04 #@! TO.N,mainRX\u2192subTX*
X136347198Y-109110142D03*
X137450000Y-87230000D03*
G04 #@! TO.N,UPDI*
X142480000Y-116130000D03*
X145370000Y-115390000D03*
X139450000Y-113970000D03*
X152340000Y-115390000D03*
G04 #@! TO.N,Net-(SBD2-A)*
X148990913Y-118144087D03*
G04 #@! TO.N,Net-(U4-PA5)*
X134147198Y-111910000D03*
G04 #@! TO.N,Net-(D3-A)*
X153450000Y-109160000D03*
G04 #@! TD*
D41*
G04 #@! TO.N,VCC*
X137935000Y-106870000D02*
X138520000Y-106285000D01*
X141120000Y-99670000D02*
X146150000Y-99670000D01*
X138520000Y-102270000D02*
X141120000Y-99670000D01*
X138520000Y-106285000D02*
X138520000Y-102270000D01*
X146150000Y-99670000D02*
X148680000Y-102200000D01*
D42*
G04 #@! TO.N,GND*
X154320000Y-113600000D02*
X154250000Y-113530000D01*
X124930000Y-106710000D02*
X126027500Y-106710000D01*
X152735000Y-118800000D02*
X152530000Y-119005000D01*
D43*
X160217208Y-85650000D02*
X158750000Y-87117208D01*
D44*
X172150000Y-83100000D02*
X168350000Y-83100000D01*
X131715000Y-80710000D02*
X129380000Y-83045000D01*
D42*
X145770000Y-103970000D02*
X147770000Y-105970000D01*
D44*
X153570000Y-102670000D02*
X150270000Y-105970000D01*
D42*
X141620000Y-103330000D02*
X142231522Y-103330000D01*
X150270000Y-105970000D02*
X150270000Y-108400000D01*
D43*
X158750000Y-87117208D02*
X158750000Y-88390000D01*
D42*
X126557500Y-107920292D02*
X128607208Y-109970000D01*
X131890000Y-109970000D02*
X132860000Y-109000000D01*
D44*
X126690000Y-101230000D02*
X126690000Y-99700000D01*
D42*
X142231522Y-103330000D02*
X142871522Y-103970000D01*
D44*
X168350000Y-83100000D02*
X165200000Y-83100000D01*
D42*
X126027500Y-106710000D02*
X126557500Y-107240000D01*
X128607208Y-109970000D02*
X131890000Y-109970000D01*
X126557500Y-107240000D02*
X126557500Y-107920292D01*
D44*
X148600000Y-95280000D02*
X148600000Y-97700000D01*
D42*
X146460000Y-117000000D02*
X146460000Y-115065786D01*
D44*
X150270000Y-105970000D02*
X147770000Y-105970000D01*
D42*
X152530000Y-119005000D02*
X151805000Y-119005000D01*
D44*
X156465000Y-80710000D02*
X149575000Y-80710000D01*
D45*
X145587500Y-111020000D02*
X145587500Y-113507500D01*
D44*
X126690000Y-99700000D02*
X123650000Y-96660000D01*
D46*
X151600000Y-116700000D02*
X150439212Y-116700000D01*
D44*
X148600000Y-97700000D02*
X153570000Y-102670000D01*
X119890000Y-102227716D02*
X117544866Y-99882582D01*
X165960000Y-80710000D02*
X156465000Y-80710000D01*
X168350000Y-83100000D02*
X165960000Y-80710000D01*
X165200000Y-83100000D02*
X165130000Y-83030000D01*
X158525000Y-80710000D02*
X160000000Y-80710000D01*
D42*
X132780000Y-109970000D02*
X133262500Y-110452500D01*
X147460000Y-119000000D02*
X146900000Y-119000000D01*
D44*
X123650000Y-96660000D02*
X123650000Y-93570000D01*
D42*
X132860000Y-109000000D02*
X132860000Y-106497500D01*
D43*
X169900000Y-83100000D02*
X167350000Y-85650000D01*
D42*
X151805000Y-119005000D02*
X151800000Y-119010000D01*
D43*
X172150000Y-83100000D02*
X169900000Y-83100000D01*
D44*
X119890000Y-103100000D02*
X119890000Y-102227716D01*
D42*
X146460000Y-115065786D02*
X145680000Y-114285786D01*
X124480000Y-107160000D02*
X124930000Y-106710000D01*
D46*
X150439212Y-116700000D02*
X149995000Y-116255788D01*
D45*
X145587500Y-113507500D02*
X145680000Y-113600000D01*
D42*
X132860000Y-106497500D02*
X132692500Y-106330000D01*
X145680000Y-114285786D02*
X145680000Y-113600000D01*
X142871522Y-103970000D02*
X145770000Y-103970000D01*
X153580000Y-118800000D02*
X152735000Y-118800000D01*
D43*
X167350000Y-85650000D02*
X160217208Y-85650000D01*
D44*
X156190000Y-83045000D02*
X158525000Y-80710000D01*
X149575000Y-80710000D02*
X131715000Y-80710000D01*
D42*
X154250000Y-113530000D02*
X154250000Y-111000000D01*
X133262500Y-110452500D02*
X133262500Y-113400000D01*
D46*
X149995000Y-116255788D02*
X149995000Y-115357500D01*
D42*
X147460000Y-119000000D02*
X148060000Y-119000000D01*
X145680000Y-117780000D02*
X146460000Y-117000000D01*
D44*
X149575000Y-80710000D02*
X147230000Y-83055000D01*
D42*
X131890000Y-109970000D02*
X132780000Y-109970000D01*
X146900000Y-119000000D02*
X145680000Y-117780000D01*
D44*
X117544866Y-99882582D02*
X113514970Y-99882582D01*
D47*
G04 #@! TO.N,+3.3V*
X147460000Y-117275000D02*
X147460000Y-117430000D01*
D46*
X150495000Y-119582500D02*
X150495000Y-117835000D01*
D44*
X121180000Y-97510000D02*
X121180000Y-91720000D01*
X126880000Y-86020000D02*
X126880000Y-83045000D01*
D48*
X147220000Y-120080000D02*
X145940000Y-120080000D01*
D44*
X124190000Y-103080000D02*
X124190000Y-100520000D01*
D49*
X127260000Y-105460000D02*
X128130000Y-106330000D01*
D50*
X128130000Y-106330000D02*
X127900000Y-106560000D01*
D46*
X149940000Y-117280000D02*
X151380000Y-117280000D01*
D44*
X121180000Y-91720000D02*
X126880000Y-86020000D01*
X124190000Y-100520000D02*
X121180000Y-97510000D01*
D46*
X148995000Y-118961347D02*
X148995000Y-119582500D01*
D49*
X130967500Y-106330000D02*
X128130000Y-106330000D01*
D46*
X147460000Y-117426347D02*
X148995000Y-118961347D01*
D50*
X127910000Y-108000000D02*
X127910000Y-107250000D01*
D51*
X124190000Y-102817258D02*
X124200000Y-102807258D01*
D46*
X150495000Y-117835000D02*
X149940000Y-117280000D01*
D49*
X124190000Y-103080000D02*
X124190000Y-104780000D01*
D51*
X130970000Y-107380000D02*
X131760000Y-108170000D01*
D46*
X149340000Y-116680000D02*
X149940000Y-117280000D01*
D49*
X127810000Y-111860000D02*
X127050000Y-111860000D01*
D46*
X148497500Y-120080000D02*
X148995000Y-119582500D01*
X147220000Y-120080000D02*
X148497500Y-120080000D01*
D51*
X124190000Y-103080000D02*
X124190000Y-102817258D01*
D46*
X147460000Y-117275000D02*
X147460000Y-117426347D01*
X147460000Y-117275000D02*
X148055000Y-116680000D01*
D50*
X127900000Y-106560000D02*
X127900000Y-107240000D01*
D46*
X148055000Y-116680000D02*
X149340000Y-116680000D01*
D49*
X124190000Y-104780000D02*
X124870000Y-105460000D01*
X128130000Y-106330000D02*
X128007687Y-106452313D01*
D50*
X127910000Y-107250000D02*
X127900000Y-107240000D01*
D51*
X124200000Y-102807258D02*
X124200000Y-101900000D01*
D49*
X124870000Y-105460000D02*
X127260000Y-105460000D01*
D48*
X143150000Y-117290000D02*
X142480000Y-117290000D01*
X145940000Y-120080000D02*
X143150000Y-117290000D01*
D51*
X130970000Y-106332500D02*
X130970000Y-107380000D01*
D49*
X127050000Y-111860000D02*
X126950000Y-111960000D01*
D47*
X152530000Y-117280000D02*
X151380000Y-117280000D01*
D46*
G04 #@! TO.N,Net-(SBD2-K)*
X149920000Y-118260000D02*
X149995000Y-118335000D01*
X149995000Y-118335000D02*
X149995000Y-119582500D01*
D50*
G04 #@! TO.N,+5V*
X131537500Y-113400000D02*
X131537500Y-112987500D01*
D49*
X124630000Y-114150000D02*
X121950000Y-111470000D01*
D50*
X130782500Y-114155000D02*
X131537500Y-113400000D01*
X131537500Y-112222500D02*
X131890000Y-111870000D01*
D49*
X145480000Y-94020000D02*
X146620000Y-92880000D01*
X154950000Y-96150000D02*
X154950000Y-99800000D01*
X127480000Y-114150000D02*
X124630000Y-114150000D01*
X146620000Y-92880000D02*
X151680000Y-92880000D01*
X151680000Y-92880000D02*
X154950000Y-96150000D01*
D50*
X131537500Y-112987500D02*
X130510000Y-111960000D01*
D49*
X118650000Y-98230000D02*
X118650000Y-93570000D01*
D50*
X130290000Y-114155000D02*
X130782500Y-114155000D01*
D49*
X156210000Y-101060000D02*
X158750000Y-101060000D01*
X121950000Y-101530000D02*
X118650000Y-98230000D01*
D50*
X130510000Y-111960000D02*
X129750000Y-111960000D01*
D49*
X154950000Y-99800000D02*
X156210000Y-101060000D01*
X121950000Y-111470000D02*
X121950000Y-101530000D01*
D50*
X131537500Y-113400000D02*
X131537500Y-112222500D01*
D52*
G04 #@! TO.N,VOUT*
X140690000Y-105985000D02*
X141620000Y-105055000D01*
X140690000Y-108510000D02*
X140690000Y-105985000D01*
D51*
X142595000Y-105055000D02*
X143380000Y-105840000D01*
X141620000Y-105055000D02*
X142595000Y-105055000D01*
D53*
G04 #@! TO.N,Net-(D1-K)*
X182059210Y-88689210D02*
X177150000Y-83780000D01*
X186735000Y-95575000D02*
X182059210Y-90899210D01*
X177150000Y-83780000D02*
X177150000Y-83100000D01*
D41*
X186735000Y-95575000D02*
X187580000Y-96420000D01*
D43*
X187580000Y-96420000D02*
X187580000Y-96450000D01*
D53*
X182059210Y-90899210D02*
X182059210Y-88689210D01*
D54*
G04 #@! TO.N,Net-(D5-A)*
X147390000Y-109070000D02*
X147760000Y-108700000D01*
X147760000Y-108700000D02*
X148740000Y-108700000D01*
D46*
G04 #@! TO.N,D+*
X148995000Y-114515000D02*
X148995000Y-115357500D01*
X148650000Y-114170000D02*
X148995000Y-114515000D01*
X149283917Y-111996261D02*
X149013739Y-111996261D01*
X149013739Y-111996261D02*
X148650000Y-112360000D01*
X148650000Y-112360000D02*
X148650000Y-114170000D01*
D54*
G04 #@! TO.N,Net-(J1-CC2)*
X152425000Y-111120370D02*
X152425000Y-111000000D01*
X151746656Y-111798714D02*
X152425000Y-111120370D01*
G04 #@! TO.N,Net-(J1-CC1)*
X147500000Y-111020000D02*
X147412500Y-111020000D01*
X148320000Y-111840000D02*
X147500000Y-111020000D01*
G04 #@! TO.N,Net-(J1-VBUS-PadA4_B9)*
X153250000Y-111499932D02*
X153262500Y-111487432D01*
X153262500Y-111487432D02*
X153262500Y-110202500D01*
X153262500Y-110202500D02*
X151770000Y-108710000D01*
X153250000Y-111650000D02*
X153250000Y-111499932D01*
D46*
G04 #@! TO.N,D-*
X149512876Y-114441336D02*
X149495000Y-114459212D01*
X149512876Y-114265143D02*
X149512876Y-114441336D01*
X149495000Y-114459212D02*
X149495000Y-115357500D01*
D45*
G04 #@! TO.N,mainTX\u2192subRX*
X134940000Y-109400000D02*
X134060000Y-108520000D01*
X134060000Y-108520000D02*
X134060000Y-87940000D01*
X134060000Y-87940000D02*
X138320000Y-83680000D01*
X138320000Y-83680000D02*
X138320000Y-83055000D01*
G04 #@! TO.N,mainRX\u2192subTX*
X137450000Y-88610000D02*
X137450000Y-87230000D01*
X135260000Y-108022944D02*
X135260000Y-90800000D01*
X135260000Y-90800000D02*
X137450000Y-88610000D01*
X136347198Y-109110142D02*
X135260000Y-108022944D01*
G04 #@! TO.N,UPDI*
X152340000Y-115390000D02*
X152280000Y-115390000D01*
X145370000Y-115390000D02*
X143220000Y-115390000D01*
X141815000Y-113985000D02*
X143220000Y-115390000D01*
X155711370Y-115390000D02*
X158750000Y-112351370D01*
D46*
X140065000Y-113970000D02*
X140080000Y-113985000D01*
X139450000Y-113970000D02*
X140065000Y-113970000D01*
D45*
X152340000Y-115390000D02*
X155711370Y-115390000D01*
X140080000Y-113985000D02*
X141815000Y-113985000D01*
X143220000Y-115390000D02*
X142480000Y-116130000D01*
X158750000Y-112351370D02*
X158750000Y-111220000D01*
D46*
G04 #@! TO.N,Net-(SBD2-A)*
X148990913Y-118180125D02*
X149495000Y-118684212D01*
D45*
X140080000Y-116630000D02*
X142460000Y-119010000D01*
D46*
X148990913Y-118144087D02*
X148990913Y-118180125D01*
D45*
X140080000Y-115635000D02*
X140080000Y-116630000D01*
D46*
X149495000Y-118684212D02*
X149495000Y-119582500D01*
D42*
G04 #@! TO.N,Net-(U4-PA5)*
X134147198Y-111910000D02*
X135540000Y-111910000D01*
X135540000Y-111910000D02*
X135970000Y-111480000D01*
X135970000Y-111480000D02*
X142520000Y-111480000D01*
X145300000Y-108700000D02*
X145815000Y-108700000D01*
X142520000Y-111480000D02*
X145300000Y-108700000D01*
D54*
G04 #@! TO.N,Net-(D3-A)*
X153900000Y-108710000D02*
X154695000Y-108710000D01*
X153450000Y-109160000D02*
X153900000Y-108710000D01*
G04 #@! TD*
G04 #@! TA.AperFunction,Conductor*
G04 #@! TO.N,GND*
G36*
X178345729Y-79478015D02*
G01*
X178403285Y-79492184D01*
X185642445Y-83286246D01*
X188729125Y-84903983D01*
X188779366Y-84952539D01*
X188795380Y-85020548D01*
X188772083Y-85086420D01*
X188716872Y-85129239D01*
X188647275Y-85135411D01*
X188626914Y-85129495D01*
X186004974Y-84117517D01*
X186004970Y-84117517D01*
X182564970Y-84377516D01*
X182564969Y-84377517D01*
X182537046Y-85335110D01*
X182515416Y-85401548D01*
X182461301Y-85445744D01*
X182391882Y-85453667D01*
X182329199Y-85422802D01*
X182325418Y-85419177D01*
X179653617Y-82747376D01*
X179620132Y-82686053D01*
X179619058Y-82680506D01*
X179615497Y-82664905D01*
X179556560Y-82406682D01*
X179554845Y-82401782D01*
X179516194Y-82291324D01*
X179463801Y-82141592D01*
X179341945Y-81888555D01*
X179192523Y-81650752D01*
X179017416Y-81431175D01*
X178818825Y-81232584D01*
X178599248Y-81057477D01*
X178361445Y-80908055D01*
X178361442Y-80908053D01*
X178108411Y-80786200D01*
X177843329Y-80693443D01*
X177843317Y-80693439D01*
X177569512Y-80630945D01*
X177569494Y-80630942D01*
X177290431Y-80599500D01*
X177290425Y-80599500D01*
X177009575Y-80599500D01*
X177009568Y-80599500D01*
X176730505Y-80630942D01*
X176730487Y-80630945D01*
X176456682Y-80693439D01*
X176456670Y-80693443D01*
X176191588Y-80786200D01*
X175938557Y-80908053D01*
X175700753Y-81057476D01*
X175481175Y-81232583D01*
X175282583Y-81431175D01*
X175107476Y-81650753D01*
X174958053Y-81888557D01*
X174836200Y-82141588D01*
X174791041Y-82270645D01*
X174750319Y-82327421D01*
X174685367Y-82353168D01*
X174616805Y-82339712D01*
X174566402Y-82291324D01*
X174550000Y-82229690D01*
X174550000Y-81152172D01*
X174549999Y-81152155D01*
X174543598Y-81092627D01*
X174543596Y-81092620D01*
X174493354Y-80957913D01*
X174493350Y-80957906D01*
X174407190Y-80842812D01*
X174407187Y-80842809D01*
X174292093Y-80756649D01*
X174292086Y-80756645D01*
X174157379Y-80706403D01*
X174157372Y-80706401D01*
X174097844Y-80700000D01*
X172400000Y-80700000D01*
X172400000Y-81772768D01*
X172256247Y-81750000D01*
X172043753Y-81750000D01*
X171900000Y-81772768D01*
X171900000Y-80700000D01*
X170202155Y-80700000D01*
X170142627Y-80706401D01*
X170142620Y-80706403D01*
X170007913Y-80756645D01*
X170007906Y-80756649D01*
X169892812Y-80842809D01*
X169892809Y-80842812D01*
X169806649Y-80957906D01*
X169806645Y-80957913D01*
X169756403Y-81092620D01*
X169756401Y-81092627D01*
X169750000Y-81152155D01*
X169750000Y-82850000D01*
X170822769Y-82850000D01*
X170800000Y-82993753D01*
X170800000Y-83206247D01*
X170822769Y-83350000D01*
X169750000Y-83350000D01*
X169750000Y-85047844D01*
X169756401Y-85107372D01*
X169756403Y-85107379D01*
X169806645Y-85242086D01*
X169806649Y-85242093D01*
X169892809Y-85357187D01*
X169892812Y-85357190D01*
X170007906Y-85443350D01*
X170007913Y-85443354D01*
X170142620Y-85493596D01*
X170142627Y-85493598D01*
X170202155Y-85499999D01*
X170202172Y-85500000D01*
X171900000Y-85500000D01*
X171900000Y-84427231D01*
X172043753Y-84450000D01*
X172256247Y-84450000D01*
X172400000Y-84427231D01*
X172400000Y-85500000D01*
X174097828Y-85500000D01*
X174097844Y-85499999D01*
X174157372Y-85493598D01*
X174157379Y-85493596D01*
X174292086Y-85443354D01*
X174292093Y-85443350D01*
X174407187Y-85357190D01*
X174407190Y-85357187D01*
X174493350Y-85242093D01*
X174493354Y-85242086D01*
X174543596Y-85107379D01*
X174543598Y-85107372D01*
X174549999Y-85047844D01*
X174550000Y-85047827D01*
X174550000Y-84650309D01*
X174569685Y-84583270D01*
X174622489Y-84537515D01*
X174691647Y-84527571D01*
X174755203Y-84556596D01*
X174791041Y-84609354D01*
X174836200Y-84738411D01*
X174958053Y-84991442D01*
X174958055Y-84991445D01*
X175107477Y-85229248D01*
X175234220Y-85388179D01*
X175282583Y-85448824D01*
X179522391Y-89688632D01*
X179555876Y-89749955D01*
X179558710Y-89776313D01*
X179558710Y-91039641D01*
X179590152Y-91318704D01*
X179590155Y-91318722D01*
X179652649Y-91592527D01*
X179652653Y-91592539D01*
X179745410Y-91857621D01*
X179867263Y-92110652D01*
X179867265Y-92110655D01*
X180016687Y-92348458D01*
X180191794Y-92568035D01*
X185066175Y-97442416D01*
X185285752Y-97617523D01*
X185523555Y-97766945D01*
X185523560Y-97766948D01*
X185776577Y-97888794D01*
X185776586Y-97888797D01*
X185776593Y-97888801D01*
X185776599Y-97888803D01*
X186041670Y-97981556D01*
X186041682Y-97981560D01*
X186315491Y-98044055D01*
X186392399Y-98052719D01*
X186454000Y-98077563D01*
X186466198Y-98086923D01*
X186693303Y-98218043D01*
X186935581Y-98318398D01*
X187188884Y-98386271D01*
X187383881Y-98411942D01*
X187448879Y-98420499D01*
X187448880Y-98420499D01*
X187711120Y-98420499D01*
X187763118Y-98413653D01*
X187971115Y-98386271D01*
X188224419Y-98318398D01*
X188414871Y-98239509D01*
X188466688Y-98218047D01*
X188466689Y-98218045D01*
X188466697Y-98218043D01*
X188693802Y-98086923D01*
X188901851Y-97927283D01*
X189087283Y-97741851D01*
X189246923Y-97533802D01*
X189273083Y-97488492D01*
X189323650Y-97440276D01*
X189392258Y-97427054D01*
X189457122Y-97453022D01*
X189497650Y-97509936D01*
X189504470Y-97550492D01*
X189504470Y-107831176D01*
X189484785Y-107898215D01*
X189431981Y-107943970D01*
X189362823Y-107953914D01*
X189335821Y-107946858D01*
X186124974Y-106707583D01*
X186124970Y-106707583D01*
X182684970Y-106967582D01*
X182684969Y-106967583D01*
X182563531Y-111132204D01*
X182541901Y-111198641D01*
X182487786Y-111242838D01*
X182418367Y-111250761D01*
X182355684Y-111219896D01*
X182319639Y-111160042D01*
X182317967Y-111152781D01*
X182306552Y-111095396D01*
X182252077Y-110821529D01*
X182228248Y-110733948D01*
X182137957Y-110535689D01*
X182012774Y-110357395D01*
X181856959Y-110205139D01*
X181707364Y-110105183D01*
X181675825Y-110084109D01*
X181675818Y-110084106D01*
X181655699Y-110075499D01*
X181607375Y-110054825D01*
X181475530Y-109998420D01*
X181475528Y-109998419D01*
X181262903Y-109950995D01*
X181200695Y-109948838D01*
X181045181Y-109943448D01*
X181045179Y-109943448D01*
X181045176Y-109943448D01*
X181045172Y-109943448D01*
X180955144Y-109954949D01*
X180955126Y-109954952D01*
X179488782Y-110246626D01*
X179401190Y-110270457D01*
X179202930Y-110360749D01*
X179024634Y-110485934D01*
X178903891Y-110609500D01*
X178872381Y-110641747D01*
X178872379Y-110641750D01*
X178751351Y-110822880D01*
X178751348Y-110822887D01*
X178665662Y-111023175D01*
X178665661Y-111023177D01*
X178618237Y-111235802D01*
X178610690Y-111453529D01*
X178610690Y-111453533D01*
X178622191Y-111543561D01*
X178622194Y-111543579D01*
X178913868Y-113009923D01*
X178913870Y-113009931D01*
X178913871Y-113009935D01*
X178914025Y-113010500D01*
X178937699Y-113097515D01*
X179013754Y-113264514D01*
X179027991Y-113295775D01*
X179153174Y-113474069D01*
X179308989Y-113626325D01*
X179490125Y-113747356D01*
X179690419Y-113833044D01*
X179903047Y-113880469D01*
X180120767Y-113888016D01*
X180210801Y-113876515D01*
X181677177Y-113584835D01*
X181764758Y-113561006D01*
X181963017Y-113470715D01*
X182141311Y-113345532D01*
X182293567Y-113189717D01*
X182414598Y-113008581D01*
X182459183Y-112904364D01*
X182503646Y-112850474D01*
X182570191Y-112829176D01*
X182618003Y-112837522D01*
X185539459Y-113969997D01*
X185656563Y-114015391D01*
X185711956Y-114057975D01*
X185735532Y-114123747D01*
X185719807Y-114191824D01*
X185669773Y-114240592D01*
X185653474Y-114247776D01*
X184226598Y-114757694D01*
X184224364Y-114758468D01*
X182337929Y-115392322D01*
X182335681Y-115393054D01*
X180437407Y-115990855D01*
X180435145Y-115991543D01*
X178525930Y-116553009D01*
X178523655Y-116553655D01*
X176604012Y-117078636D01*
X176601726Y-117079238D01*
X174672410Y-117567527D01*
X174670112Y-117568085D01*
X172731860Y-118019493D01*
X172729552Y-118020007D01*
X170783108Y-118434364D01*
X170780791Y-118434835D01*
X168826707Y-118812023D01*
X168824382Y-118812449D01*
X166863455Y-119152312D01*
X166861121Y-119152693D01*
X164894146Y-119455094D01*
X164891806Y-119455431D01*
X162919370Y-119720281D01*
X162917024Y-119720573D01*
X160939955Y-119947760D01*
X160937604Y-119948008D01*
X158956460Y-120137469D01*
X158954104Y-120137671D01*
X156969821Y-120289314D01*
X156967462Y-120289472D01*
X154980596Y-120403258D01*
X154978234Y-120403371D01*
X152989513Y-120479255D01*
X152987150Y-120479322D01*
X151793713Y-120502085D01*
X151726310Y-120483683D01*
X151679556Y-120431761D01*
X151668296Y-120362805D01*
X151668409Y-120361922D01*
X151670499Y-120346047D01*
X151670500Y-120346040D01*
X151670500Y-120010029D01*
X151690185Y-119942990D01*
X151742989Y-119897235D01*
X151812147Y-119887291D01*
X151859597Y-119904491D01*
X151978688Y-119977948D01*
X151978699Y-119977953D01*
X152142347Y-120032180D01*
X152243352Y-120042499D01*
X152280000Y-120042499D01*
X152780000Y-120042499D01*
X152816640Y-120042499D01*
X152816654Y-120042498D01*
X152917652Y-120032180D01*
X153081300Y-119977953D01*
X153081311Y-119977948D01*
X153228034Y-119887447D01*
X153228038Y-119887444D01*
X153349944Y-119765538D01*
X153349947Y-119765534D01*
X153440448Y-119618811D01*
X153440453Y-119618800D01*
X153494680Y-119455152D01*
X153504999Y-119354154D01*
X153505000Y-119354141D01*
X153505000Y-119255000D01*
X152780000Y-119255000D01*
X152780000Y-120042499D01*
X152280000Y-120042499D01*
X152280000Y-118879000D01*
X152299685Y-118811961D01*
X152352489Y-118766206D01*
X152404000Y-118755000D01*
X153437305Y-118755000D01*
X153504344Y-118774685D01*
X153530482Y-118804850D01*
X153530560Y-118804773D01*
X153682538Y-118956752D01*
X153846315Y-119066185D01*
X153846328Y-119066192D01*
X154028308Y-119141569D01*
X154070000Y-119149862D01*
X154070000Y-118346988D01*
X154079940Y-118364205D01*
X154135795Y-118420060D01*
X154204204Y-118459556D01*
X154280504Y-118480000D01*
X154359496Y-118480000D01*
X154435796Y-118459556D01*
X154504205Y-118420060D01*
X154560060Y-118364205D01*
X154570000Y-118346988D01*
X154570000Y-119149862D01*
X154611690Y-119141569D01*
X154611692Y-119141569D01*
X154793671Y-119066192D01*
X154793684Y-119066185D01*
X154957462Y-118956751D01*
X154957466Y-118956748D01*
X155096748Y-118817466D01*
X155096751Y-118817462D01*
X155206185Y-118653684D01*
X155206192Y-118653671D01*
X155281569Y-118471693D01*
X155281572Y-118471681D01*
X155319999Y-118278495D01*
X155320000Y-118278492D01*
X155320000Y-118030000D01*
X154620000Y-118030000D01*
X154620000Y-117530000D01*
X155320000Y-117530000D01*
X155320000Y-117281508D01*
X155319999Y-117281504D01*
X155281572Y-117088318D01*
X155281569Y-117088306D01*
X155206192Y-116906328D01*
X155206185Y-116906315D01*
X155096751Y-116742537D01*
X155096748Y-116742533D01*
X154956396Y-116602181D01*
X154922911Y-116540858D01*
X154927895Y-116471166D01*
X154969767Y-116415233D01*
X155035231Y-116390816D01*
X155044077Y-116390500D01*
X155809912Y-116390500D01*
X155831130Y-116386279D01*
X155918036Y-116368992D01*
X155987626Y-116375219D01*
X156042804Y-116418081D01*
X156065911Y-116481763D01*
X156080683Y-116688296D01*
X156080684Y-116688303D01*
X156136947Y-116946942D01*
X156229452Y-117194959D01*
X156229454Y-117194963D01*
X156356306Y-117427274D01*
X156356311Y-117427282D01*
X156514932Y-117639176D01*
X156514948Y-117639194D01*
X156702100Y-117826346D01*
X156702118Y-117826362D01*
X156914012Y-117984983D01*
X156914020Y-117984988D01*
X157146331Y-118111840D01*
X157146335Y-118111842D01*
X157146337Y-118111843D01*
X157394348Y-118204346D01*
X157394351Y-118204346D01*
X157394352Y-118204347D01*
X157514724Y-118230532D01*
X157653000Y-118260612D01*
X157896686Y-118278041D01*
X157917025Y-118279496D01*
X157917026Y-118279496D01*
X157917027Y-118279496D01*
X157935911Y-118278145D01*
X158181052Y-118260612D01*
X158439704Y-118204346D01*
X158687715Y-118111843D01*
X158920037Y-117984985D01*
X159131941Y-117826356D01*
X159319113Y-117639184D01*
X159477742Y-117427280D01*
X159604600Y-117194958D01*
X159697103Y-116946947D01*
X159753369Y-116688295D01*
X159772253Y-116424269D01*
X159771810Y-116418081D01*
X159764822Y-116320374D01*
X159753369Y-116160243D01*
X159732981Y-116066519D01*
X159697104Y-115901595D01*
X159687613Y-115876149D01*
X159604600Y-115653580D01*
X159590704Y-115628132D01*
X159477745Y-115421263D01*
X159477740Y-115421255D01*
X159319119Y-115209361D01*
X159319103Y-115209343D01*
X159215217Y-115105457D01*
X162691908Y-115105457D01*
X162691908Y-115105460D01*
X162710792Y-115369486D01*
X162710793Y-115369493D01*
X162767056Y-115628132D01*
X162859561Y-115876149D01*
X162859563Y-115876153D01*
X162986415Y-116108464D01*
X162986420Y-116108472D01*
X163145041Y-116320366D01*
X163145057Y-116320384D01*
X163332209Y-116507536D01*
X163332227Y-116507552D01*
X163544121Y-116666173D01*
X163544129Y-116666178D01*
X163776440Y-116793030D01*
X163776444Y-116793032D01*
X163776446Y-116793033D01*
X164024457Y-116885536D01*
X164024460Y-116885536D01*
X164024461Y-116885537D01*
X164191308Y-116921832D01*
X164283109Y-116941802D01*
X164526795Y-116959231D01*
X164547134Y-116960686D01*
X164547135Y-116960686D01*
X164547136Y-116960686D01*
X164566020Y-116959335D01*
X164811161Y-116941802D01*
X165069813Y-116885536D01*
X165317824Y-116793033D01*
X165550146Y-116666175D01*
X165762050Y-116507546D01*
X165949222Y-116320374D01*
X166107851Y-116108470D01*
X166234709Y-115876148D01*
X166327212Y-115628137D01*
X166383478Y-115369485D01*
X166402362Y-115105459D01*
X166383478Y-114841433D01*
X166341934Y-114650456D01*
X166327213Y-114582785D01*
X166326753Y-114581553D01*
X166234709Y-114334770D01*
X166234400Y-114334205D01*
X166107854Y-114102453D01*
X166107849Y-114102445D01*
X165949228Y-113890551D01*
X165949212Y-113890533D01*
X165762060Y-113703381D01*
X165762042Y-113703365D01*
X165550148Y-113544744D01*
X165550140Y-113544739D01*
X165317829Y-113417887D01*
X165317825Y-113417885D01*
X165069808Y-113325380D01*
X164811169Y-113269117D01*
X164811162Y-113269116D01*
X164547136Y-113250232D01*
X164547134Y-113250232D01*
X164283107Y-113269116D01*
X164283100Y-113269117D01*
X164024461Y-113325380D01*
X163776444Y-113417885D01*
X163776440Y-113417887D01*
X163544129Y-113544739D01*
X163544121Y-113544744D01*
X163332227Y-113703365D01*
X163332209Y-113703381D01*
X163145057Y-113890533D01*
X163145041Y-113890551D01*
X162986420Y-114102445D01*
X162986415Y-114102453D01*
X162859563Y-114334764D01*
X162859561Y-114334768D01*
X162767056Y-114582785D01*
X162710793Y-114841424D01*
X162710792Y-114841431D01*
X162691908Y-115105457D01*
X159215217Y-115105457D01*
X159131951Y-115022191D01*
X159131933Y-115022175D01*
X158920039Y-114863554D01*
X158920031Y-114863549D01*
X158687720Y-114736697D01*
X158687716Y-114736695D01*
X158556544Y-114687771D01*
X158439704Y-114644192D01*
X158439700Y-114644191D01*
X158195410Y-114591048D01*
X158134087Y-114557563D01*
X158100603Y-114496240D01*
X158105587Y-114426548D01*
X158134085Y-114382204D01*
X159527140Y-112989151D01*
X159556764Y-112944815D01*
X159556765Y-112944815D01*
X159636625Y-112825294D01*
X159636632Y-112825284D01*
X159658561Y-112772341D01*
X171980582Y-112772341D01*
X171980582Y-112772345D01*
X171992083Y-112862373D01*
X171992086Y-112862391D01*
X172283760Y-114328735D01*
X172283762Y-114328743D01*
X172283763Y-114328747D01*
X172290119Y-114352109D01*
X172307591Y-114416327D01*
X172382833Y-114581540D01*
X172397883Y-114614587D01*
X172523066Y-114792881D01*
X172678881Y-114945137D01*
X172860017Y-115066168D01*
X173060311Y-115151856D01*
X173272939Y-115199281D01*
X173490659Y-115206828D01*
X173580693Y-115195327D01*
X175047069Y-114903647D01*
X175134650Y-114879818D01*
X175332909Y-114789527D01*
X175511203Y-114664344D01*
X175663459Y-114508529D01*
X175784490Y-114327393D01*
X175870178Y-114127099D01*
X175917603Y-113914471D01*
X175925150Y-113696751D01*
X175913649Y-113606717D01*
X175909296Y-113584835D01*
X175740087Y-112734160D01*
X175621969Y-112140341D01*
X175598140Y-112052760D01*
X175507849Y-111854501D01*
X175382666Y-111676207D01*
X175226851Y-111523951D01*
X175106093Y-111443263D01*
X175045717Y-111402921D01*
X175045710Y-111402918D01*
X175038204Y-111399707D01*
X174996578Y-111381898D01*
X174845422Y-111317232D01*
X174845420Y-111317231D01*
X174632795Y-111269807D01*
X174570587Y-111267650D01*
X174415073Y-111262260D01*
X174415071Y-111262260D01*
X174415068Y-111262260D01*
X174415064Y-111262260D01*
X174325036Y-111273761D01*
X174325018Y-111273764D01*
X172858674Y-111565438D01*
X172771082Y-111589269D01*
X172572822Y-111679561D01*
X172394526Y-111804746D01*
X172266502Y-111935764D01*
X172242273Y-111960559D01*
X172242271Y-111960562D01*
X172121243Y-112141692D01*
X172121240Y-112141699D01*
X172035554Y-112341987D01*
X172035553Y-112341989D01*
X171988129Y-112554614D01*
X171987015Y-112586742D01*
X171982774Y-112709117D01*
X171980582Y-112772341D01*
X159658561Y-112772341D01*
X159684177Y-112710499D01*
X159702919Y-112665252D01*
X159702920Y-112665248D01*
X159712051Y-112643206D01*
X159733569Y-112535027D01*
X159733766Y-112534037D01*
X159733766Y-112534036D01*
X159750500Y-112449913D01*
X159750500Y-112097588D01*
X159770185Y-112030549D01*
X159772925Y-112026465D01*
X159785378Y-112008680D01*
X159880568Y-111872734D01*
X159976739Y-111666496D01*
X160035635Y-111446692D01*
X160055468Y-111220000D01*
X160035635Y-110993308D01*
X159976739Y-110773504D01*
X159880568Y-110567266D01*
X159750047Y-110380861D01*
X159750045Y-110380858D01*
X159589141Y-110219954D01*
X159402734Y-110089432D01*
X159402732Y-110089431D01*
X159196497Y-109993261D01*
X159196488Y-109993258D01*
X158976697Y-109934366D01*
X158976693Y-109934365D01*
X158976692Y-109934365D01*
X158976691Y-109934364D01*
X158976686Y-109934364D01*
X158750002Y-109914532D01*
X158749998Y-109914532D01*
X158523313Y-109934364D01*
X158523302Y-109934366D01*
X158303511Y-109993258D01*
X158303502Y-109993261D01*
X158097267Y-110089431D01*
X158097265Y-110089432D01*
X157910858Y-110219954D01*
X157749954Y-110380858D01*
X157619432Y-110567265D01*
X157619431Y-110567267D01*
X157523261Y-110773502D01*
X157523258Y-110773511D01*
X157464366Y-110993302D01*
X157464364Y-110993313D01*
X157444532Y-111219998D01*
X157444532Y-111220001D01*
X157464364Y-111446686D01*
X157464366Y-111446697D01*
X157523258Y-111666488D01*
X157523261Y-111666497D01*
X157604325Y-111840338D01*
X157619432Y-111872734D01*
X157639765Y-111901773D01*
X157662092Y-111967978D01*
X157645082Y-112035745D01*
X157625871Y-112060576D01*
X155531681Y-114154768D01*
X155470358Y-114188253D01*
X155400666Y-114183269D01*
X155344733Y-114141397D01*
X155320316Y-114075933D01*
X155320000Y-114067087D01*
X155320000Y-113850000D01*
X154620000Y-113850000D01*
X154620000Y-113350000D01*
X155320000Y-113350000D01*
X155320000Y-112951508D01*
X155319999Y-112951504D01*
X155281572Y-112758318D01*
X155281569Y-112758306D01*
X155206192Y-112576328D01*
X155206185Y-112576315D01*
X155096751Y-112412537D01*
X155096748Y-112412533D01*
X154957466Y-112273251D01*
X154957462Y-112273248D01*
X154793684Y-112163814D01*
X154793669Y-112163806D01*
X154770577Y-112154241D01*
X154716174Y-112110400D01*
X154694110Y-112044105D01*
X154711390Y-111976406D01*
X154762528Y-111928796D01*
X154779030Y-111921974D01*
X154813801Y-111910452D01*
X154813811Y-111910448D01*
X154960534Y-111819947D01*
X154960538Y-111819944D01*
X155082444Y-111698038D01*
X155082447Y-111698034D01*
X155172948Y-111551311D01*
X155172953Y-111551300D01*
X155227180Y-111387652D01*
X155237499Y-111286654D01*
X155237500Y-111286641D01*
X155237500Y-111250000D01*
X154500000Y-111250000D01*
X154500000Y-111974999D01*
X154533681Y-112008680D01*
X154567166Y-112070003D01*
X154570000Y-112096361D01*
X154570000Y-112883011D01*
X154560060Y-112865795D01*
X154504205Y-112809940D01*
X154435796Y-112770444D01*
X154359496Y-112750000D01*
X154280504Y-112750000D01*
X154204204Y-112770444D01*
X154135795Y-112809940D01*
X154079940Y-112865795D01*
X154070000Y-112883011D01*
X154070000Y-112080136D01*
X154045336Y-112059895D01*
X154006001Y-112002149D01*
X154000000Y-111964041D01*
X154000000Y-111703546D01*
X154000780Y-111689661D01*
X154003157Y-111668571D01*
X154005249Y-111650000D01*
X154003069Y-111630655D01*
X154000780Y-111610336D01*
X154000000Y-111596452D01*
X154000000Y-110874000D01*
X154019685Y-110806961D01*
X154072489Y-110761206D01*
X154124000Y-110750000D01*
X155237499Y-110750000D01*
X155237499Y-110713360D01*
X155237498Y-110713345D01*
X155227180Y-110612347D01*
X155172953Y-110448699D01*
X155172948Y-110448688D01*
X155082447Y-110301965D01*
X155082444Y-110301961D01*
X155068253Y-110287770D01*
X155034768Y-110226447D01*
X155039752Y-110156755D01*
X155081624Y-110100822D01*
X155143331Y-110076732D01*
X155160297Y-110074999D01*
X155326834Y-110019814D01*
X155476156Y-109927712D01*
X155600212Y-109803656D01*
X155692314Y-109654334D01*
X155747499Y-109487797D01*
X155758000Y-109385009D01*
X155757999Y-108034992D01*
X155756977Y-108024992D01*
X155747499Y-107932203D01*
X155747498Y-107932200D01*
X155734274Y-107892292D01*
X155692314Y-107765666D01*
X155600212Y-107616344D01*
X155476156Y-107492288D01*
X155326834Y-107400186D01*
X155160297Y-107345001D01*
X155160295Y-107345000D01*
X155057510Y-107334500D01*
X154332498Y-107334500D01*
X154332480Y-107334501D01*
X154229703Y-107345000D01*
X154229700Y-107345001D01*
X154063168Y-107400185D01*
X154063163Y-107400187D01*
X153913842Y-107492289D01*
X153789789Y-107616342D01*
X153697687Y-107765663D01*
X153697685Y-107765668D01*
X153685497Y-107802449D01*
X153642501Y-107932203D01*
X153642501Y-107932204D01*
X153642500Y-107932204D01*
X153632000Y-108034983D01*
X153632000Y-108040442D01*
X153612315Y-108107481D01*
X153576891Y-108143544D01*
X153485332Y-108204721D01*
X153277996Y-108412057D01*
X153231271Y-108441416D01*
X153122308Y-108479544D01*
X153122307Y-108479545D01*
X153022971Y-108541963D01*
X152955735Y-108560963D01*
X152888899Y-108540595D01*
X152843685Y-108487328D01*
X152832999Y-108436969D01*
X152832999Y-108034998D01*
X152832998Y-108034981D01*
X152822499Y-107932203D01*
X152822498Y-107932200D01*
X152809274Y-107892292D01*
X152767314Y-107765666D01*
X152675212Y-107616344D01*
X152551156Y-107492288D01*
X152401834Y-107400186D01*
X152235297Y-107345001D01*
X152235295Y-107345000D01*
X152132510Y-107334500D01*
X151407498Y-107334500D01*
X151407480Y-107334501D01*
X151304703Y-107345000D01*
X151304700Y-107345001D01*
X151138168Y-107400185D01*
X151138163Y-107400187D01*
X150988842Y-107492289D01*
X150864789Y-107616342D01*
X150772687Y-107765663D01*
X150772685Y-107765668D01*
X150760497Y-107802449D01*
X150717501Y-107932203D01*
X150717501Y-107932204D01*
X150717500Y-107932204D01*
X150707000Y-108034983D01*
X150707000Y-109385001D01*
X150707001Y-109385018D01*
X150717500Y-109487796D01*
X150717501Y-109487799D01*
X150772685Y-109654331D01*
X150772687Y-109654336D01*
X150806709Y-109709495D01*
X150864788Y-109803656D01*
X150988844Y-109927712D01*
X151138166Y-110019814D01*
X151304703Y-110074999D01*
X151407491Y-110085500D01*
X151508949Y-110085499D01*
X151575986Y-110105183D01*
X151621742Y-110157986D01*
X151631686Y-110227145D01*
X151602662Y-110290701D01*
X151596634Y-110297176D01*
X151592160Y-110301649D01*
X151501593Y-110448481D01*
X151501591Y-110448486D01*
X151489183Y-110485932D01*
X151447326Y-110612247D01*
X151447326Y-110612248D01*
X151447325Y-110612248D01*
X151437000Y-110713315D01*
X151437000Y-111038394D01*
X151417315Y-111105433D01*
X151378972Y-111143388D01*
X151275765Y-111208237D01*
X151156179Y-111327823D01*
X151156174Y-111327829D01*
X151066203Y-111471016D01*
X151066201Y-111471019D01*
X151010341Y-111630657D01*
X150991407Y-111798711D01*
X150991407Y-111798716D01*
X151010341Y-111966770D01*
X151066201Y-112126408D01*
X151066203Y-112126411D01*
X151156174Y-112269598D01*
X151156179Y-112269604D01*
X151275765Y-112389190D01*
X151275771Y-112389195D01*
X151418958Y-112479166D01*
X151418961Y-112479168D01*
X151418965Y-112479169D01*
X151418966Y-112479170D01*
X151490555Y-112504220D01*
X151578599Y-112535028D01*
X151746653Y-112553963D01*
X151746656Y-112553963D01*
X151746659Y-112553963D01*
X151914712Y-112535028D01*
X151917547Y-112534036D01*
X152074346Y-112479170D01*
X152074348Y-112479168D01*
X152074350Y-112479168D01*
X152074353Y-112479166D01*
X152217540Y-112389195D01*
X152217541Y-112389194D01*
X152217546Y-112389191D01*
X152337133Y-112269604D01*
X152337137Y-112269598D01*
X152427108Y-112126411D01*
X152427109Y-112126408D01*
X152427112Y-112126404D01*
X152427113Y-112126399D01*
X152430133Y-112120131D01*
X152431758Y-112120913D01*
X152467146Y-112071560D01*
X152532095Y-112045803D01*
X152600659Y-112059248D01*
X152648474Y-112103306D01*
X152659521Y-112120888D01*
X152779109Y-112240476D01*
X152779115Y-112240481D01*
X152922302Y-112330452D01*
X152922305Y-112330454D01*
X152922309Y-112330455D01*
X152922310Y-112330456D01*
X152955264Y-112341987D01*
X153081943Y-112386314D01*
X153249997Y-112405249D01*
X153250000Y-112405249D01*
X153250001Y-112405249D01*
X153258566Y-112404283D01*
X153308421Y-112398666D01*
X153377241Y-112410720D01*
X153428621Y-112458068D01*
X153446246Y-112525678D01*
X153434441Y-112569988D01*
X153436142Y-112570693D01*
X153358430Y-112758306D01*
X153358427Y-112758318D01*
X153320000Y-112951504D01*
X153320000Y-113350000D01*
X154020000Y-113350000D01*
X154020000Y-113850000D01*
X153382915Y-113850000D01*
X153315876Y-113830315D01*
X153284536Y-113801482D01*
X153282498Y-113798826D01*
X153191173Y-113707501D01*
X153079327Y-113642926D01*
X153016951Y-113626213D01*
X152954576Y-113609500D01*
X152825424Y-113609500D01*
X152700672Y-113642926D01*
X152588826Y-113707502D01*
X152588823Y-113707504D01*
X152497504Y-113798823D01*
X152497502Y-113798826D01*
X152432926Y-113910672D01*
X152417030Y-113970000D01*
X152399500Y-114035424D01*
X152399500Y-114164576D01*
X152414442Y-114220340D01*
X152417943Y-114233407D01*
X152416280Y-114303257D01*
X152377117Y-114361119D01*
X152312888Y-114388623D01*
X152298168Y-114389500D01*
X152181457Y-114389500D01*
X151988170Y-114427947D01*
X151988160Y-114427950D01*
X151800612Y-114505634D01*
X151731142Y-114513103D01*
X151668663Y-114481827D01*
X151638599Y-114438525D01*
X151634218Y-114427949D01*
X151602947Y-114352451D01*
X151596117Y-114335962D01*
X151542276Y-114265796D01*
X151501867Y-114213133D01*
X151389746Y-114127100D01*
X151379036Y-114118882D01*
X151379037Y-114118882D01*
X151236002Y-114059636D01*
X151236000Y-114059635D01*
X151235999Y-114059635D01*
X151210452Y-114056271D01*
X151121047Y-114044500D01*
X151121040Y-114044500D01*
X150868960Y-114044500D01*
X150868952Y-114044500D01*
X150761186Y-114058689D01*
X150728814Y-114058689D01*
X150621047Y-114044500D01*
X150621040Y-114044500D01*
X150368960Y-114044500D01*
X150368956Y-114044500D01*
X150368945Y-114044501D01*
X150336807Y-114048732D01*
X150267772Y-114037966D01*
X150215517Y-113991585D01*
X150203582Y-113966746D01*
X150193332Y-113937453D01*
X150193328Y-113937445D01*
X150103357Y-113794258D01*
X150103352Y-113794252D01*
X149983766Y-113674666D01*
X149983760Y-113674661D01*
X149840573Y-113584690D01*
X149840570Y-113584688D01*
X149680932Y-113528828D01*
X149512879Y-113509894D01*
X149512872Y-113509894D01*
X149413383Y-113521103D01*
X149344561Y-113509048D01*
X149293182Y-113461699D01*
X149275500Y-113397883D01*
X149275500Y-112863271D01*
X149295185Y-112796232D01*
X149347989Y-112750477D01*
X149385618Y-112740051D01*
X149451972Y-112732575D01*
X149451974Y-112732574D01*
X149451976Y-112732574D01*
X149611607Y-112676717D01*
X149611609Y-112676715D01*
X149611611Y-112676715D01*
X149611614Y-112676713D01*
X149754801Y-112586742D01*
X149754802Y-112586741D01*
X149754807Y-112586738D01*
X149874394Y-112467151D01*
X149880101Y-112458068D01*
X149964369Y-112323958D01*
X149964371Y-112323955D01*
X149964371Y-112323953D01*
X149964373Y-112323951D01*
X150020230Y-112164320D01*
X150020230Y-112164319D01*
X150020231Y-112164317D01*
X150039166Y-111996263D01*
X150039166Y-111996258D01*
X150020231Y-111828204D01*
X149972757Y-111692532D01*
X149964373Y-111668571D01*
X149964372Y-111668570D01*
X149964371Y-111668566D01*
X149964369Y-111668563D01*
X149874398Y-111525376D01*
X149874393Y-111525370D01*
X149754807Y-111405784D01*
X149754801Y-111405779D01*
X149611614Y-111315808D01*
X149611611Y-111315806D01*
X149451973Y-111259946D01*
X149283920Y-111241012D01*
X149283914Y-111241012D01*
X149115859Y-111259947D01*
X148956389Y-111315748D01*
X148886611Y-111319309D01*
X148827754Y-111286387D01*
X148790890Y-111249523D01*
X148790884Y-111249518D01*
X148647690Y-111159543D01*
X148538727Y-111121415D01*
X148492000Y-111092054D01*
X148436817Y-111036870D01*
X148403333Y-110975547D01*
X148400499Y-110949190D01*
X148400499Y-110733323D01*
X148400498Y-110733313D01*
X148390174Y-110632247D01*
X148383547Y-110612248D01*
X148335908Y-110468484D01*
X148245340Y-110321650D01*
X148202607Y-110278917D01*
X148169122Y-110217594D01*
X148174106Y-110147902D01*
X148215978Y-110091969D01*
X148281442Y-110067552D01*
X148302882Y-110067877D01*
X148377491Y-110075500D01*
X149102508Y-110075499D01*
X149102516Y-110075498D01*
X149102519Y-110075498D01*
X149177113Y-110067878D01*
X149205297Y-110064999D01*
X149371834Y-110009814D01*
X149521156Y-109917712D01*
X149645212Y-109793656D01*
X149737314Y-109644334D01*
X149792499Y-109477797D01*
X149803000Y-109375009D01*
X149802999Y-108024992D01*
X149792499Y-107922203D01*
X149737314Y-107755666D01*
X149645212Y-107606344D01*
X149521156Y-107482288D01*
X149428388Y-107425069D01*
X149371836Y-107390187D01*
X149371831Y-107390185D01*
X149333514Y-107377488D01*
X149205297Y-107335001D01*
X149205295Y-107335000D01*
X149102510Y-107324500D01*
X148377498Y-107324500D01*
X148377480Y-107324501D01*
X148274703Y-107335000D01*
X148274700Y-107335001D01*
X148108168Y-107390185D01*
X148108163Y-107390187D01*
X147958842Y-107482289D01*
X147834789Y-107606342D01*
X147742687Y-107755663D01*
X147742685Y-107755668D01*
X147719627Y-107825253D01*
X147687501Y-107922203D01*
X147687501Y-107922204D01*
X147687500Y-107922204D01*
X147683362Y-107962712D01*
X147656965Y-108027404D01*
X147599783Y-108067554D01*
X147584199Y-108071725D01*
X147570257Y-108074498D01*
X147451874Y-108123534D01*
X147345331Y-108194723D01*
X147217995Y-108322058D01*
X147171269Y-108351417D01*
X147062311Y-108389543D01*
X147056030Y-108392568D01*
X147054689Y-108389783D01*
X147000484Y-108404983D01*
X146933690Y-108384481D01*
X146888584Y-108331122D01*
X146877999Y-108280992D01*
X146877999Y-108024998D01*
X146877998Y-108024981D01*
X146867499Y-107922203D01*
X146867498Y-107922200D01*
X146848070Y-107863571D01*
X146812314Y-107755666D01*
X146720212Y-107606344D01*
X146596156Y-107482288D01*
X146503388Y-107425069D01*
X146446836Y-107390187D01*
X146446831Y-107390185D01*
X146408514Y-107377488D01*
X146280297Y-107335001D01*
X146280295Y-107335000D01*
X146177510Y-107324500D01*
X145452498Y-107324500D01*
X145452480Y-107324501D01*
X145349703Y-107335000D01*
X145349700Y-107335001D01*
X145183168Y-107390185D01*
X145183163Y-107390187D01*
X145033842Y-107482289D01*
X144909789Y-107606342D01*
X144817687Y-107755663D01*
X144817685Y-107755668D01*
X144794627Y-107825253D01*
X144762501Y-107922203D01*
X144762501Y-107922204D01*
X144762500Y-107922204D01*
X144752000Y-108024983D01*
X144752000Y-108064559D01*
X144732315Y-108131598D01*
X144715681Y-108152240D01*
X144072180Y-108795741D01*
X144010857Y-108829226D01*
X143941165Y-108824242D01*
X143885232Y-108782370D01*
X143860815Y-108716906D01*
X143860499Y-108708060D01*
X143860499Y-107902129D01*
X143860498Y-107902123D01*
X143859537Y-107893187D01*
X143854091Y-107842517D01*
X143834992Y-107791311D01*
X143803797Y-107707671D01*
X143803793Y-107707664D01*
X143717547Y-107592455D01*
X143717544Y-107592452D01*
X143602335Y-107506206D01*
X143602328Y-107506202D01*
X143467482Y-107455908D01*
X143467483Y-107455908D01*
X143407883Y-107449501D01*
X143407881Y-107449500D01*
X143407873Y-107449500D01*
X143407865Y-107449500D01*
X141664500Y-107449500D01*
X141597461Y-107429815D01*
X141551706Y-107377011D01*
X141540500Y-107325500D01*
X141540500Y-106388651D01*
X141560185Y-106321612D01*
X141576819Y-106300970D01*
X141685970Y-106191819D01*
X141747293Y-106158334D01*
X141773651Y-106155500D01*
X142023012Y-106155500D01*
X142090051Y-106175185D01*
X142135806Y-106227989D01*
X142142787Y-106247407D01*
X142153258Y-106286488D01*
X142153261Y-106286497D01*
X142249431Y-106492732D01*
X142249432Y-106492734D01*
X142379954Y-106679141D01*
X142540858Y-106840045D01*
X142540861Y-106840047D01*
X142727266Y-106970568D01*
X142933504Y-107066739D01*
X143153308Y-107125635D01*
X143315230Y-107139801D01*
X143379998Y-107145468D01*
X143380000Y-107145468D01*
X143380002Y-107145468D01*
X143436673Y-107140509D01*
X143606692Y-107125635D01*
X143826496Y-107066739D01*
X144032734Y-106970568D01*
X144219139Y-106840047D01*
X144380047Y-106679139D01*
X144510568Y-106492734D01*
X144606739Y-106286496D01*
X144665635Y-106066692D01*
X144685468Y-105840000D01*
X144685468Y-105839998D01*
X152234532Y-105839998D01*
X152234532Y-105840001D01*
X152254364Y-106066686D01*
X152254366Y-106066697D01*
X152313258Y-106286488D01*
X152313261Y-106286497D01*
X152409431Y-106492732D01*
X152409432Y-106492734D01*
X152539954Y-106679141D01*
X152700858Y-106840045D01*
X152700861Y-106840047D01*
X152887266Y-106970568D01*
X153093504Y-107066739D01*
X153313308Y-107125635D01*
X153475230Y-107139801D01*
X153539998Y-107145468D01*
X153540000Y-107145468D01*
X153540002Y-107145468D01*
X153596673Y-107140509D01*
X153766692Y-107125635D01*
X153986496Y-107066739D01*
X154192734Y-106970568D01*
X154379139Y-106840047D01*
X154540047Y-106679139D01*
X154670568Y-106492734D01*
X154766739Y-106286496D01*
X154825635Y-106066692D01*
X154845468Y-105840000D01*
X154825635Y-105613308D01*
X154766739Y-105393504D01*
X154670568Y-105187266D01*
X154540047Y-105000861D01*
X154540045Y-105000858D01*
X154379141Y-104839954D01*
X154192734Y-104709432D01*
X154192732Y-104709431D01*
X153986497Y-104613261D01*
X153986488Y-104613258D01*
X153766697Y-104554366D01*
X153766693Y-104554365D01*
X153766692Y-104554365D01*
X153766691Y-104554364D01*
X153766686Y-104554364D01*
X153540002Y-104534532D01*
X153539998Y-104534532D01*
X153313313Y-104554364D01*
X153313302Y-104554366D01*
X153093511Y-104613258D01*
X153093502Y-104613261D01*
X152887267Y-104709431D01*
X152887265Y-104709432D01*
X152700858Y-104839954D01*
X152539954Y-105000858D01*
X152409432Y-105187265D01*
X152409431Y-105187267D01*
X152313261Y-105393502D01*
X152313258Y-105393511D01*
X152254366Y-105613302D01*
X152254364Y-105613313D01*
X152234532Y-105839998D01*
X144685468Y-105839998D01*
X144665635Y-105613308D01*
X144606739Y-105393504D01*
X144510568Y-105187266D01*
X144380047Y-105000861D01*
X144380045Y-105000858D01*
X144219141Y-104839954D01*
X144032734Y-104709432D01*
X144032732Y-104709431D01*
X143826497Y-104613261D01*
X143826491Y-104613259D01*
X143698909Y-104579074D01*
X143643322Y-104546980D01*
X143311930Y-104215588D01*
X143311928Y-104215586D01*
X143284494Y-104195654D01*
X143241831Y-104140326D01*
X143235852Y-104070712D01*
X143268458Y-104008917D01*
X143329297Y-103974560D01*
X143368189Y-103971810D01*
X143389988Y-103973717D01*
X143409999Y-103975468D01*
X143410000Y-103975468D01*
X143410002Y-103975468D01*
X143466673Y-103970509D01*
X143636692Y-103955635D01*
X143856496Y-103896739D01*
X144062734Y-103800568D01*
X144249139Y-103670047D01*
X144410047Y-103509139D01*
X144540568Y-103322734D01*
X144636739Y-103116496D01*
X144695635Y-102896692D01*
X144715468Y-102670000D01*
X144714025Y-102653511D01*
X144701960Y-102515606D01*
X144695635Y-102443308D01*
X144636739Y-102223504D01*
X144540568Y-102017266D01*
X144457857Y-101899141D01*
X144434388Y-101865623D01*
X144412060Y-101799416D01*
X144429072Y-101731649D01*
X144480020Y-101683837D01*
X144535963Y-101670500D01*
X145270004Y-101670500D01*
X145337043Y-101690185D01*
X145357685Y-101706819D01*
X147358143Y-103707278D01*
X147358150Y-103707284D01*
X147566188Y-103866916D01*
X147566192Y-103866918D01*
X147566198Y-103866923D01*
X147793303Y-103998043D01*
X148035581Y-104098398D01*
X148288884Y-104166271D01*
X148483881Y-104191942D01*
X148548879Y-104200499D01*
X148548880Y-104200499D01*
X148811120Y-104200499D01*
X148863118Y-104193653D01*
X149071115Y-104166271D01*
X149324419Y-104098398D01*
X149540445Y-104008917D01*
X149566688Y-103998047D01*
X149566689Y-103998045D01*
X149566697Y-103998043D01*
X149793802Y-103866923D01*
X150001851Y-103707283D01*
X150187283Y-103521851D01*
X150346923Y-103313802D01*
X150478043Y-103086697D01*
X150480818Y-103079999D01*
X150508852Y-103012318D01*
X150578398Y-102844419D01*
X150646271Y-102591115D01*
X150668798Y-102419999D01*
X152291127Y-102419999D01*
X152291128Y-102420000D01*
X153254314Y-102420000D01*
X153249920Y-102424394D01*
X153197259Y-102515606D01*
X153170000Y-102617339D01*
X153170000Y-102722661D01*
X153197259Y-102824394D01*
X153249920Y-102915606D01*
X153254314Y-102920000D01*
X152291128Y-102920000D01*
X152343730Y-103116317D01*
X152343734Y-103116326D01*
X152439865Y-103322482D01*
X152570342Y-103508820D01*
X152731179Y-103669657D01*
X152917517Y-103800134D01*
X153123673Y-103896265D01*
X153123682Y-103896269D01*
X153319999Y-103948872D01*
X153320000Y-103948871D01*
X153320000Y-102985686D01*
X153324394Y-102990080D01*
X153415606Y-103042741D01*
X153517339Y-103070000D01*
X153622661Y-103070000D01*
X153724394Y-103042741D01*
X153815606Y-102990080D01*
X153820000Y-102985686D01*
X153820000Y-103948872D01*
X154016317Y-103896269D01*
X154016326Y-103896265D01*
X154222482Y-103800134D01*
X154408820Y-103669657D01*
X154569657Y-103508820D01*
X154700134Y-103322482D01*
X154796265Y-103116326D01*
X154796269Y-103116317D01*
X154848872Y-102920000D01*
X153885686Y-102920000D01*
X153890080Y-102915606D01*
X153942741Y-102824394D01*
X153970000Y-102722661D01*
X153970000Y-102617339D01*
X153942741Y-102515606D01*
X153890080Y-102424394D01*
X153885686Y-102420000D01*
X154848872Y-102420000D01*
X154848872Y-102419999D01*
X154796269Y-102223682D01*
X154796265Y-102223673D01*
X154700134Y-102017517D01*
X154569657Y-101831179D01*
X154408820Y-101670342D01*
X154222482Y-101539865D01*
X154016328Y-101443734D01*
X153820000Y-101391127D01*
X153820000Y-102354314D01*
X153815606Y-102349920D01*
X153724394Y-102297259D01*
X153622661Y-102270000D01*
X153517339Y-102270000D01*
X153415606Y-102297259D01*
X153324394Y-102349920D01*
X153320000Y-102354314D01*
X153320000Y-101391127D01*
X153123671Y-101443734D01*
X152917517Y-101539865D01*
X152731179Y-101670342D01*
X152570342Y-101831179D01*
X152439865Y-102017517D01*
X152343734Y-102223673D01*
X152343730Y-102223682D01*
X152291127Y-102419999D01*
X150668798Y-102419999D01*
X150680499Y-102331119D01*
X150680499Y-102068880D01*
X150646271Y-101808884D01*
X150578398Y-101555581D01*
X150478043Y-101313303D01*
X150346923Y-101086198D01*
X150346918Y-101086192D01*
X150346916Y-101086188D01*
X150187284Y-100878150D01*
X150187278Y-100878143D01*
X147471856Y-98162721D01*
X147471849Y-98162715D01*
X147317207Y-98044055D01*
X147317206Y-98044054D01*
X147263813Y-98003083D01*
X147263807Y-98003079D01*
X147263803Y-98003076D01*
X147132527Y-97927284D01*
X147036700Y-97871958D01*
X147036690Y-97871954D01*
X146794415Y-97771600D01*
X146777039Y-97766944D01*
X146777039Y-97766945D01*
X146541116Y-97703729D01*
X146541115Y-97703728D01*
X146541112Y-97703728D01*
X146411118Y-97686615D01*
X146281127Y-97669500D01*
X146281120Y-97669500D01*
X140988880Y-97669500D01*
X140988872Y-97669500D01*
X140858882Y-97686615D01*
X140858881Y-97686615D01*
X140728887Y-97703728D01*
X140492961Y-97766945D01*
X140492960Y-97766944D01*
X140475584Y-97771600D01*
X140233309Y-97871954D01*
X140233299Y-97871958D01*
X140006197Y-98003075D01*
X139880184Y-98099769D01*
X139798150Y-98162715D01*
X139798143Y-98162721D01*
X137012721Y-100948143D01*
X137012715Y-100948150D01*
X136934182Y-101050499D01*
X136934181Y-101050500D01*
X136853074Y-101156197D01*
X136853072Y-101156201D01*
X136748734Y-101336923D01*
X136748734Y-101336924D01*
X136738932Y-101353900D01*
X136721956Y-101383303D01*
X136721955Y-101383306D01*
X136621602Y-101625580D01*
X136593181Y-101731649D01*
X136555237Y-101873258D01*
X136553728Y-101878888D01*
X136542018Y-101967843D01*
X136542018Y-101967844D01*
X136519500Y-102138872D01*
X136519500Y-105405003D01*
X136499815Y-105472042D01*
X136483181Y-105492684D01*
X136472181Y-105503684D01*
X136410858Y-105537169D01*
X136341166Y-105532185D01*
X136285233Y-105490313D01*
X136260816Y-105424849D01*
X136260500Y-105416003D01*
X136260500Y-93921577D01*
X144229500Y-93921577D01*
X144229500Y-94118422D01*
X144260290Y-94312826D01*
X144321117Y-94500030D01*
X144380513Y-94616599D01*
X144410476Y-94675405D01*
X144526172Y-94834646D01*
X144665354Y-94973828D01*
X144824595Y-95089524D01*
X144907454Y-95131742D01*
X144999969Y-95178882D01*
X144999971Y-95178882D01*
X144999974Y-95178884D01*
X145100318Y-95211487D01*
X145187173Y-95239709D01*
X145381578Y-95270500D01*
X145381583Y-95270500D01*
X145578422Y-95270500D01*
X145772826Y-95239709D01*
X145795336Y-95232395D01*
X145960026Y-95178884D01*
X146135405Y-95089524D01*
X146294646Y-94973828D01*
X147101655Y-94166819D01*
X147162978Y-94133334D01*
X147189336Y-94130500D01*
X151110664Y-94130500D01*
X151177703Y-94150185D01*
X151198345Y-94166819D01*
X153663181Y-96631655D01*
X153696666Y-96692978D01*
X153699500Y-96719336D01*
X153699500Y-99898422D01*
X153730290Y-100092826D01*
X153791117Y-100280030D01*
X153853215Y-100401902D01*
X153880476Y-100455405D01*
X153996172Y-100614646D01*
X155395354Y-102013828D01*
X155554595Y-102129524D01*
X155637454Y-102171742D01*
X155729969Y-102218882D01*
X155729971Y-102218882D01*
X155729974Y-102218884D01*
X155830318Y-102251487D01*
X155917173Y-102279709D01*
X156111578Y-102310500D01*
X156111583Y-102310500D01*
X156308416Y-102310500D01*
X158375857Y-102310500D01*
X158407949Y-102314724D01*
X158523308Y-102345635D01*
X158685230Y-102359801D01*
X158749998Y-102365468D01*
X158750000Y-102365468D01*
X158750002Y-102365468D01*
X158806673Y-102360509D01*
X158976692Y-102345635D01*
X159196496Y-102286739D01*
X159402734Y-102190568D01*
X159589139Y-102060047D01*
X159750047Y-101899139D01*
X159880568Y-101712734D01*
X159976739Y-101506496D01*
X160005725Y-101398317D01*
X160042090Y-101338657D01*
X160104936Y-101308128D01*
X160174312Y-101316422D01*
X160228190Y-101360908D01*
X160249465Y-101427459D01*
X160249500Y-101430411D01*
X160249500Y-107765892D01*
X160257201Y-107794634D01*
X160283608Y-107893187D01*
X160309684Y-107938351D01*
X160349500Y-108007314D01*
X160442686Y-108100500D01*
X160529198Y-108150448D01*
X160551115Y-108163102D01*
X160556814Y-108166392D01*
X160684108Y-108200500D01*
X160684110Y-108200500D01*
X174815890Y-108200500D01*
X174815892Y-108200500D01*
X174943186Y-108166392D01*
X175057314Y-108100500D01*
X175150500Y-108007314D01*
X175216392Y-107893186D01*
X175250500Y-107765892D01*
X175250500Y-96449998D01*
X176114532Y-96449998D01*
X176114532Y-96450001D01*
X176134364Y-96676686D01*
X176134366Y-96676697D01*
X176193258Y-96896488D01*
X176193261Y-96896497D01*
X176289431Y-97102732D01*
X176289432Y-97102734D01*
X176419954Y-97289141D01*
X176580858Y-97450045D01*
X176580861Y-97450047D01*
X176767266Y-97580568D01*
X176973504Y-97676739D01*
X177193308Y-97735635D01*
X177355230Y-97749801D01*
X177419998Y-97755468D01*
X177420000Y-97755468D01*
X177420002Y-97755468D01*
X177476673Y-97750509D01*
X177646692Y-97735635D01*
X177866496Y-97676739D01*
X178072734Y-97580568D01*
X178259139Y-97450047D01*
X178420047Y-97289139D01*
X178550568Y-97102734D01*
X178646739Y-96896496D01*
X178705635Y-96676692D01*
X178725468Y-96450000D01*
X178705635Y-96223308D01*
X178646739Y-96003504D01*
X178550568Y-95797266D01*
X178420047Y-95610861D01*
X178420045Y-95610858D01*
X178259141Y-95449954D01*
X178072734Y-95319432D01*
X178072732Y-95319431D01*
X177866497Y-95223261D01*
X177866488Y-95223258D01*
X177646697Y-95164366D01*
X177646693Y-95164365D01*
X177646692Y-95164365D01*
X177646691Y-95164364D01*
X177646686Y-95164364D01*
X177420002Y-95144532D01*
X177419998Y-95144532D01*
X177193313Y-95164364D01*
X177193302Y-95164366D01*
X176973511Y-95223258D01*
X176973502Y-95223261D01*
X176767267Y-95319431D01*
X176767265Y-95319432D01*
X176580858Y-95449954D01*
X176419954Y-95610858D01*
X176289432Y-95797265D01*
X176289431Y-95797267D01*
X176193261Y-96003502D01*
X176193258Y-96003511D01*
X176134366Y-96223302D01*
X176134364Y-96223313D01*
X176114532Y-96449998D01*
X175250500Y-96449998D01*
X175250500Y-92839999D01*
X175869341Y-92839999D01*
X175869341Y-92840000D01*
X175889936Y-93075403D01*
X175889938Y-93075413D01*
X175951094Y-93303655D01*
X175951096Y-93303659D01*
X175951097Y-93303663D01*
X176003297Y-93415606D01*
X176050965Y-93517830D01*
X176050967Y-93517834D01*
X176148890Y-93657681D01*
X176186505Y-93711401D01*
X176353599Y-93878495D01*
X176445352Y-93942741D01*
X176547165Y-94014032D01*
X176547167Y-94014033D01*
X176547170Y-94014035D01*
X176761337Y-94113903D01*
X176761343Y-94113904D01*
X176761344Y-94113905D01*
X176778202Y-94118422D01*
X176989592Y-94175063D01*
X177177918Y-94191539D01*
X177224999Y-94195659D01*
X177225000Y-94195659D01*
X177225001Y-94195659D01*
X177264234Y-94192226D01*
X177460408Y-94175063D01*
X177688663Y-94113903D01*
X177902830Y-94014035D01*
X178096401Y-93878495D01*
X178263495Y-93711401D01*
X178399035Y-93517830D01*
X178498903Y-93303663D01*
X178560063Y-93075408D01*
X178580659Y-92840000D01*
X178560063Y-92604592D01*
X178498903Y-92376337D01*
X178399035Y-92162171D01*
X178362963Y-92110655D01*
X178263496Y-91968600D01*
X178221068Y-91926172D01*
X178141179Y-91846283D01*
X178107696Y-91784963D01*
X178112680Y-91715271D01*
X178154551Y-91659337D01*
X178185529Y-91642422D01*
X178317086Y-91593354D01*
X178317093Y-91593350D01*
X178432187Y-91507190D01*
X178432190Y-91507187D01*
X178518350Y-91392093D01*
X178518354Y-91392086D01*
X178568596Y-91257379D01*
X178568598Y-91257372D01*
X178574999Y-91197844D01*
X178575000Y-91197827D01*
X178575000Y-90550000D01*
X177658012Y-90550000D01*
X177690925Y-90492993D01*
X177725000Y-90365826D01*
X177725000Y-90234174D01*
X177690925Y-90107007D01*
X177658012Y-90050000D01*
X178575000Y-90050000D01*
X178575000Y-89402172D01*
X178574999Y-89402155D01*
X178568598Y-89342627D01*
X178568596Y-89342620D01*
X178518354Y-89207913D01*
X178518350Y-89207906D01*
X178432190Y-89092812D01*
X178432187Y-89092809D01*
X178317093Y-89006649D01*
X178317086Y-89006645D01*
X178182379Y-88956403D01*
X178182372Y-88956401D01*
X178122844Y-88950000D01*
X177475000Y-88950000D01*
X177475000Y-89866988D01*
X177417993Y-89834075D01*
X177290826Y-89800000D01*
X177159174Y-89800000D01*
X177032007Y-89834075D01*
X176975000Y-89866988D01*
X176975000Y-88950000D01*
X176327155Y-88950000D01*
X176267627Y-88956401D01*
X176267620Y-88956403D01*
X176132913Y-89006645D01*
X176132906Y-89006649D01*
X176017812Y-89092809D01*
X176017809Y-89092812D01*
X175931649Y-89207906D01*
X175931645Y-89207913D01*
X175881403Y-89342620D01*
X175881401Y-89342627D01*
X175875000Y-89402155D01*
X175875000Y-90050000D01*
X176791988Y-90050000D01*
X176759075Y-90107007D01*
X176725000Y-90234174D01*
X176725000Y-90365826D01*
X176759075Y-90492993D01*
X176791988Y-90550000D01*
X175875000Y-90550000D01*
X175875000Y-91197844D01*
X175881401Y-91257372D01*
X175881403Y-91257379D01*
X175931645Y-91392086D01*
X175931649Y-91392093D01*
X176017809Y-91507187D01*
X176017812Y-91507190D01*
X176132906Y-91593350D01*
X176132913Y-91593354D01*
X176264470Y-91642421D01*
X176320403Y-91684292D01*
X176344821Y-91749756D01*
X176329970Y-91818029D01*
X176308819Y-91846284D01*
X176186503Y-91968600D01*
X176050965Y-92162169D01*
X176050964Y-92162171D01*
X175951098Y-92376335D01*
X175951094Y-92376344D01*
X175889938Y-92604586D01*
X175889936Y-92604596D01*
X175869341Y-92839999D01*
X175250500Y-92839999D01*
X175250500Y-87634108D01*
X175216392Y-87506814D01*
X175150500Y-87392686D01*
X175057314Y-87299500D01*
X174997179Y-87264781D01*
X174943187Y-87233608D01*
X174869817Y-87213949D01*
X174815892Y-87199500D01*
X160815892Y-87199500D01*
X160684108Y-87199500D01*
X160556812Y-87233608D01*
X160442686Y-87299500D01*
X160442683Y-87299502D01*
X160349502Y-87392683D01*
X160349500Y-87392686D01*
X160283608Y-87506812D01*
X160249500Y-87634108D01*
X160249500Y-87731904D01*
X160229815Y-87798943D01*
X160177011Y-87844698D01*
X160107853Y-87854642D01*
X160044297Y-87825617D01*
X160011944Y-87781714D01*
X159985483Y-87721390D01*
X159858585Y-87527157D01*
X159701441Y-87356454D01*
X159701437Y-87356451D01*
X159518355Y-87213952D01*
X159518351Y-87213949D01*
X159314302Y-87103523D01*
X159314293Y-87103520D01*
X159094861Y-87028188D01*
X159000000Y-87012359D01*
X159000000Y-88014722D01*
X158923694Y-87970667D01*
X158809244Y-87940000D01*
X158690756Y-87940000D01*
X158576306Y-87970667D01*
X158500000Y-88014722D01*
X158500000Y-87012359D01*
X158499999Y-87012359D01*
X158405138Y-87028188D01*
X158185706Y-87103520D01*
X158185697Y-87103523D01*
X157981648Y-87213949D01*
X157981644Y-87213952D01*
X157798562Y-87356451D01*
X157798558Y-87356454D01*
X157641414Y-87527157D01*
X157514516Y-87721390D01*
X157421317Y-87933864D01*
X157369117Y-88140000D01*
X158374722Y-88140000D01*
X158330667Y-88216306D01*
X158300000Y-88330756D01*
X158300000Y-88449244D01*
X158330667Y-88563694D01*
X158374722Y-88640000D01*
X157369117Y-88640000D01*
X157421317Y-88846135D01*
X157514516Y-89058609D01*
X157641414Y-89252842D01*
X157798558Y-89423545D01*
X157798562Y-89423548D01*
X157981644Y-89566047D01*
X157981648Y-89566050D01*
X158185697Y-89676476D01*
X158185706Y-89676479D01*
X158405139Y-89751811D01*
X158499999Y-89767640D01*
X158500000Y-89767639D01*
X158500000Y-88765277D01*
X158576306Y-88809333D01*
X158690756Y-88840000D01*
X158809244Y-88840000D01*
X158923694Y-88809333D01*
X159000000Y-88765277D01*
X159000000Y-89767640D01*
X159094860Y-89751811D01*
X159314293Y-89676479D01*
X159314302Y-89676476D01*
X159518351Y-89566050D01*
X159518355Y-89566047D01*
X159701437Y-89423548D01*
X159701441Y-89423545D01*
X159858585Y-89252842D01*
X159985483Y-89058609D01*
X160011944Y-88998285D01*
X160056900Y-88944799D01*
X160123636Y-88924109D01*
X160190964Y-88942783D01*
X160237507Y-88994894D01*
X160249500Y-89048095D01*
X160249500Y-97243106D01*
X160229815Y-97310145D01*
X160177011Y-97355900D01*
X160107853Y-97365844D01*
X160044297Y-97336819D01*
X160026234Y-97317418D01*
X160018208Y-97306697D01*
X160007546Y-97292454D01*
X160007544Y-97292453D01*
X160007544Y-97292452D01*
X159892335Y-97206206D01*
X159892328Y-97206202D01*
X159757482Y-97155908D01*
X159757483Y-97155908D01*
X159697883Y-97149501D01*
X159697881Y-97149500D01*
X159697873Y-97149500D01*
X159697864Y-97149500D01*
X157802129Y-97149500D01*
X157802123Y-97149501D01*
X157742516Y-97155908D01*
X157607671Y-97206202D01*
X157607664Y-97206206D01*
X157492455Y-97292452D01*
X157492452Y-97292455D01*
X157406206Y-97407664D01*
X157406202Y-97407671D01*
X157355908Y-97542517D01*
X157349501Y-97602116D01*
X157349500Y-97602135D01*
X157349500Y-99497870D01*
X157349501Y-99497876D01*
X157355908Y-99557483D01*
X157387494Y-99642167D01*
X157392478Y-99711858D01*
X157358993Y-99773182D01*
X157297670Y-99806666D01*
X157271312Y-99809500D01*
X156779336Y-99809500D01*
X156712297Y-99789815D01*
X156691655Y-99773181D01*
X156236819Y-99318345D01*
X156203334Y-99257022D01*
X156200500Y-99230664D01*
X156200500Y-96051583D01*
X156192091Y-95998491D01*
X156192091Y-95998490D01*
X156169710Y-95857177D01*
X156169709Y-95857175D01*
X156169709Y-95857173D01*
X156135060Y-95750536D01*
X156108884Y-95669975D01*
X156108882Y-95669972D01*
X156108882Y-95669970D01*
X156065054Y-95583954D01*
X156019524Y-95494594D01*
X155903828Y-95335354D01*
X152494646Y-91926172D01*
X152335405Y-91810476D01*
X152160030Y-91721117D01*
X151972826Y-91660290D01*
X151778422Y-91629500D01*
X151778417Y-91629500D01*
X146718416Y-91629500D01*
X146521583Y-91629500D01*
X146521578Y-91629500D01*
X146327178Y-91660290D01*
X146327173Y-91660291D01*
X146309707Y-91665966D01*
X146139970Y-91721117D01*
X146014667Y-91784963D01*
X145964595Y-91810476D01*
X145964594Y-91810477D01*
X145956696Y-91816215D01*
X145956691Y-91816217D01*
X145805352Y-91926173D01*
X144526174Y-93205351D01*
X144526174Y-93205352D01*
X144526172Y-93205354D01*
X144493793Y-93249920D01*
X144410476Y-93364594D01*
X144321117Y-93539969D01*
X144260290Y-93727173D01*
X144229500Y-93921577D01*
X136260500Y-93921577D01*
X136260500Y-91265782D01*
X136280185Y-91198743D01*
X136296819Y-91178101D01*
X137247420Y-90227501D01*
X138227140Y-89247781D01*
X138336632Y-89083914D01*
X138412052Y-88901835D01*
X138450500Y-88708540D01*
X138450500Y-88511460D01*
X138450500Y-87131459D01*
X138450500Y-87131456D01*
X138412052Y-86938170D01*
X138412051Y-86938169D01*
X138412051Y-86938165D01*
X138357487Y-86806434D01*
X138336635Y-86756092D01*
X138336628Y-86756079D01*
X138227139Y-86592218D01*
X138227136Y-86592214D01*
X138087785Y-86452863D01*
X138087781Y-86452860D01*
X137923920Y-86343371D01*
X137923907Y-86343364D01*
X137741839Y-86267950D01*
X137741829Y-86267947D01*
X137548543Y-86229500D01*
X137548541Y-86229500D01*
X137484781Y-86229500D01*
X137417742Y-86209815D01*
X137371987Y-86157011D01*
X137362043Y-86087853D01*
X137391068Y-86024297D01*
X137397100Y-86017819D01*
X139097140Y-84317781D01*
X139097144Y-84317774D01*
X139101005Y-84313071D01*
X139101814Y-84313735D01*
X139125571Y-84289027D01*
X139125833Y-84288837D01*
X139199792Y-84235104D01*
X139350104Y-84084792D01*
X139368510Y-84059459D01*
X139475048Y-83912820D01*
X139475047Y-83912820D01*
X139475051Y-83912816D01*
X139571557Y-83723412D01*
X139637246Y-83521243D01*
X139670500Y-83311287D01*
X139670500Y-82798713D01*
X139637246Y-82588757D01*
X139571557Y-82386588D01*
X139504501Y-82254983D01*
X143379500Y-82254983D01*
X143379500Y-83855001D01*
X143379501Y-83855018D01*
X143390000Y-83957796D01*
X143390001Y-83957799D01*
X143433257Y-84088336D01*
X143445186Y-84124334D01*
X143537288Y-84273656D01*
X143661344Y-84397712D01*
X143810666Y-84489814D01*
X143977203Y-84544999D01*
X144079991Y-84555500D01*
X145380008Y-84555499D01*
X145482797Y-84544999D01*
X145649334Y-84489814D01*
X145798656Y-84397712D01*
X145922712Y-84273656D01*
X146014814Y-84124334D01*
X146014814Y-84124331D01*
X146018448Y-84118441D01*
X146070395Y-84071716D01*
X146139358Y-84060493D01*
X146203440Y-84088336D01*
X146211668Y-84095856D01*
X146350535Y-84234723D01*
X146350540Y-84234727D01*
X146522442Y-84359620D01*
X146711782Y-84456095D01*
X146913871Y-84521757D01*
X146980000Y-84532231D01*
X146980000Y-83488012D01*
X147037007Y-83520925D01*
X147164174Y-83555000D01*
X147295826Y-83555000D01*
X147422993Y-83520925D01*
X147480000Y-83488012D01*
X147480000Y-84532230D01*
X147546126Y-84521757D01*
X147546129Y-84521757D01*
X147748217Y-84456095D01*
X147937557Y-84359620D01*
X148109459Y-84234727D01*
X148109464Y-84234723D01*
X148259723Y-84084464D01*
X148259727Y-84084459D01*
X148384620Y-83912557D01*
X148481095Y-83723217D01*
X148546757Y-83521130D01*
X148546757Y-83521127D01*
X148580000Y-83311246D01*
X148580000Y-83305000D01*
X147663012Y-83305000D01*
X147695925Y-83247993D01*
X147730000Y-83120826D01*
X147730000Y-82989174D01*
X147695925Y-82862007D01*
X147663012Y-82805000D01*
X148580000Y-82805000D01*
X148580000Y-82798753D01*
X148546757Y-82588872D01*
X148546757Y-82588869D01*
X148481095Y-82386782D01*
X148408844Y-82244983D01*
X152339500Y-82244983D01*
X152339500Y-83845001D01*
X152339501Y-83845018D01*
X152350000Y-83947796D01*
X152350001Y-83947799D01*
X152383690Y-84049464D01*
X152405186Y-84114334D01*
X152497288Y-84263656D01*
X152621344Y-84387712D01*
X152770666Y-84479814D01*
X152937203Y-84534999D01*
X153039991Y-84545500D01*
X154340008Y-84545499D01*
X154442797Y-84534999D01*
X154609334Y-84479814D01*
X154758656Y-84387712D01*
X154882712Y-84263656D01*
X154974814Y-84114334D01*
X154974814Y-84114331D01*
X154978448Y-84108441D01*
X155030395Y-84061716D01*
X155099358Y-84050493D01*
X155163440Y-84078336D01*
X155171668Y-84085856D01*
X155310535Y-84224723D01*
X155310540Y-84224727D01*
X155482442Y-84349620D01*
X155671782Y-84446095D01*
X155873871Y-84511757D01*
X155940000Y-84522231D01*
X155940000Y-83478012D01*
X155997007Y-83510925D01*
X156124174Y-83545000D01*
X156255826Y-83545000D01*
X156382993Y-83510925D01*
X156440000Y-83478012D01*
X156440000Y-84522230D01*
X156506126Y-84511757D01*
X156506129Y-84511757D01*
X156708217Y-84446095D01*
X156897557Y-84349620D01*
X157069459Y-84224727D01*
X157069464Y-84224723D01*
X157219723Y-84074464D01*
X157219727Y-84074459D01*
X157344620Y-83902557D01*
X157441095Y-83713217D01*
X157506757Y-83511130D01*
X157506757Y-83511127D01*
X157540000Y-83301246D01*
X157540000Y-83295000D01*
X156623012Y-83295000D01*
X156655925Y-83237993D01*
X156690000Y-83110826D01*
X156690000Y-82979174D01*
X156655925Y-82852007D01*
X156623012Y-82795000D01*
X157540000Y-82795000D01*
X157540000Y-82788753D01*
X157506757Y-82578872D01*
X157506757Y-82578869D01*
X157441095Y-82376782D01*
X157366296Y-82229983D01*
X161279500Y-82229983D01*
X161279500Y-83830001D01*
X161279501Y-83830018D01*
X161290000Y-83932796D01*
X161290001Y-83932799D01*
X161345185Y-84099331D01*
X161345186Y-84099334D01*
X161437288Y-84248656D01*
X161561344Y-84372712D01*
X161710666Y-84464814D01*
X161877203Y-84519999D01*
X161979991Y-84530500D01*
X163280008Y-84530499D01*
X163382797Y-84519999D01*
X163549334Y-84464814D01*
X163698656Y-84372712D01*
X163822712Y-84248656D01*
X163914814Y-84099334D01*
X163914814Y-84099331D01*
X163918448Y-84093441D01*
X163970395Y-84046716D01*
X164039358Y-84035493D01*
X164103440Y-84063336D01*
X164111668Y-84070856D01*
X164250535Y-84209723D01*
X164250540Y-84209727D01*
X164422442Y-84334620D01*
X164611782Y-84431095D01*
X164813871Y-84496757D01*
X164880000Y-84507231D01*
X164880000Y-83463012D01*
X164937007Y-83495925D01*
X165064174Y-83530000D01*
X165195826Y-83530000D01*
X165322993Y-83495925D01*
X165380000Y-83463012D01*
X165380000Y-84507230D01*
X165446126Y-84496757D01*
X165446129Y-84496757D01*
X165648217Y-84431095D01*
X165837557Y-84334620D01*
X166009459Y-84209727D01*
X166009464Y-84209723D01*
X166159723Y-84059464D01*
X166159727Y-84059459D01*
X166284620Y-83887557D01*
X166381095Y-83698217D01*
X166446757Y-83496130D01*
X166446757Y-83496127D01*
X166480000Y-83286246D01*
X166480000Y-83280000D01*
X165563012Y-83280000D01*
X165595925Y-83222993D01*
X165630000Y-83095826D01*
X165630000Y-82964174D01*
X165595925Y-82837007D01*
X165563012Y-82780000D01*
X166480000Y-82780000D01*
X166480000Y-82773753D01*
X166446757Y-82563872D01*
X166446757Y-82563869D01*
X166381095Y-82361782D01*
X166284620Y-82172442D01*
X166159727Y-82000540D01*
X166159723Y-82000535D01*
X166009464Y-81850276D01*
X166009459Y-81850272D01*
X165837557Y-81725379D01*
X165648215Y-81628903D01*
X165446124Y-81563241D01*
X165380000Y-81552768D01*
X165380000Y-82596988D01*
X165322993Y-82564075D01*
X165195826Y-82530000D01*
X165064174Y-82530000D01*
X164937007Y-82564075D01*
X164880000Y-82596988D01*
X164880000Y-81552768D01*
X164879999Y-81552768D01*
X164813875Y-81563241D01*
X164611784Y-81628903D01*
X164422442Y-81725379D01*
X164250541Y-81850271D01*
X164111668Y-81989144D01*
X164050345Y-82022628D01*
X163980653Y-82017644D01*
X163924720Y-81975772D01*
X163918448Y-81966558D01*
X163822712Y-81811344D01*
X163698657Y-81687289D01*
X163698656Y-81687288D01*
X163573653Y-81610186D01*
X163549336Y-81595187D01*
X163549331Y-81595185D01*
X163528375Y-81588241D01*
X163382797Y-81540001D01*
X163382795Y-81540000D01*
X163280010Y-81529500D01*
X161979998Y-81529500D01*
X161979981Y-81529501D01*
X161877203Y-81540000D01*
X161877200Y-81540001D01*
X161710668Y-81595185D01*
X161710663Y-81595187D01*
X161561342Y-81687289D01*
X161437289Y-81811342D01*
X161345187Y-81960663D01*
X161345185Y-81960668D01*
X161323689Y-82025540D01*
X161290001Y-82127203D01*
X161290001Y-82127204D01*
X161290000Y-82127204D01*
X161279500Y-82229983D01*
X157366296Y-82229983D01*
X157344620Y-82187442D01*
X157219727Y-82015540D01*
X157219723Y-82015535D01*
X157069464Y-81865276D01*
X157069459Y-81865272D01*
X156897557Y-81740379D01*
X156708215Y-81643903D01*
X156506124Y-81578241D01*
X156440000Y-81567768D01*
X156440000Y-82611988D01*
X156382993Y-82579075D01*
X156255826Y-82545000D01*
X156124174Y-82545000D01*
X155997007Y-82579075D01*
X155940000Y-82611988D01*
X155940000Y-81567768D01*
X155939999Y-81567768D01*
X155873875Y-81578241D01*
X155671784Y-81643903D01*
X155482442Y-81740379D01*
X155310541Y-81865271D01*
X155171668Y-82004144D01*
X155110345Y-82037628D01*
X155040653Y-82032644D01*
X154984720Y-81990772D01*
X154978448Y-81981558D01*
X154882712Y-81826344D01*
X154758657Y-81702289D01*
X154758656Y-81702288D01*
X154639679Y-81628903D01*
X154609336Y-81610187D01*
X154609331Y-81610185D01*
X154564064Y-81595185D01*
X154442797Y-81555001D01*
X154442795Y-81555000D01*
X154340010Y-81544500D01*
X153039998Y-81544500D01*
X153039981Y-81544501D01*
X152937203Y-81555000D01*
X152937200Y-81555001D01*
X152770668Y-81610185D01*
X152770663Y-81610187D01*
X152621342Y-81702289D01*
X152497289Y-81826342D01*
X152405187Y-81975663D01*
X152405185Y-81975668D01*
X152383689Y-82040540D01*
X152350001Y-82142203D01*
X152350001Y-82142204D01*
X152350000Y-82142204D01*
X152339500Y-82244983D01*
X148408844Y-82244983D01*
X148384620Y-82197442D01*
X148259727Y-82025540D01*
X148259723Y-82025535D01*
X148109464Y-81875276D01*
X148109459Y-81875272D01*
X147937557Y-81750379D01*
X147748215Y-81653903D01*
X147546124Y-81588241D01*
X147480000Y-81577768D01*
X147480000Y-82621988D01*
X147422993Y-82589075D01*
X147295826Y-82555000D01*
X147164174Y-82555000D01*
X147037007Y-82589075D01*
X146980000Y-82621988D01*
X146980000Y-81577768D01*
X146979999Y-81577768D01*
X146913875Y-81588241D01*
X146711784Y-81653903D01*
X146522442Y-81750379D01*
X146350541Y-81875271D01*
X146211668Y-82014144D01*
X146150345Y-82047628D01*
X146080653Y-82042644D01*
X146024720Y-82000772D01*
X146018448Y-81991558D01*
X145922712Y-81836344D01*
X145798657Y-81712289D01*
X145798656Y-81712288D01*
X145673653Y-81635186D01*
X145649336Y-81620187D01*
X145649331Y-81620185D01*
X145598197Y-81603241D01*
X145482797Y-81565001D01*
X145482795Y-81565000D01*
X145380010Y-81554500D01*
X144079998Y-81554500D01*
X144079981Y-81554501D01*
X143977203Y-81565000D01*
X143977200Y-81565001D01*
X143810668Y-81620185D01*
X143810663Y-81620187D01*
X143661342Y-81712289D01*
X143537289Y-81836342D01*
X143445187Y-81985663D01*
X143445185Y-81985668D01*
X143426450Y-82042206D01*
X143390001Y-82152203D01*
X143390001Y-82152204D01*
X143390000Y-82152204D01*
X143379500Y-82254983D01*
X139504501Y-82254983D01*
X139475051Y-82197184D01*
X139475049Y-82197181D01*
X139475048Y-82197179D01*
X139350109Y-82025213D01*
X139199786Y-81874890D01*
X139027820Y-81749951D01*
X138838414Y-81653444D01*
X138838413Y-81653443D01*
X138838412Y-81653443D01*
X138636243Y-81587754D01*
X138636241Y-81587753D01*
X138636240Y-81587753D01*
X138474957Y-81562208D01*
X138426287Y-81554500D01*
X138213713Y-81554500D01*
X138165042Y-81562208D01*
X138003760Y-81587753D01*
X137801585Y-81653444D01*
X137612179Y-81749951D01*
X137440215Y-81874889D01*
X137301398Y-82013706D01*
X137240075Y-82047190D01*
X137170383Y-82042206D01*
X137114450Y-82000334D01*
X137108178Y-81991120D01*
X137012712Y-81836344D01*
X136888657Y-81712289D01*
X136888656Y-81712288D01*
X136763653Y-81635186D01*
X136739336Y-81620187D01*
X136739331Y-81620185D01*
X136688197Y-81603241D01*
X136572797Y-81565001D01*
X136572795Y-81565000D01*
X136470010Y-81554500D01*
X135169998Y-81554500D01*
X135169981Y-81554501D01*
X135067203Y-81565000D01*
X135067200Y-81565001D01*
X134900668Y-81620185D01*
X134900663Y-81620187D01*
X134751342Y-81712289D01*
X134627289Y-81836342D01*
X134535187Y-81985663D01*
X134535185Y-81985668D01*
X134516450Y-82042206D01*
X134480001Y-82152203D01*
X134480001Y-82152204D01*
X134480000Y-82152204D01*
X134469500Y-82254983D01*
X134469500Y-83855001D01*
X134469501Y-83855018D01*
X134480000Y-83957796D01*
X134480001Y-83957799D01*
X134523257Y-84088336D01*
X134535186Y-84124334D01*
X134627288Y-84273656D01*
X134751344Y-84397712D01*
X134900666Y-84489814D01*
X135067203Y-84544999D01*
X135169991Y-84555500D01*
X135730218Y-84555499D01*
X135797256Y-84575183D01*
X135843011Y-84627987D01*
X135852955Y-84697146D01*
X135823930Y-84760702D01*
X135817898Y-84767180D01*
X134567260Y-86017819D01*
X133422220Y-87162859D01*
X133422218Y-87162861D01*
X133385579Y-87199500D01*
X133282859Y-87302219D01*
X133173371Y-87466080D01*
X133173364Y-87466093D01*
X133156498Y-87506814D01*
X133145021Y-87534523D01*
X133098039Y-87647948D01*
X133097949Y-87648165D01*
X133097948Y-87648168D01*
X133097948Y-87648169D01*
X133059500Y-87841456D01*
X133059500Y-105231000D01*
X133039815Y-105298039D01*
X132987011Y-105343794D01*
X132944446Y-105353053D01*
X132942500Y-105355000D01*
X132942500Y-107304999D01*
X132945409Y-107307908D01*
X133002539Y-107324684D01*
X133048294Y-107377488D01*
X133059500Y-107428999D01*
X133059500Y-107825253D01*
X133039815Y-107892292D01*
X132987011Y-107938047D01*
X132917853Y-107947991D01*
X132854297Y-107918966D01*
X132817569Y-107863571D01*
X132807043Y-107831176D01*
X132779873Y-107747555D01*
X132701232Y-107593212D01*
X132599414Y-107453072D01*
X132478819Y-107332477D01*
X132445334Y-107271154D01*
X132442500Y-107244796D01*
X132442500Y-105354999D01*
X132343360Y-105355000D01*
X132343344Y-105355001D01*
X132242347Y-105365319D01*
X132078699Y-105419546D01*
X132078694Y-105419548D01*
X132005556Y-105464661D01*
X131938163Y-105483101D01*
X131871500Y-105462178D01*
X131852778Y-105446804D01*
X131821977Y-105416003D01*
X131782146Y-105376172D01*
X131622905Y-105260476D01*
X131565055Y-105231000D01*
X131447529Y-105171117D01*
X131260326Y-105110290D01*
X131065922Y-105079500D01*
X131065917Y-105079500D01*
X128699336Y-105079500D01*
X128632297Y-105059815D01*
X128611655Y-105043181D01*
X128074648Y-104506174D01*
X128074646Y-104506172D01*
X127915405Y-104390476D01*
X127905900Y-104385633D01*
X127740030Y-104301117D01*
X127552826Y-104240290D01*
X127358422Y-104209500D01*
X127358417Y-104209500D01*
X127017309Y-104209500D01*
X126950270Y-104189815D01*
X126929628Y-104173181D01*
X126236447Y-103480000D01*
X126242661Y-103480000D01*
X126344394Y-103452741D01*
X126435606Y-103400080D01*
X126510080Y-103325606D01*
X126562741Y-103234394D01*
X126590000Y-103132661D01*
X126590000Y-103126447D01*
X127269024Y-103805471D01*
X127320136Y-103732478D01*
X127416264Y-103526331D01*
X127416269Y-103526317D01*
X127475139Y-103306610D01*
X127475141Y-103306599D01*
X127494966Y-103080002D01*
X127494966Y-103079997D01*
X127475141Y-102853400D01*
X127475139Y-102853389D01*
X127416269Y-102633682D01*
X127416264Y-102633668D01*
X127320136Y-102427521D01*
X127320132Y-102427513D01*
X127269025Y-102354526D01*
X126590000Y-103033551D01*
X126590000Y-103027339D01*
X126562741Y-102925606D01*
X126510080Y-102834394D01*
X126435606Y-102759920D01*
X126344394Y-102707259D01*
X126242661Y-102680000D01*
X126236447Y-102680000D01*
X126915472Y-102000974D01*
X126842478Y-101949863D01*
X126636331Y-101853735D01*
X126636317Y-101853730D01*
X126416610Y-101794860D01*
X126416599Y-101794858D01*
X126190002Y-101775034D01*
X126189998Y-101775034D01*
X125963400Y-101794858D01*
X125963389Y-101794860D01*
X125846593Y-101826155D01*
X125776743Y-101824492D01*
X125718880Y-101785329D01*
X125691377Y-101721100D01*
X125690500Y-101706380D01*
X125690500Y-100401902D01*
X125653553Y-100168631D01*
X125582677Y-99950499D01*
X125580568Y-99944008D01*
X125580566Y-99944005D01*
X125580566Y-99944003D01*
X125476983Y-99740711D01*
X125473343Y-99733567D01*
X125443383Y-99692331D01*
X125443383Y-99692330D01*
X125443381Y-99692329D01*
X125399837Y-99632394D01*
X125334521Y-99542493D01*
X122716819Y-96924791D01*
X122683334Y-96863468D01*
X122680500Y-96837110D01*
X122680500Y-94716357D01*
X122700185Y-94649318D01*
X122752989Y-94603563D01*
X122822147Y-94593619D01*
X122875624Y-94614783D01*
X122997510Y-94700129D01*
X122997516Y-94700133D01*
X123203673Y-94796265D01*
X123203682Y-94796269D01*
X123423389Y-94855139D01*
X123423400Y-94855141D01*
X123649998Y-94874966D01*
X123650002Y-94874966D01*
X123876599Y-94855141D01*
X123876610Y-94855139D01*
X124096317Y-94796269D01*
X124096331Y-94796264D01*
X124302478Y-94700136D01*
X124375471Y-94649024D01*
X123696447Y-93970000D01*
X123702661Y-93970000D01*
X123804394Y-93942741D01*
X123895606Y-93890080D01*
X123970080Y-93815606D01*
X124022741Y-93724394D01*
X124050000Y-93622661D01*
X124050000Y-93616447D01*
X124729024Y-94295471D01*
X124780136Y-94222478D01*
X124876264Y-94016331D01*
X124876269Y-94016317D01*
X124935139Y-93796610D01*
X124935141Y-93796599D01*
X124954966Y-93570002D01*
X124954966Y-93569997D01*
X124935141Y-93343400D01*
X124935139Y-93343389D01*
X124876269Y-93123682D01*
X124876264Y-93123668D01*
X124780136Y-92917521D01*
X124780132Y-92917513D01*
X124729025Y-92844526D01*
X124050000Y-93523551D01*
X124050000Y-93517339D01*
X124022741Y-93415606D01*
X123970080Y-93324394D01*
X123895606Y-93249920D01*
X123804394Y-93197259D01*
X123702661Y-93170000D01*
X123696447Y-93170000D01*
X124375472Y-92490974D01*
X124302478Y-92439863D01*
X124096331Y-92343735D01*
X124096317Y-92343730D01*
X123876610Y-92284860D01*
X123876599Y-92284858D01*
X123650002Y-92265034D01*
X123649998Y-92265034D01*
X123423400Y-92284858D01*
X123423389Y-92284860D01*
X123203682Y-92343730D01*
X123203673Y-92343734D01*
X122997517Y-92439866D01*
X122875624Y-92525217D01*
X122809417Y-92547544D01*
X122741650Y-92530534D01*
X122693837Y-92479586D01*
X122680500Y-92423642D01*
X122680500Y-92392889D01*
X122700185Y-92325850D01*
X122716819Y-92305208D01*
X125345551Y-89676476D01*
X128024517Y-86997510D01*
X128163343Y-86806434D01*
X128270568Y-86595992D01*
X128307866Y-86481200D01*
X128343553Y-86371368D01*
X128366023Y-86229500D01*
X128380500Y-86138097D01*
X128380500Y-84355876D01*
X128400185Y-84288837D01*
X128452989Y-84243082D01*
X128522147Y-84233138D01*
X128577385Y-84255558D01*
X128672442Y-84324620D01*
X128861782Y-84421095D01*
X129063871Y-84486757D01*
X129130000Y-84497231D01*
X129130000Y-83449145D01*
X129196657Y-83487630D01*
X129317465Y-83520000D01*
X129442535Y-83520000D01*
X129563343Y-83487630D01*
X129630000Y-83449145D01*
X129630000Y-84497230D01*
X129696126Y-84486757D01*
X129696129Y-84486757D01*
X129898217Y-84421095D01*
X130087557Y-84324620D01*
X130259459Y-84199727D01*
X130259464Y-84199723D01*
X130409723Y-84049464D01*
X130409727Y-84049459D01*
X130534620Y-83877557D01*
X130631095Y-83688217D01*
X130696757Y-83486130D01*
X130696757Y-83486127D01*
X130727030Y-83295000D01*
X129784146Y-83295000D01*
X129822630Y-83228343D01*
X129855000Y-83107535D01*
X129855000Y-82982465D01*
X129822630Y-82861657D01*
X129784146Y-82795000D01*
X130727030Y-82795000D01*
X130696757Y-82603872D01*
X130696757Y-82603869D01*
X130631095Y-82401782D01*
X130534620Y-82212442D01*
X130409727Y-82040540D01*
X130409723Y-82040535D01*
X130259464Y-81890276D01*
X130259459Y-81890272D01*
X130087557Y-81765379D01*
X129898215Y-81668903D01*
X129696124Y-81603241D01*
X129630000Y-81592768D01*
X129630000Y-82640854D01*
X129563343Y-82602370D01*
X129442535Y-82570000D01*
X129317465Y-82570000D01*
X129196657Y-82602370D01*
X129130000Y-82640854D01*
X129130000Y-81592768D01*
X129129999Y-81592768D01*
X129063875Y-81603241D01*
X128861784Y-81668903D01*
X128672442Y-81765379D01*
X128500540Y-81890272D01*
X128500535Y-81890276D01*
X128350276Y-82040535D01*
X128350272Y-82040540D01*
X128277923Y-82140121D01*
X128222593Y-82182787D01*
X128152980Y-82188766D01*
X128091185Y-82156160D01*
X128077287Y-82140122D01*
X128024517Y-82067490D01*
X127857510Y-81900483D01*
X127666433Y-81761657D01*
X127624673Y-81740379D01*
X127455996Y-81654433D01*
X127231368Y-81581446D01*
X126998097Y-81544500D01*
X126998092Y-81544500D01*
X126761908Y-81544500D01*
X126761903Y-81544500D01*
X126528631Y-81581446D01*
X126304003Y-81654433D01*
X126093566Y-81761657D01*
X125902491Y-81900482D01*
X125828158Y-81974815D01*
X125766834Y-82008299D01*
X125697143Y-82003314D01*
X125641209Y-81961443D01*
X125634938Y-81952229D01*
X125572712Y-81851344D01*
X125448657Y-81727289D01*
X125448656Y-81727288D01*
X125328935Y-81653444D01*
X125299336Y-81635187D01*
X125299331Y-81635185D01*
X125254064Y-81620185D01*
X125132797Y-81580001D01*
X125132795Y-81580000D01*
X125030010Y-81569500D01*
X123729998Y-81569500D01*
X123729981Y-81569501D01*
X123627203Y-81580000D01*
X123627200Y-81580001D01*
X123460668Y-81635185D01*
X123460663Y-81635187D01*
X123311342Y-81727289D01*
X123187289Y-81851342D01*
X123095187Y-82000663D01*
X123095185Y-82000668D01*
X123082938Y-82037628D01*
X123040001Y-82167203D01*
X123040001Y-82167204D01*
X123040000Y-82167204D01*
X123029500Y-82269983D01*
X123029500Y-83820001D01*
X123029501Y-83820018D01*
X123040000Y-83922796D01*
X123040001Y-83922799D01*
X123094855Y-84088336D01*
X123095186Y-84089334D01*
X123187288Y-84238656D01*
X123311344Y-84362712D01*
X123460666Y-84454814D01*
X123627203Y-84509999D01*
X123729991Y-84520500D01*
X125030008Y-84520499D01*
X125132797Y-84509999D01*
X125216498Y-84482262D01*
X125286323Y-84479861D01*
X125346365Y-84515592D01*
X125377558Y-84578112D01*
X125379500Y-84599969D01*
X125379500Y-85347111D01*
X125359815Y-85414150D01*
X125343181Y-85434792D01*
X120035485Y-90742487D01*
X120035484Y-90742488D01*
X119896657Y-90933565D01*
X119816015Y-91091836D01*
X119789433Y-91144003D01*
X119716446Y-91368631D01*
X119679500Y-91601902D01*
X119679500Y-92465043D01*
X119659815Y-92532082D01*
X119607011Y-92577837D01*
X119537853Y-92587781D01*
X119484377Y-92566618D01*
X119302734Y-92439432D01*
X119302732Y-92439431D01*
X119096497Y-92343261D01*
X119096488Y-92343258D01*
X118876697Y-92284366D01*
X118876693Y-92284365D01*
X118876692Y-92284365D01*
X118876691Y-92284364D01*
X118876686Y-92284364D01*
X118650002Y-92264532D01*
X118649998Y-92264532D01*
X118423313Y-92284364D01*
X118423302Y-92284366D01*
X118203511Y-92343258D01*
X118203502Y-92343261D01*
X117997267Y-92439431D01*
X117997265Y-92439432D01*
X117810858Y-92569954D01*
X117649954Y-92730858D01*
X117519432Y-92917265D01*
X117519431Y-92917267D01*
X117423261Y-93123502D01*
X117423258Y-93123511D01*
X117364366Y-93343302D01*
X117364364Y-93343313D01*
X117344532Y-93569998D01*
X117344532Y-93570001D01*
X117364357Y-93796610D01*
X117364365Y-93796692D01*
X117395275Y-93912052D01*
X117399500Y-93944142D01*
X117399500Y-98328422D01*
X117430290Y-98522826D01*
X117491117Y-98710030D01*
X117533352Y-98792919D01*
X117580476Y-98885405D01*
X117696172Y-99044646D01*
X117696174Y-99044648D01*
X120267182Y-101615656D01*
X120300667Y-101676979D01*
X120295683Y-101746671D01*
X120253811Y-101802604D01*
X120188347Y-101827021D01*
X120147410Y-101823112D01*
X120116616Y-101814861D01*
X120116599Y-101814858D01*
X119890002Y-101795034D01*
X119889998Y-101795034D01*
X119663400Y-101814858D01*
X119663389Y-101814860D01*
X119443682Y-101873730D01*
X119443673Y-101873734D01*
X119237516Y-101969866D01*
X119237512Y-101969868D01*
X119164526Y-102020973D01*
X119164526Y-102020974D01*
X119843553Y-102700000D01*
X119837339Y-102700000D01*
X119735606Y-102727259D01*
X119644394Y-102779920D01*
X119569920Y-102854394D01*
X119517259Y-102945606D01*
X119490000Y-103047339D01*
X119490000Y-103053552D01*
X118810974Y-102374526D01*
X118810973Y-102374526D01*
X118759868Y-102447512D01*
X118759867Y-102447514D01*
X118752656Y-102462979D01*
X118706482Y-102515417D01*
X118639288Y-102534567D01*
X118572407Y-102514350D01*
X118527893Y-102462976D01*
X118520568Y-102447266D01*
X118390047Y-102260861D01*
X118390045Y-102260858D01*
X118229141Y-102099954D01*
X118042734Y-101969432D01*
X118042732Y-101969431D01*
X117836497Y-101873261D01*
X117836488Y-101873258D01*
X117616697Y-101814366D01*
X117616693Y-101814365D01*
X117616692Y-101814365D01*
X117616691Y-101814364D01*
X117616686Y-101814364D01*
X117390002Y-101794532D01*
X117389998Y-101794532D01*
X117163313Y-101814364D01*
X117163302Y-101814366D01*
X116943511Y-101873258D01*
X116943502Y-101873261D01*
X116737267Y-101969431D01*
X116737265Y-101969432D01*
X116550858Y-102099954D01*
X116389954Y-102260858D01*
X116259432Y-102447265D01*
X116259431Y-102447267D01*
X116163261Y-102653502D01*
X116163258Y-102653511D01*
X116104366Y-102873302D01*
X116104364Y-102873313D01*
X116084532Y-103099998D01*
X116084532Y-103100001D01*
X116104364Y-103326686D01*
X116104366Y-103326697D01*
X116163258Y-103546488D01*
X116163261Y-103546497D01*
X116259431Y-103752732D01*
X116259432Y-103752734D01*
X116389954Y-103939141D01*
X116550858Y-104100045D01*
X116550861Y-104100047D01*
X116737266Y-104230568D01*
X116943504Y-104326739D01*
X117163308Y-104385635D01*
X117325230Y-104399801D01*
X117389998Y-104405468D01*
X117390000Y-104405468D01*
X117390002Y-104405468D01*
X117446673Y-104400509D01*
X117616692Y-104385635D01*
X117836496Y-104326739D01*
X118042734Y-104230568D01*
X118229139Y-104100047D01*
X118390047Y-103939139D01*
X118520568Y-103752734D01*
X118527893Y-103737024D01*
X118574064Y-103684586D01*
X118641257Y-103665433D01*
X118708138Y-103685648D01*
X118752657Y-103737024D01*
X118759864Y-103752480D01*
X118810974Y-103825472D01*
X119490000Y-103146446D01*
X119490000Y-103152661D01*
X119517259Y-103254394D01*
X119569920Y-103345606D01*
X119644394Y-103420080D01*
X119735606Y-103472741D01*
X119837339Y-103500000D01*
X119843551Y-103500000D01*
X119164526Y-104179025D01*
X119237513Y-104230132D01*
X119237521Y-104230136D01*
X119443668Y-104326264D01*
X119443682Y-104326269D01*
X119663389Y-104385139D01*
X119663400Y-104385141D01*
X119889998Y-104404966D01*
X119890002Y-104404966D01*
X120116599Y-104385141D01*
X120116610Y-104385139D01*
X120336317Y-104326269D01*
X120336326Y-104326265D01*
X120523095Y-104239174D01*
X120592172Y-104228682D01*
X120655957Y-104257202D01*
X120694196Y-104315678D01*
X120699500Y-104351556D01*
X120699500Y-111568422D01*
X120730290Y-111762826D01*
X120791117Y-111950030D01*
X120876380Y-112117366D01*
X120880476Y-112125405D01*
X120996172Y-112284646D01*
X123815354Y-115103828D01*
X123974594Y-115219524D01*
X124063954Y-115265054D01*
X124149975Y-115308884D01*
X124276348Y-115349945D01*
X124337173Y-115369709D01*
X124410076Y-115381255D01*
X124531578Y-115400500D01*
X124531583Y-115400500D01*
X127578422Y-115400500D01*
X127772826Y-115369709D01*
X127791501Y-115363641D01*
X127960025Y-115308884D01*
X128135405Y-115219524D01*
X128294646Y-115103828D01*
X128433828Y-114964646D01*
X128549524Y-114805405D01*
X128638884Y-114630025D01*
X128699709Y-114442826D01*
X128710372Y-114375501D01*
X128730500Y-114248422D01*
X128730500Y-114051577D01*
X128699709Y-113857173D01*
X128640408Y-113674666D01*
X128638884Y-113669975D01*
X128638882Y-113669972D01*
X128638882Y-113669970D01*
X128575076Y-113544744D01*
X128549524Y-113494595D01*
X128433828Y-113335354D01*
X128296323Y-113197849D01*
X128262838Y-113136526D01*
X128267822Y-113066834D01*
X128309694Y-113010901D01*
X128327709Y-112999683D01*
X128328439Y-112999311D01*
X128465405Y-112929524D01*
X128624646Y-112813828D01*
X128695872Y-112742602D01*
X128757195Y-112709117D01*
X128826887Y-112714101D01*
X128871234Y-112742602D01*
X128981344Y-112852712D01*
X129130666Y-112944814D01*
X129297203Y-112999999D01*
X129399991Y-113010500D01*
X130100008Y-113010499D01*
X130100016Y-113010498D01*
X130100019Y-113010498D01*
X130209533Y-112999311D01*
X130209813Y-113002053D01*
X130267149Y-113006305D01*
X130311194Y-113034693D01*
X130319325Y-113042825D01*
X130352806Y-113104149D01*
X130347817Y-113173841D01*
X130305942Y-113229772D01*
X130240476Y-113254185D01*
X130231638Y-113254500D01*
X130201306Y-113254500D01*
X130027341Y-113289103D01*
X130027332Y-113289106D01*
X129863459Y-113356983D01*
X129863446Y-113356990D01*
X129715965Y-113455535D01*
X129715961Y-113455538D01*
X129590538Y-113580961D01*
X129590535Y-113580965D01*
X129491990Y-113728446D01*
X129491983Y-113728459D01*
X129424106Y-113892332D01*
X129424103Y-113892341D01*
X129389500Y-114066304D01*
X129389500Y-114243695D01*
X129424103Y-114417658D01*
X129424106Y-114417667D01*
X129491983Y-114581540D01*
X129491990Y-114581553D01*
X129590535Y-114729034D01*
X129590538Y-114729038D01*
X129715961Y-114854461D01*
X129715965Y-114854464D01*
X129863446Y-114953009D01*
X129863459Y-114953016D01*
X129945672Y-114987069D01*
X130027334Y-115020894D01*
X130027336Y-115020894D01*
X130027341Y-115020896D01*
X130201304Y-115055499D01*
X130201307Y-115055500D01*
X130201309Y-115055500D01*
X130871193Y-115055500D01*
X130871194Y-115055499D01*
X131045166Y-115020895D01*
X131127106Y-114986953D01*
X131209047Y-114953013D01*
X131310087Y-114885500D01*
X131356536Y-114854464D01*
X131799181Y-114411817D01*
X131860504Y-114378333D01*
X131883537Y-114375856D01*
X131883527Y-114375659D01*
X131886666Y-114375499D01*
X131886676Y-114375499D01*
X131987753Y-114365174D01*
X132151516Y-114310908D01*
X132298350Y-114220340D01*
X132312671Y-114206018D01*
X132373989Y-114172533D01*
X132443681Y-114177514D01*
X132488034Y-114206017D01*
X132501961Y-114219944D01*
X132501965Y-114219947D01*
X132648688Y-114310448D01*
X132648699Y-114310453D01*
X132812347Y-114364680D01*
X132913351Y-114374999D01*
X133512500Y-114374999D01*
X133611640Y-114374999D01*
X133611654Y-114374998D01*
X133712652Y-114364680D01*
X133876300Y-114310453D01*
X133876311Y-114310448D01*
X134023034Y-114219947D01*
X134023038Y-114219944D01*
X134144944Y-114098038D01*
X134144947Y-114098034D01*
X134235448Y-113951311D01*
X134235453Y-113951300D01*
X134289680Y-113787652D01*
X134299999Y-113686654D01*
X134300000Y-113686641D01*
X134300000Y-113650000D01*
X133512500Y-113650000D01*
X133512500Y-114374999D01*
X132913351Y-114374999D01*
X133012500Y-114374998D01*
X133012500Y-112534994D01*
X133030962Y-112469897D01*
X133049814Y-112439334D01*
X133104999Y-112272797D01*
X133115500Y-112170009D01*
X133115499Y-112085522D01*
X133135183Y-112018486D01*
X133187986Y-111972730D01*
X133257145Y-111962786D01*
X133320701Y-111991810D01*
X133358476Y-112050588D01*
X133361116Y-112061331D01*
X133377459Y-112143492D01*
X133377462Y-112143501D01*
X133437800Y-112289172D01*
X133437807Y-112289185D01*
X133491602Y-112369694D01*
X133512480Y-112436371D01*
X133512500Y-112438585D01*
X133512500Y-113150000D01*
X134299999Y-113150000D01*
X134299999Y-113113360D01*
X134299998Y-113113345D01*
X134289680Y-113012347D01*
X134243673Y-112873504D01*
X134241271Y-112803675D01*
X134277003Y-112743633D01*
X134339524Y-112712441D01*
X134361379Y-112710500D01*
X135618844Y-112710500D01*
X135618845Y-112710499D01*
X135773497Y-112679737D01*
X135919179Y-112619394D01*
X136050289Y-112531789D01*
X136265259Y-112316819D01*
X136326582Y-112283334D01*
X136352940Y-112280500D01*
X142598844Y-112280500D01*
X142598845Y-112280499D01*
X142753497Y-112249737D01*
X142899179Y-112189394D01*
X143030289Y-112101789D01*
X144393359Y-110738717D01*
X144454680Y-110705234D01*
X144524371Y-110710218D01*
X144568719Y-110738719D01*
X144600000Y-110770000D01*
X145713500Y-110770000D01*
X145780539Y-110789685D01*
X145826294Y-110842489D01*
X145837500Y-110894000D01*
X145837500Y-111994999D01*
X145850594Y-112008093D01*
X145873039Y-112014684D01*
X145918794Y-112067488D01*
X145930000Y-112118999D01*
X145930000Y-112883011D01*
X145920060Y-112865795D01*
X145864205Y-112809940D01*
X145795796Y-112770444D01*
X145719496Y-112750000D01*
X145640504Y-112750000D01*
X145564204Y-112770444D01*
X145495795Y-112809940D01*
X145439940Y-112865795D01*
X145430000Y-112883011D01*
X145430000Y-112080136D01*
X145384664Y-112042931D01*
X145386930Y-112040169D01*
X145360899Y-112019934D01*
X145337676Y-111954037D01*
X145337500Y-111947440D01*
X145337500Y-111270000D01*
X144600001Y-111270000D01*
X144600001Y-111306654D01*
X144610319Y-111407652D01*
X144664546Y-111571300D01*
X144664551Y-111571311D01*
X144755052Y-111718034D01*
X144755055Y-111718038D01*
X144876961Y-111839944D01*
X144876965Y-111839947D01*
X145023688Y-111930448D01*
X145023699Y-111930453D01*
X145138355Y-111968446D01*
X145195800Y-112008218D01*
X145222623Y-112072734D01*
X145210308Y-112141510D01*
X145168242Y-112189254D01*
X145042537Y-112273248D01*
X145042533Y-112273251D01*
X144903251Y-112412533D01*
X144903248Y-112412537D01*
X144793814Y-112576315D01*
X144793807Y-112576328D01*
X144718430Y-112758306D01*
X144718427Y-112758318D01*
X144680000Y-112951504D01*
X144680000Y-113350000D01*
X145380000Y-113350000D01*
X145380000Y-113850000D01*
X144680000Y-113850000D01*
X144680000Y-114248493D01*
X144680478Y-114253348D01*
X144667458Y-114321994D01*
X144619392Y-114372704D01*
X144557075Y-114389500D01*
X143685782Y-114389500D01*
X143618743Y-114369815D01*
X143598101Y-114353181D01*
X142596479Y-113351559D01*
X142596459Y-113351537D01*
X142452785Y-113207863D01*
X142452781Y-113207860D01*
X142288920Y-113098371D01*
X142288907Y-113098364D01*
X142122710Y-113029524D01*
X142106839Y-113022950D01*
X142106829Y-113022947D01*
X141991459Y-112999999D01*
X141965486Y-112994832D01*
X141913543Y-112984500D01*
X141913541Y-112984500D01*
X139981459Y-112984500D01*
X139981457Y-112984500D01*
X139788170Y-113022947D01*
X139788160Y-113022950D01*
X139606091Y-113098365D01*
X139606087Y-113098367D01*
X139606086Y-113098368D01*
X139579207Y-113116327D01*
X139547213Y-113131606D01*
X139515400Y-113141519D01*
X139515392Y-113141522D01*
X139404746Y-113208410D01*
X139354481Y-113225513D01*
X139281946Y-113233685D01*
X139122307Y-113289544D01*
X139122302Y-113289547D01*
X138979115Y-113379518D01*
X138979109Y-113379523D01*
X138859523Y-113499109D01*
X138859518Y-113499115D01*
X138769547Y-113642302D01*
X138769545Y-113642305D01*
X138713685Y-113801943D01*
X138694751Y-113969997D01*
X138694751Y-113970002D01*
X138713685Y-114138056D01*
X138769545Y-114297694D01*
X138769547Y-114297697D01*
X138859518Y-114440884D01*
X138859523Y-114440890D01*
X138979109Y-114560476D01*
X138979115Y-114560481D01*
X139122302Y-114650452D01*
X139122308Y-114650455D01*
X139122310Y-114650456D01*
X139162000Y-114664344D01*
X139288514Y-114708613D01*
X139287514Y-114711470D01*
X139336757Y-114739019D01*
X139369612Y-114800682D01*
X139363914Y-114870319D01*
X139335864Y-114913478D01*
X139249529Y-114999813D01*
X139161522Y-115145393D01*
X139110913Y-115307807D01*
X139107084Y-115349945D01*
X139104861Y-115374418D01*
X139104500Y-115378386D01*
X139104500Y-115398564D01*
X139102117Y-115422756D01*
X139079500Y-115536456D01*
X139079500Y-115536459D01*
X139079500Y-116728541D01*
X139079500Y-116728543D01*
X139079499Y-116728543D01*
X139098307Y-116823089D01*
X139098307Y-116823090D01*
X139117946Y-116921828D01*
X139117948Y-116921832D01*
X139117949Y-116921836D01*
X139126219Y-116941801D01*
X139134041Y-116960686D01*
X139193366Y-117103911D01*
X139193371Y-117103920D01*
X139302859Y-117267780D01*
X139302860Y-117267781D01*
X139302861Y-117267782D01*
X139442218Y-117407139D01*
X139442219Y-117407139D01*
X139449286Y-117414206D01*
X139449285Y-117414206D01*
X139449289Y-117414209D01*
X141023427Y-118988347D01*
X141056912Y-119049670D01*
X141059322Y-119065788D01*
X141073864Y-119241297D01*
X141073866Y-119241308D01*
X141130842Y-119466300D01*
X141224075Y-119678848D01*
X141351018Y-119873150D01*
X141422889Y-119951223D01*
X141453811Y-120013877D01*
X141445951Y-120083303D01*
X141401803Y-120137459D01*
X141335386Y-120159149D01*
X141322211Y-120158845D01*
X141045837Y-120137725D01*
X141043481Y-120137522D01*
X139062387Y-119948079D01*
X139060036Y-119947831D01*
X137082966Y-119720657D01*
X137080620Y-119720365D01*
X135108183Y-119455527D01*
X135105843Y-119455190D01*
X133138865Y-119152802D01*
X133136531Y-119152421D01*
X131175611Y-118812572D01*
X131173285Y-118812146D01*
X129219241Y-118434979D01*
X129216924Y-118434509D01*
X127270364Y-118020140D01*
X127268057Y-118019625D01*
X125329864Y-117568244D01*
X125327566Y-117567686D01*
X123398246Y-117079411D01*
X123395960Y-117078809D01*
X121476362Y-116553853D01*
X121474087Y-116553208D01*
X119564773Y-115991726D01*
X119562511Y-115991037D01*
X117664282Y-115393263D01*
X117662034Y-115392531D01*
X115775594Y-114758689D01*
X115773360Y-114757915D01*
X114534063Y-114315041D01*
X114477558Y-114273945D01*
X114452241Y-114208823D01*
X114466150Y-114140352D01*
X114514870Y-114090270D01*
X114523406Y-114085882D01*
X117453722Y-112720721D01*
X117553722Y-108140721D01*
X117553721Y-108140720D01*
X114133726Y-106820721D01*
X114133722Y-106820721D01*
X110679419Y-107081801D01*
X110648398Y-107099684D01*
X110578609Y-107096311D01*
X110521723Y-107055744D01*
X110495799Y-106990861D01*
X110495246Y-106979164D01*
X110495233Y-106622826D01*
X110494849Y-96444717D01*
X112164470Y-96444717D01*
X112164470Y-98240452D01*
X112164471Y-98240458D01*
X112170878Y-98300065D01*
X112221172Y-98434910D01*
X112221176Y-98434917D01*
X112307422Y-98550126D01*
X112307425Y-98550129D01*
X112422634Y-98636375D01*
X112422641Y-98636379D01*
X112422644Y-98636380D01*
X112554568Y-98685584D01*
X112610501Y-98727455D01*
X112634919Y-98792919D01*
X112620068Y-98861192D01*
X112598917Y-98889447D01*
X112476856Y-99011508D01*
X112341370Y-99205002D01*
X112341369Y-99205004D01*
X112241540Y-99419089D01*
X112241537Y-99419095D01*
X112184334Y-99632581D01*
X112184334Y-99632582D01*
X113081958Y-99632582D01*
X113049045Y-99689589D01*
X113014970Y-99816756D01*
X113014970Y-99948408D01*
X113049045Y-100075575D01*
X113081958Y-100132582D01*
X112184334Y-100132582D01*
X112241537Y-100346068D01*
X112241540Y-100346074D01*
X112341369Y-100560160D01*
X112476864Y-100753664D01*
X112643887Y-100920687D01*
X112837391Y-101056182D01*
X113051477Y-101156011D01*
X113051486Y-101156015D01*
X113264970Y-101213216D01*
X113264970Y-100315594D01*
X113321977Y-100348507D01*
X113449144Y-100382582D01*
X113580796Y-100382582D01*
X113707963Y-100348507D01*
X113764970Y-100315594D01*
X113764970Y-101213215D01*
X113978453Y-101156015D01*
X113978462Y-101156011D01*
X114192548Y-101056182D01*
X114386052Y-100920687D01*
X114553075Y-100753664D01*
X114688570Y-100560160D01*
X114788399Y-100346074D01*
X114788402Y-100346068D01*
X114845606Y-100132582D01*
X113947982Y-100132582D01*
X113980895Y-100075575D01*
X114014970Y-99948408D01*
X114014970Y-99816756D01*
X113980895Y-99689589D01*
X113947982Y-99632582D01*
X114845606Y-99632582D01*
X114845605Y-99632581D01*
X114788402Y-99419095D01*
X114788399Y-99419089D01*
X114688570Y-99205004D01*
X114688569Y-99205002D01*
X114553083Y-99011508D01*
X114553078Y-99011502D01*
X114431023Y-98889447D01*
X114397538Y-98828124D01*
X114402522Y-98758432D01*
X114444394Y-98702499D01*
X114475370Y-98685584D01*
X114607301Y-98636378D01*
X114722516Y-98550128D01*
X114808766Y-98434913D01*
X114859061Y-98300065D01*
X114865470Y-98240455D01*
X114865469Y-96444710D01*
X114859061Y-96385099D01*
X114808766Y-96250251D01*
X114808765Y-96250250D01*
X114808763Y-96250246D01*
X114722517Y-96135037D01*
X114722514Y-96135034D01*
X114607305Y-96048788D01*
X114607298Y-96048784D01*
X114472452Y-95998490D01*
X114472453Y-95998490D01*
X114412853Y-95992083D01*
X114412851Y-95992082D01*
X114412843Y-95992082D01*
X114412834Y-95992082D01*
X112617099Y-95992082D01*
X112617093Y-95992083D01*
X112557486Y-95998490D01*
X112422641Y-96048784D01*
X112422634Y-96048788D01*
X112307425Y-96135034D01*
X112307422Y-96135037D01*
X112221176Y-96250246D01*
X112221172Y-96250253D01*
X112170878Y-96385099D01*
X112164471Y-96444698D01*
X112164471Y-96444705D01*
X112164470Y-96444717D01*
X110494849Y-96444717D01*
X110494619Y-90340296D01*
X110514301Y-90273257D01*
X110567103Y-90227501D01*
X110636261Y-90217554D01*
X110663437Y-90224676D01*
X112147607Y-90800000D01*
X114204970Y-91597517D01*
X117574970Y-90027517D01*
X117674970Y-85447517D01*
X117674969Y-85447516D01*
X114254974Y-84127517D01*
X114254970Y-84127517D01*
X113102925Y-84214589D01*
X113034593Y-84200013D01*
X112984989Y-84150808D01*
X112969861Y-84082595D01*
X112994014Y-84017033D01*
X113036015Y-83981114D01*
X121601110Y-79492126D01*
X121658671Y-79477957D01*
X178345729Y-79478015D01*
G37*
G04 #@! TD.AperFunction*
G04 #@! TA.AperFunction,Conductor*
G36*
X147653039Y-118769685D02*
G01*
X147698794Y-118822489D01*
X147710000Y-118874000D01*
X147710000Y-119126000D01*
X147690315Y-119193039D01*
X147637511Y-119238794D01*
X147586000Y-119250000D01*
X146485001Y-119250000D01*
X146466502Y-119268498D01*
X146465316Y-119272539D01*
X146412512Y-119318294D01*
X146361001Y-119329500D01*
X146302230Y-119329500D01*
X146235191Y-119309815D01*
X146214549Y-119293181D01*
X146160935Y-119239567D01*
X146127450Y-119178244D01*
X146132434Y-119108552D01*
X146174306Y-119052619D01*
X146179726Y-119048783D01*
X146317463Y-118956750D01*
X146442000Y-118832213D01*
X146444347Y-118826547D01*
X146488188Y-118772144D01*
X146554482Y-118750079D01*
X146558908Y-118750000D01*
X147586000Y-118750000D01*
X147653039Y-118769685D01*
G37*
G04 #@! TD.AperFunction*
G04 #@! TA.AperFunction,Conductor*
G36*
X146542979Y-111697516D02*
G01*
X146587327Y-111726017D01*
X146701650Y-111840340D01*
X146848484Y-111930908D01*
X147012247Y-111985174D01*
X147113323Y-111995500D01*
X147491308Y-111995499D01*
X147558347Y-112015183D01*
X147604102Y-112067987D01*
X147608349Y-112078544D01*
X147639542Y-112167689D01*
X147639543Y-112167691D01*
X147729518Y-112310884D01*
X147729523Y-112310890D01*
X147849110Y-112430477D01*
X147966473Y-112504221D01*
X148012763Y-112556555D01*
X148024500Y-112609214D01*
X148024500Y-114231607D01*
X148034380Y-114281284D01*
X148048535Y-114352446D01*
X148048537Y-114352451D01*
X148058083Y-114375499D01*
X148058084Y-114375501D01*
X148095685Y-114466281D01*
X148095690Y-114466290D01*
X148113203Y-114492499D01*
X148113204Y-114492500D01*
X148164140Y-114568731D01*
X148164141Y-114568732D01*
X148164142Y-114568733D01*
X148251267Y-114655858D01*
X148251268Y-114655858D01*
X148258335Y-114662925D01*
X148258334Y-114662925D01*
X148258338Y-114662928D01*
X148283181Y-114687771D01*
X148316666Y-114749094D01*
X148319500Y-114775452D01*
X148319500Y-115930500D01*
X148299815Y-115997539D01*
X148247011Y-116043294D01*
X148195500Y-116054500D01*
X147993389Y-116054500D01*
X147932971Y-116066518D01*
X147895259Y-116074019D01*
X147872550Y-116078536D01*
X147872548Y-116078537D01*
X147839207Y-116092347D01*
X147758718Y-116125685D01*
X147758709Y-116125690D01*
X147729439Y-116145249D01*
X147729438Y-116145250D01*
X147656270Y-116194139D01*
X147656263Y-116194144D01*
X147649723Y-116200685D01*
X147588399Y-116234167D01*
X147562046Y-116237000D01*
X147173330Y-116237000D01*
X147173312Y-116237001D01*
X147072247Y-116247325D01*
X146908484Y-116301592D01*
X146908481Y-116301593D01*
X146761648Y-116392161D01*
X146639661Y-116514148D01*
X146565081Y-116635062D01*
X146513133Y-116681787D01*
X146444170Y-116693008D01*
X146380088Y-116665165D01*
X146371861Y-116657646D01*
X146317466Y-116603251D01*
X146317462Y-116603248D01*
X146153684Y-116493814D01*
X146153671Y-116493807D01*
X145976137Y-116420271D01*
X145921733Y-116376430D01*
X145899668Y-116310136D01*
X145916947Y-116242437D01*
X145954696Y-116202609D01*
X146007782Y-116167139D01*
X146147139Y-116027782D01*
X146256632Y-115863914D01*
X146332051Y-115681835D01*
X146344632Y-115618582D01*
X146370500Y-115488543D01*
X146370500Y-115291456D01*
X146332052Y-115098170D01*
X146332051Y-115098169D01*
X146332051Y-115098165D01*
X146309278Y-115043187D01*
X146301810Y-114973719D01*
X146333085Y-114911240D01*
X146336159Y-114908054D01*
X146456752Y-114787461D01*
X146566185Y-114623684D01*
X146566187Y-114623680D01*
X146604658Y-114530802D01*
X146648499Y-114476399D01*
X146714793Y-114454333D01*
X146782492Y-114471612D01*
X146806901Y-114490573D01*
X146808826Y-114492498D01*
X146920674Y-114557074D01*
X147045424Y-114590500D01*
X147045426Y-114590500D01*
X147174574Y-114590500D01*
X147174576Y-114590500D01*
X147299326Y-114557074D01*
X147411174Y-114492498D01*
X147502498Y-114401174D01*
X147567074Y-114289326D01*
X147600500Y-114164576D01*
X147600500Y-114035424D01*
X147567074Y-113910674D01*
X147502498Y-113798826D01*
X147411174Y-113707502D01*
X147346167Y-113669970D01*
X147299327Y-113642926D01*
X147236951Y-113626213D01*
X147174576Y-113609500D01*
X147045424Y-113609500D01*
X146920672Y-113642926D01*
X146808826Y-113707501D01*
X146717501Y-113798826D01*
X146715464Y-113801482D01*
X146713172Y-113803155D01*
X146711755Y-113804573D01*
X146711533Y-113804351D01*
X146659038Y-113842688D01*
X146617085Y-113850000D01*
X145980000Y-113850000D01*
X145980000Y-113350000D01*
X146680000Y-113350000D01*
X146680000Y-112951508D01*
X146679999Y-112951504D01*
X146641572Y-112758318D01*
X146641569Y-112758306D01*
X146566192Y-112576328D01*
X146566185Y-112576315D01*
X146456751Y-112412537D01*
X146456748Y-112412533D01*
X146317466Y-112273251D01*
X146317462Y-112273248D01*
X146153684Y-112163814D01*
X146153673Y-112163808D01*
X146147398Y-112161209D01*
X146092997Y-112117366D01*
X146070935Y-112051070D01*
X146088217Y-111983372D01*
X146139356Y-111935764D01*
X146144771Y-111933526D01*
X146144760Y-111933503D01*
X146151311Y-111930448D01*
X146298033Y-111839948D01*
X146411964Y-111726017D01*
X146473287Y-111692532D01*
X146542979Y-111697516D01*
G37*
G04 #@! TD.AperFunction*
G04 #@! TA.AperFunction,Conductor*
G36*
X123405703Y-105764623D02*
G01*
X123412181Y-105770655D01*
X124055354Y-106413828D01*
X124214595Y-106529524D01*
X124297454Y-106571742D01*
X124389969Y-106618882D01*
X124389971Y-106618882D01*
X124389974Y-106618884D01*
X124490316Y-106651487D01*
X124577172Y-106679709D01*
X124771578Y-106710500D01*
X124771583Y-106710500D01*
X125407497Y-106710500D01*
X125474536Y-106730185D01*
X125520291Y-106782989D01*
X125530855Y-106847103D01*
X125520000Y-106953345D01*
X125520000Y-106990000D01*
X126683500Y-106990000D01*
X126750539Y-107009685D01*
X126796294Y-107062489D01*
X126807500Y-107114000D01*
X126807500Y-108214999D01*
X126906640Y-108214999D01*
X126906647Y-108214998D01*
X126927743Y-108212843D01*
X126996436Y-108225611D01*
X127047322Y-108273490D01*
X127054909Y-108288749D01*
X127111983Y-108426540D01*
X127111990Y-108426553D01*
X127210535Y-108574034D01*
X127210538Y-108574038D01*
X127335961Y-108699461D01*
X127335965Y-108699464D01*
X127483446Y-108798009D01*
X127483459Y-108798016D01*
X127606363Y-108848923D01*
X127647334Y-108865894D01*
X127647336Y-108865894D01*
X127647341Y-108865896D01*
X127821304Y-108900499D01*
X127821307Y-108900500D01*
X127821309Y-108900500D01*
X127998693Y-108900500D01*
X127998694Y-108900499D01*
X128066922Y-108886928D01*
X128172658Y-108865896D01*
X128172661Y-108865894D01*
X128172666Y-108865894D01*
X128336547Y-108798013D01*
X128484035Y-108699464D01*
X128609464Y-108574035D01*
X128708013Y-108426547D01*
X128775894Y-108262666D01*
X128777096Y-108256622D01*
X128809478Y-108194710D01*
X128859707Y-108163105D01*
X128896516Y-108150908D01*
X129043350Y-108060340D01*
X129165340Y-107938350D01*
X129255908Y-107791516D01*
X129297667Y-107665495D01*
X129337440Y-107608051D01*
X129401956Y-107581228D01*
X129415373Y-107580500D01*
X129787921Y-107580500D01*
X129854960Y-107600185D01*
X129900715Y-107652989D01*
X129905852Y-107666181D01*
X129950128Y-107802449D01*
X130016240Y-107932200D01*
X130028768Y-107956788D01*
X130130586Y-108096928D01*
X130130588Y-108096930D01*
X130968548Y-108934890D01*
X131002033Y-108996213D01*
X130997049Y-109065905D01*
X130955177Y-109121838D01*
X130947060Y-109127363D01*
X130946655Y-109127683D01*
X130822684Y-109251654D01*
X130730643Y-109400875D01*
X130730641Y-109400880D01*
X130675494Y-109567302D01*
X130675493Y-109567309D01*
X130665000Y-109670013D01*
X130665000Y-109720000D01*
X133114999Y-109720000D01*
X133114999Y-109670028D01*
X133114998Y-109670013D01*
X133104505Y-109567302D01*
X133049358Y-109400880D01*
X133049356Y-109400875D01*
X132957315Y-109251654D01*
X132833345Y-109127684D01*
X132684124Y-109035643D01*
X132677579Y-109032592D01*
X132678819Y-109029931D01*
X132632324Y-108997723D01*
X132605518Y-108933200D01*
X132617850Y-108864428D01*
X132628470Y-108846934D01*
X132701232Y-108746788D01*
X132779873Y-108592446D01*
X132817569Y-108476430D01*
X132857007Y-108418754D01*
X132921365Y-108391556D01*
X132990212Y-108403471D01*
X133041687Y-108450715D01*
X133059500Y-108514748D01*
X133059500Y-108618540D01*
X133062959Y-108635929D01*
X133062959Y-108635931D01*
X133097947Y-108811828D01*
X133097950Y-108811840D01*
X133108658Y-108837690D01*
X133173366Y-108993911D01*
X133173371Y-108993920D01*
X133282860Y-109157781D01*
X133282863Y-109157785D01*
X133426537Y-109301459D01*
X133426559Y-109301479D01*
X134302215Y-110177136D01*
X134302219Y-110177139D01*
X134466079Y-110286627D01*
X134466083Y-110286629D01*
X134466086Y-110286631D01*
X134648164Y-110362051D01*
X134799462Y-110392146D01*
X134841455Y-110400499D01*
X134841458Y-110400500D01*
X134841460Y-110400500D01*
X135038542Y-110400500D01*
X135038543Y-110400499D01*
X135231836Y-110362051D01*
X135413914Y-110286631D01*
X135577781Y-110177139D01*
X135717139Y-110037781D01*
X135717142Y-110037775D01*
X135720999Y-110033077D01*
X135722354Y-110034189D01*
X135769584Y-109994712D01*
X135838909Y-109985999D01*
X135867194Y-109995556D01*
X135867656Y-109994442D01*
X135904767Y-110009814D01*
X136055362Y-110072193D01*
X136240866Y-110109092D01*
X136248653Y-110110641D01*
X136248656Y-110110642D01*
X136248658Y-110110642D01*
X136445740Y-110110642D01*
X136445741Y-110110641D01*
X136639034Y-110072193D01*
X136821112Y-109996773D01*
X136984979Y-109887281D01*
X137124337Y-109747923D01*
X137233829Y-109584056D01*
X137309249Y-109401978D01*
X137347698Y-109208682D01*
X137347698Y-109011602D01*
X137347698Y-109011599D01*
X137347697Y-109011597D01*
X137338717Y-108966448D01*
X137344944Y-108896857D01*
X137387807Y-108841679D01*
X137453697Y-108818435D01*
X137492425Y-108822482D01*
X137543884Y-108836271D01*
X137757765Y-108864428D01*
X137803879Y-108870499D01*
X137803880Y-108870499D01*
X138066121Y-108870499D01*
X138118119Y-108863653D01*
X138326116Y-108836271D01*
X138579419Y-108768398D01*
X138821697Y-108668043D01*
X139048802Y-108536924D01*
X139256851Y-108377283D01*
X139627819Y-108006315D01*
X139689142Y-107972830D01*
X139758833Y-107977814D01*
X139814767Y-108019685D01*
X139839184Y-108085150D01*
X139839500Y-108093996D01*
X139839500Y-108593771D01*
X139872182Y-108758074D01*
X139872184Y-108758082D01*
X139936295Y-108912860D01*
X140029373Y-109052162D01*
X140147837Y-109170626D01*
X140240494Y-109232537D01*
X140287137Y-109263703D01*
X140441918Y-109327816D01*
X140606228Y-109360499D01*
X140606232Y-109360500D01*
X140606233Y-109360500D01*
X140773768Y-109360500D01*
X140773768Y-109360499D01*
X140911310Y-109333141D01*
X140980900Y-109339368D01*
X141036077Y-109382231D01*
X141059322Y-109448120D01*
X141059500Y-109454758D01*
X141059500Y-109797869D01*
X141059501Y-109797876D01*
X141065908Y-109857483D01*
X141116202Y-109992328D01*
X141116206Y-109992335D01*
X141202452Y-110107544D01*
X141202455Y-110107547D01*
X141317664Y-110193793D01*
X141317671Y-110193797D01*
X141452517Y-110244091D01*
X141452516Y-110244091D01*
X141459444Y-110244835D01*
X141512127Y-110250500D01*
X142318060Y-110250499D01*
X142385099Y-110270183D01*
X142430854Y-110322987D01*
X142440798Y-110392146D01*
X142411773Y-110455702D01*
X142405741Y-110462180D01*
X142224741Y-110643181D01*
X142163418Y-110676666D01*
X142137060Y-110679500D01*
X135891155Y-110679500D01*
X135736510Y-110710261D01*
X135736498Y-110710264D01*
X135590827Y-110770602D01*
X135590814Y-110770609D01*
X135459711Y-110858210D01*
X135459707Y-110858213D01*
X135244741Y-111073181D01*
X135183418Y-111106666D01*
X135157060Y-111109500D01*
X134068353Y-111109500D01*
X133913708Y-111140261D01*
X133913696Y-111140264D01*
X133768025Y-111200602D01*
X133768012Y-111200609D01*
X133636909Y-111288210D01*
X133636905Y-111288213D01*
X133525411Y-111399707D01*
X133525408Y-111399711D01*
X133437807Y-111530814D01*
X133437800Y-111530827D01*
X133377462Y-111676498D01*
X133377459Y-111676508D01*
X133361116Y-111758670D01*
X133328731Y-111820581D01*
X133268015Y-111855155D01*
X133198245Y-111851414D01*
X133141574Y-111810548D01*
X133115992Y-111745529D01*
X133115499Y-111734478D01*
X133115499Y-111569998D01*
X133115498Y-111569980D01*
X133104999Y-111467203D01*
X133104998Y-111467200D01*
X133100468Y-111453529D01*
X133049814Y-111300666D01*
X132957712Y-111151344D01*
X132833656Y-111027288D01*
X132830342Y-111025243D01*
X132828546Y-111023248D01*
X132827989Y-111022807D01*
X132828064Y-111022711D01*
X132783618Y-110973297D01*
X132772397Y-110904334D01*
X132800240Y-110840252D01*
X132830348Y-110814165D01*
X132833342Y-110812318D01*
X132957315Y-110688345D01*
X133049356Y-110539124D01*
X133049358Y-110539119D01*
X133104505Y-110372697D01*
X133104506Y-110372690D01*
X133114999Y-110269986D01*
X133115000Y-110269973D01*
X133115000Y-110220000D01*
X130665001Y-110220000D01*
X130665001Y-110269986D01*
X130675494Y-110372697D01*
X130730641Y-110539119D01*
X130730643Y-110539124D01*
X130822684Y-110688345D01*
X130946657Y-110812318D01*
X130949652Y-110814165D01*
X130951275Y-110815969D01*
X130952323Y-110816798D01*
X130952181Y-110816976D01*
X130996379Y-110866110D01*
X131007604Y-110935073D01*
X130979764Y-110999156D01*
X130949662Y-111025241D01*
X130946344Y-111027287D01*
X130946338Y-111027291D01*
X130906811Y-111066818D01*
X130845487Y-111100302D01*
X130778601Y-111095516D01*
X130778493Y-111095873D01*
X130776922Y-111095396D01*
X130775796Y-111095316D01*
X130772898Y-111094175D01*
X130772669Y-111094106D01*
X130772666Y-111094105D01*
X130772662Y-111094104D01*
X130772658Y-111094103D01*
X130598696Y-111059500D01*
X130598692Y-111059500D01*
X130598691Y-111059500D01*
X130541196Y-111059500D01*
X130476100Y-111041039D01*
X130369340Y-110975189D01*
X130369335Y-110975187D01*
X130369334Y-110975186D01*
X130202797Y-110920001D01*
X130202795Y-110920000D01*
X130100010Y-110909500D01*
X129399998Y-110909500D01*
X129399980Y-110909501D01*
X129297203Y-110920000D01*
X129297200Y-110920001D01*
X129130668Y-110975185D01*
X129130663Y-110975187D01*
X129046193Y-111027289D01*
X128981344Y-111067288D01*
X128981343Y-111067289D01*
X128967249Y-111081383D01*
X128905925Y-111114866D01*
X128836233Y-111109880D01*
X128780301Y-111068007D01*
X128779303Y-111066654D01*
X128763828Y-111045354D01*
X128624646Y-110906172D01*
X128465405Y-110790476D01*
X128432109Y-110773511D01*
X128290029Y-110701117D01*
X128102826Y-110640290D01*
X127908422Y-110609500D01*
X127908417Y-110609500D01*
X127148416Y-110609500D01*
X126951583Y-110609500D01*
X126951578Y-110609500D01*
X126757178Y-110640290D01*
X126757173Y-110640291D01*
X126739707Y-110645966D01*
X126569970Y-110701117D01*
X126506765Y-110733323D01*
X126394592Y-110790477D01*
X126394590Y-110790478D01*
X126235352Y-110906173D01*
X125996174Y-111145351D01*
X125996174Y-111145352D01*
X125996172Y-111145354D01*
X125968064Y-111184041D01*
X125880476Y-111304594D01*
X125791117Y-111479969D01*
X125730290Y-111667173D01*
X125699500Y-111861577D01*
X125699500Y-112058422D01*
X125730290Y-112252826D01*
X125791117Y-112440030D01*
X125880476Y-112615405D01*
X125943838Y-112702615D01*
X125967318Y-112768420D01*
X125951493Y-112836474D01*
X125901387Y-112885169D01*
X125843520Y-112899500D01*
X125199336Y-112899500D01*
X125132297Y-112879815D01*
X125111655Y-112863181D01*
X123236819Y-110988345D01*
X123203334Y-110927022D01*
X123200500Y-110900664D01*
X123200500Y-107526654D01*
X125520001Y-107526654D01*
X125530319Y-107627652D01*
X125584546Y-107791300D01*
X125584551Y-107791311D01*
X125675052Y-107938034D01*
X125675055Y-107938038D01*
X125796961Y-108059944D01*
X125796965Y-108059947D01*
X125943688Y-108150448D01*
X125943699Y-108150453D01*
X126107347Y-108204680D01*
X126208351Y-108214999D01*
X126307500Y-108214998D01*
X126307500Y-107490000D01*
X125520001Y-107490000D01*
X125520001Y-107526654D01*
X123200500Y-107526654D01*
X123200500Y-105858336D01*
X123220185Y-105791297D01*
X123272989Y-105745542D01*
X123342147Y-105735598D01*
X123405703Y-105764623D01*
G37*
G04 #@! TD.AperFunction*
G04 #@! TA.AperFunction,Conductor*
G36*
X142351076Y-101690185D02*
G01*
X142396831Y-101742989D01*
X142406775Y-101812147D01*
X142385612Y-101865623D01*
X142279432Y-102017265D01*
X142279431Y-102017267D01*
X142183261Y-102223502D01*
X142181407Y-102228598D01*
X142180198Y-102228158D01*
X142147068Y-102282507D01*
X142084219Y-102313032D01*
X142024662Y-102308455D01*
X142007653Y-102302819D01*
X141906654Y-102292500D01*
X141870000Y-102292500D01*
X141870000Y-103456000D01*
X141850315Y-103523039D01*
X141797511Y-103568794D01*
X141746000Y-103580000D01*
X141494000Y-103580000D01*
X141426961Y-103560315D01*
X141381206Y-103507511D01*
X141370000Y-103456000D01*
X141370000Y-102300495D01*
X141389685Y-102233456D01*
X141406314Y-102212819D01*
X141912315Y-101706819D01*
X141973638Y-101673334D01*
X141999996Y-101670500D01*
X142284037Y-101670500D01*
X142351076Y-101690185D01*
G37*
G04 #@! TD.AperFunction*
G04 #@! TD*
G04 #@! TA.AperFunction,Conductor*
G04 #@! TO.N,GND*
G36*
X151193880Y-106352683D02*
G01*
X150570000Y-107970000D01*
X149970000Y-107970000D01*
X149346120Y-106352683D01*
X150270000Y-105969000D01*
X151193880Y-106352683D01*
G37*
G04 #@! TD.AperFunction*
G04 #@! TD*
G04 #@! TA.AperFunction,Conductor*
G04 #@! TO.N,+3.3V*
G36*
X147711267Y-119952711D02*
G01*
X147718400Y-119958123D01*
X147720000Y-119964028D01*
X147720000Y-120195971D01*
X147716573Y-120204244D01*
X147711266Y-120207289D01*
X147325504Y-120308392D01*
X147316633Y-120307174D01*
X147311745Y-120301591D01*
X147220889Y-120084515D01*
X147220857Y-120075563D01*
X147311746Y-119858406D01*
X147318101Y-119852099D01*
X147325504Y-119851607D01*
X147711267Y-119952711D01*
G37*
G04 #@! TD.AperFunction*
G04 #@! TD*
G04 #@! TA.AperFunction,Conductor*
G04 #@! TO.N,+3.3V*
G36*
X151392758Y-117156275D02*
G01*
X151619464Y-117178946D01*
X151627355Y-117183179D01*
X151630000Y-117190588D01*
X151630000Y-117369411D01*
X151626573Y-117377684D01*
X151619464Y-117381053D01*
X151392761Y-117403723D01*
X151384188Y-117401136D01*
X151379955Y-117393245D01*
X151379897Y-117392175D01*
X151379715Y-117369411D01*
X151379000Y-117280000D01*
X151379897Y-117167823D01*
X151383390Y-117159579D01*
X151391691Y-117156218D01*
X151392758Y-117156275D01*
G37*
G04 #@! TD.AperFunction*
G04 #@! TD*
G04 #@! TA.AperFunction,Conductor*
G04 #@! TO.N,GND*
G36*
X151193880Y-106352683D02*
G01*
X150570000Y-107970000D01*
X149970000Y-107970000D01*
X149346120Y-106352683D01*
X150270000Y-105969000D01*
X151193880Y-106352683D01*
G37*
G04 #@! TD.AperFunction*
G04 #@! TD*
M02*
