G04 #@! TF.GenerationSoftware,KiCad,Pcbnew,8.0.3*
G04 #@! TF.CreationDate,2025-10-23T09:13:21+09:00*
G04 #@! TF.ProjectId,dcdc_V8,64636463-5f56-4382-9e6b-696361645f70,rev?*
G04 #@! TF.SameCoordinates,Original*
G04 #@! TF.FileFunction,Legend,Bot*
G04 #@! TF.FilePolarity,Positive*
%FSLAX46Y46*%
G04 Gerber Fmt 4.6, Leading zero omitted, Abs format (unit mm)*
G04 Created by KiCad (PCBNEW 8.0.3) date 2025-10-23 09:13:21*
%MOMM*%
%LPD*%
G01*
G04 APERTURE LIST*
G04 Aperture macros list*
%AMRoundRect*
0 Rectangle with rounded corners*
0 $1 Rounding radius*
0 $2 $3 $4 $5 $6 $7 $8 $9 X,Y pos of 4 corners*
0 Add a 4 corners polygon primitive as box body*
4,1,4,$2,$3,$4,$5,$6,$7,$8,$9,$2,$3,0*
0 Add four circle primitives for the rounded corners*
1,1,$1+$1,$2,$3*
1,1,$1+$1,$4,$5*
1,1,$1+$1,$6,$7*
1,1,$1+$1,$8,$9*
0 Add four rect primitives between the rounded corners*
20,1,$1+$1,$2,$3,$4,$5,0*
20,1,$1+$1,$4,$5,$6,$7,0*
20,1,$1+$1,$6,$7,$8,$9,0*
20,1,$1+$1,$8,$9,$2,$3,0*%
G04 Aperture macros list end*
%ADD10C,0.475000*%
%ADD11C,0.150000*%
%ADD12C,0.120000*%
%ADD13C,0.000000*%
%ADD14RoundRect,0.250000X-0.600000X-0.725000X0.600000X-0.725000X0.600000X0.725000X-0.600000X0.725000X0*%
%ADD15O,1.700000X1.950000*%
%ADD16RoundRect,0.675000X0.530344X0.793716X-0.793716X0.530344X-0.530344X-0.793716X0.793716X-0.530344X0*%
%ADD17C,2.700000*%
%ADD18R,1.800000X1.800000*%
%ADD19O,1.800000X1.800000*%
%ADD20R,1.600000X1.600000*%
%ADD21C,1.600000*%
%ADD22O,1.600000X1.600000*%
%ADD23C,3.200000*%
%ADD24RoundRect,0.250000X-0.600000X-0.750000X0.600000X-0.750000X0.600000X0.750000X-0.600000X0.750000X0*%
%ADD25O,1.700000X2.000000*%
%ADD26R,3.800000X3.800000*%
%ADD27C,3.800000*%
%ADD28C,0.480000*%
%ADD29O,1.204000X2.004000*%
%ADD30O,1.204000X2.304000*%
%ADD31R,1.700000X1.700000*%
%ADD32O,1.700000X1.700000*%
%ADD33RoundRect,0.237500X0.237500X-0.300000X0.237500X0.300000X-0.237500X0.300000X-0.237500X-0.300000X0*%
%ADD34RoundRect,0.237500X0.300000X0.237500X-0.300000X0.237500X-0.300000X-0.237500X0.300000X-0.237500X0*%
%ADD35RoundRect,0.087500X-0.087500X0.725000X-0.087500X-0.725000X0.087500X-0.725000X0.087500X0.725000X0*%
%ADD36RoundRect,0.237500X-0.300000X-0.237500X0.300000X-0.237500X0.300000X0.237500X-0.300000X0.237500X0*%
%ADD37RoundRect,0.250000X0.475000X-0.250000X0.475000X0.250000X-0.475000X0.250000X-0.475000X-0.250000X0*%
%ADD38RoundRect,0.237500X0.250000X0.237500X-0.250000X0.237500X-0.250000X-0.237500X0.250000X-0.237500X0*%
%ADD39RoundRect,0.250000X0.300000X0.300000X-0.300000X0.300000X-0.300000X-0.300000X0.300000X-0.300000X0*%
%ADD40RoundRect,0.237500X-0.250000X-0.237500X0.250000X-0.237500X0.250000X0.237500X-0.250000X0.237500X0*%
%ADD41RoundRect,0.250000X0.312500X0.625000X-0.312500X0.625000X-0.312500X-0.625000X0.312500X-0.625000X0*%
%ADD42RoundRect,0.200000X-0.275000X0.200000X-0.275000X-0.200000X0.275000X-0.200000X0.275000X0.200000X0*%
G04 APERTURE END LIST*
D10*
X153736547Y-87526109D02*
X153012738Y-87526109D01*
X153465119Y-88792776D02*
X153465119Y-87164204D01*
X153465119Y-87164204D02*
X153374642Y-86983252D01*
X153374642Y-86983252D02*
X153193690Y-86892776D01*
X153193690Y-86892776D02*
X153012738Y-86892776D01*
X152107976Y-88792776D02*
X152288928Y-88702300D01*
X152288928Y-88702300D02*
X152379405Y-88611823D01*
X152379405Y-88611823D02*
X152469881Y-88430871D01*
X152469881Y-88430871D02*
X152469881Y-87888014D01*
X152469881Y-87888014D02*
X152379405Y-87707061D01*
X152379405Y-87707061D02*
X152288928Y-87616585D01*
X152288928Y-87616585D02*
X152107976Y-87526109D01*
X152107976Y-87526109D02*
X151836547Y-87526109D01*
X151836547Y-87526109D02*
X151655595Y-87616585D01*
X151655595Y-87616585D02*
X151565119Y-87707061D01*
X151565119Y-87707061D02*
X151474643Y-87888014D01*
X151474643Y-87888014D02*
X151474643Y-88430871D01*
X151474643Y-88430871D02*
X151565119Y-88611823D01*
X151565119Y-88611823D02*
X151655595Y-88702300D01*
X151655595Y-88702300D02*
X151836547Y-88792776D01*
X151836547Y-88792776D02*
X152107976Y-88792776D01*
X150660357Y-88792776D02*
X150660357Y-87526109D01*
X150660357Y-87888014D02*
X150569880Y-87707061D01*
X150569880Y-87707061D02*
X150479404Y-87616585D01*
X150479404Y-87616585D02*
X150298452Y-87526109D01*
X150298452Y-87526109D02*
X150117499Y-87526109D01*
X146950833Y-88792776D02*
X147584167Y-87888014D01*
X148036548Y-88792776D02*
X148036548Y-86892776D01*
X148036548Y-86892776D02*
X147312738Y-86892776D01*
X147312738Y-86892776D02*
X147131786Y-86983252D01*
X147131786Y-86983252D02*
X147041309Y-87073728D01*
X147041309Y-87073728D02*
X146950833Y-87254680D01*
X146950833Y-87254680D02*
X146950833Y-87526109D01*
X146950833Y-87526109D02*
X147041309Y-87707061D01*
X147041309Y-87707061D02*
X147131786Y-87797538D01*
X147131786Y-87797538D02*
X147312738Y-87888014D01*
X147312738Y-87888014D02*
X148036548Y-87888014D01*
X145050833Y-88611823D02*
X145141309Y-88702300D01*
X145141309Y-88702300D02*
X145412738Y-88792776D01*
X145412738Y-88792776D02*
X145593690Y-88792776D01*
X145593690Y-88792776D02*
X145865119Y-88702300D01*
X145865119Y-88702300D02*
X146046071Y-88521347D01*
X146046071Y-88521347D02*
X146136548Y-88340395D01*
X146136548Y-88340395D02*
X146227024Y-87978490D01*
X146227024Y-87978490D02*
X146227024Y-87707061D01*
X146227024Y-87707061D02*
X146136548Y-87345157D01*
X146136548Y-87345157D02*
X146046071Y-87164204D01*
X146046071Y-87164204D02*
X145865119Y-86983252D01*
X145865119Y-86983252D02*
X145593690Y-86892776D01*
X145593690Y-86892776D02*
X145412738Y-86892776D01*
X145412738Y-86892776D02*
X145141309Y-86983252D01*
X145141309Y-86983252D02*
X145050833Y-87073728D01*
X143693690Y-86892776D02*
X143693690Y-88249919D01*
X143693690Y-88249919D02*
X143784167Y-88521347D01*
X143784167Y-88521347D02*
X143965119Y-88702300D01*
X143965119Y-88702300D02*
X144236548Y-88792776D01*
X144236548Y-88792776D02*
X144417500Y-88792776D01*
X142879405Y-87073728D02*
X142788929Y-86983252D01*
X142788929Y-86983252D02*
X142607976Y-86892776D01*
X142607976Y-86892776D02*
X142155595Y-86892776D01*
X142155595Y-86892776D02*
X141974643Y-86983252D01*
X141974643Y-86983252D02*
X141884167Y-87073728D01*
X141884167Y-87073728D02*
X141793690Y-87254680D01*
X141793690Y-87254680D02*
X141793690Y-87435633D01*
X141793690Y-87435633D02*
X141884167Y-87707061D01*
X141884167Y-87707061D02*
X142969881Y-88792776D01*
X142969881Y-88792776D02*
X141793690Y-88792776D01*
X140617500Y-86892776D02*
X140436547Y-86892776D01*
X140436547Y-86892776D02*
X140255595Y-86983252D01*
X140255595Y-86983252D02*
X140165119Y-87073728D01*
X140165119Y-87073728D02*
X140074643Y-87254680D01*
X140074643Y-87254680D02*
X139984166Y-87616585D01*
X139984166Y-87616585D02*
X139984166Y-88068966D01*
X139984166Y-88068966D02*
X140074643Y-88430871D01*
X140074643Y-88430871D02*
X140165119Y-88611823D01*
X140165119Y-88611823D02*
X140255595Y-88702300D01*
X140255595Y-88702300D02*
X140436547Y-88792776D01*
X140436547Y-88792776D02*
X140617500Y-88792776D01*
X140617500Y-88792776D02*
X140798452Y-88702300D01*
X140798452Y-88702300D02*
X140888928Y-88611823D01*
X140888928Y-88611823D02*
X140979405Y-88430871D01*
X140979405Y-88430871D02*
X141069881Y-88068966D01*
X141069881Y-88068966D02*
X141069881Y-87616585D01*
X141069881Y-87616585D02*
X140979405Y-87254680D01*
X140979405Y-87254680D02*
X140888928Y-87073728D01*
X140888928Y-87073728D02*
X140798452Y-86983252D01*
X140798452Y-86983252D02*
X140617500Y-86892776D01*
X139260357Y-87073728D02*
X139169881Y-86983252D01*
X139169881Y-86983252D02*
X138988928Y-86892776D01*
X138988928Y-86892776D02*
X138536547Y-86892776D01*
X138536547Y-86892776D02*
X138355595Y-86983252D01*
X138355595Y-86983252D02*
X138265119Y-87073728D01*
X138265119Y-87073728D02*
X138174642Y-87254680D01*
X138174642Y-87254680D02*
X138174642Y-87435633D01*
X138174642Y-87435633D02*
X138265119Y-87707061D01*
X138265119Y-87707061D02*
X139350833Y-88792776D01*
X139350833Y-88792776D02*
X138174642Y-88792776D01*
X136546071Y-86892776D02*
X136907976Y-86892776D01*
X136907976Y-86892776D02*
X137088928Y-86983252D01*
X137088928Y-86983252D02*
X137179404Y-87073728D01*
X137179404Y-87073728D02*
X137360357Y-87345157D01*
X137360357Y-87345157D02*
X137450833Y-87707061D01*
X137450833Y-87707061D02*
X137450833Y-88430871D01*
X137450833Y-88430871D02*
X137360357Y-88611823D01*
X137360357Y-88611823D02*
X137269880Y-88702300D01*
X137269880Y-88702300D02*
X137088928Y-88792776D01*
X137088928Y-88792776D02*
X136727023Y-88792776D01*
X136727023Y-88792776D02*
X136546071Y-88702300D01*
X136546071Y-88702300D02*
X136455595Y-88611823D01*
X136455595Y-88611823D02*
X136365118Y-88430871D01*
X136365118Y-88430871D02*
X136365118Y-87978490D01*
X136365118Y-87978490D02*
X136455595Y-87797538D01*
X136455595Y-87797538D02*
X136546071Y-87707061D01*
X136546071Y-87707061D02*
X136727023Y-87616585D01*
X136727023Y-87616585D02*
X137088928Y-87616585D01*
X137088928Y-87616585D02*
X137269880Y-87707061D01*
X137269880Y-87707061D02*
X137360357Y-87797538D01*
X137360357Y-87797538D02*
X137450833Y-87978490D01*
X134103214Y-88792776D02*
X134103214Y-86892776D01*
X134103214Y-86892776D02*
X133650833Y-86892776D01*
X133650833Y-86892776D02*
X133379404Y-86983252D01*
X133379404Y-86983252D02*
X133198452Y-87164204D01*
X133198452Y-87164204D02*
X133107975Y-87345157D01*
X133107975Y-87345157D02*
X133017499Y-87707061D01*
X133017499Y-87707061D02*
X133017499Y-87978490D01*
X133017499Y-87978490D02*
X133107975Y-88340395D01*
X133107975Y-88340395D02*
X133198452Y-88521347D01*
X133198452Y-88521347D02*
X133379404Y-88702300D01*
X133379404Y-88702300D02*
X133650833Y-88792776D01*
X133650833Y-88792776D02*
X134103214Y-88792776D01*
X131117499Y-88611823D02*
X131207975Y-88702300D01*
X131207975Y-88702300D02*
X131479404Y-88792776D01*
X131479404Y-88792776D02*
X131660356Y-88792776D01*
X131660356Y-88792776D02*
X131931785Y-88702300D01*
X131931785Y-88702300D02*
X132112737Y-88521347D01*
X132112737Y-88521347D02*
X132203214Y-88340395D01*
X132203214Y-88340395D02*
X132293690Y-87978490D01*
X132293690Y-87978490D02*
X132293690Y-87707061D01*
X132293690Y-87707061D02*
X132203214Y-87345157D01*
X132203214Y-87345157D02*
X132112737Y-87164204D01*
X132112737Y-87164204D02*
X131931785Y-86983252D01*
X131931785Y-86983252D02*
X131660356Y-86892776D01*
X131660356Y-86892776D02*
X131479404Y-86892776D01*
X131479404Y-86892776D02*
X131207975Y-86983252D01*
X131207975Y-86983252D02*
X131117499Y-87073728D01*
X130303214Y-88792776D02*
X130303214Y-86892776D01*
X130303214Y-86892776D02*
X129850833Y-86892776D01*
X129850833Y-86892776D02*
X129579404Y-86983252D01*
X129579404Y-86983252D02*
X129398452Y-87164204D01*
X129398452Y-87164204D02*
X129307975Y-87345157D01*
X129307975Y-87345157D02*
X129217499Y-87707061D01*
X129217499Y-87707061D02*
X129217499Y-87978490D01*
X129217499Y-87978490D02*
X129307975Y-88340395D01*
X129307975Y-88340395D02*
X129398452Y-88521347D01*
X129398452Y-88521347D02*
X129579404Y-88702300D01*
X129579404Y-88702300D02*
X129850833Y-88792776D01*
X129850833Y-88792776D02*
X130303214Y-88792776D01*
X127317499Y-88611823D02*
X127407975Y-88702300D01*
X127407975Y-88702300D02*
X127679404Y-88792776D01*
X127679404Y-88792776D02*
X127860356Y-88792776D01*
X127860356Y-88792776D02*
X128131785Y-88702300D01*
X128131785Y-88702300D02*
X128312737Y-88521347D01*
X128312737Y-88521347D02*
X128403214Y-88340395D01*
X128403214Y-88340395D02*
X128493690Y-87978490D01*
X128493690Y-87978490D02*
X128493690Y-87707061D01*
X128493690Y-87707061D02*
X128403214Y-87345157D01*
X128403214Y-87345157D02*
X128312737Y-87164204D01*
X128312737Y-87164204D02*
X128131785Y-86983252D01*
X128131785Y-86983252D02*
X127860356Y-86892776D01*
X127860356Y-86892776D02*
X127679404Y-86892776D01*
X127679404Y-86892776D02*
X127407975Y-86983252D01*
X127407975Y-86983252D02*
X127317499Y-87073728D01*
X126955595Y-88973728D02*
X125507975Y-88973728D01*
X125236547Y-87526109D02*
X124784166Y-88792776D01*
X124784166Y-88792776D02*
X124331785Y-87526109D01*
X122612737Y-88792776D02*
X123698452Y-88792776D01*
X123155595Y-88792776D02*
X123155595Y-86892776D01*
X123155595Y-86892776D02*
X123336547Y-87164204D01*
X123336547Y-87164204D02*
X123517499Y-87345157D01*
X123517499Y-87345157D02*
X123698452Y-87435633D01*
D11*
X133042857Y-115189580D02*
X133090476Y-115237200D01*
X133090476Y-115237200D02*
X133233333Y-115284819D01*
X133233333Y-115284819D02*
X133328571Y-115284819D01*
X133328571Y-115284819D02*
X133471428Y-115237200D01*
X133471428Y-115237200D02*
X133566666Y-115141961D01*
X133566666Y-115141961D02*
X133614285Y-115046723D01*
X133614285Y-115046723D02*
X133661904Y-114856247D01*
X133661904Y-114856247D02*
X133661904Y-114713390D01*
X133661904Y-114713390D02*
X133614285Y-114522914D01*
X133614285Y-114522914D02*
X133566666Y-114427676D01*
X133566666Y-114427676D02*
X133471428Y-114332438D01*
X133471428Y-114332438D02*
X133328571Y-114284819D01*
X133328571Y-114284819D02*
X133233333Y-114284819D01*
X133233333Y-114284819D02*
X133090476Y-114332438D01*
X133090476Y-114332438D02*
X133042857Y-114380057D01*
X132090476Y-115284819D02*
X132661904Y-115284819D01*
X132376190Y-115284819D02*
X132376190Y-114284819D01*
X132376190Y-114284819D02*
X132471428Y-114427676D01*
X132471428Y-114427676D02*
X132566666Y-114522914D01*
X132566666Y-114522914D02*
X132661904Y-114570533D01*
X131471428Y-114284819D02*
X131376190Y-114284819D01*
X131376190Y-114284819D02*
X131280952Y-114332438D01*
X131280952Y-114332438D02*
X131233333Y-114380057D01*
X131233333Y-114380057D02*
X131185714Y-114475295D01*
X131185714Y-114475295D02*
X131138095Y-114665771D01*
X131138095Y-114665771D02*
X131138095Y-114903866D01*
X131138095Y-114903866D02*
X131185714Y-115094342D01*
X131185714Y-115094342D02*
X131233333Y-115189580D01*
X131233333Y-115189580D02*
X131280952Y-115237200D01*
X131280952Y-115237200D02*
X131376190Y-115284819D01*
X131376190Y-115284819D02*
X131471428Y-115284819D01*
X131471428Y-115284819D02*
X131566666Y-115237200D01*
X131566666Y-115237200D02*
X131614285Y-115189580D01*
X131614285Y-115189580D02*
X131661904Y-115094342D01*
X131661904Y-115094342D02*
X131709523Y-114903866D01*
X131709523Y-114903866D02*
X131709523Y-114665771D01*
X131709523Y-114665771D02*
X131661904Y-114475295D01*
X131661904Y-114475295D02*
X131614285Y-114380057D01*
X131614285Y-114380057D02*
X131566666Y-114332438D01*
X131566666Y-114332438D02*
X131471428Y-114284819D01*
D12*
G04 #@! TO.C,C8*
X141110000Y-104046233D02*
X141110000Y-104338767D01*
X142130000Y-104046233D02*
X142130000Y-104338767D01*
G04 #@! TO.C,SBD2*
X140990000Y-111210000D02*
X140990000Y-116650000D01*
X140990000Y-116650000D02*
X143930000Y-116650000D01*
X142460000Y-111210000D02*
X142460000Y-109990000D01*
X142460000Y-116650000D02*
X142460000Y-117870000D01*
X143930000Y-111210000D02*
X140990000Y-111210000D01*
X143930000Y-111990000D02*
X140990000Y-111990000D01*
X143930000Y-112110000D02*
X140990000Y-112110000D01*
X143930000Y-112230000D02*
X140990000Y-112230000D01*
X143930000Y-116650000D02*
X143930000Y-111210000D01*
G04 #@! TO.C,C11*
X127273733Y-106730000D02*
X127566267Y-106730000D01*
X127273733Y-107750000D02*
X127566267Y-107750000D01*
G04 #@! TO.C,U2*
X148385000Y-115970000D02*
X148385000Y-117470000D01*
X148385000Y-118970000D02*
X148385000Y-117470000D01*
X151605000Y-115970000D02*
X151605000Y-117470000D01*
X151605000Y-118970000D02*
X151605000Y-117470000D01*
X148560000Y-115257500D02*
X148230000Y-115497500D01*
X148230000Y-115017500D01*
X148560000Y-115257500D01*
G36*
X148560000Y-115257500D02*
G01*
X148230000Y-115497500D01*
X148230000Y-115017500D01*
X148560000Y-115257500D01*
G37*
G04 #@! TO.C,C10*
X132546267Y-112890000D02*
X132253733Y-112890000D01*
X132546267Y-113910000D02*
X132253733Y-113910000D01*
G04 #@! TO.C,C9*
X131155000Y-110658748D02*
X131155000Y-111181252D01*
X132625000Y-110658748D02*
X132625000Y-111181252D01*
G04 #@! TO.C,R6*
X146245276Y-110497500D02*
X146754724Y-110497500D01*
X146245276Y-111542500D02*
X146754724Y-111542500D01*
G04 #@! TO.C,D2*
X126700000Y-110960000D02*
X130560000Y-110960000D01*
X126700000Y-112960000D02*
X130560000Y-112960000D01*
X130560000Y-112960000D02*
X130560000Y-110960000D01*
D13*
G04 #@! TO.C,G\u002A\u002A\u002A*
G36*
X154892314Y-99004416D02*
G01*
X154865350Y-99031380D01*
X154838386Y-99004416D01*
X154865350Y-98977452D01*
X154892314Y-99004416D01*
G37*
G36*
X136249877Y-93258199D02*
G01*
X136399206Y-93312953D01*
X136655267Y-93482842D01*
X136843644Y-93715911D01*
X136954604Y-93992297D01*
X136978412Y-94292140D01*
X136905332Y-94595576D01*
X136799754Y-94801046D01*
X136645060Y-94970487D01*
X136422038Y-95101082D01*
X136236798Y-95166345D01*
X135914684Y-95194681D01*
X135599881Y-95119557D01*
X135394411Y-95013979D01*
X135224969Y-94859285D01*
X135094375Y-94636264D01*
X135022964Y-94424480D01*
X135003460Y-94127563D01*
X135069462Y-93849537D01*
X135208622Y-93605129D01*
X135408591Y-93409065D01*
X135657022Y-93276070D01*
X135941567Y-93220873D01*
X136249877Y-93258199D01*
G37*
G36*
X139253248Y-94783096D02*
G01*
X139253248Y-97656221D01*
X139253248Y-98362268D01*
X139779045Y-98344476D01*
X140054060Y-98332175D01*
X140404713Y-98307270D01*
X140710910Y-98274971D01*
X140956803Y-98237387D01*
X141126542Y-98196627D01*
X141204280Y-98154800D01*
X141206238Y-98148114D01*
X141213593Y-98057352D01*
X141220531Y-97870415D01*
X141226937Y-97596579D01*
X141232695Y-97245122D01*
X141237691Y-96825321D01*
X141241810Y-96346453D01*
X141244936Y-95817796D01*
X141246955Y-95248627D01*
X141247752Y-94648224D01*
X141248577Y-91208804D01*
X141987057Y-91223808D01*
X142725536Y-91238811D01*
X142710565Y-94396018D01*
X142708717Y-94878027D01*
X142707705Y-95435356D01*
X142707962Y-95956465D01*
X142709420Y-96431121D01*
X142712013Y-96849091D01*
X142715675Y-97200141D01*
X142720338Y-97474038D01*
X142725937Y-97660549D01*
X142732405Y-97749440D01*
X142762815Y-97872741D01*
X142806405Y-97917550D01*
X142885223Y-97900104D01*
X142902053Y-97893896D01*
X143027590Y-97854265D01*
X143215761Y-97800311D01*
X143432654Y-97741839D01*
X143701382Y-97671468D01*
X143992154Y-97595073D01*
X144241571Y-97529310D01*
X144619066Y-97429496D01*
X144638644Y-95319046D01*
X146204981Y-95319046D01*
X146205218Y-95398575D01*
X146206283Y-95758026D01*
X146207273Y-96094375D01*
X146208125Y-96386435D01*
X146208779Y-96613016D01*
X146209172Y-96752930D01*
X146209640Y-96806084D01*
X146219463Y-96949523D01*
X146248258Y-97015718D01*
X146304310Y-97028673D01*
X146389293Y-97020255D01*
X146552441Y-97002001D01*
X146749214Y-96978688D01*
X146756301Y-96977835D01*
X146993550Y-96954550D01*
X147276694Y-96934020D01*
X147545992Y-96920602D01*
X147565591Y-96919888D01*
X147793678Y-96904601D01*
X147931601Y-96880384D01*
X147970597Y-96848722D01*
X147970345Y-96848096D01*
X147933909Y-96784206D01*
X147848780Y-96645304D01*
X147724429Y-96446539D01*
X147570332Y-96203056D01*
X147395963Y-95930005D01*
X147247732Y-95698475D01*
X147043262Y-95378039D01*
X146847137Y-95069595D01*
X146676031Y-94799381D01*
X146546619Y-94593629D01*
X146452256Y-94445904D01*
X146342193Y-94282957D01*
X146262477Y-94176314D01*
X146225910Y-94143927D01*
X146223303Y-94153255D01*
X146216626Y-94246402D01*
X146211169Y-94425628D01*
X146207218Y-94674859D01*
X146205060Y-94978022D01*
X146204981Y-95319046D01*
X144638644Y-95319046D01*
X144646030Y-94522901D01*
X144652153Y-93917121D01*
X144659532Y-93324155D01*
X144667544Y-92827033D01*
X144676390Y-92419365D01*
X144686267Y-92094759D01*
X144697373Y-91846826D01*
X144709909Y-91669174D01*
X144724073Y-91555412D01*
X144740063Y-91499151D01*
X144854753Y-91352685D01*
X145062675Y-91217562D01*
X145308610Y-91158395D01*
X145569376Y-91176128D01*
X145821789Y-91271707D01*
X146042665Y-91446076D01*
X146044248Y-91447842D01*
X146100220Y-91522279D01*
X146209916Y-91677878D01*
X146367774Y-91906440D01*
X146568228Y-92199770D01*
X146805715Y-92549670D01*
X147074670Y-92947944D01*
X147369528Y-93386395D01*
X147684726Y-93856826D01*
X148014698Y-94351041D01*
X149679433Y-96848722D01*
X149857400Y-97115734D01*
X150330226Y-97239715D01*
X150367930Y-97249673D01*
X150916579Y-97407663D01*
X151521936Y-97603184D01*
X152148104Y-97824137D01*
X152759187Y-98058422D01*
X152959810Y-98139788D01*
X153267030Y-98267554D01*
X153581752Y-98401555D01*
X153888683Y-98534976D01*
X154172525Y-98661001D01*
X154417984Y-98772816D01*
X154609765Y-98863606D01*
X154732572Y-98926555D01*
X154771110Y-98954849D01*
X154746933Y-98954548D01*
X154637711Y-98934585D01*
X154462091Y-98895019D01*
X154243377Y-98840881D01*
X154077725Y-98799370D01*
X153583155Y-98684781D01*
X153042972Y-98570779D01*
X152494485Y-98464699D01*
X151975000Y-98373879D01*
X151521826Y-98305656D01*
X151269067Y-98271752D01*
X151033644Y-98239939D01*
X150853061Y-98215285D01*
X150753355Y-98201325D01*
X150676815Y-98200842D01*
X150632017Y-98231232D01*
X150656295Y-98281632D01*
X150732090Y-98408415D01*
X150850035Y-98595421D01*
X151000563Y-98827502D01*
X151174104Y-99089509D01*
X151332282Y-99327447D01*
X151490403Y-99568492D01*
X151618911Y-99767878D01*
X151707564Y-99909694D01*
X151746116Y-99978027D01*
X151745579Y-100004006D01*
X151707798Y-100026067D01*
X151617146Y-100041045D01*
X151459883Y-100050193D01*
X151222268Y-100054764D01*
X150890558Y-100056009D01*
X150005075Y-100056009D01*
X149385518Y-99071826D01*
X149313825Y-98958656D01*
X149133783Y-98680901D01*
X148973286Y-98442265D01*
X148841562Y-98255945D01*
X148747833Y-98135136D01*
X148701325Y-98093036D01*
X148680140Y-98093877D01*
X148563872Y-98096018D01*
X148363849Y-98098525D01*
X148096402Y-98101226D01*
X147777862Y-98103948D01*
X147424556Y-98106518D01*
X146212425Y-98114607D01*
X146197699Y-99071826D01*
X146182972Y-100029045D01*
X145414501Y-100044007D01*
X144646030Y-100058970D01*
X144646030Y-99194644D01*
X144645001Y-99001057D01*
X144639786Y-98734351D01*
X144630915Y-98521197D01*
X144619233Y-98379695D01*
X144605584Y-98327944D01*
X144564163Y-98333414D01*
X144430640Y-98356625D01*
X144223643Y-98394911D01*
X143961344Y-98444897D01*
X143661915Y-98503209D01*
X142758693Y-98680850D01*
X142758624Y-99283127D01*
X142756673Y-99491329D01*
X142749779Y-99715847D01*
X142739084Y-99884264D01*
X142725823Y-99970706D01*
X142721919Y-99979304D01*
X142686723Y-100012003D01*
X142611045Y-100034116D01*
X142478051Y-100047550D01*
X142270910Y-100054212D01*
X141972786Y-100056009D01*
X141252483Y-100056009D01*
X141237048Y-99530213D01*
X141221614Y-99004416D01*
X141059830Y-99011765D01*
X141054686Y-99012019D01*
X140923447Y-99023266D01*
X140717833Y-99045753D01*
X140463778Y-99076134D01*
X140187216Y-99111061D01*
X139914082Y-99147187D01*
X139670309Y-99181163D01*
X139481832Y-99209644D01*
X139374586Y-99229281D01*
X139350829Y-99235706D01*
X139297699Y-99265343D01*
X139268365Y-99329134D01*
X139255868Y-99451634D01*
X139253248Y-99657396D01*
X139253248Y-100056009D01*
X138498259Y-100056009D01*
X137743270Y-100056009D01*
X137743270Y-99705478D01*
X137743270Y-99354947D01*
X137244437Y-99355095D01*
X137136166Y-99353975D01*
X136823290Y-99342825D01*
X136483405Y-99322265D01*
X136173061Y-99295444D01*
X135600517Y-99235645D01*
X135202360Y-99647865D01*
X134804204Y-100060085D01*
X133763795Y-100044565D01*
X132723387Y-100029045D01*
X133271633Y-99447003D01*
X133365090Y-99347187D01*
X133542242Y-99154268D01*
X133681988Y-98996985D01*
X133771945Y-98889437D01*
X133799728Y-98845725D01*
X133771296Y-98831672D01*
X133659322Y-98785550D01*
X133483837Y-98717036D01*
X133267261Y-98635004D01*
X133033203Y-98544623D01*
X132199013Y-98169849D01*
X132142591Y-98138095D01*
X136671383Y-98138095D01*
X136673289Y-98139346D01*
X136743026Y-98157683D01*
X136887894Y-98185330D01*
X137079502Y-98216811D01*
X137081787Y-98217162D01*
X137295245Y-98247010D01*
X137483235Y-98268282D01*
X137605298Y-98276391D01*
X137743270Y-98276391D01*
X137743270Y-97656221D01*
X137739918Y-97425548D01*
X137730000Y-97223351D01*
X137715098Y-97086424D01*
X137696805Y-97036051D01*
X137696101Y-97036102D01*
X137643537Y-97075216D01*
X137538203Y-97175407D01*
X137396147Y-97319428D01*
X137233417Y-97490031D01*
X137066064Y-97669968D01*
X136910135Y-97841991D01*
X136781680Y-97988852D01*
X136696746Y-98093302D01*
X136671383Y-98138095D01*
X132142591Y-98138095D01*
X131412903Y-97727430D01*
X130660140Y-97207450D01*
X129925987Y-96599994D01*
X129195711Y-95895146D01*
X129089884Y-95784521D01*
X128873432Y-95550939D01*
X128654811Y-95306764D01*
X128444750Y-95064860D01*
X128253978Y-94838093D01*
X128093225Y-94639325D01*
X127973219Y-94481421D01*
X127904690Y-94377245D01*
X127898367Y-94339661D01*
X127908824Y-94343938D01*
X127990721Y-94393476D01*
X128138047Y-94489771D01*
X128334162Y-94621822D01*
X128562423Y-94778629D01*
X128947718Y-95040335D01*
X130172990Y-95801023D01*
X131417196Y-96463761D01*
X132695297Y-97036076D01*
X134022251Y-97525492D01*
X134804204Y-97785194D01*
X135084834Y-97509298D01*
X135103990Y-97490332D01*
X135232961Y-97354530D01*
X135318681Y-97249910D01*
X135343453Y-97197787D01*
X135301722Y-97174963D01*
X135179415Y-97135226D01*
X135008895Y-97092340D01*
X134500356Y-96935323D01*
X134007856Y-96686133D01*
X133579756Y-96363007D01*
X133223035Y-95975204D01*
X132944672Y-95531985D01*
X132751649Y-95042608D01*
X132650944Y-94516332D01*
X132650024Y-94154336D01*
X133980248Y-94154336D01*
X133982693Y-94306097D01*
X134061980Y-94423218D01*
X134104428Y-94456886D01*
X134125738Y-94510852D01*
X134067953Y-94590947D01*
X134028283Y-94660522D01*
X134018658Y-94783869D01*
X134063389Y-94888628D01*
X134152150Y-94932867D01*
X134217959Y-94946775D01*
X134273149Y-95019313D01*
X134239508Y-95119750D01*
X134213338Y-95173992D01*
X134232865Y-95282936D01*
X134319624Y-95378711D01*
X134451615Y-95429219D01*
X134552289Y-95463251D01*
X134571433Y-95544837D01*
X134568979Y-95586354D01*
X134618443Y-95714911D01*
X134729275Y-95802432D01*
X134865700Y-95815957D01*
X134896765Y-95808972D01*
X134973964Y-95817010D01*
X134992951Y-95898877D01*
X135012956Y-95975144D01*
X135102710Y-96065280D01*
X135225919Y-96103475D01*
X135339523Y-96068637D01*
X135405364Y-96033733D01*
X135494437Y-96052572D01*
X135532229Y-96149425D01*
X135573130Y-96206843D01*
X135675919Y-96226153D01*
X135801624Y-96205344D01*
X135911227Y-96144882D01*
X135942801Y-96117543D01*
X136007808Y-96090748D01*
X136070378Y-96144882D01*
X136079495Y-96155188D01*
X136204237Y-96220740D01*
X136345793Y-96203146D01*
X136461992Y-96106537D01*
X136497653Y-96056733D01*
X136557797Y-96018332D01*
X136631950Y-96060538D01*
X136705797Y-96096357D01*
X136834513Y-96086748D01*
X136942784Y-96014520D01*
X136988280Y-95898877D01*
X136989180Y-95871063D01*
X137019551Y-95809005D01*
X137115531Y-95815957D01*
X137156892Y-95821627D01*
X137289413Y-95782515D01*
X137385639Y-95679265D01*
X137409798Y-95544837D01*
X137426804Y-95465315D01*
X137529617Y-95429219D01*
X137606991Y-95408753D01*
X137716650Y-95329210D01*
X137768895Y-95222176D01*
X137741723Y-95119750D01*
X137711105Y-95061311D01*
X137728442Y-94972053D01*
X137818688Y-94932867D01*
X137878354Y-94901346D01*
X137945913Y-94805192D01*
X137951062Y-94793621D01*
X137973647Y-94681017D01*
X137914124Y-94586184D01*
X137873736Y-94542778D01*
X137854737Y-94485250D01*
X137918535Y-94424793D01*
X137918564Y-94424771D01*
X137998524Y-94305897D01*
X138000728Y-94153115D01*
X137924574Y-94007870D01*
X137912272Y-93993935D01*
X137866345Y-93908650D01*
X137903632Y-93829058D01*
X137940800Y-93754633D01*
X137941445Y-93628716D01*
X137888899Y-93521897D01*
X137796170Y-93476816D01*
X137723591Y-93456415D01*
X137690844Y-93381117D01*
X137742770Y-93283175D01*
X137743167Y-93282775D01*
X137761582Y-93201423D01*
X137708698Y-93105267D01*
X137610732Y-93025038D01*
X137493902Y-92991465D01*
X137453239Y-92990260D01*
X137385842Y-92963189D01*
X137393560Y-92881022D01*
X137391962Y-92745995D01*
X137302842Y-92650137D01*
X137143461Y-92613971D01*
X137036348Y-92597442D01*
X136988280Y-92534322D01*
X136950310Y-92454219D01*
X136853191Y-92366159D01*
X136796938Y-92331818D01*
X136709184Y-92307597D01*
X136630083Y-92350694D01*
X136593088Y-92378135D01*
X136530349Y-92383712D01*
X136461992Y-92303145D01*
X136453518Y-92291116D01*
X136333241Y-92201574D01*
X136191471Y-92191426D01*
X136070378Y-92264800D01*
X136046324Y-92292139D01*
X135988688Y-92318934D01*
X135911227Y-92264800D01*
X135868753Y-92232286D01*
X135735547Y-92184918D01*
X135616233Y-92205161D01*
X135547855Y-92290404D01*
X135521724Y-92350594D01*
X135439184Y-92395942D01*
X135335507Y-92341750D01*
X135252691Y-92316365D01*
X135137196Y-92349131D01*
X135036214Y-92422541D01*
X134992951Y-92514771D01*
X134992716Y-92524116D01*
X134955090Y-92593868D01*
X134837771Y-92613971D01*
X134679711Y-92649423D01*
X134589773Y-92744760D01*
X134587671Y-92881022D01*
X134599588Y-92931396D01*
X134573910Y-92980155D01*
X134465963Y-92991465D01*
X134335542Y-93018909D01*
X134248652Y-93124359D01*
X134219099Y-93217621D01*
X134239995Y-93289325D01*
X134290198Y-93356912D01*
X134270789Y-93438407D01*
X134185061Y-93476816D01*
X134118576Y-93498489D01*
X134051600Y-93589992D01*
X134033605Y-93714395D01*
X134077599Y-93829058D01*
X134086904Y-93840716D01*
X134113752Y-93918334D01*
X134056657Y-94007870D01*
X134055177Y-94009516D01*
X133980248Y-94154336D01*
X132650024Y-94154336D01*
X132649537Y-93962418D01*
X132682090Y-93699102D01*
X132817337Y-93152177D01*
X133038928Y-92669047D01*
X133347636Y-92248775D01*
X133744235Y-91890426D01*
X134229500Y-91593063D01*
X134804204Y-91355750D01*
X134866542Y-91335901D01*
X134959866Y-91311393D01*
X135066977Y-91291445D01*
X135199634Y-91275416D01*
X135369596Y-91262665D01*
X135588620Y-91252551D01*
X135868466Y-91244432D01*
X136220890Y-91237667D01*
X136657652Y-91231617D01*
X137190510Y-91225638D01*
X139253248Y-91203924D01*
X139253248Y-94153115D01*
X139253248Y-94783096D01*
G37*
D12*
G04 #@! TO.C,R9*
X153592224Y-110477500D02*
X153082776Y-110477500D01*
X153592224Y-111522500D02*
X153082776Y-111522500D01*
G04 #@! TO.C,C5*
X152020000Y-117996233D02*
X152020000Y-118288767D01*
X153040000Y-117996233D02*
X153040000Y-118288767D01*
G04 #@! TO.C,R7*
X152505436Y-107800000D02*
X153959564Y-107800000D01*
X152505436Y-109620000D02*
X153959564Y-109620000D01*
G04 #@! TO.C,C3*
X131976267Y-105820000D02*
X131683733Y-105820000D01*
X131976267Y-106840000D02*
X131683733Y-106840000D01*
G04 #@! TO.C,C4*
X146950000Y-117991233D02*
X146950000Y-118283767D01*
X147970000Y-117991233D02*
X147970000Y-118283767D01*
G04 #@! TO.C,R8*
X146550436Y-107790000D02*
X148004564Y-107790000D01*
X146550436Y-109610000D02*
X148004564Y-109610000D01*
G04 #@! TO.C,R3*
X139557500Y-115047258D02*
X139557500Y-114572742D01*
X140602500Y-115047258D02*
X140602500Y-114572742D01*
G04 #@! TD*
%LPC*%
D14*
G04 #@! TO.C,MDR_1*
X124380000Y-83045000D03*
D15*
X126880000Y-83045000D03*
X129380000Y-83045000D03*
G04 #@! TD*
D16*
G04 #@! TO.C,F1*
X180582974Y-111915732D03*
X173952866Y-113234544D03*
D17*
X164547135Y-115105459D03*
X157917026Y-116424269D03*
G04 #@! TD*
D18*
G04 #@! TO.C,SBD1*
X158750000Y-98550000D03*
D19*
X158750000Y-88390000D03*
G04 #@! TD*
D20*
G04 #@! TO.C,C12*
X124190000Y-103080000D03*
D21*
X126190000Y-103080000D03*
G04 #@! TD*
G04 #@! TO.C,R2*
X158750000Y-101060000D03*
D22*
X158750000Y-111220000D03*
G04 #@! TD*
D23*
G04 #@! TO.C,H4*
X185909210Y-110417583D03*
G04 #@! TD*
G04 #@! TO.C,H4*
X185909210Y-87875465D03*
G04 #@! TD*
G04 #@! TO.C,H3*
X114089679Y-110417583D03*
G04 #@! TD*
D24*
G04 #@! TO.C,Line_1*
X162630000Y-83030000D03*
D25*
X165130000Y-83030000D03*
G04 #@! TD*
D21*
G04 #@! TO.C,C2*
X118650000Y-93570000D03*
X123650000Y-93570000D03*
G04 #@! TD*
G04 #@! TO.C,R4*
X143410000Y-102670000D03*
D22*
X153570000Y-102670000D03*
G04 #@! TD*
D21*
G04 #@! TO.C,R1*
X187580000Y-96450000D03*
D22*
X177420000Y-96450000D03*
G04 #@! TD*
D26*
G04 #@! TO.C,LiPo_1*
X172150000Y-83100000D03*
D27*
X177150000Y-83100000D03*
G04 #@! TD*
D23*
G04 #@! TO.C,H3*
X114089679Y-87878294D03*
G04 #@! TD*
D24*
G04 #@! TO.C,main_psu1*
X144730000Y-83055000D03*
D25*
X147230000Y-83055000D03*
G04 #@! TD*
D24*
G04 #@! TO.C,UI_1*
X153690000Y-83045000D03*
D25*
X156190000Y-83045000D03*
G04 #@! TD*
D28*
G04 #@! TO.C,J1*
X147110000Y-114100000D03*
X152890000Y-114100000D03*
D29*
X145680000Y-117780000D03*
X154320000Y-117780000D03*
D30*
X145680000Y-113600000D03*
X154320000Y-113600000D03*
G04 #@! TD*
D21*
G04 #@! TO.C,R5*
X153540000Y-105840000D03*
D22*
X143380000Y-105840000D03*
G04 #@! TD*
D21*
G04 #@! TO.C,C1*
X117390000Y-103100000D03*
X119890000Y-103100000D03*
G04 #@! TD*
D31*
G04 #@! TO.C,SW1*
X177225000Y-90300000D03*
D32*
X177225000Y-92840000D03*
G04 #@! TD*
D31*
G04 #@! TO.C,OLED_1*
X113514970Y-97342582D03*
D32*
X113514970Y-99882582D03*
G04 #@! TD*
D24*
G04 #@! TO.C,main_uart1*
X135820000Y-83055000D03*
D25*
X138320000Y-83055000D03*
G04 #@! TD*
D33*
G04 #@! TO.C,C8*
X141620000Y-105055000D03*
X141620000Y-103330000D03*
G04 #@! TD*
D18*
G04 #@! TO.C,SBD2*
X142460000Y-108850000D03*
D19*
X142460000Y-119010000D03*
G04 #@! TD*
D34*
G04 #@! TO.C,C11*
X128282500Y-107240000D03*
X126557500Y-107240000D03*
G04 #@! TD*
D35*
G04 #@! TO.C,U2*
X148995000Y-115357500D03*
X149495000Y-115357500D03*
X149995000Y-115357500D03*
X150495000Y-115357500D03*
X150995000Y-115357500D03*
X150995000Y-119582500D03*
X150495000Y-119582500D03*
X149995000Y-119582500D03*
X149495000Y-119582500D03*
X148995000Y-119582500D03*
G04 #@! TD*
D36*
G04 #@! TO.C,C10*
X131537500Y-113400000D03*
X133262500Y-113400000D03*
G04 #@! TD*
D37*
G04 #@! TO.C,C9*
X131890000Y-111870000D03*
X131890000Y-109970000D03*
G04 #@! TD*
D38*
G04 #@! TO.C,R6*
X147412500Y-111020000D03*
X145587500Y-111020000D03*
G04 #@! TD*
D39*
G04 #@! TO.C,D2*
X129750000Y-111960000D03*
X126950000Y-111960000D03*
G04 #@! TD*
D40*
G04 #@! TO.C,R9*
X152425000Y-111000000D03*
X154250000Y-111000000D03*
G04 #@! TD*
D33*
G04 #@! TO.C,C5*
X152530000Y-119005000D03*
X152530000Y-117280000D03*
G04 #@! TD*
D41*
G04 #@! TO.C,R7*
X154695000Y-108710000D03*
X151770000Y-108710000D03*
G04 #@! TD*
D36*
G04 #@! TO.C,C3*
X130967500Y-106330000D03*
X132692500Y-106330000D03*
G04 #@! TD*
D33*
G04 #@! TO.C,C4*
X147460000Y-119000000D03*
X147460000Y-117275000D03*
G04 #@! TD*
D41*
G04 #@! TO.C,R8*
X148740000Y-108700000D03*
X145815000Y-108700000D03*
G04 #@! TD*
D42*
G04 #@! TO.C,R3*
X140080000Y-113985000D03*
X140080000Y-115635000D03*
G04 #@! TD*
%LPD*%
M02*
