%TF.GenerationSoftware,KiCad,Pcbnew,8.0.3*%
%TF.CreationDate,2025-10-23T09:13:21+09:00*%
%TF.ProjectId,dcdc_V8,64636463-5f56-4382-9e6b-696361645f70,rev?*%
%TF.SameCoordinates,Original*%
%TF.FileFunction,Drillmap*%
%TF.FilePolarity,Positive*%
%FSLAX45Y45*%
G04 Gerber Fmt 4.5, Leading zero omitted, Abs format (unit mm)*
G04 Created by KiCad (PCBNEW 8.0.3) date 2025-10-23 09:13:21*
%MOMM*%
%LPD*%
G01*
G04 APERTURE LIST*
%ADD10C,0.200000*%
%ADD11C,0.100000*%
%ADD12C,0.170000*%
%ADD13C,0.270000*%
G04 APERTURE END LIST*
D10*
X17475000Y-10770000D02*
X17475000Y-8770000D01*
X19000497Y-8500758D02*
X17849395Y-7897463D01*
X10999392Y-8501041D02*
X12150494Y-7897746D01*
X17475000Y-8770000D02*
X16075000Y-8770000D01*
X19000497Y-11310258D02*
G75*
G02*
X10999498Y-11310284I-4000531J9707736D01*
G01*
X16075000Y-10770000D02*
X17475000Y-10770000D01*
X16075000Y-8770000D02*
X16075000Y-10770000D01*
X10999392Y-8501041D02*
X10999498Y-11310284D01*
X12150494Y-7897746D02*
X17849489Y-7897752D01*
X19000497Y-8500758D02*
X19000497Y-11310258D01*
D11*
X11094000Y-9098000D02*
X11124000Y-9128000D01*
X11124000Y-9098000D02*
X11094000Y-9128000D01*
X11099000Y-9654000D02*
X11129000Y-9684000D01*
X11129000Y-9654000D02*
X11099000Y-9684000D01*
X11099000Y-10195000D02*
X11129000Y-10225000D01*
X11129000Y-10195000D02*
X11099000Y-10225000D01*
X11100000Y-10622000D02*
X11130000Y-10652000D01*
X11130000Y-10622000D02*
X11100000Y-10652000D01*
X11391000Y-9333000D02*
X11421000Y-9363000D01*
X11421000Y-9333000D02*
X11391000Y-9363000D01*
X11450000Y-10608000D02*
X11480000Y-10638000D01*
X11480000Y-10608000D02*
X11450000Y-10638000D01*
X11497000Y-10159000D02*
X11527000Y-10189000D01*
X11527000Y-10159000D02*
X11497000Y-10189000D01*
X11574000Y-11402000D02*
X11604000Y-11432000D01*
X11604000Y-11402000D02*
X11574000Y-11432000D01*
X11643000Y-9104000D02*
X11673000Y-9134000D01*
X11673000Y-9104000D02*
X11643000Y-9134000D01*
X11692000Y-9509000D02*
X11722000Y-9539000D01*
X11722000Y-9509000D02*
X11692000Y-9539000D01*
X11810000Y-10795000D02*
X11840000Y-10825000D01*
X11840000Y-10795000D02*
X11810000Y-10825000D01*
X11818000Y-11187000D02*
X11848000Y-11217000D01*
X11848000Y-11187000D02*
X11818000Y-11217000D01*
X11825000Y-10479000D02*
X11855000Y-10509000D01*
X11855000Y-10479000D02*
X11825000Y-10509000D01*
X12012000Y-11561000D02*
X12042000Y-11591000D01*
X12042000Y-11561000D02*
X12012000Y-11591000D01*
X12433000Y-10701000D02*
X12463000Y-10731000D01*
X12463000Y-10701000D02*
X12433000Y-10731000D01*
X12502000Y-9481000D02*
X12532000Y-9511000D01*
X12532000Y-9481000D02*
X12502000Y-9511000D01*
X12526000Y-11663000D02*
X12556000Y-11693000D01*
X12556000Y-11663000D02*
X12526000Y-11693000D01*
X12722000Y-8850000D02*
X12752000Y-8880000D01*
X12752000Y-8850000D02*
X12722000Y-8880000D01*
X12729000Y-9217000D02*
X12759000Y-9247000D01*
X12759000Y-9217000D02*
X12729000Y-9247000D01*
X12733000Y-9594000D02*
X12763000Y-9624000D01*
X12763000Y-9594000D02*
X12733000Y-9624000D01*
X12733000Y-11400000D02*
X12763000Y-11430000D01*
X12763000Y-11400000D02*
X12733000Y-11430000D01*
X12766000Y-11171000D02*
X12796000Y-11201000D01*
X12796000Y-11171000D02*
X12766000Y-11201000D01*
X12776000Y-10785000D02*
X12806000Y-10815000D01*
X12806000Y-10785000D02*
X12776000Y-10815000D01*
X12838000Y-10321000D02*
X12868000Y-10351000D01*
X12868000Y-10321000D02*
X12838000Y-10351000D01*
X12950000Y-10784000D02*
X12980000Y-10814000D01*
X12980000Y-10784000D02*
X12950000Y-10814000D01*
X12985000Y-11561000D02*
X13015000Y-11591000D01*
X13015000Y-11561000D02*
X12985000Y-11591000D01*
X13008000Y-11790000D02*
X13038000Y-11820000D01*
X13038000Y-11790000D02*
X13008000Y-11820000D01*
X13014000Y-11400500D02*
X13044000Y-11430500D01*
X13044000Y-11400500D02*
X13014000Y-11430500D01*
X13126000Y-8304000D02*
X13156000Y-8334000D01*
X13156000Y-8304000D02*
X13126000Y-8334000D01*
X13161000Y-10802000D02*
X13191000Y-10832000D01*
X13191000Y-10802000D02*
X13161000Y-10832000D01*
X13206000Y-9855000D02*
X13236000Y-9885000D01*
X13236000Y-9855000D02*
X13206000Y-9885000D01*
X13253000Y-8689000D02*
X13283000Y-8719000D01*
X13283000Y-8689000D02*
X13253000Y-8719000D01*
X13399720Y-11176000D02*
X13429720Y-11206000D01*
X13429720Y-11176000D02*
X13399720Y-11206000D01*
X13416000Y-8466000D02*
X13446000Y-8496000D01*
X13446000Y-8466000D02*
X13416000Y-8496000D01*
X13479000Y-10925000D02*
X13509000Y-10955000D01*
X13509000Y-10925000D02*
X13479000Y-10955000D01*
X13619720Y-10896014D02*
X13649720Y-10926014D01*
X13649720Y-10896014D02*
X13619720Y-10926014D01*
X13730000Y-8708000D02*
X13760000Y-8738000D01*
X13760000Y-8708000D02*
X13730000Y-8738000D01*
X13893000Y-8491000D02*
X13923000Y-8521000D01*
X13923000Y-8491000D02*
X13893000Y-8521000D01*
X13930000Y-11382000D02*
X13960000Y-11412000D01*
X13960000Y-11382000D02*
X13930000Y-11412000D01*
X14021000Y-8818000D02*
X14051000Y-8848000D01*
X14051000Y-8818000D02*
X14021000Y-8848000D01*
X14054000Y-10836000D02*
X14084000Y-10866000D01*
X14084000Y-10836000D02*
X14054000Y-10866000D01*
X14149000Y-10240000D02*
X14179000Y-10270000D01*
X14179000Y-10240000D02*
X14149000Y-10270000D01*
X14162000Y-8303000D02*
X14192000Y-8333000D01*
X14192000Y-8303000D02*
X14162000Y-8333000D01*
X14175000Y-10641000D02*
X14205000Y-10671000D01*
X14205000Y-10641000D02*
X14175000Y-10671000D01*
X14233000Y-11598000D02*
X14263000Y-11628000D01*
X14263000Y-11598000D02*
X14233000Y-11628000D01*
X14233000Y-11714000D02*
X14263000Y-11744000D01*
X14263000Y-11714000D02*
X14233000Y-11744000D01*
X14400000Y-10765000D02*
X14430000Y-10795000D01*
X14430000Y-10765000D02*
X14400000Y-10795000D01*
X14404000Y-11322000D02*
X14434000Y-11352000D01*
X14434000Y-11322000D02*
X14404000Y-11352000D01*
X14488750Y-11087000D02*
X14518750Y-11117000D01*
X14518750Y-11087000D02*
X14488750Y-11117000D01*
X14506000Y-9147000D02*
X14536000Y-9177000D01*
X14536000Y-9147000D02*
X14506000Y-9177000D01*
X14522000Y-11524000D02*
X14552000Y-11554000D01*
X14552000Y-11524000D02*
X14522000Y-11554000D01*
X14525000Y-10545000D02*
X14555000Y-10575000D01*
X14555000Y-10545000D02*
X14525000Y-10575000D01*
X14526000Y-10264000D02*
X14556000Y-10294000D01*
X14556000Y-10264000D02*
X14526000Y-10294000D01*
X14538000Y-9562000D02*
X14568000Y-9592000D01*
X14568000Y-9562000D02*
X14538000Y-9592000D01*
X14635000Y-11190000D02*
X14665000Y-11220000D01*
X14665000Y-11190000D02*
X14635000Y-11220000D01*
X14724000Y-10892000D02*
X14754000Y-10922000D01*
X14754000Y-10892000D02*
X14724000Y-10922000D01*
X14729000Y-8505000D02*
X14759000Y-8535000D01*
X14759000Y-8505000D02*
X14729000Y-8535000D01*
X14730000Y-10431000D02*
X14760000Y-10461000D01*
X14760000Y-10431000D02*
X14730000Y-10461000D01*
X14762000Y-10582000D02*
X14792000Y-10612000D01*
X14792000Y-10582000D02*
X14762000Y-10612000D01*
X14791000Y-11885000D02*
X14821000Y-11915000D01*
X14821000Y-11885000D02*
X14791000Y-11915000D01*
X14817000Y-11169000D02*
X14847000Y-11199000D01*
X14847000Y-11169000D02*
X14817000Y-11199000D01*
X14853000Y-9013000D02*
X14883000Y-9043000D01*
X14883000Y-9013000D02*
X14853000Y-9043000D01*
X14884091Y-11799409D02*
X14914091Y-11829409D01*
X14914091Y-11799409D02*
X14884091Y-11829409D01*
X14913392Y-11184626D02*
X14943392Y-11214626D01*
X14943392Y-11184626D02*
X14913392Y-11214626D01*
X14936288Y-11411514D02*
X14966288Y-11441514D01*
X14966288Y-11411514D02*
X14936288Y-11441514D01*
X14955000Y-10710000D02*
X14985000Y-10740000D01*
X14985000Y-10710000D02*
X14955000Y-10740000D01*
X14977000Y-11811000D02*
X15007000Y-11841000D01*
X15007000Y-11811000D02*
X14977000Y-11841000D01*
X14984000Y-8281000D02*
X15014000Y-8311000D01*
X15014000Y-8281000D02*
X14984000Y-8311000D01*
X14985000Y-11095000D02*
X15015000Y-11125000D01*
X15015000Y-11095000D02*
X14985000Y-11125000D01*
X15005000Y-9509000D02*
X15035000Y-9539000D01*
X15035000Y-9509000D02*
X15005000Y-9539000D01*
X15012000Y-10825000D02*
X15042000Y-10855000D01*
X15042000Y-10825000D02*
X15012000Y-10855000D01*
X15145000Y-11655000D02*
X15175000Y-11685000D01*
X15175000Y-11655000D02*
X15145000Y-11685000D01*
X15155000Y-8830000D02*
X15185000Y-8860000D01*
X15185000Y-8830000D02*
X15155000Y-8860000D01*
X15159666Y-11164871D02*
X15189666Y-11194871D01*
X15189666Y-11164871D02*
X15159666Y-11194871D01*
X15165000Y-11886000D02*
X15195000Y-11916000D01*
X15195000Y-11886000D02*
X15165000Y-11916000D01*
X15217000Y-9780000D02*
X15247000Y-9810000D01*
X15247000Y-9780000D02*
X15217000Y-9810000D01*
X15219000Y-11524000D02*
X15249000Y-11554000D01*
X15249000Y-11524000D02*
X15219000Y-11554000D01*
X15240000Y-12005000D02*
X15270000Y-12035000D01*
X15270000Y-12005000D02*
X15240000Y-12035000D01*
X15310000Y-11150000D02*
X15340000Y-11180000D01*
X15340000Y-11150000D02*
X15310000Y-11180000D01*
X15330000Y-10901000D02*
X15360000Y-10931000D01*
X15360000Y-10901000D02*
X15330000Y-10931000D01*
X15343000Y-11865000D02*
X15373000Y-11895000D01*
X15373000Y-11865000D02*
X15343000Y-11895000D01*
X15530000Y-10260000D02*
X15560000Y-10290000D01*
X15560000Y-10260000D02*
X15530000Y-10290000D01*
X15535000Y-11990000D02*
X15565000Y-12020000D01*
X15565000Y-11990000D02*
X15535000Y-12020000D01*
X15555000Y-11720000D02*
X15585000Y-11750000D01*
X15585000Y-11720000D02*
X15555000Y-11750000D01*
X15650000Y-8825000D02*
X15680000Y-8855000D01*
X15680000Y-8825000D02*
X15650000Y-8855000D01*
X15650000Y-9115000D02*
X15680000Y-9145000D01*
X15680000Y-9115000D02*
X15650000Y-9145000D01*
X15660000Y-9790000D02*
X15690000Y-9820000D01*
X15690000Y-9790000D02*
X15660000Y-9820000D01*
X15705000Y-10660000D02*
X15735000Y-10690000D01*
X15735000Y-10660000D02*
X15705000Y-10690000D01*
X15915000Y-11365000D02*
X15945000Y-11395000D01*
X15945000Y-11365000D02*
X15915000Y-11395000D01*
X15960000Y-9405000D02*
X15990000Y-9435000D01*
X15990000Y-9405000D02*
X15960000Y-9435000D01*
X15960000Y-10255000D02*
X15990000Y-10285000D01*
X15990000Y-10255000D02*
X15960000Y-10285000D01*
X15965000Y-8985000D02*
X15995000Y-9015000D01*
X15995000Y-8985000D02*
X15965000Y-9015000D01*
X16010000Y-11925000D02*
X16040000Y-11955000D01*
X16040000Y-11925000D02*
X16010000Y-11955000D01*
X16095000Y-10880000D02*
X16125000Y-10910000D01*
X16125000Y-10880000D02*
X16095000Y-10910000D01*
X16570000Y-11850000D02*
X16600000Y-11880000D01*
X16600000Y-11850000D02*
X16570000Y-11880000D01*
X16655000Y-11090000D02*
X16685000Y-11120000D01*
X16685000Y-11090000D02*
X16655000Y-11120000D01*
X16740000Y-11490000D02*
X16770000Y-11520000D01*
X16770000Y-11490000D02*
X16740000Y-11520000D01*
X16840000Y-8000000D02*
X16870000Y-8030000D01*
X16870000Y-8000000D02*
X16840000Y-8030000D01*
X16880000Y-8635000D02*
X16910000Y-8665000D01*
X16910000Y-8635000D02*
X16880000Y-8665000D01*
X17155000Y-11410000D02*
X17185000Y-11440000D01*
X17185000Y-11410000D02*
X17155000Y-11440000D01*
X17170000Y-11750000D02*
X17200000Y-11780000D01*
X17200000Y-11750000D02*
X17170000Y-11780000D01*
X17255000Y-10970000D02*
X17285000Y-11000000D01*
X17285000Y-10970000D02*
X17255000Y-11000000D01*
X17340000Y-8650000D02*
X17370000Y-8680000D01*
X17370000Y-8650000D02*
X17340000Y-8680000D01*
X17500000Y-8005000D02*
X17530000Y-8035000D01*
X17530000Y-8005000D02*
X17500000Y-8035000D01*
X17545000Y-9795000D02*
X17575000Y-9825000D01*
X17575000Y-9795000D02*
X17545000Y-9825000D01*
X17550000Y-8850000D02*
X17580000Y-8880000D01*
X17580000Y-8850000D02*
X17550000Y-8880000D01*
X17560000Y-10620000D02*
X17590000Y-10650000D01*
X17590000Y-10620000D02*
X17560000Y-10650000D01*
X17743000Y-11056000D02*
X17773000Y-11086000D01*
X17773000Y-11056000D02*
X17743000Y-11086000D01*
X17880000Y-11585000D02*
X17910000Y-11615000D01*
X17910000Y-11585000D02*
X17880000Y-11615000D01*
X17886000Y-8970000D02*
X17916000Y-9000000D01*
X17916000Y-8970000D02*
X17886000Y-9000000D01*
X17930000Y-8080000D02*
X17960000Y-8110000D01*
X17960000Y-8080000D02*
X17930000Y-8110000D01*
X17940000Y-9805000D02*
X17970000Y-9835000D01*
X17970000Y-9805000D02*
X17940000Y-9835000D01*
X18010000Y-10610000D02*
X18040000Y-10640000D01*
X18040000Y-10610000D02*
X18010000Y-10640000D01*
X18037000Y-9418000D02*
X18067000Y-9448000D01*
X18067000Y-9418000D02*
X18037000Y-9448000D01*
X18330000Y-10146000D02*
X18360000Y-10176000D01*
X18360000Y-10146000D02*
X18330000Y-10176000D01*
X18430000Y-9749000D02*
X18460000Y-9779000D01*
X18460000Y-9749000D02*
X18430000Y-9779000D01*
X18435000Y-11405000D02*
X18465000Y-11435000D01*
X18465000Y-11405000D02*
X18435000Y-11435000D01*
X18475000Y-8355000D02*
X18505000Y-8385000D01*
X18505000Y-8355000D02*
X18475000Y-8385000D01*
X14568000Y-9402000D02*
G75*
G02*
X14528000Y-9402000I-20000J0D01*
G01*
X14528000Y-9402000D02*
G75*
G02*
X14568000Y-9402000I20000J0D01*
G01*
X12669000Y-10098000D02*
X12669000Y-10148000D01*
X12644000Y-10123000D02*
X12694000Y-10123000D01*
X14589213Y-11381213D02*
X14589213Y-11338787D01*
X14546787Y-11338787D01*
X14546787Y-11381213D01*
X14589213Y-11381213D01*
X14538000Y-11305000D02*
X14538000Y-11415000D01*
X14598000Y-11415000D02*
G75*
G02*
X14538000Y-11415000I-30000J0D01*
G01*
X14598000Y-11415000D02*
X14598000Y-11305000D01*
X14598000Y-11305000D02*
G75*
G03*
X14538000Y-11305000I-30000J0D01*
G01*
X14589213Y-11799213D02*
X14589213Y-11756787D01*
X14546787Y-11756787D01*
X14546787Y-11799213D01*
X14589213Y-11799213D01*
X14538000Y-11738000D02*
X14538000Y-11818000D01*
X14598000Y-11818000D02*
G75*
G02*
X14538000Y-11818000I-30000J0D01*
G01*
X14598000Y-11818000D02*
X14598000Y-11738000D01*
X14598000Y-11738000D02*
G75*
G03*
X14538000Y-11738000I-30000J0D01*
G01*
X15453213Y-11381213D02*
X15453213Y-11338787D01*
X15410787Y-11338787D01*
X15410787Y-11381213D01*
X15453213Y-11381213D01*
X15402000Y-11305000D02*
X15402000Y-11415000D01*
X15462000Y-11415000D02*
G75*
G02*
X15402000Y-11415000I-30000J0D01*
G01*
X15462000Y-11415000D02*
X15462000Y-11305000D01*
X15462000Y-11305000D02*
G75*
G03*
X15402000Y-11305000I-30000J0D01*
G01*
X15453213Y-11799213D02*
X15453213Y-11756787D01*
X15410787Y-11756787D01*
X15410787Y-11799213D01*
X15453213Y-11799213D01*
X15402000Y-11738000D02*
X15402000Y-11818000D01*
X15462000Y-11818000D02*
G75*
G02*
X15402000Y-11818000I-30000J0D01*
G01*
X15462000Y-11818000D02*
X15462000Y-11738000D01*
X15462000Y-11738000D02*
G75*
G03*
X15402000Y-11738000I-30000J0D01*
G01*
X13793500Y-10722000D02*
X13828500Y-10687000D01*
X13793500Y-10652000D01*
X13758500Y-10687000D01*
X13793500Y-10722000D01*
X14860000Y-9563000D02*
X14895000Y-9528000D01*
X14860000Y-9493000D01*
X14825000Y-9528000D01*
X14860000Y-9563000D01*
X14868000Y-10255000D02*
X14903000Y-10220000D01*
X14868000Y-10185000D01*
X14833000Y-10220000D01*
X14868000Y-10255000D01*
X11699000Y-10270000D02*
X11779000Y-10350000D01*
X11779000Y-10270000D02*
X11699000Y-10350000D01*
X11779000Y-10310000D02*
G75*
G02*
X11699000Y-10310000I-40000J0D01*
G01*
X11699000Y-10310000D02*
G75*
G02*
X11779000Y-10310000I40000J0D01*
G01*
X11825000Y-9317000D02*
X11905000Y-9397000D01*
X11905000Y-9317000D02*
X11825000Y-9397000D01*
X11905000Y-9357000D02*
G75*
G02*
X11825000Y-9357000I-40000J0D01*
G01*
X11825000Y-9357000D02*
G75*
G02*
X11905000Y-9357000I40000J0D01*
G01*
X11949000Y-10270000D02*
X12029000Y-10350000D01*
X12029000Y-10270000D02*
X11949000Y-10350000D01*
X12029000Y-10310000D02*
G75*
G02*
X11949000Y-10310000I-40000J0D01*
G01*
X11949000Y-10310000D02*
G75*
G02*
X12029000Y-10310000I40000J0D01*
G01*
X12325000Y-9317000D02*
X12405000Y-9397000D01*
X12405000Y-9317000D02*
X12325000Y-9397000D01*
X12405000Y-9357000D02*
G75*
G02*
X12325000Y-9357000I-40000J0D01*
G01*
X12325000Y-9357000D02*
G75*
G02*
X12405000Y-9357000I40000J0D01*
G01*
X12379000Y-10268000D02*
X12459000Y-10348000D01*
X12459000Y-10268000D02*
X12379000Y-10348000D01*
X12459000Y-10308000D02*
G75*
G02*
X12379000Y-10308000I-40000J0D01*
G01*
X12379000Y-10308000D02*
G75*
G02*
X12459000Y-10308000I40000J0D01*
G01*
X12579000Y-10268000D02*
X12659000Y-10348000D01*
X12659000Y-10268000D02*
X12579000Y-10348000D01*
X12659000Y-10308000D02*
G75*
G02*
X12579000Y-10308000I-40000J0D01*
G01*
X12579000Y-10308000D02*
G75*
G02*
X12659000Y-10308000I40000J0D01*
G01*
X14298000Y-10544000D02*
X14378000Y-10624000D01*
X14378000Y-10544000D02*
X14298000Y-10624000D01*
X14378000Y-10584000D02*
G75*
G02*
X14298000Y-10584000I-40000J0D01*
G01*
X14298000Y-10584000D02*
G75*
G02*
X14378000Y-10584000I40000J0D01*
G01*
X14301000Y-10227000D02*
X14381000Y-10307000D01*
X14381000Y-10227000D02*
X14301000Y-10307000D01*
X14381000Y-10267000D02*
G75*
G02*
X14301000Y-10267000I-40000J0D01*
G01*
X14301000Y-10267000D02*
G75*
G02*
X14381000Y-10267000I40000J0D01*
G01*
X15314000Y-10544000D02*
X15394000Y-10624000D01*
X15394000Y-10544000D02*
X15314000Y-10624000D01*
X15394000Y-10584000D02*
G75*
G02*
X15314000Y-10584000I-40000J0D01*
G01*
X15314000Y-10584000D02*
G75*
G02*
X15394000Y-10584000I40000J0D01*
G01*
X15317000Y-10227000D02*
X15397000Y-10307000D01*
X15397000Y-10227000D02*
X15317000Y-10307000D01*
X15397000Y-10267000D02*
G75*
G02*
X15317000Y-10267000I-40000J0D01*
G01*
X15317000Y-10267000D02*
G75*
G02*
X15397000Y-10267000I40000J0D01*
G01*
X15835000Y-10066000D02*
X15915000Y-10146000D01*
X15915000Y-10066000D02*
X15835000Y-10146000D01*
X15915000Y-10106000D02*
G75*
G02*
X15835000Y-10106000I-40000J0D01*
G01*
X15835000Y-10106000D02*
G75*
G02*
X15915000Y-10106000I40000J0D01*
G01*
X15835000Y-11082000D02*
X15915000Y-11162000D01*
X15915000Y-11082000D02*
X15835000Y-11162000D01*
X15915000Y-11122000D02*
G75*
G02*
X15835000Y-11122000I-40000J0D01*
G01*
X15835000Y-11122000D02*
G75*
G02*
X15915000Y-11122000I40000J0D01*
G01*
X17702000Y-9605000D02*
X17782000Y-9685000D01*
X17782000Y-9605000D02*
X17702000Y-9685000D01*
X17782000Y-9645000D02*
G75*
G02*
X17702000Y-9645000I-40000J0D01*
G01*
X17702000Y-9645000D02*
G75*
G02*
X17782000Y-9645000I40000J0D01*
G01*
X18718000Y-9605000D02*
X18798000Y-9685000D01*
X18798000Y-9605000D02*
X18718000Y-9685000D01*
X18798000Y-9645000D02*
G75*
G02*
X18718000Y-9645000I-40000J0D01*
G01*
X18718000Y-9645000D02*
G75*
G02*
X18798000Y-9645000I40000J0D01*
G01*
X14201000Y-10840000D02*
X14291000Y-10930000D01*
X14291000Y-10840000D02*
X14201000Y-10930000D01*
X14246000Y-10840000D02*
X14246000Y-10930000D01*
X14201000Y-10885000D02*
X14291000Y-10885000D01*
X14201000Y-11856000D02*
X14291000Y-11946000D01*
X14291000Y-11856000D02*
X14201000Y-11946000D01*
X14246000Y-11856000D02*
X14246000Y-11946000D01*
X14201000Y-11901000D02*
X14291000Y-11901000D01*
X15830000Y-8794000D02*
X15920000Y-8884000D01*
X15920000Y-8794000D02*
X15830000Y-8884000D01*
X15875000Y-8794000D02*
X15875000Y-8884000D01*
X15830000Y-8839000D02*
X15920000Y-8839000D01*
X15830000Y-9810000D02*
X15920000Y-9900000D01*
X15920000Y-9810000D02*
X15830000Y-9900000D01*
X15875000Y-9810000D02*
X15875000Y-9900000D01*
X15830000Y-9855000D02*
X15920000Y-9855000D01*
X12390500Y-8257000D02*
X12485500Y-8352000D01*
X12485500Y-8257000D02*
X12390500Y-8352000D01*
X12471588Y-8338088D02*
X12471588Y-8270912D01*
X12404412Y-8270912D01*
X12404412Y-8338088D01*
X12471588Y-8338088D01*
X12640500Y-8257000D02*
X12735500Y-8352000D01*
X12735500Y-8257000D02*
X12640500Y-8352000D01*
X12721588Y-8338088D02*
X12721588Y-8270912D01*
X12654412Y-8270912D01*
X12654412Y-8338088D01*
X12721588Y-8338088D01*
X12890500Y-8257000D02*
X12985500Y-8352000D01*
X12985500Y-8257000D02*
X12890500Y-8352000D01*
X12971588Y-8338088D02*
X12971588Y-8270912D01*
X12904412Y-8270912D01*
X12904412Y-8338088D01*
X12971588Y-8338088D01*
X11301497Y-9684258D02*
X11401497Y-9784258D01*
X11401497Y-9684258D02*
X11301497Y-9784258D01*
X11351497Y-9784258D02*
X11401497Y-9734258D01*
X11351497Y-9684258D01*
X11301497Y-9734258D01*
X11351497Y-9784258D01*
X11301497Y-9938258D02*
X11401497Y-10038258D01*
X11401497Y-9938258D02*
X11301497Y-10038258D01*
X11351497Y-10038258D02*
X11401497Y-9988258D01*
X11351497Y-9938258D01*
X11301497Y-9988258D01*
X11351497Y-10038258D01*
X13532000Y-8255500D02*
X13632000Y-8355500D01*
X13632000Y-8255500D02*
X13532000Y-8355500D01*
X13582000Y-8355500D02*
X13632000Y-8305500D01*
X13582000Y-8255500D01*
X13532000Y-8305500D01*
X13582000Y-8355500D01*
X13782000Y-8255500D02*
X13882000Y-8355500D01*
X13882000Y-8255500D02*
X13782000Y-8355500D01*
X13832000Y-8355500D02*
X13882000Y-8305500D01*
X13832000Y-8255500D01*
X13782000Y-8305500D01*
X13832000Y-8355500D01*
X14423000Y-8255500D02*
X14523000Y-8355500D01*
X14523000Y-8255500D02*
X14423000Y-8355500D01*
X14473000Y-8355500D02*
X14523000Y-8305500D01*
X14473000Y-8255500D01*
X14423000Y-8305500D01*
X14473000Y-8355500D01*
X14673000Y-8255500D02*
X14773000Y-8355500D01*
X14773000Y-8255500D02*
X14673000Y-8355500D01*
X14723000Y-8355500D02*
X14773000Y-8305500D01*
X14723000Y-8255500D01*
X14673000Y-8305500D01*
X14723000Y-8355500D01*
X15319000Y-8254500D02*
X15419000Y-8354500D01*
X15419000Y-8254500D02*
X15319000Y-8354500D01*
X15369000Y-8354500D02*
X15419000Y-8304500D01*
X15369000Y-8254500D01*
X15319000Y-8304500D01*
X15369000Y-8354500D01*
X15569000Y-8254500D02*
X15669000Y-8354500D01*
X15669000Y-8254500D02*
X15569000Y-8354500D01*
X15619000Y-8354500D02*
X15669000Y-8304500D01*
X15619000Y-8254500D01*
X15569000Y-8304500D01*
X15619000Y-8354500D01*
X16213000Y-8253000D02*
X16313000Y-8353000D01*
X16313000Y-8253000D02*
X16213000Y-8353000D01*
X16263000Y-8353000D02*
X16313000Y-8303000D01*
X16263000Y-8253000D01*
X16213000Y-8303000D01*
X16263000Y-8353000D01*
X16463000Y-8253000D02*
X16563000Y-8353000D01*
X16563000Y-8253000D02*
X16463000Y-8353000D01*
X16513000Y-8353000D02*
X16563000Y-8303000D01*
X16513000Y-8253000D01*
X16463000Y-8303000D01*
X16513000Y-8353000D01*
X17672500Y-8980000D02*
X17772500Y-9080000D01*
X17772500Y-8980000D02*
X17672500Y-9080000D01*
X17722500Y-9080000D02*
X17772500Y-9030000D01*
X17722500Y-8980000D01*
X17672500Y-9030000D01*
X17722500Y-9080000D01*
X17672500Y-9234000D02*
X17772500Y-9334000D01*
X17772500Y-9234000D02*
X17672500Y-9334000D01*
X17722500Y-9334000D02*
X17772500Y-9284000D01*
X17722500Y-9234000D01*
X17672500Y-9284000D01*
X17722500Y-9334000D01*
D12*
X15791703Y-11557427D02*
X15791703Y-11727427D01*
X15706703Y-11642427D02*
X15876703Y-11642427D01*
X15876703Y-11642427D02*
G75*
G02*
X15706703Y-11642427I-85000J0D01*
G01*
X15706703Y-11642427D02*
G75*
G02*
X15876703Y-11642427I85000J0D01*
G01*
X16454713Y-11425546D02*
X16454713Y-11595546D01*
X16369713Y-11510546D02*
X16539713Y-11510546D01*
X16539713Y-11510546D02*
G75*
G02*
X16369713Y-11510546I-85000J0D01*
G01*
X16369713Y-11510546D02*
G75*
G02*
X16539713Y-11510546I85000J0D01*
G01*
X17395287Y-11238454D02*
X17395287Y-11408454D01*
X17310287Y-11323454D02*
X17480287Y-11323454D01*
X17480287Y-11323454D02*
G75*
G02*
X17310287Y-11323454I-85000J0D01*
G01*
X17310287Y-11323454D02*
G75*
G02*
X17480287Y-11323454I85000J0D01*
G01*
X18058297Y-11106573D02*
X18058297Y-11276573D01*
X17973297Y-11191573D02*
X18143297Y-11191573D01*
X18143297Y-11191573D02*
G75*
G02*
X17973297Y-11191573I-85000J0D01*
G01*
X17973297Y-11191573D02*
G75*
G02*
X18143297Y-11191573I85000J0D01*
G01*
D13*
X17310460Y-8405460D02*
X17310460Y-8214540D01*
X17119540Y-8214540D01*
X17119540Y-8405460D01*
X17310460Y-8405460D01*
X17350000Y-8310000D02*
G75*
G02*
X17080000Y-8310000I-135000J0D01*
G01*
X17080000Y-8310000D02*
G75*
G02*
X17350000Y-8310000I135000J0D01*
G01*
X17810460Y-8405460D02*
X17810460Y-8214540D01*
X17619540Y-8214540D01*
X17619540Y-8405460D01*
X17810460Y-8405460D01*
X17850000Y-8310000D02*
G75*
G02*
X17580000Y-8310000I-135000J0D01*
G01*
X17580000Y-8310000D02*
G75*
G02*
X17850000Y-8310000I135000J0D01*
G01*
D10*
X11250169Y-12423739D02*
X11250169Y-12223739D01*
X11250169Y-12223739D02*
X11297788Y-12223739D01*
X11297788Y-12223739D02*
X11326359Y-12233262D01*
X11326359Y-12233262D02*
X11345407Y-12252310D01*
X11345407Y-12252310D02*
X11354931Y-12271358D01*
X11354931Y-12271358D02*
X11364454Y-12309453D01*
X11364454Y-12309453D02*
X11364454Y-12338024D01*
X11364454Y-12338024D02*
X11354931Y-12376120D01*
X11354931Y-12376120D02*
X11345407Y-12395167D01*
X11345407Y-12395167D02*
X11326359Y-12414215D01*
X11326359Y-12414215D02*
X11297788Y-12423739D01*
X11297788Y-12423739D02*
X11250169Y-12423739D01*
X11450169Y-12423739D02*
X11450169Y-12290405D01*
X11450169Y-12328501D02*
X11459692Y-12309453D01*
X11459692Y-12309453D02*
X11469216Y-12299929D01*
X11469216Y-12299929D02*
X11488264Y-12290405D01*
X11488264Y-12290405D02*
X11507312Y-12290405D01*
X11573978Y-12423739D02*
X11573978Y-12290405D01*
X11573978Y-12223739D02*
X11564454Y-12233262D01*
X11564454Y-12233262D02*
X11573978Y-12242786D01*
X11573978Y-12242786D02*
X11583502Y-12233262D01*
X11583502Y-12233262D02*
X11573978Y-12223739D01*
X11573978Y-12223739D02*
X11573978Y-12242786D01*
X11697788Y-12423739D02*
X11678740Y-12414215D01*
X11678740Y-12414215D02*
X11669216Y-12395167D01*
X11669216Y-12395167D02*
X11669216Y-12223739D01*
X11802550Y-12423739D02*
X11783502Y-12414215D01*
X11783502Y-12414215D02*
X11773978Y-12395167D01*
X11773978Y-12395167D02*
X11773978Y-12223739D01*
X12031121Y-12423739D02*
X12031121Y-12223739D01*
X12031121Y-12223739D02*
X12097788Y-12366596D01*
X12097788Y-12366596D02*
X12164454Y-12223739D01*
X12164454Y-12223739D02*
X12164454Y-12423739D01*
X12345407Y-12423739D02*
X12345407Y-12318977D01*
X12345407Y-12318977D02*
X12335883Y-12299929D01*
X12335883Y-12299929D02*
X12316835Y-12290405D01*
X12316835Y-12290405D02*
X12278740Y-12290405D01*
X12278740Y-12290405D02*
X12259692Y-12299929D01*
X12345407Y-12414215D02*
X12326359Y-12423739D01*
X12326359Y-12423739D02*
X12278740Y-12423739D01*
X12278740Y-12423739D02*
X12259692Y-12414215D01*
X12259692Y-12414215D02*
X12250169Y-12395167D01*
X12250169Y-12395167D02*
X12250169Y-12376120D01*
X12250169Y-12376120D02*
X12259692Y-12357072D01*
X12259692Y-12357072D02*
X12278740Y-12347548D01*
X12278740Y-12347548D02*
X12326359Y-12347548D01*
X12326359Y-12347548D02*
X12345407Y-12338024D01*
X12440645Y-12290405D02*
X12440645Y-12490405D01*
X12440645Y-12299929D02*
X12459692Y-12290405D01*
X12459692Y-12290405D02*
X12497788Y-12290405D01*
X12497788Y-12290405D02*
X12516835Y-12299929D01*
X12516835Y-12299929D02*
X12526359Y-12309453D01*
X12526359Y-12309453D02*
X12535883Y-12328501D01*
X12535883Y-12328501D02*
X12535883Y-12385643D01*
X12535883Y-12385643D02*
X12526359Y-12404691D01*
X12526359Y-12404691D02*
X12516835Y-12414215D01*
X12516835Y-12414215D02*
X12497788Y-12423739D01*
X12497788Y-12423739D02*
X12459692Y-12423739D01*
X12459692Y-12423739D02*
X12440645Y-12414215D01*
X12621597Y-12404691D02*
X12631121Y-12414215D01*
X12631121Y-12414215D02*
X12621597Y-12423739D01*
X12621597Y-12423739D02*
X12612073Y-12414215D01*
X12612073Y-12414215D02*
X12621597Y-12404691D01*
X12621597Y-12404691D02*
X12621597Y-12423739D01*
X12621597Y-12299929D02*
X12631121Y-12309453D01*
X12631121Y-12309453D02*
X12621597Y-12318977D01*
X12621597Y-12318977D02*
X12612073Y-12309453D01*
X12612073Y-12309453D02*
X12621597Y-12299929D01*
X12621597Y-12299929D02*
X12621597Y-12318977D01*
D11*
X10959392Y-12737255D02*
X10989392Y-12767255D01*
X10989392Y-12737255D02*
X10959392Y-12767255D01*
D10*
X11288264Y-12643739D02*
X11307312Y-12643739D01*
X11307312Y-12643739D02*
X11326359Y-12653262D01*
X11326359Y-12653262D02*
X11335883Y-12662786D01*
X11335883Y-12662786D02*
X11345407Y-12681834D01*
X11345407Y-12681834D02*
X11354931Y-12719929D01*
X11354931Y-12719929D02*
X11354931Y-12767548D01*
X11354931Y-12767548D02*
X11345407Y-12805643D01*
X11345407Y-12805643D02*
X11335883Y-12824691D01*
X11335883Y-12824691D02*
X11326359Y-12834215D01*
X11326359Y-12834215D02*
X11307312Y-12843739D01*
X11307312Y-12843739D02*
X11288264Y-12843739D01*
X11288264Y-12843739D02*
X11269216Y-12834215D01*
X11269216Y-12834215D02*
X11259692Y-12824691D01*
X11259692Y-12824691D02*
X11250169Y-12805643D01*
X11250169Y-12805643D02*
X11240645Y-12767548D01*
X11240645Y-12767548D02*
X11240645Y-12719929D01*
X11240645Y-12719929D02*
X11250169Y-12681834D01*
X11250169Y-12681834D02*
X11259692Y-12662786D01*
X11259692Y-12662786D02*
X11269216Y-12653262D01*
X11269216Y-12653262D02*
X11288264Y-12643739D01*
X11440645Y-12824691D02*
X11450169Y-12834215D01*
X11450169Y-12834215D02*
X11440645Y-12843739D01*
X11440645Y-12843739D02*
X11431121Y-12834215D01*
X11431121Y-12834215D02*
X11440645Y-12824691D01*
X11440645Y-12824691D02*
X11440645Y-12843739D01*
X11516835Y-12643739D02*
X11640645Y-12643739D01*
X11640645Y-12643739D02*
X11573978Y-12719929D01*
X11573978Y-12719929D02*
X11602550Y-12719929D01*
X11602550Y-12719929D02*
X11621597Y-12729453D01*
X11621597Y-12729453D02*
X11631121Y-12738977D01*
X11631121Y-12738977D02*
X11640645Y-12758024D01*
X11640645Y-12758024D02*
X11640645Y-12805643D01*
X11640645Y-12805643D02*
X11631121Y-12824691D01*
X11631121Y-12824691D02*
X11621597Y-12834215D01*
X11621597Y-12834215D02*
X11602550Y-12843739D01*
X11602550Y-12843739D02*
X11545407Y-12843739D01*
X11545407Y-12843739D02*
X11526359Y-12834215D01*
X11526359Y-12834215D02*
X11516835Y-12824691D01*
X11764454Y-12643739D02*
X11783502Y-12643739D01*
X11783502Y-12643739D02*
X11802550Y-12653262D01*
X11802550Y-12653262D02*
X11812073Y-12662786D01*
X11812073Y-12662786D02*
X11821597Y-12681834D01*
X11821597Y-12681834D02*
X11831121Y-12719929D01*
X11831121Y-12719929D02*
X11831121Y-12767548D01*
X11831121Y-12767548D02*
X11821597Y-12805643D01*
X11821597Y-12805643D02*
X11812073Y-12824691D01*
X11812073Y-12824691D02*
X11802550Y-12834215D01*
X11802550Y-12834215D02*
X11783502Y-12843739D01*
X11783502Y-12843739D02*
X11764454Y-12843739D01*
X11764454Y-12843739D02*
X11745407Y-12834215D01*
X11745407Y-12834215D02*
X11735883Y-12824691D01*
X11735883Y-12824691D02*
X11726359Y-12805643D01*
X11726359Y-12805643D02*
X11716835Y-12767548D01*
X11716835Y-12767548D02*
X11716835Y-12719929D01*
X11716835Y-12719929D02*
X11726359Y-12681834D01*
X11726359Y-12681834D02*
X11735883Y-12662786D01*
X11735883Y-12662786D02*
X11745407Y-12653262D01*
X11745407Y-12653262D02*
X11764454Y-12643739D01*
X11954931Y-12643739D02*
X11973978Y-12643739D01*
X11973978Y-12643739D02*
X11993026Y-12653262D01*
X11993026Y-12653262D02*
X12002550Y-12662786D01*
X12002550Y-12662786D02*
X12012073Y-12681834D01*
X12012073Y-12681834D02*
X12021597Y-12719929D01*
X12021597Y-12719929D02*
X12021597Y-12767548D01*
X12021597Y-12767548D02*
X12012073Y-12805643D01*
X12012073Y-12805643D02*
X12002550Y-12824691D01*
X12002550Y-12824691D02*
X11993026Y-12834215D01*
X11993026Y-12834215D02*
X11973978Y-12843739D01*
X11973978Y-12843739D02*
X11954931Y-12843739D01*
X11954931Y-12843739D02*
X11935883Y-12834215D01*
X11935883Y-12834215D02*
X11926359Y-12824691D01*
X11926359Y-12824691D02*
X11916835Y-12805643D01*
X11916835Y-12805643D02*
X11907312Y-12767548D01*
X11907312Y-12767548D02*
X11907312Y-12719929D01*
X11907312Y-12719929D02*
X11916835Y-12681834D01*
X11916835Y-12681834D02*
X11926359Y-12662786D01*
X11926359Y-12662786D02*
X11935883Y-12653262D01*
X11935883Y-12653262D02*
X11954931Y-12643739D01*
X12107312Y-12843739D02*
X12107312Y-12710405D01*
X12107312Y-12729453D02*
X12116835Y-12719929D01*
X12116835Y-12719929D02*
X12135883Y-12710405D01*
X12135883Y-12710405D02*
X12164454Y-12710405D01*
X12164454Y-12710405D02*
X12183502Y-12719929D01*
X12183502Y-12719929D02*
X12193026Y-12738977D01*
X12193026Y-12738977D02*
X12193026Y-12843739D01*
X12193026Y-12738977D02*
X12202550Y-12719929D01*
X12202550Y-12719929D02*
X12221597Y-12710405D01*
X12221597Y-12710405D02*
X12250169Y-12710405D01*
X12250169Y-12710405D02*
X12269216Y-12719929D01*
X12269216Y-12719929D02*
X12278740Y-12738977D01*
X12278740Y-12738977D02*
X12278740Y-12843739D01*
X12373978Y-12843739D02*
X12373978Y-12710405D01*
X12373978Y-12729453D02*
X12383502Y-12719929D01*
X12383502Y-12719929D02*
X12402550Y-12710405D01*
X12402550Y-12710405D02*
X12431121Y-12710405D01*
X12431121Y-12710405D02*
X12450169Y-12719929D01*
X12450169Y-12719929D02*
X12459693Y-12738977D01*
X12459693Y-12738977D02*
X12459693Y-12843739D01*
X12459693Y-12738977D02*
X12469216Y-12719929D01*
X12469216Y-12719929D02*
X12488264Y-12710405D01*
X12488264Y-12710405D02*
X12516835Y-12710405D01*
X12516835Y-12710405D02*
X12535883Y-12719929D01*
X12535883Y-12719929D02*
X12545407Y-12738977D01*
X12545407Y-12738977D02*
X12545407Y-12843739D01*
X12935883Y-12634215D02*
X12764455Y-12891358D01*
X13193026Y-12643739D02*
X13212074Y-12643739D01*
X13212074Y-12643739D02*
X13231121Y-12653262D01*
X13231121Y-12653262D02*
X13240645Y-12662786D01*
X13240645Y-12662786D02*
X13250169Y-12681834D01*
X13250169Y-12681834D02*
X13259693Y-12719929D01*
X13259693Y-12719929D02*
X13259693Y-12767548D01*
X13259693Y-12767548D02*
X13250169Y-12805643D01*
X13250169Y-12805643D02*
X13240645Y-12824691D01*
X13240645Y-12824691D02*
X13231121Y-12834215D01*
X13231121Y-12834215D02*
X13212074Y-12843739D01*
X13212074Y-12843739D02*
X13193026Y-12843739D01*
X13193026Y-12843739D02*
X13173978Y-12834215D01*
X13173978Y-12834215D02*
X13164455Y-12824691D01*
X13164455Y-12824691D02*
X13154931Y-12805643D01*
X13154931Y-12805643D02*
X13145407Y-12767548D01*
X13145407Y-12767548D02*
X13145407Y-12719929D01*
X13145407Y-12719929D02*
X13154931Y-12681834D01*
X13154931Y-12681834D02*
X13164455Y-12662786D01*
X13164455Y-12662786D02*
X13173978Y-12653262D01*
X13173978Y-12653262D02*
X13193026Y-12643739D01*
X13345407Y-12824691D02*
X13354931Y-12834215D01*
X13354931Y-12834215D02*
X13345407Y-12843739D01*
X13345407Y-12843739D02*
X13335883Y-12834215D01*
X13335883Y-12834215D02*
X13345407Y-12824691D01*
X13345407Y-12824691D02*
X13345407Y-12843739D01*
X13478740Y-12643739D02*
X13497788Y-12643739D01*
X13497788Y-12643739D02*
X13516836Y-12653262D01*
X13516836Y-12653262D02*
X13526359Y-12662786D01*
X13526359Y-12662786D02*
X13535883Y-12681834D01*
X13535883Y-12681834D02*
X13545407Y-12719929D01*
X13545407Y-12719929D02*
X13545407Y-12767548D01*
X13545407Y-12767548D02*
X13535883Y-12805643D01*
X13535883Y-12805643D02*
X13526359Y-12824691D01*
X13526359Y-12824691D02*
X13516836Y-12834215D01*
X13516836Y-12834215D02*
X13497788Y-12843739D01*
X13497788Y-12843739D02*
X13478740Y-12843739D01*
X13478740Y-12843739D02*
X13459693Y-12834215D01*
X13459693Y-12834215D02*
X13450169Y-12824691D01*
X13450169Y-12824691D02*
X13440645Y-12805643D01*
X13440645Y-12805643D02*
X13431121Y-12767548D01*
X13431121Y-12767548D02*
X13431121Y-12719929D01*
X13431121Y-12719929D02*
X13440645Y-12681834D01*
X13440645Y-12681834D02*
X13450169Y-12662786D01*
X13450169Y-12662786D02*
X13459693Y-12653262D01*
X13459693Y-12653262D02*
X13478740Y-12643739D01*
X13735883Y-12843739D02*
X13621597Y-12843739D01*
X13678740Y-12843739D02*
X13678740Y-12643739D01*
X13678740Y-12643739D02*
X13659693Y-12672310D01*
X13659693Y-12672310D02*
X13640645Y-12691358D01*
X13640645Y-12691358D02*
X13621597Y-12700881D01*
X13926359Y-12843739D02*
X13812074Y-12843739D01*
X13869216Y-12843739D02*
X13869216Y-12643739D01*
X13869216Y-12643739D02*
X13850169Y-12672310D01*
X13850169Y-12672310D02*
X13831121Y-12691358D01*
X13831121Y-12691358D02*
X13812074Y-12700881D01*
X14040645Y-12729453D02*
X14021597Y-12719929D01*
X14021597Y-12719929D02*
X14012074Y-12710405D01*
X14012074Y-12710405D02*
X14002550Y-12691358D01*
X14002550Y-12691358D02*
X14002550Y-12681834D01*
X14002550Y-12681834D02*
X14012074Y-12662786D01*
X14012074Y-12662786D02*
X14021597Y-12653262D01*
X14021597Y-12653262D02*
X14040645Y-12643739D01*
X14040645Y-12643739D02*
X14078740Y-12643739D01*
X14078740Y-12643739D02*
X14097788Y-12653262D01*
X14097788Y-12653262D02*
X14107312Y-12662786D01*
X14107312Y-12662786D02*
X14116836Y-12681834D01*
X14116836Y-12681834D02*
X14116836Y-12691358D01*
X14116836Y-12691358D02*
X14107312Y-12710405D01*
X14107312Y-12710405D02*
X14097788Y-12719929D01*
X14097788Y-12719929D02*
X14078740Y-12729453D01*
X14078740Y-12729453D02*
X14040645Y-12729453D01*
X14040645Y-12729453D02*
X14021597Y-12738977D01*
X14021597Y-12738977D02*
X14012074Y-12748501D01*
X14012074Y-12748501D02*
X14002550Y-12767548D01*
X14002550Y-12767548D02*
X14002550Y-12805643D01*
X14002550Y-12805643D02*
X14012074Y-12824691D01*
X14012074Y-12824691D02*
X14021597Y-12834215D01*
X14021597Y-12834215D02*
X14040645Y-12843739D01*
X14040645Y-12843739D02*
X14078740Y-12843739D01*
X14078740Y-12843739D02*
X14097788Y-12834215D01*
X14097788Y-12834215D02*
X14107312Y-12824691D01*
X14107312Y-12824691D02*
X14116836Y-12805643D01*
X14116836Y-12805643D02*
X14116836Y-12767548D01*
X14116836Y-12767548D02*
X14107312Y-12748501D01*
X14107312Y-12748501D02*
X14097788Y-12738977D01*
X14097788Y-12738977D02*
X14078740Y-12729453D01*
X14193026Y-12643739D02*
X14193026Y-12681834D01*
X14269217Y-12643739D02*
X14269217Y-12681834D01*
X14564455Y-12919929D02*
X14554931Y-12910405D01*
X14554931Y-12910405D02*
X14535883Y-12881834D01*
X14535883Y-12881834D02*
X14526359Y-12862786D01*
X14526359Y-12862786D02*
X14516836Y-12834215D01*
X14516836Y-12834215D02*
X14507312Y-12786596D01*
X14507312Y-12786596D02*
X14507312Y-12748501D01*
X14507312Y-12748501D02*
X14516836Y-12700881D01*
X14516836Y-12700881D02*
X14526359Y-12672310D01*
X14526359Y-12672310D02*
X14535883Y-12653262D01*
X14535883Y-12653262D02*
X14554931Y-12624691D01*
X14554931Y-12624691D02*
X14564455Y-12615167D01*
X14745407Y-12843739D02*
X14631121Y-12843739D01*
X14688264Y-12843739D02*
X14688264Y-12643739D01*
X14688264Y-12643739D02*
X14669217Y-12672310D01*
X14669217Y-12672310D02*
X14650169Y-12691358D01*
X14650169Y-12691358D02*
X14631121Y-12700881D01*
X14935883Y-12843739D02*
X14821598Y-12843739D01*
X14878740Y-12843739D02*
X14878740Y-12643739D01*
X14878740Y-12643739D02*
X14859693Y-12672310D01*
X14859693Y-12672310D02*
X14840645Y-12691358D01*
X14840645Y-12691358D02*
X14821598Y-12700881D01*
X15050169Y-12729453D02*
X15031121Y-12719929D01*
X15031121Y-12719929D02*
X15021598Y-12710405D01*
X15021598Y-12710405D02*
X15012074Y-12691358D01*
X15012074Y-12691358D02*
X15012074Y-12681834D01*
X15012074Y-12681834D02*
X15021598Y-12662786D01*
X15021598Y-12662786D02*
X15031121Y-12653262D01*
X15031121Y-12653262D02*
X15050169Y-12643739D01*
X15050169Y-12643739D02*
X15088264Y-12643739D01*
X15088264Y-12643739D02*
X15107312Y-12653262D01*
X15107312Y-12653262D02*
X15116836Y-12662786D01*
X15116836Y-12662786D02*
X15126359Y-12681834D01*
X15126359Y-12681834D02*
X15126359Y-12691358D01*
X15126359Y-12691358D02*
X15116836Y-12710405D01*
X15116836Y-12710405D02*
X15107312Y-12719929D01*
X15107312Y-12719929D02*
X15088264Y-12729453D01*
X15088264Y-12729453D02*
X15050169Y-12729453D01*
X15050169Y-12729453D02*
X15031121Y-12738977D01*
X15031121Y-12738977D02*
X15021598Y-12748501D01*
X15021598Y-12748501D02*
X15012074Y-12767548D01*
X15012074Y-12767548D02*
X15012074Y-12805643D01*
X15012074Y-12805643D02*
X15021598Y-12824691D01*
X15021598Y-12824691D02*
X15031121Y-12834215D01*
X15031121Y-12834215D02*
X15050169Y-12843739D01*
X15050169Y-12843739D02*
X15088264Y-12843739D01*
X15088264Y-12843739D02*
X15107312Y-12834215D01*
X15107312Y-12834215D02*
X15116836Y-12824691D01*
X15116836Y-12824691D02*
X15126359Y-12805643D01*
X15126359Y-12805643D02*
X15126359Y-12767548D01*
X15126359Y-12767548D02*
X15116836Y-12748501D01*
X15116836Y-12748501D02*
X15107312Y-12738977D01*
X15107312Y-12738977D02*
X15088264Y-12729453D01*
X15364455Y-12843739D02*
X15364455Y-12643739D01*
X15450169Y-12843739D02*
X15450169Y-12738977D01*
X15450169Y-12738977D02*
X15440645Y-12719929D01*
X15440645Y-12719929D02*
X15421598Y-12710405D01*
X15421598Y-12710405D02*
X15393026Y-12710405D01*
X15393026Y-12710405D02*
X15373979Y-12719929D01*
X15373979Y-12719929D02*
X15364455Y-12729453D01*
X15573979Y-12843739D02*
X15554931Y-12834215D01*
X15554931Y-12834215D02*
X15545407Y-12824691D01*
X15545407Y-12824691D02*
X15535883Y-12805643D01*
X15535883Y-12805643D02*
X15535883Y-12748501D01*
X15535883Y-12748501D02*
X15545407Y-12729453D01*
X15545407Y-12729453D02*
X15554931Y-12719929D01*
X15554931Y-12719929D02*
X15573979Y-12710405D01*
X15573979Y-12710405D02*
X15602550Y-12710405D01*
X15602550Y-12710405D02*
X15621598Y-12719929D01*
X15621598Y-12719929D02*
X15631121Y-12729453D01*
X15631121Y-12729453D02*
X15640645Y-12748501D01*
X15640645Y-12748501D02*
X15640645Y-12805643D01*
X15640645Y-12805643D02*
X15631121Y-12824691D01*
X15631121Y-12824691D02*
X15621598Y-12834215D01*
X15621598Y-12834215D02*
X15602550Y-12843739D01*
X15602550Y-12843739D02*
X15573979Y-12843739D01*
X15754931Y-12843739D02*
X15735883Y-12834215D01*
X15735883Y-12834215D02*
X15726360Y-12815167D01*
X15726360Y-12815167D02*
X15726360Y-12643739D01*
X15907312Y-12834215D02*
X15888264Y-12843739D01*
X15888264Y-12843739D02*
X15850169Y-12843739D01*
X15850169Y-12843739D02*
X15831121Y-12834215D01*
X15831121Y-12834215D02*
X15821598Y-12815167D01*
X15821598Y-12815167D02*
X15821598Y-12738977D01*
X15821598Y-12738977D02*
X15831121Y-12719929D01*
X15831121Y-12719929D02*
X15850169Y-12710405D01*
X15850169Y-12710405D02*
X15888264Y-12710405D01*
X15888264Y-12710405D02*
X15907312Y-12719929D01*
X15907312Y-12719929D02*
X15916836Y-12738977D01*
X15916836Y-12738977D02*
X15916836Y-12758024D01*
X15916836Y-12758024D02*
X15821598Y-12777072D01*
X15993026Y-12834215D02*
X16012074Y-12843739D01*
X16012074Y-12843739D02*
X16050169Y-12843739D01*
X16050169Y-12843739D02*
X16069217Y-12834215D01*
X16069217Y-12834215D02*
X16078741Y-12815167D01*
X16078741Y-12815167D02*
X16078741Y-12805643D01*
X16078741Y-12805643D02*
X16069217Y-12786596D01*
X16069217Y-12786596D02*
X16050169Y-12777072D01*
X16050169Y-12777072D02*
X16021598Y-12777072D01*
X16021598Y-12777072D02*
X16002550Y-12767548D01*
X16002550Y-12767548D02*
X15993026Y-12748501D01*
X15993026Y-12748501D02*
X15993026Y-12738977D01*
X15993026Y-12738977D02*
X16002550Y-12719929D01*
X16002550Y-12719929D02*
X16021598Y-12710405D01*
X16021598Y-12710405D02*
X16050169Y-12710405D01*
X16050169Y-12710405D02*
X16069217Y-12719929D01*
X16145407Y-12919929D02*
X16154931Y-12910405D01*
X16154931Y-12910405D02*
X16173979Y-12881834D01*
X16173979Y-12881834D02*
X16183502Y-12862786D01*
X16183502Y-12862786D02*
X16193026Y-12834215D01*
X16193026Y-12834215D02*
X16202550Y-12786596D01*
X16202550Y-12786596D02*
X16202550Y-12748501D01*
X16202550Y-12748501D02*
X16193026Y-12700881D01*
X16193026Y-12700881D02*
X16183502Y-12672310D01*
X16183502Y-12672310D02*
X16173979Y-12653262D01*
X16173979Y-12653262D02*
X16154931Y-12624691D01*
X16154931Y-12624691D02*
X16145407Y-12615167D01*
D11*
X10989392Y-13016255D02*
G75*
G02*
X10949392Y-13016255I-20000J0D01*
G01*
X10949392Y-13016255D02*
G75*
G02*
X10989392Y-13016255I20000J0D01*
G01*
D10*
X11288264Y-12907739D02*
X11307312Y-12907739D01*
X11307312Y-12907739D02*
X11326359Y-12917262D01*
X11326359Y-12917262D02*
X11335883Y-12926786D01*
X11335883Y-12926786D02*
X11345407Y-12945834D01*
X11345407Y-12945834D02*
X11354931Y-12983929D01*
X11354931Y-12983929D02*
X11354931Y-13031548D01*
X11354931Y-13031548D02*
X11345407Y-13069643D01*
X11345407Y-13069643D02*
X11335883Y-13088691D01*
X11335883Y-13088691D02*
X11326359Y-13098215D01*
X11326359Y-13098215D02*
X11307312Y-13107739D01*
X11307312Y-13107739D02*
X11288264Y-13107739D01*
X11288264Y-13107739D02*
X11269216Y-13098215D01*
X11269216Y-13098215D02*
X11259692Y-13088691D01*
X11259692Y-13088691D02*
X11250169Y-13069643D01*
X11250169Y-13069643D02*
X11240645Y-13031548D01*
X11240645Y-13031548D02*
X11240645Y-12983929D01*
X11240645Y-12983929D02*
X11250169Y-12945834D01*
X11250169Y-12945834D02*
X11259692Y-12926786D01*
X11259692Y-12926786D02*
X11269216Y-12917262D01*
X11269216Y-12917262D02*
X11288264Y-12907739D01*
X11440645Y-13088691D02*
X11450169Y-13098215D01*
X11450169Y-13098215D02*
X11440645Y-13107739D01*
X11440645Y-13107739D02*
X11431121Y-13098215D01*
X11431121Y-13098215D02*
X11440645Y-13088691D01*
X11440645Y-13088691D02*
X11440645Y-13107739D01*
X11621597Y-12974405D02*
X11621597Y-13107739D01*
X11573978Y-12898215D02*
X11526359Y-13041072D01*
X11526359Y-13041072D02*
X11650169Y-13041072D01*
X11764454Y-12907739D02*
X11783502Y-12907739D01*
X11783502Y-12907739D02*
X11802550Y-12917262D01*
X11802550Y-12917262D02*
X11812073Y-12926786D01*
X11812073Y-12926786D02*
X11821597Y-12945834D01*
X11821597Y-12945834D02*
X11831121Y-12983929D01*
X11831121Y-12983929D02*
X11831121Y-13031548D01*
X11831121Y-13031548D02*
X11821597Y-13069643D01*
X11821597Y-13069643D02*
X11812073Y-13088691D01*
X11812073Y-13088691D02*
X11802550Y-13098215D01*
X11802550Y-13098215D02*
X11783502Y-13107739D01*
X11783502Y-13107739D02*
X11764454Y-13107739D01*
X11764454Y-13107739D02*
X11745407Y-13098215D01*
X11745407Y-13098215D02*
X11735883Y-13088691D01*
X11735883Y-13088691D02*
X11726359Y-13069643D01*
X11726359Y-13069643D02*
X11716835Y-13031548D01*
X11716835Y-13031548D02*
X11716835Y-12983929D01*
X11716835Y-12983929D02*
X11726359Y-12945834D01*
X11726359Y-12945834D02*
X11735883Y-12926786D01*
X11735883Y-12926786D02*
X11745407Y-12917262D01*
X11745407Y-12917262D02*
X11764454Y-12907739D01*
X11954931Y-12907739D02*
X11973978Y-12907739D01*
X11973978Y-12907739D02*
X11993026Y-12917262D01*
X11993026Y-12917262D02*
X12002550Y-12926786D01*
X12002550Y-12926786D02*
X12012073Y-12945834D01*
X12012073Y-12945834D02*
X12021597Y-12983929D01*
X12021597Y-12983929D02*
X12021597Y-13031548D01*
X12021597Y-13031548D02*
X12012073Y-13069643D01*
X12012073Y-13069643D02*
X12002550Y-13088691D01*
X12002550Y-13088691D02*
X11993026Y-13098215D01*
X11993026Y-13098215D02*
X11973978Y-13107739D01*
X11973978Y-13107739D02*
X11954931Y-13107739D01*
X11954931Y-13107739D02*
X11935883Y-13098215D01*
X11935883Y-13098215D02*
X11926359Y-13088691D01*
X11926359Y-13088691D02*
X11916835Y-13069643D01*
X11916835Y-13069643D02*
X11907312Y-13031548D01*
X11907312Y-13031548D02*
X11907312Y-12983929D01*
X11907312Y-12983929D02*
X11916835Y-12945834D01*
X11916835Y-12945834D02*
X11926359Y-12926786D01*
X11926359Y-12926786D02*
X11935883Y-12917262D01*
X11935883Y-12917262D02*
X11954931Y-12907739D01*
X12107312Y-13107739D02*
X12107312Y-12974405D01*
X12107312Y-12993453D02*
X12116835Y-12983929D01*
X12116835Y-12983929D02*
X12135883Y-12974405D01*
X12135883Y-12974405D02*
X12164454Y-12974405D01*
X12164454Y-12974405D02*
X12183502Y-12983929D01*
X12183502Y-12983929D02*
X12193026Y-13002977D01*
X12193026Y-13002977D02*
X12193026Y-13107739D01*
X12193026Y-13002977D02*
X12202550Y-12983929D01*
X12202550Y-12983929D02*
X12221597Y-12974405D01*
X12221597Y-12974405D02*
X12250169Y-12974405D01*
X12250169Y-12974405D02*
X12269216Y-12983929D01*
X12269216Y-12983929D02*
X12278740Y-13002977D01*
X12278740Y-13002977D02*
X12278740Y-13107739D01*
X12373978Y-13107739D02*
X12373978Y-12974405D01*
X12373978Y-12993453D02*
X12383502Y-12983929D01*
X12383502Y-12983929D02*
X12402550Y-12974405D01*
X12402550Y-12974405D02*
X12431121Y-12974405D01*
X12431121Y-12974405D02*
X12450169Y-12983929D01*
X12450169Y-12983929D02*
X12459693Y-13002977D01*
X12459693Y-13002977D02*
X12459693Y-13107739D01*
X12459693Y-13002977D02*
X12469216Y-12983929D01*
X12469216Y-12983929D02*
X12488264Y-12974405D01*
X12488264Y-12974405D02*
X12516835Y-12974405D01*
X12516835Y-12974405D02*
X12535883Y-12983929D01*
X12535883Y-12983929D02*
X12545407Y-13002977D01*
X12545407Y-13002977D02*
X12545407Y-13107739D01*
X12935883Y-12898215D02*
X12764455Y-13155358D01*
X13193026Y-12907739D02*
X13212074Y-12907739D01*
X13212074Y-12907739D02*
X13231121Y-12917262D01*
X13231121Y-12917262D02*
X13240645Y-12926786D01*
X13240645Y-12926786D02*
X13250169Y-12945834D01*
X13250169Y-12945834D02*
X13259693Y-12983929D01*
X13259693Y-12983929D02*
X13259693Y-13031548D01*
X13259693Y-13031548D02*
X13250169Y-13069643D01*
X13250169Y-13069643D02*
X13240645Y-13088691D01*
X13240645Y-13088691D02*
X13231121Y-13098215D01*
X13231121Y-13098215D02*
X13212074Y-13107739D01*
X13212074Y-13107739D02*
X13193026Y-13107739D01*
X13193026Y-13107739D02*
X13173978Y-13098215D01*
X13173978Y-13098215D02*
X13164455Y-13088691D01*
X13164455Y-13088691D02*
X13154931Y-13069643D01*
X13154931Y-13069643D02*
X13145407Y-13031548D01*
X13145407Y-13031548D02*
X13145407Y-12983929D01*
X13145407Y-12983929D02*
X13154931Y-12945834D01*
X13154931Y-12945834D02*
X13164455Y-12926786D01*
X13164455Y-12926786D02*
X13173978Y-12917262D01*
X13173978Y-12917262D02*
X13193026Y-12907739D01*
X13345407Y-13088691D02*
X13354931Y-13098215D01*
X13354931Y-13098215D02*
X13345407Y-13107739D01*
X13345407Y-13107739D02*
X13335883Y-13098215D01*
X13335883Y-13098215D02*
X13345407Y-13088691D01*
X13345407Y-13088691D02*
X13345407Y-13107739D01*
X13478740Y-12907739D02*
X13497788Y-12907739D01*
X13497788Y-12907739D02*
X13516836Y-12917262D01*
X13516836Y-12917262D02*
X13526359Y-12926786D01*
X13526359Y-12926786D02*
X13535883Y-12945834D01*
X13535883Y-12945834D02*
X13545407Y-12983929D01*
X13545407Y-12983929D02*
X13545407Y-13031548D01*
X13545407Y-13031548D02*
X13535883Y-13069643D01*
X13535883Y-13069643D02*
X13526359Y-13088691D01*
X13526359Y-13088691D02*
X13516836Y-13098215D01*
X13516836Y-13098215D02*
X13497788Y-13107739D01*
X13497788Y-13107739D02*
X13478740Y-13107739D01*
X13478740Y-13107739D02*
X13459693Y-13098215D01*
X13459693Y-13098215D02*
X13450169Y-13088691D01*
X13450169Y-13088691D02*
X13440645Y-13069643D01*
X13440645Y-13069643D02*
X13431121Y-13031548D01*
X13431121Y-13031548D02*
X13431121Y-12983929D01*
X13431121Y-12983929D02*
X13440645Y-12945834D01*
X13440645Y-12945834D02*
X13450169Y-12926786D01*
X13450169Y-12926786D02*
X13459693Y-12917262D01*
X13459693Y-12917262D02*
X13478740Y-12907739D01*
X13735883Y-13107739D02*
X13621597Y-13107739D01*
X13678740Y-13107739D02*
X13678740Y-12907739D01*
X13678740Y-12907739D02*
X13659693Y-12936310D01*
X13659693Y-12936310D02*
X13640645Y-12955358D01*
X13640645Y-12955358D02*
X13621597Y-12964881D01*
X13916836Y-12907739D02*
X13821597Y-12907739D01*
X13821597Y-12907739D02*
X13812074Y-13002977D01*
X13812074Y-13002977D02*
X13821597Y-12993453D01*
X13821597Y-12993453D02*
X13840645Y-12983929D01*
X13840645Y-12983929D02*
X13888264Y-12983929D01*
X13888264Y-12983929D02*
X13907312Y-12993453D01*
X13907312Y-12993453D02*
X13916836Y-13002977D01*
X13916836Y-13002977D02*
X13926359Y-13022024D01*
X13926359Y-13022024D02*
X13926359Y-13069643D01*
X13926359Y-13069643D02*
X13916836Y-13088691D01*
X13916836Y-13088691D02*
X13907312Y-13098215D01*
X13907312Y-13098215D02*
X13888264Y-13107739D01*
X13888264Y-13107739D02*
X13840645Y-13107739D01*
X13840645Y-13107739D02*
X13821597Y-13098215D01*
X13821597Y-13098215D02*
X13812074Y-13088691D01*
X13993026Y-12907739D02*
X14126359Y-12907739D01*
X14126359Y-12907739D02*
X14040645Y-13107739D01*
X14193026Y-12907739D02*
X14193026Y-12945834D01*
X14269217Y-12907739D02*
X14269217Y-12945834D01*
X14564455Y-13183929D02*
X14554931Y-13174405D01*
X14554931Y-13174405D02*
X14535883Y-13145834D01*
X14535883Y-13145834D02*
X14526359Y-13126786D01*
X14526359Y-13126786D02*
X14516836Y-13098215D01*
X14516836Y-13098215D02*
X14507312Y-13050596D01*
X14507312Y-13050596D02*
X14507312Y-13012501D01*
X14507312Y-13012501D02*
X14516836Y-12964881D01*
X14516836Y-12964881D02*
X14526359Y-12936310D01*
X14526359Y-12936310D02*
X14535883Y-12917262D01*
X14535883Y-12917262D02*
X14554931Y-12888691D01*
X14554931Y-12888691D02*
X14564455Y-12879167D01*
X14745407Y-13107739D02*
X14631121Y-13107739D01*
X14688264Y-13107739D02*
X14688264Y-12907739D01*
X14688264Y-12907739D02*
X14669217Y-12936310D01*
X14669217Y-12936310D02*
X14650169Y-12955358D01*
X14650169Y-12955358D02*
X14631121Y-12964881D01*
X14983502Y-13107739D02*
X14983502Y-12907739D01*
X15069217Y-13107739D02*
X15069217Y-13002977D01*
X15069217Y-13002977D02*
X15059693Y-12983929D01*
X15059693Y-12983929D02*
X15040645Y-12974405D01*
X15040645Y-12974405D02*
X15012074Y-12974405D01*
X15012074Y-12974405D02*
X14993026Y-12983929D01*
X14993026Y-12983929D02*
X14983502Y-12993453D01*
X15193026Y-13107739D02*
X15173979Y-13098215D01*
X15173979Y-13098215D02*
X15164455Y-13088691D01*
X15164455Y-13088691D02*
X15154931Y-13069643D01*
X15154931Y-13069643D02*
X15154931Y-13012501D01*
X15154931Y-13012501D02*
X15164455Y-12993453D01*
X15164455Y-12993453D02*
X15173979Y-12983929D01*
X15173979Y-12983929D02*
X15193026Y-12974405D01*
X15193026Y-12974405D02*
X15221598Y-12974405D01*
X15221598Y-12974405D02*
X15240645Y-12983929D01*
X15240645Y-12983929D02*
X15250169Y-12993453D01*
X15250169Y-12993453D02*
X15259693Y-13012501D01*
X15259693Y-13012501D02*
X15259693Y-13069643D01*
X15259693Y-13069643D02*
X15250169Y-13088691D01*
X15250169Y-13088691D02*
X15240645Y-13098215D01*
X15240645Y-13098215D02*
X15221598Y-13107739D01*
X15221598Y-13107739D02*
X15193026Y-13107739D01*
X15373979Y-13107739D02*
X15354931Y-13098215D01*
X15354931Y-13098215D02*
X15345407Y-13079167D01*
X15345407Y-13079167D02*
X15345407Y-12907739D01*
X15526360Y-13098215D02*
X15507312Y-13107739D01*
X15507312Y-13107739D02*
X15469217Y-13107739D01*
X15469217Y-13107739D02*
X15450169Y-13098215D01*
X15450169Y-13098215D02*
X15440645Y-13079167D01*
X15440645Y-13079167D02*
X15440645Y-13002977D01*
X15440645Y-13002977D02*
X15450169Y-12983929D01*
X15450169Y-12983929D02*
X15469217Y-12974405D01*
X15469217Y-12974405D02*
X15507312Y-12974405D01*
X15507312Y-12974405D02*
X15526360Y-12983929D01*
X15526360Y-12983929D02*
X15535883Y-13002977D01*
X15535883Y-13002977D02*
X15535883Y-13022024D01*
X15535883Y-13022024D02*
X15440645Y-13041072D01*
X15602550Y-13183929D02*
X15612074Y-13174405D01*
X15612074Y-13174405D02*
X15631121Y-13145834D01*
X15631121Y-13145834D02*
X15640645Y-13126786D01*
X15640645Y-13126786D02*
X15650169Y-13098215D01*
X15650169Y-13098215D02*
X15659693Y-13050596D01*
X15659693Y-13050596D02*
X15659693Y-13012501D01*
X15659693Y-13012501D02*
X15650169Y-12964881D01*
X15650169Y-12964881D02*
X15640645Y-12936310D01*
X15640645Y-12936310D02*
X15631121Y-12917262D01*
X15631121Y-12917262D02*
X15612074Y-12888691D01*
X15612074Y-12888691D02*
X15602550Y-12879167D01*
D11*
X10964392Y-13255255D02*
X10964392Y-13305255D01*
X10939392Y-13280255D02*
X10989392Y-13280255D01*
D10*
X11288264Y-13171739D02*
X11307312Y-13171739D01*
X11307312Y-13171739D02*
X11326359Y-13181262D01*
X11326359Y-13181262D02*
X11335883Y-13190786D01*
X11335883Y-13190786D02*
X11345407Y-13209834D01*
X11345407Y-13209834D02*
X11354931Y-13247929D01*
X11354931Y-13247929D02*
X11354931Y-13295548D01*
X11354931Y-13295548D02*
X11345407Y-13333643D01*
X11345407Y-13333643D02*
X11335883Y-13352691D01*
X11335883Y-13352691D02*
X11326359Y-13362215D01*
X11326359Y-13362215D02*
X11307312Y-13371739D01*
X11307312Y-13371739D02*
X11288264Y-13371739D01*
X11288264Y-13371739D02*
X11269216Y-13362215D01*
X11269216Y-13362215D02*
X11259692Y-13352691D01*
X11259692Y-13352691D02*
X11250169Y-13333643D01*
X11250169Y-13333643D02*
X11240645Y-13295548D01*
X11240645Y-13295548D02*
X11240645Y-13247929D01*
X11240645Y-13247929D02*
X11250169Y-13209834D01*
X11250169Y-13209834D02*
X11259692Y-13190786D01*
X11259692Y-13190786D02*
X11269216Y-13181262D01*
X11269216Y-13181262D02*
X11288264Y-13171739D01*
X11440645Y-13352691D02*
X11450169Y-13362215D01*
X11450169Y-13362215D02*
X11440645Y-13371739D01*
X11440645Y-13371739D02*
X11431121Y-13362215D01*
X11431121Y-13362215D02*
X11440645Y-13352691D01*
X11440645Y-13352691D02*
X11440645Y-13371739D01*
X11631121Y-13171739D02*
X11535883Y-13171739D01*
X11535883Y-13171739D02*
X11526359Y-13266977D01*
X11526359Y-13266977D02*
X11535883Y-13257453D01*
X11535883Y-13257453D02*
X11554931Y-13247929D01*
X11554931Y-13247929D02*
X11602550Y-13247929D01*
X11602550Y-13247929D02*
X11621597Y-13257453D01*
X11621597Y-13257453D02*
X11631121Y-13266977D01*
X11631121Y-13266977D02*
X11640645Y-13286024D01*
X11640645Y-13286024D02*
X11640645Y-13333643D01*
X11640645Y-13333643D02*
X11631121Y-13352691D01*
X11631121Y-13352691D02*
X11621597Y-13362215D01*
X11621597Y-13362215D02*
X11602550Y-13371739D01*
X11602550Y-13371739D02*
X11554931Y-13371739D01*
X11554931Y-13371739D02*
X11535883Y-13362215D01*
X11535883Y-13362215D02*
X11526359Y-13352691D01*
X11764454Y-13171739D02*
X11783502Y-13171739D01*
X11783502Y-13171739D02*
X11802550Y-13181262D01*
X11802550Y-13181262D02*
X11812073Y-13190786D01*
X11812073Y-13190786D02*
X11821597Y-13209834D01*
X11821597Y-13209834D02*
X11831121Y-13247929D01*
X11831121Y-13247929D02*
X11831121Y-13295548D01*
X11831121Y-13295548D02*
X11821597Y-13333643D01*
X11821597Y-13333643D02*
X11812073Y-13352691D01*
X11812073Y-13352691D02*
X11802550Y-13362215D01*
X11802550Y-13362215D02*
X11783502Y-13371739D01*
X11783502Y-13371739D02*
X11764454Y-13371739D01*
X11764454Y-13371739D02*
X11745407Y-13362215D01*
X11745407Y-13362215D02*
X11735883Y-13352691D01*
X11735883Y-13352691D02*
X11726359Y-13333643D01*
X11726359Y-13333643D02*
X11716835Y-13295548D01*
X11716835Y-13295548D02*
X11716835Y-13247929D01*
X11716835Y-13247929D02*
X11726359Y-13209834D01*
X11726359Y-13209834D02*
X11735883Y-13190786D01*
X11735883Y-13190786D02*
X11745407Y-13181262D01*
X11745407Y-13181262D02*
X11764454Y-13171739D01*
X11954931Y-13171739D02*
X11973978Y-13171739D01*
X11973978Y-13171739D02*
X11993026Y-13181262D01*
X11993026Y-13181262D02*
X12002550Y-13190786D01*
X12002550Y-13190786D02*
X12012073Y-13209834D01*
X12012073Y-13209834D02*
X12021597Y-13247929D01*
X12021597Y-13247929D02*
X12021597Y-13295548D01*
X12021597Y-13295548D02*
X12012073Y-13333643D01*
X12012073Y-13333643D02*
X12002550Y-13352691D01*
X12002550Y-13352691D02*
X11993026Y-13362215D01*
X11993026Y-13362215D02*
X11973978Y-13371739D01*
X11973978Y-13371739D02*
X11954931Y-13371739D01*
X11954931Y-13371739D02*
X11935883Y-13362215D01*
X11935883Y-13362215D02*
X11926359Y-13352691D01*
X11926359Y-13352691D02*
X11916835Y-13333643D01*
X11916835Y-13333643D02*
X11907312Y-13295548D01*
X11907312Y-13295548D02*
X11907312Y-13247929D01*
X11907312Y-13247929D02*
X11916835Y-13209834D01*
X11916835Y-13209834D02*
X11926359Y-13190786D01*
X11926359Y-13190786D02*
X11935883Y-13181262D01*
X11935883Y-13181262D02*
X11954931Y-13171739D01*
X12107312Y-13371739D02*
X12107312Y-13238405D01*
X12107312Y-13257453D02*
X12116835Y-13247929D01*
X12116835Y-13247929D02*
X12135883Y-13238405D01*
X12135883Y-13238405D02*
X12164454Y-13238405D01*
X12164454Y-13238405D02*
X12183502Y-13247929D01*
X12183502Y-13247929D02*
X12193026Y-13266977D01*
X12193026Y-13266977D02*
X12193026Y-13371739D01*
X12193026Y-13266977D02*
X12202550Y-13247929D01*
X12202550Y-13247929D02*
X12221597Y-13238405D01*
X12221597Y-13238405D02*
X12250169Y-13238405D01*
X12250169Y-13238405D02*
X12269216Y-13247929D01*
X12269216Y-13247929D02*
X12278740Y-13266977D01*
X12278740Y-13266977D02*
X12278740Y-13371739D01*
X12373978Y-13371739D02*
X12373978Y-13238405D01*
X12373978Y-13257453D02*
X12383502Y-13247929D01*
X12383502Y-13247929D02*
X12402550Y-13238405D01*
X12402550Y-13238405D02*
X12431121Y-13238405D01*
X12431121Y-13238405D02*
X12450169Y-13247929D01*
X12450169Y-13247929D02*
X12459693Y-13266977D01*
X12459693Y-13266977D02*
X12459693Y-13371739D01*
X12459693Y-13266977D02*
X12469216Y-13247929D01*
X12469216Y-13247929D02*
X12488264Y-13238405D01*
X12488264Y-13238405D02*
X12516835Y-13238405D01*
X12516835Y-13238405D02*
X12535883Y-13247929D01*
X12535883Y-13247929D02*
X12545407Y-13266977D01*
X12545407Y-13266977D02*
X12545407Y-13371739D01*
X12935883Y-13162215D02*
X12764455Y-13419358D01*
X13193026Y-13171739D02*
X13212074Y-13171739D01*
X13212074Y-13171739D02*
X13231121Y-13181262D01*
X13231121Y-13181262D02*
X13240645Y-13190786D01*
X13240645Y-13190786D02*
X13250169Y-13209834D01*
X13250169Y-13209834D02*
X13259693Y-13247929D01*
X13259693Y-13247929D02*
X13259693Y-13295548D01*
X13259693Y-13295548D02*
X13250169Y-13333643D01*
X13250169Y-13333643D02*
X13240645Y-13352691D01*
X13240645Y-13352691D02*
X13231121Y-13362215D01*
X13231121Y-13362215D02*
X13212074Y-13371739D01*
X13212074Y-13371739D02*
X13193026Y-13371739D01*
X13193026Y-13371739D02*
X13173978Y-13362215D01*
X13173978Y-13362215D02*
X13164455Y-13352691D01*
X13164455Y-13352691D02*
X13154931Y-13333643D01*
X13154931Y-13333643D02*
X13145407Y-13295548D01*
X13145407Y-13295548D02*
X13145407Y-13247929D01*
X13145407Y-13247929D02*
X13154931Y-13209834D01*
X13154931Y-13209834D02*
X13164455Y-13190786D01*
X13164455Y-13190786D02*
X13173978Y-13181262D01*
X13173978Y-13181262D02*
X13193026Y-13171739D01*
X13345407Y-13352691D02*
X13354931Y-13362215D01*
X13354931Y-13362215D02*
X13345407Y-13371739D01*
X13345407Y-13371739D02*
X13335883Y-13362215D01*
X13335883Y-13362215D02*
X13345407Y-13352691D01*
X13345407Y-13352691D02*
X13345407Y-13371739D01*
X13478740Y-13171739D02*
X13497788Y-13171739D01*
X13497788Y-13171739D02*
X13516836Y-13181262D01*
X13516836Y-13181262D02*
X13526359Y-13190786D01*
X13526359Y-13190786D02*
X13535883Y-13209834D01*
X13535883Y-13209834D02*
X13545407Y-13247929D01*
X13545407Y-13247929D02*
X13545407Y-13295548D01*
X13545407Y-13295548D02*
X13535883Y-13333643D01*
X13535883Y-13333643D02*
X13526359Y-13352691D01*
X13526359Y-13352691D02*
X13516836Y-13362215D01*
X13516836Y-13362215D02*
X13497788Y-13371739D01*
X13497788Y-13371739D02*
X13478740Y-13371739D01*
X13478740Y-13371739D02*
X13459693Y-13362215D01*
X13459693Y-13362215D02*
X13450169Y-13352691D01*
X13450169Y-13352691D02*
X13440645Y-13333643D01*
X13440645Y-13333643D02*
X13431121Y-13295548D01*
X13431121Y-13295548D02*
X13431121Y-13247929D01*
X13431121Y-13247929D02*
X13440645Y-13209834D01*
X13440645Y-13209834D02*
X13450169Y-13190786D01*
X13450169Y-13190786D02*
X13459693Y-13181262D01*
X13459693Y-13181262D02*
X13478740Y-13171739D01*
X13735883Y-13371739D02*
X13621597Y-13371739D01*
X13678740Y-13371739D02*
X13678740Y-13171739D01*
X13678740Y-13171739D02*
X13659693Y-13200310D01*
X13659693Y-13200310D02*
X13640645Y-13219358D01*
X13640645Y-13219358D02*
X13621597Y-13228881D01*
X13831121Y-13371739D02*
X13869216Y-13371739D01*
X13869216Y-13371739D02*
X13888264Y-13362215D01*
X13888264Y-13362215D02*
X13897788Y-13352691D01*
X13897788Y-13352691D02*
X13916836Y-13324120D01*
X13916836Y-13324120D02*
X13926359Y-13286024D01*
X13926359Y-13286024D02*
X13926359Y-13209834D01*
X13926359Y-13209834D02*
X13916836Y-13190786D01*
X13916836Y-13190786D02*
X13907312Y-13181262D01*
X13907312Y-13181262D02*
X13888264Y-13171739D01*
X13888264Y-13171739D02*
X13850169Y-13171739D01*
X13850169Y-13171739D02*
X13831121Y-13181262D01*
X13831121Y-13181262D02*
X13821597Y-13190786D01*
X13821597Y-13190786D02*
X13812074Y-13209834D01*
X13812074Y-13209834D02*
X13812074Y-13257453D01*
X13812074Y-13257453D02*
X13821597Y-13276501D01*
X13821597Y-13276501D02*
X13831121Y-13286024D01*
X13831121Y-13286024D02*
X13850169Y-13295548D01*
X13850169Y-13295548D02*
X13888264Y-13295548D01*
X13888264Y-13295548D02*
X13907312Y-13286024D01*
X13907312Y-13286024D02*
X13916836Y-13276501D01*
X13916836Y-13276501D02*
X13926359Y-13257453D01*
X13993026Y-13171739D02*
X14126359Y-13171739D01*
X14126359Y-13171739D02*
X14040645Y-13371739D01*
X14193026Y-13171739D02*
X14193026Y-13209834D01*
X14269217Y-13171739D02*
X14269217Y-13209834D01*
X14564455Y-13447929D02*
X14554931Y-13438405D01*
X14554931Y-13438405D02*
X14535883Y-13409834D01*
X14535883Y-13409834D02*
X14526359Y-13390786D01*
X14526359Y-13390786D02*
X14516836Y-13362215D01*
X14516836Y-13362215D02*
X14507312Y-13314596D01*
X14507312Y-13314596D02*
X14507312Y-13276501D01*
X14507312Y-13276501D02*
X14516836Y-13228881D01*
X14516836Y-13228881D02*
X14526359Y-13200310D01*
X14526359Y-13200310D02*
X14535883Y-13181262D01*
X14535883Y-13181262D02*
X14554931Y-13152691D01*
X14554931Y-13152691D02*
X14564455Y-13143167D01*
X14745407Y-13371739D02*
X14631121Y-13371739D01*
X14688264Y-13371739D02*
X14688264Y-13171739D01*
X14688264Y-13171739D02*
X14669217Y-13200310D01*
X14669217Y-13200310D02*
X14650169Y-13219358D01*
X14650169Y-13219358D02*
X14631121Y-13228881D01*
X14983502Y-13371739D02*
X14983502Y-13171739D01*
X15069217Y-13371739D02*
X15069217Y-13266977D01*
X15069217Y-13266977D02*
X15059693Y-13247929D01*
X15059693Y-13247929D02*
X15040645Y-13238405D01*
X15040645Y-13238405D02*
X15012074Y-13238405D01*
X15012074Y-13238405D02*
X14993026Y-13247929D01*
X14993026Y-13247929D02*
X14983502Y-13257453D01*
X15193026Y-13371739D02*
X15173979Y-13362215D01*
X15173979Y-13362215D02*
X15164455Y-13352691D01*
X15164455Y-13352691D02*
X15154931Y-13333643D01*
X15154931Y-13333643D02*
X15154931Y-13276501D01*
X15154931Y-13276501D02*
X15164455Y-13257453D01*
X15164455Y-13257453D02*
X15173979Y-13247929D01*
X15173979Y-13247929D02*
X15193026Y-13238405D01*
X15193026Y-13238405D02*
X15221598Y-13238405D01*
X15221598Y-13238405D02*
X15240645Y-13247929D01*
X15240645Y-13247929D02*
X15250169Y-13257453D01*
X15250169Y-13257453D02*
X15259693Y-13276501D01*
X15259693Y-13276501D02*
X15259693Y-13333643D01*
X15259693Y-13333643D02*
X15250169Y-13352691D01*
X15250169Y-13352691D02*
X15240645Y-13362215D01*
X15240645Y-13362215D02*
X15221598Y-13371739D01*
X15221598Y-13371739D02*
X15193026Y-13371739D01*
X15373979Y-13371739D02*
X15354931Y-13362215D01*
X15354931Y-13362215D02*
X15345407Y-13343167D01*
X15345407Y-13343167D02*
X15345407Y-13171739D01*
X15526360Y-13362215D02*
X15507312Y-13371739D01*
X15507312Y-13371739D02*
X15469217Y-13371739D01*
X15469217Y-13371739D02*
X15450169Y-13362215D01*
X15450169Y-13362215D02*
X15440645Y-13343167D01*
X15440645Y-13343167D02*
X15440645Y-13266977D01*
X15440645Y-13266977D02*
X15450169Y-13247929D01*
X15450169Y-13247929D02*
X15469217Y-13238405D01*
X15469217Y-13238405D02*
X15507312Y-13238405D01*
X15507312Y-13238405D02*
X15526360Y-13247929D01*
X15526360Y-13247929D02*
X15535883Y-13266977D01*
X15535883Y-13266977D02*
X15535883Y-13286024D01*
X15535883Y-13286024D02*
X15440645Y-13305072D01*
X15602550Y-13447929D02*
X15612074Y-13438405D01*
X15612074Y-13438405D02*
X15631121Y-13409834D01*
X15631121Y-13409834D02*
X15640645Y-13390786D01*
X15640645Y-13390786D02*
X15650169Y-13362215D01*
X15650169Y-13362215D02*
X15659693Y-13314596D01*
X15659693Y-13314596D02*
X15659693Y-13276501D01*
X15659693Y-13276501D02*
X15650169Y-13228881D01*
X15650169Y-13228881D02*
X15640645Y-13200310D01*
X15640645Y-13200310D02*
X15631121Y-13181262D01*
X15631121Y-13181262D02*
X15612074Y-13152691D01*
X15612074Y-13152691D02*
X15602550Y-13143167D01*
D11*
X10980605Y-13565468D02*
X10980605Y-13523041D01*
X10938179Y-13523041D01*
X10938179Y-13565468D01*
X10980605Y-13565468D01*
D10*
X11288264Y-13435739D02*
X11307312Y-13435739D01*
X11307312Y-13435739D02*
X11326359Y-13445262D01*
X11326359Y-13445262D02*
X11335883Y-13454786D01*
X11335883Y-13454786D02*
X11345407Y-13473834D01*
X11345407Y-13473834D02*
X11354931Y-13511929D01*
X11354931Y-13511929D02*
X11354931Y-13559548D01*
X11354931Y-13559548D02*
X11345407Y-13597643D01*
X11345407Y-13597643D02*
X11335883Y-13616691D01*
X11335883Y-13616691D02*
X11326359Y-13626215D01*
X11326359Y-13626215D02*
X11307312Y-13635739D01*
X11307312Y-13635739D02*
X11288264Y-13635739D01*
X11288264Y-13635739D02*
X11269216Y-13626215D01*
X11269216Y-13626215D02*
X11259692Y-13616691D01*
X11259692Y-13616691D02*
X11250169Y-13597643D01*
X11250169Y-13597643D02*
X11240645Y-13559548D01*
X11240645Y-13559548D02*
X11240645Y-13511929D01*
X11240645Y-13511929D02*
X11250169Y-13473834D01*
X11250169Y-13473834D02*
X11259692Y-13454786D01*
X11259692Y-13454786D02*
X11269216Y-13445262D01*
X11269216Y-13445262D02*
X11288264Y-13435739D01*
X11440645Y-13616691D02*
X11450169Y-13626215D01*
X11450169Y-13626215D02*
X11440645Y-13635739D01*
X11440645Y-13635739D02*
X11431121Y-13626215D01*
X11431121Y-13626215D02*
X11440645Y-13616691D01*
X11440645Y-13616691D02*
X11440645Y-13635739D01*
X11621597Y-13435739D02*
X11583502Y-13435739D01*
X11583502Y-13435739D02*
X11564454Y-13445262D01*
X11564454Y-13445262D02*
X11554931Y-13454786D01*
X11554931Y-13454786D02*
X11535883Y-13483358D01*
X11535883Y-13483358D02*
X11526359Y-13521453D01*
X11526359Y-13521453D02*
X11526359Y-13597643D01*
X11526359Y-13597643D02*
X11535883Y-13616691D01*
X11535883Y-13616691D02*
X11545407Y-13626215D01*
X11545407Y-13626215D02*
X11564454Y-13635739D01*
X11564454Y-13635739D02*
X11602550Y-13635739D01*
X11602550Y-13635739D02*
X11621597Y-13626215D01*
X11621597Y-13626215D02*
X11631121Y-13616691D01*
X11631121Y-13616691D02*
X11640645Y-13597643D01*
X11640645Y-13597643D02*
X11640645Y-13550024D01*
X11640645Y-13550024D02*
X11631121Y-13530977D01*
X11631121Y-13530977D02*
X11621597Y-13521453D01*
X11621597Y-13521453D02*
X11602550Y-13511929D01*
X11602550Y-13511929D02*
X11564454Y-13511929D01*
X11564454Y-13511929D02*
X11545407Y-13521453D01*
X11545407Y-13521453D02*
X11535883Y-13530977D01*
X11535883Y-13530977D02*
X11526359Y-13550024D01*
X11764454Y-13435739D02*
X11783502Y-13435739D01*
X11783502Y-13435739D02*
X11802550Y-13445262D01*
X11802550Y-13445262D02*
X11812073Y-13454786D01*
X11812073Y-13454786D02*
X11821597Y-13473834D01*
X11821597Y-13473834D02*
X11831121Y-13511929D01*
X11831121Y-13511929D02*
X11831121Y-13559548D01*
X11831121Y-13559548D02*
X11821597Y-13597643D01*
X11821597Y-13597643D02*
X11812073Y-13616691D01*
X11812073Y-13616691D02*
X11802550Y-13626215D01*
X11802550Y-13626215D02*
X11783502Y-13635739D01*
X11783502Y-13635739D02*
X11764454Y-13635739D01*
X11764454Y-13635739D02*
X11745407Y-13626215D01*
X11745407Y-13626215D02*
X11735883Y-13616691D01*
X11735883Y-13616691D02*
X11726359Y-13597643D01*
X11726359Y-13597643D02*
X11716835Y-13559548D01*
X11716835Y-13559548D02*
X11716835Y-13511929D01*
X11716835Y-13511929D02*
X11726359Y-13473834D01*
X11726359Y-13473834D02*
X11735883Y-13454786D01*
X11735883Y-13454786D02*
X11745407Y-13445262D01*
X11745407Y-13445262D02*
X11764454Y-13435739D01*
X11954931Y-13435739D02*
X11973978Y-13435739D01*
X11973978Y-13435739D02*
X11993026Y-13445262D01*
X11993026Y-13445262D02*
X12002550Y-13454786D01*
X12002550Y-13454786D02*
X12012073Y-13473834D01*
X12012073Y-13473834D02*
X12021597Y-13511929D01*
X12021597Y-13511929D02*
X12021597Y-13559548D01*
X12021597Y-13559548D02*
X12012073Y-13597643D01*
X12012073Y-13597643D02*
X12002550Y-13616691D01*
X12002550Y-13616691D02*
X11993026Y-13626215D01*
X11993026Y-13626215D02*
X11973978Y-13635739D01*
X11973978Y-13635739D02*
X11954931Y-13635739D01*
X11954931Y-13635739D02*
X11935883Y-13626215D01*
X11935883Y-13626215D02*
X11926359Y-13616691D01*
X11926359Y-13616691D02*
X11916835Y-13597643D01*
X11916835Y-13597643D02*
X11907312Y-13559548D01*
X11907312Y-13559548D02*
X11907312Y-13511929D01*
X11907312Y-13511929D02*
X11916835Y-13473834D01*
X11916835Y-13473834D02*
X11926359Y-13454786D01*
X11926359Y-13454786D02*
X11935883Y-13445262D01*
X11935883Y-13445262D02*
X11954931Y-13435739D01*
X12107312Y-13635739D02*
X12107312Y-13502405D01*
X12107312Y-13521453D02*
X12116835Y-13511929D01*
X12116835Y-13511929D02*
X12135883Y-13502405D01*
X12135883Y-13502405D02*
X12164454Y-13502405D01*
X12164454Y-13502405D02*
X12183502Y-13511929D01*
X12183502Y-13511929D02*
X12193026Y-13530977D01*
X12193026Y-13530977D02*
X12193026Y-13635739D01*
X12193026Y-13530977D02*
X12202550Y-13511929D01*
X12202550Y-13511929D02*
X12221597Y-13502405D01*
X12221597Y-13502405D02*
X12250169Y-13502405D01*
X12250169Y-13502405D02*
X12269216Y-13511929D01*
X12269216Y-13511929D02*
X12278740Y-13530977D01*
X12278740Y-13530977D02*
X12278740Y-13635739D01*
X12373978Y-13635739D02*
X12373978Y-13502405D01*
X12373978Y-13521453D02*
X12383502Y-13511929D01*
X12383502Y-13511929D02*
X12402550Y-13502405D01*
X12402550Y-13502405D02*
X12431121Y-13502405D01*
X12431121Y-13502405D02*
X12450169Y-13511929D01*
X12450169Y-13511929D02*
X12459693Y-13530977D01*
X12459693Y-13530977D02*
X12459693Y-13635739D01*
X12459693Y-13530977D02*
X12469216Y-13511929D01*
X12469216Y-13511929D02*
X12488264Y-13502405D01*
X12488264Y-13502405D02*
X12516835Y-13502405D01*
X12516835Y-13502405D02*
X12535883Y-13511929D01*
X12535883Y-13511929D02*
X12545407Y-13530977D01*
X12545407Y-13530977D02*
X12545407Y-13635739D01*
X12935883Y-13426215D02*
X12764455Y-13683358D01*
X13193026Y-13435739D02*
X13212074Y-13435739D01*
X13212074Y-13435739D02*
X13231121Y-13445262D01*
X13231121Y-13445262D02*
X13240645Y-13454786D01*
X13240645Y-13454786D02*
X13250169Y-13473834D01*
X13250169Y-13473834D02*
X13259693Y-13511929D01*
X13259693Y-13511929D02*
X13259693Y-13559548D01*
X13259693Y-13559548D02*
X13250169Y-13597643D01*
X13250169Y-13597643D02*
X13240645Y-13616691D01*
X13240645Y-13616691D02*
X13231121Y-13626215D01*
X13231121Y-13626215D02*
X13212074Y-13635739D01*
X13212074Y-13635739D02*
X13193026Y-13635739D01*
X13193026Y-13635739D02*
X13173978Y-13626215D01*
X13173978Y-13626215D02*
X13164455Y-13616691D01*
X13164455Y-13616691D02*
X13154931Y-13597643D01*
X13154931Y-13597643D02*
X13145407Y-13559548D01*
X13145407Y-13559548D02*
X13145407Y-13511929D01*
X13145407Y-13511929D02*
X13154931Y-13473834D01*
X13154931Y-13473834D02*
X13164455Y-13454786D01*
X13164455Y-13454786D02*
X13173978Y-13445262D01*
X13173978Y-13445262D02*
X13193026Y-13435739D01*
X13345407Y-13616691D02*
X13354931Y-13626215D01*
X13354931Y-13626215D02*
X13345407Y-13635739D01*
X13345407Y-13635739D02*
X13335883Y-13626215D01*
X13335883Y-13626215D02*
X13345407Y-13616691D01*
X13345407Y-13616691D02*
X13345407Y-13635739D01*
X13478740Y-13435739D02*
X13497788Y-13435739D01*
X13497788Y-13435739D02*
X13516836Y-13445262D01*
X13516836Y-13445262D02*
X13526359Y-13454786D01*
X13526359Y-13454786D02*
X13535883Y-13473834D01*
X13535883Y-13473834D02*
X13545407Y-13511929D01*
X13545407Y-13511929D02*
X13545407Y-13559548D01*
X13545407Y-13559548D02*
X13535883Y-13597643D01*
X13535883Y-13597643D02*
X13526359Y-13616691D01*
X13526359Y-13616691D02*
X13516836Y-13626215D01*
X13516836Y-13626215D02*
X13497788Y-13635739D01*
X13497788Y-13635739D02*
X13478740Y-13635739D01*
X13478740Y-13635739D02*
X13459693Y-13626215D01*
X13459693Y-13626215D02*
X13450169Y-13616691D01*
X13450169Y-13616691D02*
X13440645Y-13597643D01*
X13440645Y-13597643D02*
X13431121Y-13559548D01*
X13431121Y-13559548D02*
X13431121Y-13511929D01*
X13431121Y-13511929D02*
X13440645Y-13473834D01*
X13440645Y-13473834D02*
X13450169Y-13454786D01*
X13450169Y-13454786D02*
X13459693Y-13445262D01*
X13459693Y-13445262D02*
X13478740Y-13435739D01*
X13621597Y-13454786D02*
X13631121Y-13445262D01*
X13631121Y-13445262D02*
X13650169Y-13435739D01*
X13650169Y-13435739D02*
X13697788Y-13435739D01*
X13697788Y-13435739D02*
X13716836Y-13445262D01*
X13716836Y-13445262D02*
X13726359Y-13454786D01*
X13726359Y-13454786D02*
X13735883Y-13473834D01*
X13735883Y-13473834D02*
X13735883Y-13492881D01*
X13735883Y-13492881D02*
X13726359Y-13521453D01*
X13726359Y-13521453D02*
X13612074Y-13635739D01*
X13612074Y-13635739D02*
X13735883Y-13635739D01*
X13802550Y-13435739D02*
X13926359Y-13435739D01*
X13926359Y-13435739D02*
X13859693Y-13511929D01*
X13859693Y-13511929D02*
X13888264Y-13511929D01*
X13888264Y-13511929D02*
X13907312Y-13521453D01*
X13907312Y-13521453D02*
X13916836Y-13530977D01*
X13916836Y-13530977D02*
X13926359Y-13550024D01*
X13926359Y-13550024D02*
X13926359Y-13597643D01*
X13926359Y-13597643D02*
X13916836Y-13616691D01*
X13916836Y-13616691D02*
X13907312Y-13626215D01*
X13907312Y-13626215D02*
X13888264Y-13635739D01*
X13888264Y-13635739D02*
X13831121Y-13635739D01*
X13831121Y-13635739D02*
X13812074Y-13626215D01*
X13812074Y-13626215D02*
X13802550Y-13616691D01*
X14097788Y-13435739D02*
X14059693Y-13435739D01*
X14059693Y-13435739D02*
X14040645Y-13445262D01*
X14040645Y-13445262D02*
X14031121Y-13454786D01*
X14031121Y-13454786D02*
X14012074Y-13483358D01*
X14012074Y-13483358D02*
X14002550Y-13521453D01*
X14002550Y-13521453D02*
X14002550Y-13597643D01*
X14002550Y-13597643D02*
X14012074Y-13616691D01*
X14012074Y-13616691D02*
X14021597Y-13626215D01*
X14021597Y-13626215D02*
X14040645Y-13635739D01*
X14040645Y-13635739D02*
X14078740Y-13635739D01*
X14078740Y-13635739D02*
X14097788Y-13626215D01*
X14097788Y-13626215D02*
X14107312Y-13616691D01*
X14107312Y-13616691D02*
X14116836Y-13597643D01*
X14116836Y-13597643D02*
X14116836Y-13550024D01*
X14116836Y-13550024D02*
X14107312Y-13530977D01*
X14107312Y-13530977D02*
X14097788Y-13521453D01*
X14097788Y-13521453D02*
X14078740Y-13511929D01*
X14078740Y-13511929D02*
X14040645Y-13511929D01*
X14040645Y-13511929D02*
X14021597Y-13521453D01*
X14021597Y-13521453D02*
X14012074Y-13530977D01*
X14012074Y-13530977D02*
X14002550Y-13550024D01*
X14193026Y-13435739D02*
X14193026Y-13473834D01*
X14269217Y-13435739D02*
X14269217Y-13473834D01*
X14564455Y-13711929D02*
X14554931Y-13702405D01*
X14554931Y-13702405D02*
X14535883Y-13673834D01*
X14535883Y-13673834D02*
X14526359Y-13654786D01*
X14526359Y-13654786D02*
X14516836Y-13626215D01*
X14516836Y-13626215D02*
X14507312Y-13578596D01*
X14507312Y-13578596D02*
X14507312Y-13540501D01*
X14507312Y-13540501D02*
X14516836Y-13492881D01*
X14516836Y-13492881D02*
X14526359Y-13464310D01*
X14526359Y-13464310D02*
X14535883Y-13445262D01*
X14535883Y-13445262D02*
X14554931Y-13416691D01*
X14554931Y-13416691D02*
X14564455Y-13407167D01*
X14678740Y-13435739D02*
X14697788Y-13435739D01*
X14697788Y-13435739D02*
X14716836Y-13445262D01*
X14716836Y-13445262D02*
X14726359Y-13454786D01*
X14726359Y-13454786D02*
X14735883Y-13473834D01*
X14735883Y-13473834D02*
X14745407Y-13511929D01*
X14745407Y-13511929D02*
X14745407Y-13559548D01*
X14745407Y-13559548D02*
X14735883Y-13597643D01*
X14735883Y-13597643D02*
X14726359Y-13616691D01*
X14726359Y-13616691D02*
X14716836Y-13626215D01*
X14716836Y-13626215D02*
X14697788Y-13635739D01*
X14697788Y-13635739D02*
X14678740Y-13635739D01*
X14678740Y-13635739D02*
X14659693Y-13626215D01*
X14659693Y-13626215D02*
X14650169Y-13616691D01*
X14650169Y-13616691D02*
X14640645Y-13597643D01*
X14640645Y-13597643D02*
X14631121Y-13559548D01*
X14631121Y-13559548D02*
X14631121Y-13511929D01*
X14631121Y-13511929D02*
X14640645Y-13473834D01*
X14640645Y-13473834D02*
X14650169Y-13454786D01*
X14650169Y-13454786D02*
X14659693Y-13445262D01*
X14659693Y-13445262D02*
X14678740Y-13435739D01*
X14983502Y-13635739D02*
X14983502Y-13435739D01*
X15069217Y-13635739D02*
X15069217Y-13530977D01*
X15069217Y-13530977D02*
X15059693Y-13511929D01*
X15059693Y-13511929D02*
X15040645Y-13502405D01*
X15040645Y-13502405D02*
X15012074Y-13502405D01*
X15012074Y-13502405D02*
X14993026Y-13511929D01*
X14993026Y-13511929D02*
X14983502Y-13521453D01*
X15193026Y-13635739D02*
X15173979Y-13626215D01*
X15173979Y-13626215D02*
X15164455Y-13616691D01*
X15164455Y-13616691D02*
X15154931Y-13597643D01*
X15154931Y-13597643D02*
X15154931Y-13540501D01*
X15154931Y-13540501D02*
X15164455Y-13521453D01*
X15164455Y-13521453D02*
X15173979Y-13511929D01*
X15173979Y-13511929D02*
X15193026Y-13502405D01*
X15193026Y-13502405D02*
X15221598Y-13502405D01*
X15221598Y-13502405D02*
X15240645Y-13511929D01*
X15240645Y-13511929D02*
X15250169Y-13521453D01*
X15250169Y-13521453D02*
X15259693Y-13540501D01*
X15259693Y-13540501D02*
X15259693Y-13597643D01*
X15259693Y-13597643D02*
X15250169Y-13616691D01*
X15250169Y-13616691D02*
X15240645Y-13626215D01*
X15240645Y-13626215D02*
X15221598Y-13635739D01*
X15221598Y-13635739D02*
X15193026Y-13635739D01*
X15373979Y-13635739D02*
X15354931Y-13626215D01*
X15354931Y-13626215D02*
X15345407Y-13607167D01*
X15345407Y-13607167D02*
X15345407Y-13435739D01*
X15526360Y-13626215D02*
X15507312Y-13635739D01*
X15507312Y-13635739D02*
X15469217Y-13635739D01*
X15469217Y-13635739D02*
X15450169Y-13626215D01*
X15450169Y-13626215D02*
X15440645Y-13607167D01*
X15440645Y-13607167D02*
X15440645Y-13530977D01*
X15440645Y-13530977D02*
X15450169Y-13511929D01*
X15450169Y-13511929D02*
X15469217Y-13502405D01*
X15469217Y-13502405D02*
X15507312Y-13502405D01*
X15507312Y-13502405D02*
X15526360Y-13511929D01*
X15526360Y-13511929D02*
X15535883Y-13530977D01*
X15535883Y-13530977D02*
X15535883Y-13550024D01*
X15535883Y-13550024D02*
X15440645Y-13569072D01*
X15612074Y-13626215D02*
X15631121Y-13635739D01*
X15631121Y-13635739D02*
X15669217Y-13635739D01*
X15669217Y-13635739D02*
X15688264Y-13626215D01*
X15688264Y-13626215D02*
X15697788Y-13607167D01*
X15697788Y-13607167D02*
X15697788Y-13597643D01*
X15697788Y-13597643D02*
X15688264Y-13578596D01*
X15688264Y-13578596D02*
X15669217Y-13569072D01*
X15669217Y-13569072D02*
X15640645Y-13569072D01*
X15640645Y-13569072D02*
X15621598Y-13559548D01*
X15621598Y-13559548D02*
X15612074Y-13540501D01*
X15612074Y-13540501D02*
X15612074Y-13530977D01*
X15612074Y-13530977D02*
X15621598Y-13511929D01*
X15621598Y-13511929D02*
X15640645Y-13502405D01*
X15640645Y-13502405D02*
X15669217Y-13502405D01*
X15669217Y-13502405D02*
X15688264Y-13511929D01*
X15935883Y-13559548D02*
X16088264Y-13559548D01*
X16012074Y-13635739D02*
X16012074Y-13483358D01*
X16421598Y-13502405D02*
X16421598Y-13635739D01*
X16373979Y-13426215D02*
X16326360Y-13569072D01*
X16326360Y-13569072D02*
X16450169Y-13569072D01*
X16669217Y-13626215D02*
X16688264Y-13635739D01*
X16688264Y-13635739D02*
X16726360Y-13635739D01*
X16726360Y-13635739D02*
X16745407Y-13626215D01*
X16745407Y-13626215D02*
X16754931Y-13607167D01*
X16754931Y-13607167D02*
X16754931Y-13597643D01*
X16754931Y-13597643D02*
X16745407Y-13578596D01*
X16745407Y-13578596D02*
X16726360Y-13569072D01*
X16726360Y-13569072D02*
X16697788Y-13569072D01*
X16697788Y-13569072D02*
X16678741Y-13559548D01*
X16678741Y-13559548D02*
X16669217Y-13540501D01*
X16669217Y-13540501D02*
X16669217Y-13530977D01*
X16669217Y-13530977D02*
X16678741Y-13511929D01*
X16678741Y-13511929D02*
X16697788Y-13502405D01*
X16697788Y-13502405D02*
X16726360Y-13502405D01*
X16726360Y-13502405D02*
X16745407Y-13511929D01*
X16869217Y-13635739D02*
X16850169Y-13626215D01*
X16850169Y-13626215D02*
X16840646Y-13607167D01*
X16840646Y-13607167D02*
X16840646Y-13435739D01*
X16973979Y-13635739D02*
X16954931Y-13626215D01*
X16954931Y-13626215D02*
X16945407Y-13616691D01*
X16945407Y-13616691D02*
X16935884Y-13597643D01*
X16935884Y-13597643D02*
X16935884Y-13540501D01*
X16935884Y-13540501D02*
X16945407Y-13521453D01*
X16945407Y-13521453D02*
X16954931Y-13511929D01*
X16954931Y-13511929D02*
X16973979Y-13502405D01*
X16973979Y-13502405D02*
X17002550Y-13502405D01*
X17002550Y-13502405D02*
X17021598Y-13511929D01*
X17021598Y-13511929D02*
X17031122Y-13521453D01*
X17031122Y-13521453D02*
X17040646Y-13540501D01*
X17040646Y-13540501D02*
X17040646Y-13597643D01*
X17040646Y-13597643D02*
X17031122Y-13616691D01*
X17031122Y-13616691D02*
X17021598Y-13626215D01*
X17021598Y-13626215D02*
X17002550Y-13635739D01*
X17002550Y-13635739D02*
X16973979Y-13635739D01*
X17097788Y-13502405D02*
X17173979Y-13502405D01*
X17126360Y-13435739D02*
X17126360Y-13607167D01*
X17126360Y-13607167D02*
X17135884Y-13626215D01*
X17135884Y-13626215D02*
X17154931Y-13635739D01*
X17154931Y-13635739D02*
X17173979Y-13635739D01*
X17231122Y-13626215D02*
X17250169Y-13635739D01*
X17250169Y-13635739D02*
X17288265Y-13635739D01*
X17288265Y-13635739D02*
X17307312Y-13626215D01*
X17307312Y-13626215D02*
X17316836Y-13607167D01*
X17316836Y-13607167D02*
X17316836Y-13597643D01*
X17316836Y-13597643D02*
X17307312Y-13578596D01*
X17307312Y-13578596D02*
X17288265Y-13569072D01*
X17288265Y-13569072D02*
X17259693Y-13569072D01*
X17259693Y-13569072D02*
X17240646Y-13559548D01*
X17240646Y-13559548D02*
X17231122Y-13540501D01*
X17231122Y-13540501D02*
X17231122Y-13530977D01*
X17231122Y-13530977D02*
X17240646Y-13511929D01*
X17240646Y-13511929D02*
X17259693Y-13502405D01*
X17259693Y-13502405D02*
X17288265Y-13502405D01*
X17288265Y-13502405D02*
X17307312Y-13511929D01*
X17383503Y-13711929D02*
X17393027Y-13702405D01*
X17393027Y-13702405D02*
X17412074Y-13673834D01*
X17412074Y-13673834D02*
X17421598Y-13654786D01*
X17421598Y-13654786D02*
X17431122Y-13626215D01*
X17431122Y-13626215D02*
X17440646Y-13578596D01*
X17440646Y-13578596D02*
X17440646Y-13540501D01*
X17440646Y-13540501D02*
X17431122Y-13492881D01*
X17431122Y-13492881D02*
X17421598Y-13464310D01*
X17421598Y-13464310D02*
X17412074Y-13445262D01*
X17412074Y-13445262D02*
X17393027Y-13416691D01*
X17393027Y-13416691D02*
X17383503Y-13407167D01*
D11*
X10954392Y-13843255D02*
X10989392Y-13808255D01*
X10954392Y-13773255D01*
X10919392Y-13808255D01*
X10954392Y-13843255D01*
D10*
X11288264Y-13699739D02*
X11307312Y-13699739D01*
X11307312Y-13699739D02*
X11326359Y-13709262D01*
X11326359Y-13709262D02*
X11335883Y-13718786D01*
X11335883Y-13718786D02*
X11345407Y-13737834D01*
X11345407Y-13737834D02*
X11354931Y-13775929D01*
X11354931Y-13775929D02*
X11354931Y-13823548D01*
X11354931Y-13823548D02*
X11345407Y-13861643D01*
X11345407Y-13861643D02*
X11335883Y-13880691D01*
X11335883Y-13880691D02*
X11326359Y-13890215D01*
X11326359Y-13890215D02*
X11307312Y-13899739D01*
X11307312Y-13899739D02*
X11288264Y-13899739D01*
X11288264Y-13899739D02*
X11269216Y-13890215D01*
X11269216Y-13890215D02*
X11259692Y-13880691D01*
X11259692Y-13880691D02*
X11250169Y-13861643D01*
X11250169Y-13861643D02*
X11240645Y-13823548D01*
X11240645Y-13823548D02*
X11240645Y-13775929D01*
X11240645Y-13775929D02*
X11250169Y-13737834D01*
X11250169Y-13737834D02*
X11259692Y-13718786D01*
X11259692Y-13718786D02*
X11269216Y-13709262D01*
X11269216Y-13709262D02*
X11288264Y-13699739D01*
X11440645Y-13880691D02*
X11450169Y-13890215D01*
X11450169Y-13890215D02*
X11440645Y-13899739D01*
X11440645Y-13899739D02*
X11431121Y-13890215D01*
X11431121Y-13890215D02*
X11440645Y-13880691D01*
X11440645Y-13880691D02*
X11440645Y-13899739D01*
X11516835Y-13699739D02*
X11650169Y-13699739D01*
X11650169Y-13699739D02*
X11564454Y-13899739D01*
X11764454Y-13699739D02*
X11783502Y-13699739D01*
X11783502Y-13699739D02*
X11802550Y-13709262D01*
X11802550Y-13709262D02*
X11812073Y-13718786D01*
X11812073Y-13718786D02*
X11821597Y-13737834D01*
X11821597Y-13737834D02*
X11831121Y-13775929D01*
X11831121Y-13775929D02*
X11831121Y-13823548D01*
X11831121Y-13823548D02*
X11821597Y-13861643D01*
X11821597Y-13861643D02*
X11812073Y-13880691D01*
X11812073Y-13880691D02*
X11802550Y-13890215D01*
X11802550Y-13890215D02*
X11783502Y-13899739D01*
X11783502Y-13899739D02*
X11764454Y-13899739D01*
X11764454Y-13899739D02*
X11745407Y-13890215D01*
X11745407Y-13890215D02*
X11735883Y-13880691D01*
X11735883Y-13880691D02*
X11726359Y-13861643D01*
X11726359Y-13861643D02*
X11716835Y-13823548D01*
X11716835Y-13823548D02*
X11716835Y-13775929D01*
X11716835Y-13775929D02*
X11726359Y-13737834D01*
X11726359Y-13737834D02*
X11735883Y-13718786D01*
X11735883Y-13718786D02*
X11745407Y-13709262D01*
X11745407Y-13709262D02*
X11764454Y-13699739D01*
X11954931Y-13699739D02*
X11973978Y-13699739D01*
X11973978Y-13699739D02*
X11993026Y-13709262D01*
X11993026Y-13709262D02*
X12002550Y-13718786D01*
X12002550Y-13718786D02*
X12012073Y-13737834D01*
X12012073Y-13737834D02*
X12021597Y-13775929D01*
X12021597Y-13775929D02*
X12021597Y-13823548D01*
X12021597Y-13823548D02*
X12012073Y-13861643D01*
X12012073Y-13861643D02*
X12002550Y-13880691D01*
X12002550Y-13880691D02*
X11993026Y-13890215D01*
X11993026Y-13890215D02*
X11973978Y-13899739D01*
X11973978Y-13899739D02*
X11954931Y-13899739D01*
X11954931Y-13899739D02*
X11935883Y-13890215D01*
X11935883Y-13890215D02*
X11926359Y-13880691D01*
X11926359Y-13880691D02*
X11916835Y-13861643D01*
X11916835Y-13861643D02*
X11907312Y-13823548D01*
X11907312Y-13823548D02*
X11907312Y-13775929D01*
X11907312Y-13775929D02*
X11916835Y-13737834D01*
X11916835Y-13737834D02*
X11926359Y-13718786D01*
X11926359Y-13718786D02*
X11935883Y-13709262D01*
X11935883Y-13709262D02*
X11954931Y-13699739D01*
X12107312Y-13899739D02*
X12107312Y-13766405D01*
X12107312Y-13785453D02*
X12116835Y-13775929D01*
X12116835Y-13775929D02*
X12135883Y-13766405D01*
X12135883Y-13766405D02*
X12164454Y-13766405D01*
X12164454Y-13766405D02*
X12183502Y-13775929D01*
X12183502Y-13775929D02*
X12193026Y-13794977D01*
X12193026Y-13794977D02*
X12193026Y-13899739D01*
X12193026Y-13794977D02*
X12202550Y-13775929D01*
X12202550Y-13775929D02*
X12221597Y-13766405D01*
X12221597Y-13766405D02*
X12250169Y-13766405D01*
X12250169Y-13766405D02*
X12269216Y-13775929D01*
X12269216Y-13775929D02*
X12278740Y-13794977D01*
X12278740Y-13794977D02*
X12278740Y-13899739D01*
X12373978Y-13899739D02*
X12373978Y-13766405D01*
X12373978Y-13785453D02*
X12383502Y-13775929D01*
X12383502Y-13775929D02*
X12402550Y-13766405D01*
X12402550Y-13766405D02*
X12431121Y-13766405D01*
X12431121Y-13766405D02*
X12450169Y-13775929D01*
X12450169Y-13775929D02*
X12459693Y-13794977D01*
X12459693Y-13794977D02*
X12459693Y-13899739D01*
X12459693Y-13794977D02*
X12469216Y-13775929D01*
X12469216Y-13775929D02*
X12488264Y-13766405D01*
X12488264Y-13766405D02*
X12516835Y-13766405D01*
X12516835Y-13766405D02*
X12535883Y-13775929D01*
X12535883Y-13775929D02*
X12545407Y-13794977D01*
X12545407Y-13794977D02*
X12545407Y-13899739D01*
X12935883Y-13690215D02*
X12764455Y-13947358D01*
X13193026Y-13699739D02*
X13212074Y-13699739D01*
X13212074Y-13699739D02*
X13231121Y-13709262D01*
X13231121Y-13709262D02*
X13240645Y-13718786D01*
X13240645Y-13718786D02*
X13250169Y-13737834D01*
X13250169Y-13737834D02*
X13259693Y-13775929D01*
X13259693Y-13775929D02*
X13259693Y-13823548D01*
X13259693Y-13823548D02*
X13250169Y-13861643D01*
X13250169Y-13861643D02*
X13240645Y-13880691D01*
X13240645Y-13880691D02*
X13231121Y-13890215D01*
X13231121Y-13890215D02*
X13212074Y-13899739D01*
X13212074Y-13899739D02*
X13193026Y-13899739D01*
X13193026Y-13899739D02*
X13173978Y-13890215D01*
X13173978Y-13890215D02*
X13164455Y-13880691D01*
X13164455Y-13880691D02*
X13154931Y-13861643D01*
X13154931Y-13861643D02*
X13145407Y-13823548D01*
X13145407Y-13823548D02*
X13145407Y-13775929D01*
X13145407Y-13775929D02*
X13154931Y-13737834D01*
X13154931Y-13737834D02*
X13164455Y-13718786D01*
X13164455Y-13718786D02*
X13173978Y-13709262D01*
X13173978Y-13709262D02*
X13193026Y-13699739D01*
X13345407Y-13880691D02*
X13354931Y-13890215D01*
X13354931Y-13890215D02*
X13345407Y-13899739D01*
X13345407Y-13899739D02*
X13335883Y-13890215D01*
X13335883Y-13890215D02*
X13345407Y-13880691D01*
X13345407Y-13880691D02*
X13345407Y-13899739D01*
X13478740Y-13699739D02*
X13497788Y-13699739D01*
X13497788Y-13699739D02*
X13516836Y-13709262D01*
X13516836Y-13709262D02*
X13526359Y-13718786D01*
X13526359Y-13718786D02*
X13535883Y-13737834D01*
X13535883Y-13737834D02*
X13545407Y-13775929D01*
X13545407Y-13775929D02*
X13545407Y-13823548D01*
X13545407Y-13823548D02*
X13535883Y-13861643D01*
X13535883Y-13861643D02*
X13526359Y-13880691D01*
X13526359Y-13880691D02*
X13516836Y-13890215D01*
X13516836Y-13890215D02*
X13497788Y-13899739D01*
X13497788Y-13899739D02*
X13478740Y-13899739D01*
X13478740Y-13899739D02*
X13459693Y-13890215D01*
X13459693Y-13890215D02*
X13450169Y-13880691D01*
X13450169Y-13880691D02*
X13440645Y-13861643D01*
X13440645Y-13861643D02*
X13431121Y-13823548D01*
X13431121Y-13823548D02*
X13431121Y-13775929D01*
X13431121Y-13775929D02*
X13440645Y-13737834D01*
X13440645Y-13737834D02*
X13450169Y-13718786D01*
X13450169Y-13718786D02*
X13459693Y-13709262D01*
X13459693Y-13709262D02*
X13478740Y-13699739D01*
X13621597Y-13718786D02*
X13631121Y-13709262D01*
X13631121Y-13709262D02*
X13650169Y-13699739D01*
X13650169Y-13699739D02*
X13697788Y-13699739D01*
X13697788Y-13699739D02*
X13716836Y-13709262D01*
X13716836Y-13709262D02*
X13726359Y-13718786D01*
X13726359Y-13718786D02*
X13735883Y-13737834D01*
X13735883Y-13737834D02*
X13735883Y-13756881D01*
X13735883Y-13756881D02*
X13726359Y-13785453D01*
X13726359Y-13785453D02*
X13612074Y-13899739D01*
X13612074Y-13899739D02*
X13735883Y-13899739D01*
X13802550Y-13699739D02*
X13935883Y-13699739D01*
X13935883Y-13699739D02*
X13850169Y-13899739D01*
X14097788Y-13699739D02*
X14059693Y-13699739D01*
X14059693Y-13699739D02*
X14040645Y-13709262D01*
X14040645Y-13709262D02*
X14031121Y-13718786D01*
X14031121Y-13718786D02*
X14012074Y-13747358D01*
X14012074Y-13747358D02*
X14002550Y-13785453D01*
X14002550Y-13785453D02*
X14002550Y-13861643D01*
X14002550Y-13861643D02*
X14012074Y-13880691D01*
X14012074Y-13880691D02*
X14021597Y-13890215D01*
X14021597Y-13890215D02*
X14040645Y-13899739D01*
X14040645Y-13899739D02*
X14078740Y-13899739D01*
X14078740Y-13899739D02*
X14097788Y-13890215D01*
X14097788Y-13890215D02*
X14107312Y-13880691D01*
X14107312Y-13880691D02*
X14116836Y-13861643D01*
X14116836Y-13861643D02*
X14116836Y-13814024D01*
X14116836Y-13814024D02*
X14107312Y-13794977D01*
X14107312Y-13794977D02*
X14097788Y-13785453D01*
X14097788Y-13785453D02*
X14078740Y-13775929D01*
X14078740Y-13775929D02*
X14040645Y-13775929D01*
X14040645Y-13775929D02*
X14021597Y-13785453D01*
X14021597Y-13785453D02*
X14012074Y-13794977D01*
X14012074Y-13794977D02*
X14002550Y-13814024D01*
X14193026Y-13699739D02*
X14193026Y-13737834D01*
X14269217Y-13699739D02*
X14269217Y-13737834D01*
X14564455Y-13975929D02*
X14554931Y-13966405D01*
X14554931Y-13966405D02*
X14535883Y-13937834D01*
X14535883Y-13937834D02*
X14526359Y-13918786D01*
X14526359Y-13918786D02*
X14516836Y-13890215D01*
X14516836Y-13890215D02*
X14507312Y-13842596D01*
X14507312Y-13842596D02*
X14507312Y-13804501D01*
X14507312Y-13804501D02*
X14516836Y-13756881D01*
X14516836Y-13756881D02*
X14526359Y-13728310D01*
X14526359Y-13728310D02*
X14535883Y-13709262D01*
X14535883Y-13709262D02*
X14554931Y-13680691D01*
X14554931Y-13680691D02*
X14564455Y-13671167D01*
X14621598Y-13699739D02*
X14745407Y-13699739D01*
X14745407Y-13699739D02*
X14678740Y-13775929D01*
X14678740Y-13775929D02*
X14707312Y-13775929D01*
X14707312Y-13775929D02*
X14726359Y-13785453D01*
X14726359Y-13785453D02*
X14735883Y-13794977D01*
X14735883Y-13794977D02*
X14745407Y-13814024D01*
X14745407Y-13814024D02*
X14745407Y-13861643D01*
X14745407Y-13861643D02*
X14735883Y-13880691D01*
X14735883Y-13880691D02*
X14726359Y-13890215D01*
X14726359Y-13890215D02*
X14707312Y-13899739D01*
X14707312Y-13899739D02*
X14650169Y-13899739D01*
X14650169Y-13899739D02*
X14631121Y-13890215D01*
X14631121Y-13890215D02*
X14621598Y-13880691D01*
X14983502Y-13899739D02*
X14983502Y-13699739D01*
X15069217Y-13899739D02*
X15069217Y-13794977D01*
X15069217Y-13794977D02*
X15059693Y-13775929D01*
X15059693Y-13775929D02*
X15040645Y-13766405D01*
X15040645Y-13766405D02*
X15012074Y-13766405D01*
X15012074Y-13766405D02*
X14993026Y-13775929D01*
X14993026Y-13775929D02*
X14983502Y-13785453D01*
X15193026Y-13899739D02*
X15173979Y-13890215D01*
X15173979Y-13890215D02*
X15164455Y-13880691D01*
X15164455Y-13880691D02*
X15154931Y-13861643D01*
X15154931Y-13861643D02*
X15154931Y-13804501D01*
X15154931Y-13804501D02*
X15164455Y-13785453D01*
X15164455Y-13785453D02*
X15173979Y-13775929D01*
X15173979Y-13775929D02*
X15193026Y-13766405D01*
X15193026Y-13766405D02*
X15221598Y-13766405D01*
X15221598Y-13766405D02*
X15240645Y-13775929D01*
X15240645Y-13775929D02*
X15250169Y-13785453D01*
X15250169Y-13785453D02*
X15259693Y-13804501D01*
X15259693Y-13804501D02*
X15259693Y-13861643D01*
X15259693Y-13861643D02*
X15250169Y-13880691D01*
X15250169Y-13880691D02*
X15240645Y-13890215D01*
X15240645Y-13890215D02*
X15221598Y-13899739D01*
X15221598Y-13899739D02*
X15193026Y-13899739D01*
X15373979Y-13899739D02*
X15354931Y-13890215D01*
X15354931Y-13890215D02*
X15345407Y-13871167D01*
X15345407Y-13871167D02*
X15345407Y-13699739D01*
X15526360Y-13890215D02*
X15507312Y-13899739D01*
X15507312Y-13899739D02*
X15469217Y-13899739D01*
X15469217Y-13899739D02*
X15450169Y-13890215D01*
X15450169Y-13890215D02*
X15440645Y-13871167D01*
X15440645Y-13871167D02*
X15440645Y-13794977D01*
X15440645Y-13794977D02*
X15450169Y-13775929D01*
X15450169Y-13775929D02*
X15469217Y-13766405D01*
X15469217Y-13766405D02*
X15507312Y-13766405D01*
X15507312Y-13766405D02*
X15526360Y-13775929D01*
X15526360Y-13775929D02*
X15535883Y-13794977D01*
X15535883Y-13794977D02*
X15535883Y-13814024D01*
X15535883Y-13814024D02*
X15440645Y-13833072D01*
X15612074Y-13890215D02*
X15631121Y-13899739D01*
X15631121Y-13899739D02*
X15669217Y-13899739D01*
X15669217Y-13899739D02*
X15688264Y-13890215D01*
X15688264Y-13890215D02*
X15697788Y-13871167D01*
X15697788Y-13871167D02*
X15697788Y-13861643D01*
X15697788Y-13861643D02*
X15688264Y-13842596D01*
X15688264Y-13842596D02*
X15669217Y-13833072D01*
X15669217Y-13833072D02*
X15640645Y-13833072D01*
X15640645Y-13833072D02*
X15621598Y-13823548D01*
X15621598Y-13823548D02*
X15612074Y-13804501D01*
X15612074Y-13804501D02*
X15612074Y-13794977D01*
X15612074Y-13794977D02*
X15621598Y-13775929D01*
X15621598Y-13775929D02*
X15640645Y-13766405D01*
X15640645Y-13766405D02*
X15669217Y-13766405D01*
X15669217Y-13766405D02*
X15688264Y-13775929D01*
X15764455Y-13975929D02*
X15773979Y-13966405D01*
X15773979Y-13966405D02*
X15793026Y-13937834D01*
X15793026Y-13937834D02*
X15802550Y-13918786D01*
X15802550Y-13918786D02*
X15812074Y-13890215D01*
X15812074Y-13890215D02*
X15821598Y-13842596D01*
X15821598Y-13842596D02*
X15821598Y-13804501D01*
X15821598Y-13804501D02*
X15812074Y-13756881D01*
X15812074Y-13756881D02*
X15802550Y-13728310D01*
X15802550Y-13728310D02*
X15793026Y-13709262D01*
X15793026Y-13709262D02*
X15773979Y-13680691D01*
X15773979Y-13680691D02*
X15764455Y-13671167D01*
D11*
X10909392Y-14032255D02*
X10989392Y-14112255D01*
X10989392Y-14032255D02*
X10909392Y-14112255D01*
X10989392Y-14072255D02*
G75*
G02*
X10909392Y-14072255I-40000J0D01*
G01*
X10909392Y-14072255D02*
G75*
G02*
X10989392Y-14072255I40000J0D01*
G01*
D10*
X11288264Y-13963739D02*
X11307312Y-13963739D01*
X11307312Y-13963739D02*
X11326359Y-13973262D01*
X11326359Y-13973262D02*
X11335883Y-13982786D01*
X11335883Y-13982786D02*
X11345407Y-14001834D01*
X11345407Y-14001834D02*
X11354931Y-14039929D01*
X11354931Y-14039929D02*
X11354931Y-14087548D01*
X11354931Y-14087548D02*
X11345407Y-14125643D01*
X11345407Y-14125643D02*
X11335883Y-14144691D01*
X11335883Y-14144691D02*
X11326359Y-14154215D01*
X11326359Y-14154215D02*
X11307312Y-14163739D01*
X11307312Y-14163739D02*
X11288264Y-14163739D01*
X11288264Y-14163739D02*
X11269216Y-14154215D01*
X11269216Y-14154215D02*
X11259692Y-14144691D01*
X11259692Y-14144691D02*
X11250169Y-14125643D01*
X11250169Y-14125643D02*
X11240645Y-14087548D01*
X11240645Y-14087548D02*
X11240645Y-14039929D01*
X11240645Y-14039929D02*
X11250169Y-14001834D01*
X11250169Y-14001834D02*
X11259692Y-13982786D01*
X11259692Y-13982786D02*
X11269216Y-13973262D01*
X11269216Y-13973262D02*
X11288264Y-13963739D01*
X11440645Y-14144691D02*
X11450169Y-14154215D01*
X11450169Y-14154215D02*
X11440645Y-14163739D01*
X11440645Y-14163739D02*
X11431121Y-14154215D01*
X11431121Y-14154215D02*
X11440645Y-14144691D01*
X11440645Y-14144691D02*
X11440645Y-14163739D01*
X11564454Y-14049453D02*
X11545407Y-14039929D01*
X11545407Y-14039929D02*
X11535883Y-14030405D01*
X11535883Y-14030405D02*
X11526359Y-14011358D01*
X11526359Y-14011358D02*
X11526359Y-14001834D01*
X11526359Y-14001834D02*
X11535883Y-13982786D01*
X11535883Y-13982786D02*
X11545407Y-13973262D01*
X11545407Y-13973262D02*
X11564454Y-13963739D01*
X11564454Y-13963739D02*
X11602550Y-13963739D01*
X11602550Y-13963739D02*
X11621597Y-13973262D01*
X11621597Y-13973262D02*
X11631121Y-13982786D01*
X11631121Y-13982786D02*
X11640645Y-14001834D01*
X11640645Y-14001834D02*
X11640645Y-14011358D01*
X11640645Y-14011358D02*
X11631121Y-14030405D01*
X11631121Y-14030405D02*
X11621597Y-14039929D01*
X11621597Y-14039929D02*
X11602550Y-14049453D01*
X11602550Y-14049453D02*
X11564454Y-14049453D01*
X11564454Y-14049453D02*
X11545407Y-14058977D01*
X11545407Y-14058977D02*
X11535883Y-14068501D01*
X11535883Y-14068501D02*
X11526359Y-14087548D01*
X11526359Y-14087548D02*
X11526359Y-14125643D01*
X11526359Y-14125643D02*
X11535883Y-14144691D01*
X11535883Y-14144691D02*
X11545407Y-14154215D01*
X11545407Y-14154215D02*
X11564454Y-14163739D01*
X11564454Y-14163739D02*
X11602550Y-14163739D01*
X11602550Y-14163739D02*
X11621597Y-14154215D01*
X11621597Y-14154215D02*
X11631121Y-14144691D01*
X11631121Y-14144691D02*
X11640645Y-14125643D01*
X11640645Y-14125643D02*
X11640645Y-14087548D01*
X11640645Y-14087548D02*
X11631121Y-14068501D01*
X11631121Y-14068501D02*
X11621597Y-14058977D01*
X11621597Y-14058977D02*
X11602550Y-14049453D01*
X11764454Y-13963739D02*
X11783502Y-13963739D01*
X11783502Y-13963739D02*
X11802550Y-13973262D01*
X11802550Y-13973262D02*
X11812073Y-13982786D01*
X11812073Y-13982786D02*
X11821597Y-14001834D01*
X11821597Y-14001834D02*
X11831121Y-14039929D01*
X11831121Y-14039929D02*
X11831121Y-14087548D01*
X11831121Y-14087548D02*
X11821597Y-14125643D01*
X11821597Y-14125643D02*
X11812073Y-14144691D01*
X11812073Y-14144691D02*
X11802550Y-14154215D01*
X11802550Y-14154215D02*
X11783502Y-14163739D01*
X11783502Y-14163739D02*
X11764454Y-14163739D01*
X11764454Y-14163739D02*
X11745407Y-14154215D01*
X11745407Y-14154215D02*
X11735883Y-14144691D01*
X11735883Y-14144691D02*
X11726359Y-14125643D01*
X11726359Y-14125643D02*
X11716835Y-14087548D01*
X11716835Y-14087548D02*
X11716835Y-14039929D01*
X11716835Y-14039929D02*
X11726359Y-14001834D01*
X11726359Y-14001834D02*
X11735883Y-13982786D01*
X11735883Y-13982786D02*
X11745407Y-13973262D01*
X11745407Y-13973262D02*
X11764454Y-13963739D01*
X11954931Y-13963739D02*
X11973978Y-13963739D01*
X11973978Y-13963739D02*
X11993026Y-13973262D01*
X11993026Y-13973262D02*
X12002550Y-13982786D01*
X12002550Y-13982786D02*
X12012073Y-14001834D01*
X12012073Y-14001834D02*
X12021597Y-14039929D01*
X12021597Y-14039929D02*
X12021597Y-14087548D01*
X12021597Y-14087548D02*
X12012073Y-14125643D01*
X12012073Y-14125643D02*
X12002550Y-14144691D01*
X12002550Y-14144691D02*
X11993026Y-14154215D01*
X11993026Y-14154215D02*
X11973978Y-14163739D01*
X11973978Y-14163739D02*
X11954931Y-14163739D01*
X11954931Y-14163739D02*
X11935883Y-14154215D01*
X11935883Y-14154215D02*
X11926359Y-14144691D01*
X11926359Y-14144691D02*
X11916835Y-14125643D01*
X11916835Y-14125643D02*
X11907312Y-14087548D01*
X11907312Y-14087548D02*
X11907312Y-14039929D01*
X11907312Y-14039929D02*
X11916835Y-14001834D01*
X11916835Y-14001834D02*
X11926359Y-13982786D01*
X11926359Y-13982786D02*
X11935883Y-13973262D01*
X11935883Y-13973262D02*
X11954931Y-13963739D01*
X12107312Y-14163739D02*
X12107312Y-14030405D01*
X12107312Y-14049453D02*
X12116835Y-14039929D01*
X12116835Y-14039929D02*
X12135883Y-14030405D01*
X12135883Y-14030405D02*
X12164454Y-14030405D01*
X12164454Y-14030405D02*
X12183502Y-14039929D01*
X12183502Y-14039929D02*
X12193026Y-14058977D01*
X12193026Y-14058977D02*
X12193026Y-14163739D01*
X12193026Y-14058977D02*
X12202550Y-14039929D01*
X12202550Y-14039929D02*
X12221597Y-14030405D01*
X12221597Y-14030405D02*
X12250169Y-14030405D01*
X12250169Y-14030405D02*
X12269216Y-14039929D01*
X12269216Y-14039929D02*
X12278740Y-14058977D01*
X12278740Y-14058977D02*
X12278740Y-14163739D01*
X12373978Y-14163739D02*
X12373978Y-14030405D01*
X12373978Y-14049453D02*
X12383502Y-14039929D01*
X12383502Y-14039929D02*
X12402550Y-14030405D01*
X12402550Y-14030405D02*
X12431121Y-14030405D01*
X12431121Y-14030405D02*
X12450169Y-14039929D01*
X12450169Y-14039929D02*
X12459693Y-14058977D01*
X12459693Y-14058977D02*
X12459693Y-14163739D01*
X12459693Y-14058977D02*
X12469216Y-14039929D01*
X12469216Y-14039929D02*
X12488264Y-14030405D01*
X12488264Y-14030405D02*
X12516835Y-14030405D01*
X12516835Y-14030405D02*
X12535883Y-14039929D01*
X12535883Y-14039929D02*
X12545407Y-14058977D01*
X12545407Y-14058977D02*
X12545407Y-14163739D01*
X12935883Y-13954215D02*
X12764455Y-14211358D01*
X13193026Y-13963739D02*
X13212074Y-13963739D01*
X13212074Y-13963739D02*
X13231121Y-13973262D01*
X13231121Y-13973262D02*
X13240645Y-13982786D01*
X13240645Y-13982786D02*
X13250169Y-14001834D01*
X13250169Y-14001834D02*
X13259693Y-14039929D01*
X13259693Y-14039929D02*
X13259693Y-14087548D01*
X13259693Y-14087548D02*
X13250169Y-14125643D01*
X13250169Y-14125643D02*
X13240645Y-14144691D01*
X13240645Y-14144691D02*
X13231121Y-14154215D01*
X13231121Y-14154215D02*
X13212074Y-14163739D01*
X13212074Y-14163739D02*
X13193026Y-14163739D01*
X13193026Y-14163739D02*
X13173978Y-14154215D01*
X13173978Y-14154215D02*
X13164455Y-14144691D01*
X13164455Y-14144691D02*
X13154931Y-14125643D01*
X13154931Y-14125643D02*
X13145407Y-14087548D01*
X13145407Y-14087548D02*
X13145407Y-14039929D01*
X13145407Y-14039929D02*
X13154931Y-14001834D01*
X13154931Y-14001834D02*
X13164455Y-13982786D01*
X13164455Y-13982786D02*
X13173978Y-13973262D01*
X13173978Y-13973262D02*
X13193026Y-13963739D01*
X13345407Y-14144691D02*
X13354931Y-14154215D01*
X13354931Y-14154215D02*
X13345407Y-14163739D01*
X13345407Y-14163739D02*
X13335883Y-14154215D01*
X13335883Y-14154215D02*
X13345407Y-14144691D01*
X13345407Y-14144691D02*
X13345407Y-14163739D01*
X13478740Y-13963739D02*
X13497788Y-13963739D01*
X13497788Y-13963739D02*
X13516836Y-13973262D01*
X13516836Y-13973262D02*
X13526359Y-13982786D01*
X13526359Y-13982786D02*
X13535883Y-14001834D01*
X13535883Y-14001834D02*
X13545407Y-14039929D01*
X13545407Y-14039929D02*
X13545407Y-14087548D01*
X13545407Y-14087548D02*
X13535883Y-14125643D01*
X13535883Y-14125643D02*
X13526359Y-14144691D01*
X13526359Y-14144691D02*
X13516836Y-14154215D01*
X13516836Y-14154215D02*
X13497788Y-14163739D01*
X13497788Y-14163739D02*
X13478740Y-14163739D01*
X13478740Y-14163739D02*
X13459693Y-14154215D01*
X13459693Y-14154215D02*
X13450169Y-14144691D01*
X13450169Y-14144691D02*
X13440645Y-14125643D01*
X13440645Y-14125643D02*
X13431121Y-14087548D01*
X13431121Y-14087548D02*
X13431121Y-14039929D01*
X13431121Y-14039929D02*
X13440645Y-14001834D01*
X13440645Y-14001834D02*
X13450169Y-13982786D01*
X13450169Y-13982786D02*
X13459693Y-13973262D01*
X13459693Y-13973262D02*
X13478740Y-13963739D01*
X13612074Y-13963739D02*
X13735883Y-13963739D01*
X13735883Y-13963739D02*
X13669216Y-14039929D01*
X13669216Y-14039929D02*
X13697788Y-14039929D01*
X13697788Y-14039929D02*
X13716836Y-14049453D01*
X13716836Y-14049453D02*
X13726359Y-14058977D01*
X13726359Y-14058977D02*
X13735883Y-14078024D01*
X13735883Y-14078024D02*
X13735883Y-14125643D01*
X13735883Y-14125643D02*
X13726359Y-14144691D01*
X13726359Y-14144691D02*
X13716836Y-14154215D01*
X13716836Y-14154215D02*
X13697788Y-14163739D01*
X13697788Y-14163739D02*
X13640645Y-14163739D01*
X13640645Y-14163739D02*
X13621597Y-14154215D01*
X13621597Y-14154215D02*
X13612074Y-14144691D01*
X13926359Y-14163739D02*
X13812074Y-14163739D01*
X13869216Y-14163739D02*
X13869216Y-13963739D01*
X13869216Y-13963739D02*
X13850169Y-13992310D01*
X13850169Y-13992310D02*
X13831121Y-14011358D01*
X13831121Y-14011358D02*
X13812074Y-14020881D01*
X14107312Y-13963739D02*
X14012074Y-13963739D01*
X14012074Y-13963739D02*
X14002550Y-14058977D01*
X14002550Y-14058977D02*
X14012074Y-14049453D01*
X14012074Y-14049453D02*
X14031121Y-14039929D01*
X14031121Y-14039929D02*
X14078740Y-14039929D01*
X14078740Y-14039929D02*
X14097788Y-14049453D01*
X14097788Y-14049453D02*
X14107312Y-14058977D01*
X14107312Y-14058977D02*
X14116836Y-14078024D01*
X14116836Y-14078024D02*
X14116836Y-14125643D01*
X14116836Y-14125643D02*
X14107312Y-14144691D01*
X14107312Y-14144691D02*
X14097788Y-14154215D01*
X14097788Y-14154215D02*
X14078740Y-14163739D01*
X14078740Y-14163739D02*
X14031121Y-14163739D01*
X14031121Y-14163739D02*
X14012074Y-14154215D01*
X14012074Y-14154215D02*
X14002550Y-14144691D01*
X14193026Y-13963739D02*
X14193026Y-14001834D01*
X14269217Y-13963739D02*
X14269217Y-14001834D01*
X14564455Y-14239929D02*
X14554931Y-14230405D01*
X14554931Y-14230405D02*
X14535883Y-14201834D01*
X14535883Y-14201834D02*
X14526359Y-14182786D01*
X14526359Y-14182786D02*
X14516836Y-14154215D01*
X14516836Y-14154215D02*
X14507312Y-14106596D01*
X14507312Y-14106596D02*
X14507312Y-14068501D01*
X14507312Y-14068501D02*
X14516836Y-14020881D01*
X14516836Y-14020881D02*
X14526359Y-13992310D01*
X14526359Y-13992310D02*
X14535883Y-13973262D01*
X14535883Y-13973262D02*
X14554931Y-13944691D01*
X14554931Y-13944691D02*
X14564455Y-13935167D01*
X14745407Y-14163739D02*
X14631121Y-14163739D01*
X14688264Y-14163739D02*
X14688264Y-13963739D01*
X14688264Y-13963739D02*
X14669217Y-13992310D01*
X14669217Y-13992310D02*
X14650169Y-14011358D01*
X14650169Y-14011358D02*
X14631121Y-14020881D01*
X14916836Y-14030405D02*
X14916836Y-14163739D01*
X14869217Y-13954215D02*
X14821598Y-14097072D01*
X14821598Y-14097072D02*
X14945407Y-14097072D01*
X15173979Y-14163739D02*
X15173979Y-13963739D01*
X15259693Y-14163739D02*
X15259693Y-14058977D01*
X15259693Y-14058977D02*
X15250169Y-14039929D01*
X15250169Y-14039929D02*
X15231121Y-14030405D01*
X15231121Y-14030405D02*
X15202550Y-14030405D01*
X15202550Y-14030405D02*
X15183502Y-14039929D01*
X15183502Y-14039929D02*
X15173979Y-14049453D01*
X15383502Y-14163739D02*
X15364455Y-14154215D01*
X15364455Y-14154215D02*
X15354931Y-14144691D01*
X15354931Y-14144691D02*
X15345407Y-14125643D01*
X15345407Y-14125643D02*
X15345407Y-14068501D01*
X15345407Y-14068501D02*
X15354931Y-14049453D01*
X15354931Y-14049453D02*
X15364455Y-14039929D01*
X15364455Y-14039929D02*
X15383502Y-14030405D01*
X15383502Y-14030405D02*
X15412074Y-14030405D01*
X15412074Y-14030405D02*
X15431121Y-14039929D01*
X15431121Y-14039929D02*
X15440645Y-14049453D01*
X15440645Y-14049453D02*
X15450169Y-14068501D01*
X15450169Y-14068501D02*
X15450169Y-14125643D01*
X15450169Y-14125643D02*
X15440645Y-14144691D01*
X15440645Y-14144691D02*
X15431121Y-14154215D01*
X15431121Y-14154215D02*
X15412074Y-14163739D01*
X15412074Y-14163739D02*
X15383502Y-14163739D01*
X15564455Y-14163739D02*
X15545407Y-14154215D01*
X15545407Y-14154215D02*
X15535883Y-14135167D01*
X15535883Y-14135167D02*
X15535883Y-13963739D01*
X15716836Y-14154215D02*
X15697788Y-14163739D01*
X15697788Y-14163739D02*
X15659693Y-14163739D01*
X15659693Y-14163739D02*
X15640645Y-14154215D01*
X15640645Y-14154215D02*
X15631121Y-14135167D01*
X15631121Y-14135167D02*
X15631121Y-14058977D01*
X15631121Y-14058977D02*
X15640645Y-14039929D01*
X15640645Y-14039929D02*
X15659693Y-14030405D01*
X15659693Y-14030405D02*
X15697788Y-14030405D01*
X15697788Y-14030405D02*
X15716836Y-14039929D01*
X15716836Y-14039929D02*
X15726360Y-14058977D01*
X15726360Y-14058977D02*
X15726360Y-14078024D01*
X15726360Y-14078024D02*
X15631121Y-14097072D01*
X15802550Y-14154215D02*
X15821598Y-14163739D01*
X15821598Y-14163739D02*
X15859693Y-14163739D01*
X15859693Y-14163739D02*
X15878741Y-14154215D01*
X15878741Y-14154215D02*
X15888264Y-14135167D01*
X15888264Y-14135167D02*
X15888264Y-14125643D01*
X15888264Y-14125643D02*
X15878741Y-14106596D01*
X15878741Y-14106596D02*
X15859693Y-14097072D01*
X15859693Y-14097072D02*
X15831121Y-14097072D01*
X15831121Y-14097072D02*
X15812074Y-14087548D01*
X15812074Y-14087548D02*
X15802550Y-14068501D01*
X15802550Y-14068501D02*
X15802550Y-14058977D01*
X15802550Y-14058977D02*
X15812074Y-14039929D01*
X15812074Y-14039929D02*
X15831121Y-14030405D01*
X15831121Y-14030405D02*
X15859693Y-14030405D01*
X15859693Y-14030405D02*
X15878741Y-14039929D01*
X15954931Y-14239929D02*
X15964455Y-14230405D01*
X15964455Y-14230405D02*
X15983502Y-14201834D01*
X15983502Y-14201834D02*
X15993026Y-14182786D01*
X15993026Y-14182786D02*
X16002550Y-14154215D01*
X16002550Y-14154215D02*
X16012074Y-14106596D01*
X16012074Y-14106596D02*
X16012074Y-14068501D01*
X16012074Y-14068501D02*
X16002550Y-14020881D01*
X16002550Y-14020881D02*
X15993026Y-13992310D01*
X15993026Y-13992310D02*
X15983502Y-13973262D01*
X15983502Y-13973262D02*
X15964455Y-13944691D01*
X15964455Y-13944691D02*
X15954931Y-13935167D01*
D11*
X10899392Y-14291255D02*
X10989392Y-14381255D01*
X10989392Y-14291255D02*
X10899392Y-14381255D01*
X10944392Y-14291255D02*
X10944392Y-14381255D01*
X10899392Y-14336255D02*
X10989392Y-14336255D01*
D10*
X11288264Y-14227739D02*
X11307312Y-14227739D01*
X11307312Y-14227739D02*
X11326359Y-14237262D01*
X11326359Y-14237262D02*
X11335883Y-14246786D01*
X11335883Y-14246786D02*
X11345407Y-14265834D01*
X11345407Y-14265834D02*
X11354931Y-14303929D01*
X11354931Y-14303929D02*
X11354931Y-14351548D01*
X11354931Y-14351548D02*
X11345407Y-14389643D01*
X11345407Y-14389643D02*
X11335883Y-14408691D01*
X11335883Y-14408691D02*
X11326359Y-14418215D01*
X11326359Y-14418215D02*
X11307312Y-14427739D01*
X11307312Y-14427739D02*
X11288264Y-14427739D01*
X11288264Y-14427739D02*
X11269216Y-14418215D01*
X11269216Y-14418215D02*
X11259692Y-14408691D01*
X11259692Y-14408691D02*
X11250169Y-14389643D01*
X11250169Y-14389643D02*
X11240645Y-14351548D01*
X11240645Y-14351548D02*
X11240645Y-14303929D01*
X11240645Y-14303929D02*
X11250169Y-14265834D01*
X11250169Y-14265834D02*
X11259692Y-14246786D01*
X11259692Y-14246786D02*
X11269216Y-14237262D01*
X11269216Y-14237262D02*
X11288264Y-14227739D01*
X11440645Y-14408691D02*
X11450169Y-14418215D01*
X11450169Y-14418215D02*
X11440645Y-14427739D01*
X11440645Y-14427739D02*
X11431121Y-14418215D01*
X11431121Y-14418215D02*
X11440645Y-14408691D01*
X11440645Y-14408691D02*
X11440645Y-14427739D01*
X11545407Y-14427739D02*
X11583502Y-14427739D01*
X11583502Y-14427739D02*
X11602550Y-14418215D01*
X11602550Y-14418215D02*
X11612073Y-14408691D01*
X11612073Y-14408691D02*
X11631121Y-14380120D01*
X11631121Y-14380120D02*
X11640645Y-14342024D01*
X11640645Y-14342024D02*
X11640645Y-14265834D01*
X11640645Y-14265834D02*
X11631121Y-14246786D01*
X11631121Y-14246786D02*
X11621597Y-14237262D01*
X11621597Y-14237262D02*
X11602550Y-14227739D01*
X11602550Y-14227739D02*
X11564454Y-14227739D01*
X11564454Y-14227739D02*
X11545407Y-14237262D01*
X11545407Y-14237262D02*
X11535883Y-14246786D01*
X11535883Y-14246786D02*
X11526359Y-14265834D01*
X11526359Y-14265834D02*
X11526359Y-14313453D01*
X11526359Y-14313453D02*
X11535883Y-14332501D01*
X11535883Y-14332501D02*
X11545407Y-14342024D01*
X11545407Y-14342024D02*
X11564454Y-14351548D01*
X11564454Y-14351548D02*
X11602550Y-14351548D01*
X11602550Y-14351548D02*
X11621597Y-14342024D01*
X11621597Y-14342024D02*
X11631121Y-14332501D01*
X11631121Y-14332501D02*
X11640645Y-14313453D01*
X11764454Y-14227739D02*
X11783502Y-14227739D01*
X11783502Y-14227739D02*
X11802550Y-14237262D01*
X11802550Y-14237262D02*
X11812073Y-14246786D01*
X11812073Y-14246786D02*
X11821597Y-14265834D01*
X11821597Y-14265834D02*
X11831121Y-14303929D01*
X11831121Y-14303929D02*
X11831121Y-14351548D01*
X11831121Y-14351548D02*
X11821597Y-14389643D01*
X11821597Y-14389643D02*
X11812073Y-14408691D01*
X11812073Y-14408691D02*
X11802550Y-14418215D01*
X11802550Y-14418215D02*
X11783502Y-14427739D01*
X11783502Y-14427739D02*
X11764454Y-14427739D01*
X11764454Y-14427739D02*
X11745407Y-14418215D01*
X11745407Y-14418215D02*
X11735883Y-14408691D01*
X11735883Y-14408691D02*
X11726359Y-14389643D01*
X11726359Y-14389643D02*
X11716835Y-14351548D01*
X11716835Y-14351548D02*
X11716835Y-14303929D01*
X11716835Y-14303929D02*
X11726359Y-14265834D01*
X11726359Y-14265834D02*
X11735883Y-14246786D01*
X11735883Y-14246786D02*
X11745407Y-14237262D01*
X11745407Y-14237262D02*
X11764454Y-14227739D01*
X11954931Y-14227739D02*
X11973978Y-14227739D01*
X11973978Y-14227739D02*
X11993026Y-14237262D01*
X11993026Y-14237262D02*
X12002550Y-14246786D01*
X12002550Y-14246786D02*
X12012073Y-14265834D01*
X12012073Y-14265834D02*
X12021597Y-14303929D01*
X12021597Y-14303929D02*
X12021597Y-14351548D01*
X12021597Y-14351548D02*
X12012073Y-14389643D01*
X12012073Y-14389643D02*
X12002550Y-14408691D01*
X12002550Y-14408691D02*
X11993026Y-14418215D01*
X11993026Y-14418215D02*
X11973978Y-14427739D01*
X11973978Y-14427739D02*
X11954931Y-14427739D01*
X11954931Y-14427739D02*
X11935883Y-14418215D01*
X11935883Y-14418215D02*
X11926359Y-14408691D01*
X11926359Y-14408691D02*
X11916835Y-14389643D01*
X11916835Y-14389643D02*
X11907312Y-14351548D01*
X11907312Y-14351548D02*
X11907312Y-14303929D01*
X11907312Y-14303929D02*
X11916835Y-14265834D01*
X11916835Y-14265834D02*
X11926359Y-14246786D01*
X11926359Y-14246786D02*
X11935883Y-14237262D01*
X11935883Y-14237262D02*
X11954931Y-14227739D01*
X12107312Y-14427739D02*
X12107312Y-14294405D01*
X12107312Y-14313453D02*
X12116835Y-14303929D01*
X12116835Y-14303929D02*
X12135883Y-14294405D01*
X12135883Y-14294405D02*
X12164454Y-14294405D01*
X12164454Y-14294405D02*
X12183502Y-14303929D01*
X12183502Y-14303929D02*
X12193026Y-14322977D01*
X12193026Y-14322977D02*
X12193026Y-14427739D01*
X12193026Y-14322977D02*
X12202550Y-14303929D01*
X12202550Y-14303929D02*
X12221597Y-14294405D01*
X12221597Y-14294405D02*
X12250169Y-14294405D01*
X12250169Y-14294405D02*
X12269216Y-14303929D01*
X12269216Y-14303929D02*
X12278740Y-14322977D01*
X12278740Y-14322977D02*
X12278740Y-14427739D01*
X12373978Y-14427739D02*
X12373978Y-14294405D01*
X12373978Y-14313453D02*
X12383502Y-14303929D01*
X12383502Y-14303929D02*
X12402550Y-14294405D01*
X12402550Y-14294405D02*
X12431121Y-14294405D01*
X12431121Y-14294405D02*
X12450169Y-14303929D01*
X12450169Y-14303929D02*
X12459693Y-14322977D01*
X12459693Y-14322977D02*
X12459693Y-14427739D01*
X12459693Y-14322977D02*
X12469216Y-14303929D01*
X12469216Y-14303929D02*
X12488264Y-14294405D01*
X12488264Y-14294405D02*
X12516835Y-14294405D01*
X12516835Y-14294405D02*
X12535883Y-14303929D01*
X12535883Y-14303929D02*
X12545407Y-14322977D01*
X12545407Y-14322977D02*
X12545407Y-14427739D01*
X12935883Y-14218215D02*
X12764455Y-14475358D01*
X13193026Y-14227739D02*
X13212074Y-14227739D01*
X13212074Y-14227739D02*
X13231121Y-14237262D01*
X13231121Y-14237262D02*
X13240645Y-14246786D01*
X13240645Y-14246786D02*
X13250169Y-14265834D01*
X13250169Y-14265834D02*
X13259693Y-14303929D01*
X13259693Y-14303929D02*
X13259693Y-14351548D01*
X13259693Y-14351548D02*
X13250169Y-14389643D01*
X13250169Y-14389643D02*
X13240645Y-14408691D01*
X13240645Y-14408691D02*
X13231121Y-14418215D01*
X13231121Y-14418215D02*
X13212074Y-14427739D01*
X13212074Y-14427739D02*
X13193026Y-14427739D01*
X13193026Y-14427739D02*
X13173978Y-14418215D01*
X13173978Y-14418215D02*
X13164455Y-14408691D01*
X13164455Y-14408691D02*
X13154931Y-14389643D01*
X13154931Y-14389643D02*
X13145407Y-14351548D01*
X13145407Y-14351548D02*
X13145407Y-14303929D01*
X13145407Y-14303929D02*
X13154931Y-14265834D01*
X13154931Y-14265834D02*
X13164455Y-14246786D01*
X13164455Y-14246786D02*
X13173978Y-14237262D01*
X13173978Y-14237262D02*
X13193026Y-14227739D01*
X13345407Y-14408691D02*
X13354931Y-14418215D01*
X13354931Y-14418215D02*
X13345407Y-14427739D01*
X13345407Y-14427739D02*
X13335883Y-14418215D01*
X13335883Y-14418215D02*
X13345407Y-14408691D01*
X13345407Y-14408691D02*
X13345407Y-14427739D01*
X13478740Y-14227739D02*
X13497788Y-14227739D01*
X13497788Y-14227739D02*
X13516836Y-14237262D01*
X13516836Y-14237262D02*
X13526359Y-14246786D01*
X13526359Y-14246786D02*
X13535883Y-14265834D01*
X13535883Y-14265834D02*
X13545407Y-14303929D01*
X13545407Y-14303929D02*
X13545407Y-14351548D01*
X13545407Y-14351548D02*
X13535883Y-14389643D01*
X13535883Y-14389643D02*
X13526359Y-14408691D01*
X13526359Y-14408691D02*
X13516836Y-14418215D01*
X13516836Y-14418215D02*
X13497788Y-14427739D01*
X13497788Y-14427739D02*
X13478740Y-14427739D01*
X13478740Y-14427739D02*
X13459693Y-14418215D01*
X13459693Y-14418215D02*
X13450169Y-14408691D01*
X13450169Y-14408691D02*
X13440645Y-14389643D01*
X13440645Y-14389643D02*
X13431121Y-14351548D01*
X13431121Y-14351548D02*
X13431121Y-14303929D01*
X13431121Y-14303929D02*
X13440645Y-14265834D01*
X13440645Y-14265834D02*
X13450169Y-14246786D01*
X13450169Y-14246786D02*
X13459693Y-14237262D01*
X13459693Y-14237262D02*
X13478740Y-14227739D01*
X13612074Y-14227739D02*
X13735883Y-14227739D01*
X13735883Y-14227739D02*
X13669216Y-14303929D01*
X13669216Y-14303929D02*
X13697788Y-14303929D01*
X13697788Y-14303929D02*
X13716836Y-14313453D01*
X13716836Y-14313453D02*
X13726359Y-14322977D01*
X13726359Y-14322977D02*
X13735883Y-14342024D01*
X13735883Y-14342024D02*
X13735883Y-14389643D01*
X13735883Y-14389643D02*
X13726359Y-14408691D01*
X13726359Y-14408691D02*
X13716836Y-14418215D01*
X13716836Y-14418215D02*
X13697788Y-14427739D01*
X13697788Y-14427739D02*
X13640645Y-14427739D01*
X13640645Y-14427739D02*
X13621597Y-14418215D01*
X13621597Y-14418215D02*
X13612074Y-14408691D01*
X13916836Y-14227739D02*
X13821597Y-14227739D01*
X13821597Y-14227739D02*
X13812074Y-14322977D01*
X13812074Y-14322977D02*
X13821597Y-14313453D01*
X13821597Y-14313453D02*
X13840645Y-14303929D01*
X13840645Y-14303929D02*
X13888264Y-14303929D01*
X13888264Y-14303929D02*
X13907312Y-14313453D01*
X13907312Y-14313453D02*
X13916836Y-14322977D01*
X13916836Y-14322977D02*
X13926359Y-14342024D01*
X13926359Y-14342024D02*
X13926359Y-14389643D01*
X13926359Y-14389643D02*
X13916836Y-14408691D01*
X13916836Y-14408691D02*
X13907312Y-14418215D01*
X13907312Y-14418215D02*
X13888264Y-14427739D01*
X13888264Y-14427739D02*
X13840645Y-14427739D01*
X13840645Y-14427739D02*
X13821597Y-14418215D01*
X13821597Y-14418215D02*
X13812074Y-14408691D01*
X14097788Y-14294405D02*
X14097788Y-14427739D01*
X14050169Y-14218215D02*
X14002550Y-14361072D01*
X14002550Y-14361072D02*
X14126359Y-14361072D01*
X14193026Y-14227739D02*
X14193026Y-14265834D01*
X14269217Y-14227739D02*
X14269217Y-14265834D01*
X14564455Y-14503929D02*
X14554931Y-14494405D01*
X14554931Y-14494405D02*
X14535883Y-14465834D01*
X14535883Y-14465834D02*
X14526359Y-14446786D01*
X14526359Y-14446786D02*
X14516836Y-14418215D01*
X14516836Y-14418215D02*
X14507312Y-14370596D01*
X14507312Y-14370596D02*
X14507312Y-14332501D01*
X14507312Y-14332501D02*
X14516836Y-14284881D01*
X14516836Y-14284881D02*
X14526359Y-14256310D01*
X14526359Y-14256310D02*
X14535883Y-14237262D01*
X14535883Y-14237262D02*
X14554931Y-14208691D01*
X14554931Y-14208691D02*
X14564455Y-14199167D01*
X14726359Y-14294405D02*
X14726359Y-14427739D01*
X14678740Y-14218215D02*
X14631121Y-14361072D01*
X14631121Y-14361072D02*
X14754931Y-14361072D01*
X14983502Y-14427739D02*
X14983502Y-14227739D01*
X15069217Y-14427739D02*
X15069217Y-14322977D01*
X15069217Y-14322977D02*
X15059693Y-14303929D01*
X15059693Y-14303929D02*
X15040645Y-14294405D01*
X15040645Y-14294405D02*
X15012074Y-14294405D01*
X15012074Y-14294405D02*
X14993026Y-14303929D01*
X14993026Y-14303929D02*
X14983502Y-14313453D01*
X15193026Y-14427739D02*
X15173979Y-14418215D01*
X15173979Y-14418215D02*
X15164455Y-14408691D01*
X15164455Y-14408691D02*
X15154931Y-14389643D01*
X15154931Y-14389643D02*
X15154931Y-14332501D01*
X15154931Y-14332501D02*
X15164455Y-14313453D01*
X15164455Y-14313453D02*
X15173979Y-14303929D01*
X15173979Y-14303929D02*
X15193026Y-14294405D01*
X15193026Y-14294405D02*
X15221598Y-14294405D01*
X15221598Y-14294405D02*
X15240645Y-14303929D01*
X15240645Y-14303929D02*
X15250169Y-14313453D01*
X15250169Y-14313453D02*
X15259693Y-14332501D01*
X15259693Y-14332501D02*
X15259693Y-14389643D01*
X15259693Y-14389643D02*
X15250169Y-14408691D01*
X15250169Y-14408691D02*
X15240645Y-14418215D01*
X15240645Y-14418215D02*
X15221598Y-14427739D01*
X15221598Y-14427739D02*
X15193026Y-14427739D01*
X15373979Y-14427739D02*
X15354931Y-14418215D01*
X15354931Y-14418215D02*
X15345407Y-14399167D01*
X15345407Y-14399167D02*
X15345407Y-14227739D01*
X15526360Y-14418215D02*
X15507312Y-14427739D01*
X15507312Y-14427739D02*
X15469217Y-14427739D01*
X15469217Y-14427739D02*
X15450169Y-14418215D01*
X15450169Y-14418215D02*
X15440645Y-14399167D01*
X15440645Y-14399167D02*
X15440645Y-14322977D01*
X15440645Y-14322977D02*
X15450169Y-14303929D01*
X15450169Y-14303929D02*
X15469217Y-14294405D01*
X15469217Y-14294405D02*
X15507312Y-14294405D01*
X15507312Y-14294405D02*
X15526360Y-14303929D01*
X15526360Y-14303929D02*
X15535883Y-14322977D01*
X15535883Y-14322977D02*
X15535883Y-14342024D01*
X15535883Y-14342024D02*
X15440645Y-14361072D01*
X15612074Y-14418215D02*
X15631121Y-14427739D01*
X15631121Y-14427739D02*
X15669217Y-14427739D01*
X15669217Y-14427739D02*
X15688264Y-14418215D01*
X15688264Y-14418215D02*
X15697788Y-14399167D01*
X15697788Y-14399167D02*
X15697788Y-14389643D01*
X15697788Y-14389643D02*
X15688264Y-14370596D01*
X15688264Y-14370596D02*
X15669217Y-14361072D01*
X15669217Y-14361072D02*
X15640645Y-14361072D01*
X15640645Y-14361072D02*
X15621598Y-14351548D01*
X15621598Y-14351548D02*
X15612074Y-14332501D01*
X15612074Y-14332501D02*
X15612074Y-14322977D01*
X15612074Y-14322977D02*
X15621598Y-14303929D01*
X15621598Y-14303929D02*
X15640645Y-14294405D01*
X15640645Y-14294405D02*
X15669217Y-14294405D01*
X15669217Y-14294405D02*
X15688264Y-14303929D01*
X15764455Y-14503929D02*
X15773979Y-14494405D01*
X15773979Y-14494405D02*
X15793026Y-14465834D01*
X15793026Y-14465834D02*
X15802550Y-14446786D01*
X15802550Y-14446786D02*
X15812074Y-14418215D01*
X15812074Y-14418215D02*
X15821598Y-14370596D01*
X15821598Y-14370596D02*
X15821598Y-14332501D01*
X15821598Y-14332501D02*
X15812074Y-14284881D01*
X15812074Y-14284881D02*
X15802550Y-14256310D01*
X15802550Y-14256310D02*
X15793026Y-14237262D01*
X15793026Y-14237262D02*
X15773979Y-14208691D01*
X15773979Y-14208691D02*
X15764455Y-14199167D01*
D11*
X10894392Y-14552755D02*
X10989392Y-14647755D01*
X10989392Y-14552755D02*
X10894392Y-14647755D01*
X10975480Y-14633843D02*
X10975480Y-14566667D01*
X10908304Y-14566667D01*
X10908304Y-14633843D01*
X10975480Y-14633843D01*
D10*
X11288264Y-14491739D02*
X11307312Y-14491739D01*
X11307312Y-14491739D02*
X11326359Y-14501262D01*
X11326359Y-14501262D02*
X11335883Y-14510786D01*
X11335883Y-14510786D02*
X11345407Y-14529834D01*
X11345407Y-14529834D02*
X11354931Y-14567929D01*
X11354931Y-14567929D02*
X11354931Y-14615548D01*
X11354931Y-14615548D02*
X11345407Y-14653643D01*
X11345407Y-14653643D02*
X11335883Y-14672691D01*
X11335883Y-14672691D02*
X11326359Y-14682215D01*
X11326359Y-14682215D02*
X11307312Y-14691739D01*
X11307312Y-14691739D02*
X11288264Y-14691739D01*
X11288264Y-14691739D02*
X11269216Y-14682215D01*
X11269216Y-14682215D02*
X11259692Y-14672691D01*
X11259692Y-14672691D02*
X11250169Y-14653643D01*
X11250169Y-14653643D02*
X11240645Y-14615548D01*
X11240645Y-14615548D02*
X11240645Y-14567929D01*
X11240645Y-14567929D02*
X11250169Y-14529834D01*
X11250169Y-14529834D02*
X11259692Y-14510786D01*
X11259692Y-14510786D02*
X11269216Y-14501262D01*
X11269216Y-14501262D02*
X11288264Y-14491739D01*
X11440645Y-14672691D02*
X11450169Y-14682215D01*
X11450169Y-14682215D02*
X11440645Y-14691739D01*
X11440645Y-14691739D02*
X11431121Y-14682215D01*
X11431121Y-14682215D02*
X11440645Y-14672691D01*
X11440645Y-14672691D02*
X11440645Y-14691739D01*
X11545407Y-14691739D02*
X11583502Y-14691739D01*
X11583502Y-14691739D02*
X11602550Y-14682215D01*
X11602550Y-14682215D02*
X11612073Y-14672691D01*
X11612073Y-14672691D02*
X11631121Y-14644120D01*
X11631121Y-14644120D02*
X11640645Y-14606024D01*
X11640645Y-14606024D02*
X11640645Y-14529834D01*
X11640645Y-14529834D02*
X11631121Y-14510786D01*
X11631121Y-14510786D02*
X11621597Y-14501262D01*
X11621597Y-14501262D02*
X11602550Y-14491739D01*
X11602550Y-14491739D02*
X11564454Y-14491739D01*
X11564454Y-14491739D02*
X11545407Y-14501262D01*
X11545407Y-14501262D02*
X11535883Y-14510786D01*
X11535883Y-14510786D02*
X11526359Y-14529834D01*
X11526359Y-14529834D02*
X11526359Y-14577453D01*
X11526359Y-14577453D02*
X11535883Y-14596501D01*
X11535883Y-14596501D02*
X11545407Y-14606024D01*
X11545407Y-14606024D02*
X11564454Y-14615548D01*
X11564454Y-14615548D02*
X11602550Y-14615548D01*
X11602550Y-14615548D02*
X11621597Y-14606024D01*
X11621597Y-14606024D02*
X11631121Y-14596501D01*
X11631121Y-14596501D02*
X11640645Y-14577453D01*
X11821597Y-14491739D02*
X11726359Y-14491739D01*
X11726359Y-14491739D02*
X11716835Y-14586977D01*
X11716835Y-14586977D02*
X11726359Y-14577453D01*
X11726359Y-14577453D02*
X11745407Y-14567929D01*
X11745407Y-14567929D02*
X11793026Y-14567929D01*
X11793026Y-14567929D02*
X11812073Y-14577453D01*
X11812073Y-14577453D02*
X11821597Y-14586977D01*
X11821597Y-14586977D02*
X11831121Y-14606024D01*
X11831121Y-14606024D02*
X11831121Y-14653643D01*
X11831121Y-14653643D02*
X11821597Y-14672691D01*
X11821597Y-14672691D02*
X11812073Y-14682215D01*
X11812073Y-14682215D02*
X11793026Y-14691739D01*
X11793026Y-14691739D02*
X11745407Y-14691739D01*
X11745407Y-14691739D02*
X11726359Y-14682215D01*
X11726359Y-14682215D02*
X11716835Y-14672691D01*
X11954931Y-14491739D02*
X11973978Y-14491739D01*
X11973978Y-14491739D02*
X11993026Y-14501262D01*
X11993026Y-14501262D02*
X12002550Y-14510786D01*
X12002550Y-14510786D02*
X12012073Y-14529834D01*
X12012073Y-14529834D02*
X12021597Y-14567929D01*
X12021597Y-14567929D02*
X12021597Y-14615548D01*
X12021597Y-14615548D02*
X12012073Y-14653643D01*
X12012073Y-14653643D02*
X12002550Y-14672691D01*
X12002550Y-14672691D02*
X11993026Y-14682215D01*
X11993026Y-14682215D02*
X11973978Y-14691739D01*
X11973978Y-14691739D02*
X11954931Y-14691739D01*
X11954931Y-14691739D02*
X11935883Y-14682215D01*
X11935883Y-14682215D02*
X11926359Y-14672691D01*
X11926359Y-14672691D02*
X11916835Y-14653643D01*
X11916835Y-14653643D02*
X11907312Y-14615548D01*
X11907312Y-14615548D02*
X11907312Y-14567929D01*
X11907312Y-14567929D02*
X11916835Y-14529834D01*
X11916835Y-14529834D02*
X11926359Y-14510786D01*
X11926359Y-14510786D02*
X11935883Y-14501262D01*
X11935883Y-14501262D02*
X11954931Y-14491739D01*
X12107312Y-14691739D02*
X12107312Y-14558405D01*
X12107312Y-14577453D02*
X12116835Y-14567929D01*
X12116835Y-14567929D02*
X12135883Y-14558405D01*
X12135883Y-14558405D02*
X12164454Y-14558405D01*
X12164454Y-14558405D02*
X12183502Y-14567929D01*
X12183502Y-14567929D02*
X12193026Y-14586977D01*
X12193026Y-14586977D02*
X12193026Y-14691739D01*
X12193026Y-14586977D02*
X12202550Y-14567929D01*
X12202550Y-14567929D02*
X12221597Y-14558405D01*
X12221597Y-14558405D02*
X12250169Y-14558405D01*
X12250169Y-14558405D02*
X12269216Y-14567929D01*
X12269216Y-14567929D02*
X12278740Y-14586977D01*
X12278740Y-14586977D02*
X12278740Y-14691739D01*
X12373978Y-14691739D02*
X12373978Y-14558405D01*
X12373978Y-14577453D02*
X12383502Y-14567929D01*
X12383502Y-14567929D02*
X12402550Y-14558405D01*
X12402550Y-14558405D02*
X12431121Y-14558405D01*
X12431121Y-14558405D02*
X12450169Y-14567929D01*
X12450169Y-14567929D02*
X12459693Y-14586977D01*
X12459693Y-14586977D02*
X12459693Y-14691739D01*
X12459693Y-14586977D02*
X12469216Y-14567929D01*
X12469216Y-14567929D02*
X12488264Y-14558405D01*
X12488264Y-14558405D02*
X12516835Y-14558405D01*
X12516835Y-14558405D02*
X12535883Y-14567929D01*
X12535883Y-14567929D02*
X12545407Y-14586977D01*
X12545407Y-14586977D02*
X12545407Y-14691739D01*
X12935883Y-14482215D02*
X12764455Y-14739358D01*
X13193026Y-14491739D02*
X13212074Y-14491739D01*
X13212074Y-14491739D02*
X13231121Y-14501262D01*
X13231121Y-14501262D02*
X13240645Y-14510786D01*
X13240645Y-14510786D02*
X13250169Y-14529834D01*
X13250169Y-14529834D02*
X13259693Y-14567929D01*
X13259693Y-14567929D02*
X13259693Y-14615548D01*
X13259693Y-14615548D02*
X13250169Y-14653643D01*
X13250169Y-14653643D02*
X13240645Y-14672691D01*
X13240645Y-14672691D02*
X13231121Y-14682215D01*
X13231121Y-14682215D02*
X13212074Y-14691739D01*
X13212074Y-14691739D02*
X13193026Y-14691739D01*
X13193026Y-14691739D02*
X13173978Y-14682215D01*
X13173978Y-14682215D02*
X13164455Y-14672691D01*
X13164455Y-14672691D02*
X13154931Y-14653643D01*
X13154931Y-14653643D02*
X13145407Y-14615548D01*
X13145407Y-14615548D02*
X13145407Y-14567929D01*
X13145407Y-14567929D02*
X13154931Y-14529834D01*
X13154931Y-14529834D02*
X13164455Y-14510786D01*
X13164455Y-14510786D02*
X13173978Y-14501262D01*
X13173978Y-14501262D02*
X13193026Y-14491739D01*
X13345407Y-14672691D02*
X13354931Y-14682215D01*
X13354931Y-14682215D02*
X13345407Y-14691739D01*
X13345407Y-14691739D02*
X13335883Y-14682215D01*
X13335883Y-14682215D02*
X13345407Y-14672691D01*
X13345407Y-14672691D02*
X13345407Y-14691739D01*
X13478740Y-14491739D02*
X13497788Y-14491739D01*
X13497788Y-14491739D02*
X13516836Y-14501262D01*
X13516836Y-14501262D02*
X13526359Y-14510786D01*
X13526359Y-14510786D02*
X13535883Y-14529834D01*
X13535883Y-14529834D02*
X13545407Y-14567929D01*
X13545407Y-14567929D02*
X13545407Y-14615548D01*
X13545407Y-14615548D02*
X13535883Y-14653643D01*
X13535883Y-14653643D02*
X13526359Y-14672691D01*
X13526359Y-14672691D02*
X13516836Y-14682215D01*
X13516836Y-14682215D02*
X13497788Y-14691739D01*
X13497788Y-14691739D02*
X13478740Y-14691739D01*
X13478740Y-14691739D02*
X13459693Y-14682215D01*
X13459693Y-14682215D02*
X13450169Y-14672691D01*
X13450169Y-14672691D02*
X13440645Y-14653643D01*
X13440645Y-14653643D02*
X13431121Y-14615548D01*
X13431121Y-14615548D02*
X13431121Y-14567929D01*
X13431121Y-14567929D02*
X13440645Y-14529834D01*
X13440645Y-14529834D02*
X13450169Y-14510786D01*
X13450169Y-14510786D02*
X13459693Y-14501262D01*
X13459693Y-14501262D02*
X13478740Y-14491739D01*
X13612074Y-14491739D02*
X13735883Y-14491739D01*
X13735883Y-14491739D02*
X13669216Y-14567929D01*
X13669216Y-14567929D02*
X13697788Y-14567929D01*
X13697788Y-14567929D02*
X13716836Y-14577453D01*
X13716836Y-14577453D02*
X13726359Y-14586977D01*
X13726359Y-14586977D02*
X13735883Y-14606024D01*
X13735883Y-14606024D02*
X13735883Y-14653643D01*
X13735883Y-14653643D02*
X13726359Y-14672691D01*
X13726359Y-14672691D02*
X13716836Y-14682215D01*
X13716836Y-14682215D02*
X13697788Y-14691739D01*
X13697788Y-14691739D02*
X13640645Y-14691739D01*
X13640645Y-14691739D02*
X13621597Y-14682215D01*
X13621597Y-14682215D02*
X13612074Y-14672691D01*
X13802550Y-14491739D02*
X13935883Y-14491739D01*
X13935883Y-14491739D02*
X13850169Y-14691739D01*
X14097788Y-14558405D02*
X14097788Y-14691739D01*
X14050169Y-14482215D02*
X14002550Y-14625072D01*
X14002550Y-14625072D02*
X14126359Y-14625072D01*
X14193026Y-14491739D02*
X14193026Y-14529834D01*
X14269217Y-14491739D02*
X14269217Y-14529834D01*
X14564455Y-14767929D02*
X14554931Y-14758405D01*
X14554931Y-14758405D02*
X14535883Y-14729834D01*
X14535883Y-14729834D02*
X14526359Y-14710786D01*
X14526359Y-14710786D02*
X14516836Y-14682215D01*
X14516836Y-14682215D02*
X14507312Y-14634596D01*
X14507312Y-14634596D02*
X14507312Y-14596501D01*
X14507312Y-14596501D02*
X14516836Y-14548881D01*
X14516836Y-14548881D02*
X14526359Y-14520310D01*
X14526359Y-14520310D02*
X14535883Y-14501262D01*
X14535883Y-14501262D02*
X14554931Y-14472691D01*
X14554931Y-14472691D02*
X14564455Y-14463167D01*
X14621598Y-14491739D02*
X14745407Y-14491739D01*
X14745407Y-14491739D02*
X14678740Y-14567929D01*
X14678740Y-14567929D02*
X14707312Y-14567929D01*
X14707312Y-14567929D02*
X14726359Y-14577453D01*
X14726359Y-14577453D02*
X14735883Y-14586977D01*
X14735883Y-14586977D02*
X14745407Y-14606024D01*
X14745407Y-14606024D02*
X14745407Y-14653643D01*
X14745407Y-14653643D02*
X14735883Y-14672691D01*
X14735883Y-14672691D02*
X14726359Y-14682215D01*
X14726359Y-14682215D02*
X14707312Y-14691739D01*
X14707312Y-14691739D02*
X14650169Y-14691739D01*
X14650169Y-14691739D02*
X14631121Y-14682215D01*
X14631121Y-14682215D02*
X14621598Y-14672691D01*
X14983502Y-14691739D02*
X14983502Y-14491739D01*
X15069217Y-14691739D02*
X15069217Y-14586977D01*
X15069217Y-14586977D02*
X15059693Y-14567929D01*
X15059693Y-14567929D02*
X15040645Y-14558405D01*
X15040645Y-14558405D02*
X15012074Y-14558405D01*
X15012074Y-14558405D02*
X14993026Y-14567929D01*
X14993026Y-14567929D02*
X14983502Y-14577453D01*
X15193026Y-14691739D02*
X15173979Y-14682215D01*
X15173979Y-14682215D02*
X15164455Y-14672691D01*
X15164455Y-14672691D02*
X15154931Y-14653643D01*
X15154931Y-14653643D02*
X15154931Y-14596501D01*
X15154931Y-14596501D02*
X15164455Y-14577453D01*
X15164455Y-14577453D02*
X15173979Y-14567929D01*
X15173979Y-14567929D02*
X15193026Y-14558405D01*
X15193026Y-14558405D02*
X15221598Y-14558405D01*
X15221598Y-14558405D02*
X15240645Y-14567929D01*
X15240645Y-14567929D02*
X15250169Y-14577453D01*
X15250169Y-14577453D02*
X15259693Y-14596501D01*
X15259693Y-14596501D02*
X15259693Y-14653643D01*
X15259693Y-14653643D02*
X15250169Y-14672691D01*
X15250169Y-14672691D02*
X15240645Y-14682215D01*
X15240645Y-14682215D02*
X15221598Y-14691739D01*
X15221598Y-14691739D02*
X15193026Y-14691739D01*
X15373979Y-14691739D02*
X15354931Y-14682215D01*
X15354931Y-14682215D02*
X15345407Y-14663167D01*
X15345407Y-14663167D02*
X15345407Y-14491739D01*
X15526360Y-14682215D02*
X15507312Y-14691739D01*
X15507312Y-14691739D02*
X15469217Y-14691739D01*
X15469217Y-14691739D02*
X15450169Y-14682215D01*
X15450169Y-14682215D02*
X15440645Y-14663167D01*
X15440645Y-14663167D02*
X15440645Y-14586977D01*
X15440645Y-14586977D02*
X15450169Y-14567929D01*
X15450169Y-14567929D02*
X15469217Y-14558405D01*
X15469217Y-14558405D02*
X15507312Y-14558405D01*
X15507312Y-14558405D02*
X15526360Y-14567929D01*
X15526360Y-14567929D02*
X15535883Y-14586977D01*
X15535883Y-14586977D02*
X15535883Y-14606024D01*
X15535883Y-14606024D02*
X15440645Y-14625072D01*
X15612074Y-14682215D02*
X15631121Y-14691739D01*
X15631121Y-14691739D02*
X15669217Y-14691739D01*
X15669217Y-14691739D02*
X15688264Y-14682215D01*
X15688264Y-14682215D02*
X15697788Y-14663167D01*
X15697788Y-14663167D02*
X15697788Y-14653643D01*
X15697788Y-14653643D02*
X15688264Y-14634596D01*
X15688264Y-14634596D02*
X15669217Y-14625072D01*
X15669217Y-14625072D02*
X15640645Y-14625072D01*
X15640645Y-14625072D02*
X15621598Y-14615548D01*
X15621598Y-14615548D02*
X15612074Y-14596501D01*
X15612074Y-14596501D02*
X15612074Y-14586977D01*
X15612074Y-14586977D02*
X15621598Y-14567929D01*
X15621598Y-14567929D02*
X15640645Y-14558405D01*
X15640645Y-14558405D02*
X15669217Y-14558405D01*
X15669217Y-14558405D02*
X15688264Y-14567929D01*
X15764455Y-14767929D02*
X15773979Y-14758405D01*
X15773979Y-14758405D02*
X15793026Y-14729834D01*
X15793026Y-14729834D02*
X15802550Y-14710786D01*
X15802550Y-14710786D02*
X15812074Y-14682215D01*
X15812074Y-14682215D02*
X15821598Y-14634596D01*
X15821598Y-14634596D02*
X15821598Y-14596501D01*
X15821598Y-14596501D02*
X15812074Y-14548881D01*
X15812074Y-14548881D02*
X15802550Y-14520310D01*
X15802550Y-14520310D02*
X15793026Y-14501262D01*
X15793026Y-14501262D02*
X15773979Y-14472691D01*
X15773979Y-14472691D02*
X15764455Y-14463167D01*
D11*
X10889392Y-14814255D02*
X10989392Y-14914255D01*
X10989392Y-14814255D02*
X10889392Y-14914255D01*
X10939392Y-14914255D02*
X10989392Y-14864255D01*
X10939392Y-14814255D01*
X10889392Y-14864255D01*
X10939392Y-14914255D01*
D10*
X11354931Y-14955739D02*
X11240645Y-14955739D01*
X11297788Y-14955739D02*
X11297788Y-14755739D01*
X11297788Y-14755739D02*
X11278740Y-14784310D01*
X11278740Y-14784310D02*
X11259692Y-14803358D01*
X11259692Y-14803358D02*
X11240645Y-14812881D01*
X11440645Y-14936691D02*
X11450169Y-14946215D01*
X11450169Y-14946215D02*
X11440645Y-14955739D01*
X11440645Y-14955739D02*
X11431121Y-14946215D01*
X11431121Y-14946215D02*
X11440645Y-14936691D01*
X11440645Y-14936691D02*
X11440645Y-14955739D01*
X11573978Y-14755739D02*
X11593026Y-14755739D01*
X11593026Y-14755739D02*
X11612073Y-14765262D01*
X11612073Y-14765262D02*
X11621597Y-14774786D01*
X11621597Y-14774786D02*
X11631121Y-14793834D01*
X11631121Y-14793834D02*
X11640645Y-14831929D01*
X11640645Y-14831929D02*
X11640645Y-14879548D01*
X11640645Y-14879548D02*
X11631121Y-14917643D01*
X11631121Y-14917643D02*
X11621597Y-14936691D01*
X11621597Y-14936691D02*
X11612073Y-14946215D01*
X11612073Y-14946215D02*
X11593026Y-14955739D01*
X11593026Y-14955739D02*
X11573978Y-14955739D01*
X11573978Y-14955739D02*
X11554931Y-14946215D01*
X11554931Y-14946215D02*
X11545407Y-14936691D01*
X11545407Y-14936691D02*
X11535883Y-14917643D01*
X11535883Y-14917643D02*
X11526359Y-14879548D01*
X11526359Y-14879548D02*
X11526359Y-14831929D01*
X11526359Y-14831929D02*
X11535883Y-14793834D01*
X11535883Y-14793834D02*
X11545407Y-14774786D01*
X11545407Y-14774786D02*
X11554931Y-14765262D01*
X11554931Y-14765262D02*
X11573978Y-14755739D01*
X11764454Y-14755739D02*
X11783502Y-14755739D01*
X11783502Y-14755739D02*
X11802550Y-14765262D01*
X11802550Y-14765262D02*
X11812073Y-14774786D01*
X11812073Y-14774786D02*
X11821597Y-14793834D01*
X11821597Y-14793834D02*
X11831121Y-14831929D01*
X11831121Y-14831929D02*
X11831121Y-14879548D01*
X11831121Y-14879548D02*
X11821597Y-14917643D01*
X11821597Y-14917643D02*
X11812073Y-14936691D01*
X11812073Y-14936691D02*
X11802550Y-14946215D01*
X11802550Y-14946215D02*
X11783502Y-14955739D01*
X11783502Y-14955739D02*
X11764454Y-14955739D01*
X11764454Y-14955739D02*
X11745407Y-14946215D01*
X11745407Y-14946215D02*
X11735883Y-14936691D01*
X11735883Y-14936691D02*
X11726359Y-14917643D01*
X11726359Y-14917643D02*
X11716835Y-14879548D01*
X11716835Y-14879548D02*
X11716835Y-14831929D01*
X11716835Y-14831929D02*
X11726359Y-14793834D01*
X11726359Y-14793834D02*
X11735883Y-14774786D01*
X11735883Y-14774786D02*
X11745407Y-14765262D01*
X11745407Y-14765262D02*
X11764454Y-14755739D01*
X11954931Y-14755739D02*
X11973978Y-14755739D01*
X11973978Y-14755739D02*
X11993026Y-14765262D01*
X11993026Y-14765262D02*
X12002550Y-14774786D01*
X12002550Y-14774786D02*
X12012073Y-14793834D01*
X12012073Y-14793834D02*
X12021597Y-14831929D01*
X12021597Y-14831929D02*
X12021597Y-14879548D01*
X12021597Y-14879548D02*
X12012073Y-14917643D01*
X12012073Y-14917643D02*
X12002550Y-14936691D01*
X12002550Y-14936691D02*
X11993026Y-14946215D01*
X11993026Y-14946215D02*
X11973978Y-14955739D01*
X11973978Y-14955739D02*
X11954931Y-14955739D01*
X11954931Y-14955739D02*
X11935883Y-14946215D01*
X11935883Y-14946215D02*
X11926359Y-14936691D01*
X11926359Y-14936691D02*
X11916835Y-14917643D01*
X11916835Y-14917643D02*
X11907312Y-14879548D01*
X11907312Y-14879548D02*
X11907312Y-14831929D01*
X11907312Y-14831929D02*
X11916835Y-14793834D01*
X11916835Y-14793834D02*
X11926359Y-14774786D01*
X11926359Y-14774786D02*
X11935883Y-14765262D01*
X11935883Y-14765262D02*
X11954931Y-14755739D01*
X12107312Y-14955739D02*
X12107312Y-14822405D01*
X12107312Y-14841453D02*
X12116835Y-14831929D01*
X12116835Y-14831929D02*
X12135883Y-14822405D01*
X12135883Y-14822405D02*
X12164454Y-14822405D01*
X12164454Y-14822405D02*
X12183502Y-14831929D01*
X12183502Y-14831929D02*
X12193026Y-14850977D01*
X12193026Y-14850977D02*
X12193026Y-14955739D01*
X12193026Y-14850977D02*
X12202550Y-14831929D01*
X12202550Y-14831929D02*
X12221597Y-14822405D01*
X12221597Y-14822405D02*
X12250169Y-14822405D01*
X12250169Y-14822405D02*
X12269216Y-14831929D01*
X12269216Y-14831929D02*
X12278740Y-14850977D01*
X12278740Y-14850977D02*
X12278740Y-14955739D01*
X12373978Y-14955739D02*
X12373978Y-14822405D01*
X12373978Y-14841453D02*
X12383502Y-14831929D01*
X12383502Y-14831929D02*
X12402550Y-14822405D01*
X12402550Y-14822405D02*
X12431121Y-14822405D01*
X12431121Y-14822405D02*
X12450169Y-14831929D01*
X12450169Y-14831929D02*
X12459693Y-14850977D01*
X12459693Y-14850977D02*
X12459693Y-14955739D01*
X12459693Y-14850977D02*
X12469216Y-14831929D01*
X12469216Y-14831929D02*
X12488264Y-14822405D01*
X12488264Y-14822405D02*
X12516835Y-14822405D01*
X12516835Y-14822405D02*
X12535883Y-14831929D01*
X12535883Y-14831929D02*
X12545407Y-14850977D01*
X12545407Y-14850977D02*
X12545407Y-14955739D01*
X12935883Y-14746215D02*
X12764455Y-15003358D01*
X13193026Y-14755739D02*
X13212074Y-14755739D01*
X13212074Y-14755739D02*
X13231121Y-14765262D01*
X13231121Y-14765262D02*
X13240645Y-14774786D01*
X13240645Y-14774786D02*
X13250169Y-14793834D01*
X13250169Y-14793834D02*
X13259693Y-14831929D01*
X13259693Y-14831929D02*
X13259693Y-14879548D01*
X13259693Y-14879548D02*
X13250169Y-14917643D01*
X13250169Y-14917643D02*
X13240645Y-14936691D01*
X13240645Y-14936691D02*
X13231121Y-14946215D01*
X13231121Y-14946215D02*
X13212074Y-14955739D01*
X13212074Y-14955739D02*
X13193026Y-14955739D01*
X13193026Y-14955739D02*
X13173978Y-14946215D01*
X13173978Y-14946215D02*
X13164455Y-14936691D01*
X13164455Y-14936691D02*
X13154931Y-14917643D01*
X13154931Y-14917643D02*
X13145407Y-14879548D01*
X13145407Y-14879548D02*
X13145407Y-14831929D01*
X13145407Y-14831929D02*
X13154931Y-14793834D01*
X13154931Y-14793834D02*
X13164455Y-14774786D01*
X13164455Y-14774786D02*
X13173978Y-14765262D01*
X13173978Y-14765262D02*
X13193026Y-14755739D01*
X13345407Y-14936691D02*
X13354931Y-14946215D01*
X13354931Y-14946215D02*
X13345407Y-14955739D01*
X13345407Y-14955739D02*
X13335883Y-14946215D01*
X13335883Y-14946215D02*
X13345407Y-14936691D01*
X13345407Y-14936691D02*
X13345407Y-14955739D01*
X13478740Y-14755739D02*
X13497788Y-14755739D01*
X13497788Y-14755739D02*
X13516836Y-14765262D01*
X13516836Y-14765262D02*
X13526359Y-14774786D01*
X13526359Y-14774786D02*
X13535883Y-14793834D01*
X13535883Y-14793834D02*
X13545407Y-14831929D01*
X13545407Y-14831929D02*
X13545407Y-14879548D01*
X13545407Y-14879548D02*
X13535883Y-14917643D01*
X13535883Y-14917643D02*
X13526359Y-14936691D01*
X13526359Y-14936691D02*
X13516836Y-14946215D01*
X13516836Y-14946215D02*
X13497788Y-14955739D01*
X13497788Y-14955739D02*
X13478740Y-14955739D01*
X13478740Y-14955739D02*
X13459693Y-14946215D01*
X13459693Y-14946215D02*
X13450169Y-14936691D01*
X13450169Y-14936691D02*
X13440645Y-14917643D01*
X13440645Y-14917643D02*
X13431121Y-14879548D01*
X13431121Y-14879548D02*
X13431121Y-14831929D01*
X13431121Y-14831929D02*
X13440645Y-14793834D01*
X13440645Y-14793834D02*
X13450169Y-14774786D01*
X13450169Y-14774786D02*
X13459693Y-14765262D01*
X13459693Y-14765262D02*
X13478740Y-14755739D01*
X13612074Y-14755739D02*
X13735883Y-14755739D01*
X13735883Y-14755739D02*
X13669216Y-14831929D01*
X13669216Y-14831929D02*
X13697788Y-14831929D01*
X13697788Y-14831929D02*
X13716836Y-14841453D01*
X13716836Y-14841453D02*
X13726359Y-14850977D01*
X13726359Y-14850977D02*
X13735883Y-14870024D01*
X13735883Y-14870024D02*
X13735883Y-14917643D01*
X13735883Y-14917643D02*
X13726359Y-14936691D01*
X13726359Y-14936691D02*
X13716836Y-14946215D01*
X13716836Y-14946215D02*
X13697788Y-14955739D01*
X13697788Y-14955739D02*
X13640645Y-14955739D01*
X13640645Y-14955739D02*
X13621597Y-14946215D01*
X13621597Y-14946215D02*
X13612074Y-14936691D01*
X13831121Y-14955739D02*
X13869216Y-14955739D01*
X13869216Y-14955739D02*
X13888264Y-14946215D01*
X13888264Y-14946215D02*
X13897788Y-14936691D01*
X13897788Y-14936691D02*
X13916836Y-14908120D01*
X13916836Y-14908120D02*
X13926359Y-14870024D01*
X13926359Y-14870024D02*
X13926359Y-14793834D01*
X13926359Y-14793834D02*
X13916836Y-14774786D01*
X13916836Y-14774786D02*
X13907312Y-14765262D01*
X13907312Y-14765262D02*
X13888264Y-14755739D01*
X13888264Y-14755739D02*
X13850169Y-14755739D01*
X13850169Y-14755739D02*
X13831121Y-14765262D01*
X13831121Y-14765262D02*
X13821597Y-14774786D01*
X13821597Y-14774786D02*
X13812074Y-14793834D01*
X13812074Y-14793834D02*
X13812074Y-14841453D01*
X13812074Y-14841453D02*
X13821597Y-14860501D01*
X13821597Y-14860501D02*
X13831121Y-14870024D01*
X13831121Y-14870024D02*
X13850169Y-14879548D01*
X13850169Y-14879548D02*
X13888264Y-14879548D01*
X13888264Y-14879548D02*
X13907312Y-14870024D01*
X13907312Y-14870024D02*
X13916836Y-14860501D01*
X13916836Y-14860501D02*
X13926359Y-14841453D01*
X14097788Y-14822405D02*
X14097788Y-14955739D01*
X14050169Y-14746215D02*
X14002550Y-14889072D01*
X14002550Y-14889072D02*
X14126359Y-14889072D01*
X14193026Y-14755739D02*
X14193026Y-14793834D01*
X14269217Y-14755739D02*
X14269217Y-14793834D01*
X14564455Y-15031929D02*
X14554931Y-15022405D01*
X14554931Y-15022405D02*
X14535883Y-14993834D01*
X14535883Y-14993834D02*
X14526359Y-14974786D01*
X14526359Y-14974786D02*
X14516836Y-14946215D01*
X14516836Y-14946215D02*
X14507312Y-14898596D01*
X14507312Y-14898596D02*
X14507312Y-14860501D01*
X14507312Y-14860501D02*
X14516836Y-14812881D01*
X14516836Y-14812881D02*
X14526359Y-14784310D01*
X14526359Y-14784310D02*
X14535883Y-14765262D01*
X14535883Y-14765262D02*
X14554931Y-14736691D01*
X14554931Y-14736691D02*
X14564455Y-14727167D01*
X14745407Y-14955739D02*
X14631121Y-14955739D01*
X14688264Y-14955739D02*
X14688264Y-14755739D01*
X14688264Y-14755739D02*
X14669217Y-14784310D01*
X14669217Y-14784310D02*
X14650169Y-14803358D01*
X14650169Y-14803358D02*
X14631121Y-14812881D01*
X14821598Y-14774786D02*
X14831121Y-14765262D01*
X14831121Y-14765262D02*
X14850169Y-14755739D01*
X14850169Y-14755739D02*
X14897788Y-14755739D01*
X14897788Y-14755739D02*
X14916836Y-14765262D01*
X14916836Y-14765262D02*
X14926359Y-14774786D01*
X14926359Y-14774786D02*
X14935883Y-14793834D01*
X14935883Y-14793834D02*
X14935883Y-14812881D01*
X14935883Y-14812881D02*
X14926359Y-14841453D01*
X14926359Y-14841453D02*
X14812074Y-14955739D01*
X14812074Y-14955739D02*
X14935883Y-14955739D01*
X15173979Y-14955739D02*
X15173979Y-14755739D01*
X15259693Y-14955739D02*
X15259693Y-14850977D01*
X15259693Y-14850977D02*
X15250169Y-14831929D01*
X15250169Y-14831929D02*
X15231121Y-14822405D01*
X15231121Y-14822405D02*
X15202550Y-14822405D01*
X15202550Y-14822405D02*
X15183502Y-14831929D01*
X15183502Y-14831929D02*
X15173979Y-14841453D01*
X15383502Y-14955739D02*
X15364455Y-14946215D01*
X15364455Y-14946215D02*
X15354931Y-14936691D01*
X15354931Y-14936691D02*
X15345407Y-14917643D01*
X15345407Y-14917643D02*
X15345407Y-14860501D01*
X15345407Y-14860501D02*
X15354931Y-14841453D01*
X15354931Y-14841453D02*
X15364455Y-14831929D01*
X15364455Y-14831929D02*
X15383502Y-14822405D01*
X15383502Y-14822405D02*
X15412074Y-14822405D01*
X15412074Y-14822405D02*
X15431121Y-14831929D01*
X15431121Y-14831929D02*
X15440645Y-14841453D01*
X15440645Y-14841453D02*
X15450169Y-14860501D01*
X15450169Y-14860501D02*
X15450169Y-14917643D01*
X15450169Y-14917643D02*
X15440645Y-14936691D01*
X15440645Y-14936691D02*
X15431121Y-14946215D01*
X15431121Y-14946215D02*
X15412074Y-14955739D01*
X15412074Y-14955739D02*
X15383502Y-14955739D01*
X15564455Y-14955739D02*
X15545407Y-14946215D01*
X15545407Y-14946215D02*
X15535883Y-14927167D01*
X15535883Y-14927167D02*
X15535883Y-14755739D01*
X15716836Y-14946215D02*
X15697788Y-14955739D01*
X15697788Y-14955739D02*
X15659693Y-14955739D01*
X15659693Y-14955739D02*
X15640645Y-14946215D01*
X15640645Y-14946215D02*
X15631121Y-14927167D01*
X15631121Y-14927167D02*
X15631121Y-14850977D01*
X15631121Y-14850977D02*
X15640645Y-14831929D01*
X15640645Y-14831929D02*
X15659693Y-14822405D01*
X15659693Y-14822405D02*
X15697788Y-14822405D01*
X15697788Y-14822405D02*
X15716836Y-14831929D01*
X15716836Y-14831929D02*
X15726360Y-14850977D01*
X15726360Y-14850977D02*
X15726360Y-14870024D01*
X15726360Y-14870024D02*
X15631121Y-14889072D01*
X15802550Y-14946215D02*
X15821598Y-14955739D01*
X15821598Y-14955739D02*
X15859693Y-14955739D01*
X15859693Y-14955739D02*
X15878741Y-14946215D01*
X15878741Y-14946215D02*
X15888264Y-14927167D01*
X15888264Y-14927167D02*
X15888264Y-14917643D01*
X15888264Y-14917643D02*
X15878741Y-14898596D01*
X15878741Y-14898596D02*
X15859693Y-14889072D01*
X15859693Y-14889072D02*
X15831121Y-14889072D01*
X15831121Y-14889072D02*
X15812074Y-14879548D01*
X15812074Y-14879548D02*
X15802550Y-14860501D01*
X15802550Y-14860501D02*
X15802550Y-14850977D01*
X15802550Y-14850977D02*
X15812074Y-14831929D01*
X15812074Y-14831929D02*
X15831121Y-14822405D01*
X15831121Y-14822405D02*
X15859693Y-14822405D01*
X15859693Y-14822405D02*
X15878741Y-14831929D01*
X15954931Y-15031929D02*
X15964455Y-15022405D01*
X15964455Y-15022405D02*
X15983502Y-14993834D01*
X15983502Y-14993834D02*
X15993026Y-14974786D01*
X15993026Y-14974786D02*
X16002550Y-14946215D01*
X16002550Y-14946215D02*
X16012074Y-14898596D01*
X16012074Y-14898596D02*
X16012074Y-14860501D01*
X16012074Y-14860501D02*
X16002550Y-14812881D01*
X16002550Y-14812881D02*
X15993026Y-14784310D01*
X15993026Y-14784310D02*
X15983502Y-14765262D01*
X15983502Y-14765262D02*
X15964455Y-14736691D01*
X15964455Y-14736691D02*
X15954931Y-14727167D01*
D12*
X10904392Y-15043255D02*
X10904392Y-15213255D01*
X10819392Y-15128255D02*
X10989392Y-15128255D01*
X10989392Y-15128255D02*
G75*
G02*
X10819392Y-15128255I-85000J0D01*
G01*
X10819392Y-15128255D02*
G75*
G02*
X10989392Y-15128255I85000J0D01*
G01*
D10*
X11354931Y-15219739D02*
X11240645Y-15219739D01*
X11297788Y-15219739D02*
X11297788Y-15019739D01*
X11297788Y-15019739D02*
X11278740Y-15048310D01*
X11278740Y-15048310D02*
X11259692Y-15067358D01*
X11259692Y-15067358D02*
X11240645Y-15076881D01*
X11440645Y-15200691D02*
X11450169Y-15210215D01*
X11450169Y-15210215D02*
X11440645Y-15219739D01*
X11440645Y-15219739D02*
X11431121Y-15210215D01*
X11431121Y-15210215D02*
X11440645Y-15200691D01*
X11440645Y-15200691D02*
X11440645Y-15219739D01*
X11516835Y-15019739D02*
X11650169Y-15019739D01*
X11650169Y-15019739D02*
X11564454Y-15219739D01*
X11764454Y-15019739D02*
X11783502Y-15019739D01*
X11783502Y-15019739D02*
X11802550Y-15029262D01*
X11802550Y-15029262D02*
X11812073Y-15038786D01*
X11812073Y-15038786D02*
X11821597Y-15057834D01*
X11821597Y-15057834D02*
X11831121Y-15095929D01*
X11831121Y-15095929D02*
X11831121Y-15143548D01*
X11831121Y-15143548D02*
X11821597Y-15181643D01*
X11821597Y-15181643D02*
X11812073Y-15200691D01*
X11812073Y-15200691D02*
X11802550Y-15210215D01*
X11802550Y-15210215D02*
X11783502Y-15219739D01*
X11783502Y-15219739D02*
X11764454Y-15219739D01*
X11764454Y-15219739D02*
X11745407Y-15210215D01*
X11745407Y-15210215D02*
X11735883Y-15200691D01*
X11735883Y-15200691D02*
X11726359Y-15181643D01*
X11726359Y-15181643D02*
X11716835Y-15143548D01*
X11716835Y-15143548D02*
X11716835Y-15095929D01*
X11716835Y-15095929D02*
X11726359Y-15057834D01*
X11726359Y-15057834D02*
X11735883Y-15038786D01*
X11735883Y-15038786D02*
X11745407Y-15029262D01*
X11745407Y-15029262D02*
X11764454Y-15019739D01*
X11954931Y-15019739D02*
X11973978Y-15019739D01*
X11973978Y-15019739D02*
X11993026Y-15029262D01*
X11993026Y-15029262D02*
X12002550Y-15038786D01*
X12002550Y-15038786D02*
X12012073Y-15057834D01*
X12012073Y-15057834D02*
X12021597Y-15095929D01*
X12021597Y-15095929D02*
X12021597Y-15143548D01*
X12021597Y-15143548D02*
X12012073Y-15181643D01*
X12012073Y-15181643D02*
X12002550Y-15200691D01*
X12002550Y-15200691D02*
X11993026Y-15210215D01*
X11993026Y-15210215D02*
X11973978Y-15219739D01*
X11973978Y-15219739D02*
X11954931Y-15219739D01*
X11954931Y-15219739D02*
X11935883Y-15210215D01*
X11935883Y-15210215D02*
X11926359Y-15200691D01*
X11926359Y-15200691D02*
X11916835Y-15181643D01*
X11916835Y-15181643D02*
X11907312Y-15143548D01*
X11907312Y-15143548D02*
X11907312Y-15095929D01*
X11907312Y-15095929D02*
X11916835Y-15057834D01*
X11916835Y-15057834D02*
X11926359Y-15038786D01*
X11926359Y-15038786D02*
X11935883Y-15029262D01*
X11935883Y-15029262D02*
X11954931Y-15019739D01*
X12107312Y-15219739D02*
X12107312Y-15086405D01*
X12107312Y-15105453D02*
X12116835Y-15095929D01*
X12116835Y-15095929D02*
X12135883Y-15086405D01*
X12135883Y-15086405D02*
X12164454Y-15086405D01*
X12164454Y-15086405D02*
X12183502Y-15095929D01*
X12183502Y-15095929D02*
X12193026Y-15114977D01*
X12193026Y-15114977D02*
X12193026Y-15219739D01*
X12193026Y-15114977D02*
X12202550Y-15095929D01*
X12202550Y-15095929D02*
X12221597Y-15086405D01*
X12221597Y-15086405D02*
X12250169Y-15086405D01*
X12250169Y-15086405D02*
X12269216Y-15095929D01*
X12269216Y-15095929D02*
X12278740Y-15114977D01*
X12278740Y-15114977D02*
X12278740Y-15219739D01*
X12373978Y-15219739D02*
X12373978Y-15086405D01*
X12373978Y-15105453D02*
X12383502Y-15095929D01*
X12383502Y-15095929D02*
X12402550Y-15086405D01*
X12402550Y-15086405D02*
X12431121Y-15086405D01*
X12431121Y-15086405D02*
X12450169Y-15095929D01*
X12450169Y-15095929D02*
X12459693Y-15114977D01*
X12459693Y-15114977D02*
X12459693Y-15219739D01*
X12459693Y-15114977D02*
X12469216Y-15095929D01*
X12469216Y-15095929D02*
X12488264Y-15086405D01*
X12488264Y-15086405D02*
X12516835Y-15086405D01*
X12516835Y-15086405D02*
X12535883Y-15095929D01*
X12535883Y-15095929D02*
X12545407Y-15114977D01*
X12545407Y-15114977D02*
X12545407Y-15219739D01*
X12935883Y-15010215D02*
X12764455Y-15267358D01*
X13193026Y-15019739D02*
X13212074Y-15019739D01*
X13212074Y-15019739D02*
X13231121Y-15029262D01*
X13231121Y-15029262D02*
X13240645Y-15038786D01*
X13240645Y-15038786D02*
X13250169Y-15057834D01*
X13250169Y-15057834D02*
X13259693Y-15095929D01*
X13259693Y-15095929D02*
X13259693Y-15143548D01*
X13259693Y-15143548D02*
X13250169Y-15181643D01*
X13250169Y-15181643D02*
X13240645Y-15200691D01*
X13240645Y-15200691D02*
X13231121Y-15210215D01*
X13231121Y-15210215D02*
X13212074Y-15219739D01*
X13212074Y-15219739D02*
X13193026Y-15219739D01*
X13193026Y-15219739D02*
X13173978Y-15210215D01*
X13173978Y-15210215D02*
X13164455Y-15200691D01*
X13164455Y-15200691D02*
X13154931Y-15181643D01*
X13154931Y-15181643D02*
X13145407Y-15143548D01*
X13145407Y-15143548D02*
X13145407Y-15095929D01*
X13145407Y-15095929D02*
X13154931Y-15057834D01*
X13154931Y-15057834D02*
X13164455Y-15038786D01*
X13164455Y-15038786D02*
X13173978Y-15029262D01*
X13173978Y-15029262D02*
X13193026Y-15019739D01*
X13345407Y-15200691D02*
X13354931Y-15210215D01*
X13354931Y-15210215D02*
X13345407Y-15219739D01*
X13345407Y-15219739D02*
X13335883Y-15210215D01*
X13335883Y-15210215D02*
X13345407Y-15200691D01*
X13345407Y-15200691D02*
X13345407Y-15219739D01*
X13478740Y-15019739D02*
X13497788Y-15019739D01*
X13497788Y-15019739D02*
X13516836Y-15029262D01*
X13516836Y-15029262D02*
X13526359Y-15038786D01*
X13526359Y-15038786D02*
X13535883Y-15057834D01*
X13535883Y-15057834D02*
X13545407Y-15095929D01*
X13545407Y-15095929D02*
X13545407Y-15143548D01*
X13545407Y-15143548D02*
X13535883Y-15181643D01*
X13535883Y-15181643D02*
X13526359Y-15200691D01*
X13526359Y-15200691D02*
X13516836Y-15210215D01*
X13516836Y-15210215D02*
X13497788Y-15219739D01*
X13497788Y-15219739D02*
X13478740Y-15219739D01*
X13478740Y-15219739D02*
X13459693Y-15210215D01*
X13459693Y-15210215D02*
X13450169Y-15200691D01*
X13450169Y-15200691D02*
X13440645Y-15181643D01*
X13440645Y-15181643D02*
X13431121Y-15143548D01*
X13431121Y-15143548D02*
X13431121Y-15095929D01*
X13431121Y-15095929D02*
X13440645Y-15057834D01*
X13440645Y-15057834D02*
X13450169Y-15038786D01*
X13450169Y-15038786D02*
X13459693Y-15029262D01*
X13459693Y-15029262D02*
X13478740Y-15019739D01*
X13716836Y-15019739D02*
X13678740Y-15019739D01*
X13678740Y-15019739D02*
X13659693Y-15029262D01*
X13659693Y-15029262D02*
X13650169Y-15038786D01*
X13650169Y-15038786D02*
X13631121Y-15067358D01*
X13631121Y-15067358D02*
X13621597Y-15105453D01*
X13621597Y-15105453D02*
X13621597Y-15181643D01*
X13621597Y-15181643D02*
X13631121Y-15200691D01*
X13631121Y-15200691D02*
X13640645Y-15210215D01*
X13640645Y-15210215D02*
X13659693Y-15219739D01*
X13659693Y-15219739D02*
X13697788Y-15219739D01*
X13697788Y-15219739D02*
X13716836Y-15210215D01*
X13716836Y-15210215D02*
X13726359Y-15200691D01*
X13726359Y-15200691D02*
X13735883Y-15181643D01*
X13735883Y-15181643D02*
X13735883Y-15134024D01*
X13735883Y-15134024D02*
X13726359Y-15114977D01*
X13726359Y-15114977D02*
X13716836Y-15105453D01*
X13716836Y-15105453D02*
X13697788Y-15095929D01*
X13697788Y-15095929D02*
X13659693Y-15095929D01*
X13659693Y-15095929D02*
X13640645Y-15105453D01*
X13640645Y-15105453D02*
X13631121Y-15114977D01*
X13631121Y-15114977D02*
X13621597Y-15134024D01*
X13907312Y-15019739D02*
X13869216Y-15019739D01*
X13869216Y-15019739D02*
X13850169Y-15029262D01*
X13850169Y-15029262D02*
X13840645Y-15038786D01*
X13840645Y-15038786D02*
X13821597Y-15067358D01*
X13821597Y-15067358D02*
X13812074Y-15105453D01*
X13812074Y-15105453D02*
X13812074Y-15181643D01*
X13812074Y-15181643D02*
X13821597Y-15200691D01*
X13821597Y-15200691D02*
X13831121Y-15210215D01*
X13831121Y-15210215D02*
X13850169Y-15219739D01*
X13850169Y-15219739D02*
X13888264Y-15219739D01*
X13888264Y-15219739D02*
X13907312Y-15210215D01*
X13907312Y-15210215D02*
X13916836Y-15200691D01*
X13916836Y-15200691D02*
X13926359Y-15181643D01*
X13926359Y-15181643D02*
X13926359Y-15134024D01*
X13926359Y-15134024D02*
X13916836Y-15114977D01*
X13916836Y-15114977D02*
X13907312Y-15105453D01*
X13907312Y-15105453D02*
X13888264Y-15095929D01*
X13888264Y-15095929D02*
X13850169Y-15095929D01*
X13850169Y-15095929D02*
X13831121Y-15105453D01*
X13831121Y-15105453D02*
X13821597Y-15114977D01*
X13821597Y-15114977D02*
X13812074Y-15134024D01*
X14021597Y-15219739D02*
X14059693Y-15219739D01*
X14059693Y-15219739D02*
X14078740Y-15210215D01*
X14078740Y-15210215D02*
X14088264Y-15200691D01*
X14088264Y-15200691D02*
X14107312Y-15172120D01*
X14107312Y-15172120D02*
X14116836Y-15134024D01*
X14116836Y-15134024D02*
X14116836Y-15057834D01*
X14116836Y-15057834D02*
X14107312Y-15038786D01*
X14107312Y-15038786D02*
X14097788Y-15029262D01*
X14097788Y-15029262D02*
X14078740Y-15019739D01*
X14078740Y-15019739D02*
X14040645Y-15019739D01*
X14040645Y-15019739D02*
X14021597Y-15029262D01*
X14021597Y-15029262D02*
X14012074Y-15038786D01*
X14012074Y-15038786D02*
X14002550Y-15057834D01*
X14002550Y-15057834D02*
X14002550Y-15105453D01*
X14002550Y-15105453D02*
X14012074Y-15124501D01*
X14012074Y-15124501D02*
X14021597Y-15134024D01*
X14021597Y-15134024D02*
X14040645Y-15143548D01*
X14040645Y-15143548D02*
X14078740Y-15143548D01*
X14078740Y-15143548D02*
X14097788Y-15134024D01*
X14097788Y-15134024D02*
X14107312Y-15124501D01*
X14107312Y-15124501D02*
X14116836Y-15105453D01*
X14193026Y-15019739D02*
X14193026Y-15057834D01*
X14269217Y-15019739D02*
X14269217Y-15057834D01*
X14564455Y-15295929D02*
X14554931Y-15286405D01*
X14554931Y-15286405D02*
X14535883Y-15257834D01*
X14535883Y-15257834D02*
X14526359Y-15238786D01*
X14526359Y-15238786D02*
X14516836Y-15210215D01*
X14516836Y-15210215D02*
X14507312Y-15162596D01*
X14507312Y-15162596D02*
X14507312Y-15124501D01*
X14507312Y-15124501D02*
X14516836Y-15076881D01*
X14516836Y-15076881D02*
X14526359Y-15048310D01*
X14526359Y-15048310D02*
X14535883Y-15029262D01*
X14535883Y-15029262D02*
X14554931Y-15000691D01*
X14554931Y-15000691D02*
X14564455Y-14991167D01*
X14726359Y-15086405D02*
X14726359Y-15219739D01*
X14678740Y-15010215D02*
X14631121Y-15153072D01*
X14631121Y-15153072D02*
X14754931Y-15153072D01*
X14983502Y-15219739D02*
X14983502Y-15019739D01*
X15069217Y-15219739D02*
X15069217Y-15114977D01*
X15069217Y-15114977D02*
X15059693Y-15095929D01*
X15059693Y-15095929D02*
X15040645Y-15086405D01*
X15040645Y-15086405D02*
X15012074Y-15086405D01*
X15012074Y-15086405D02*
X14993026Y-15095929D01*
X14993026Y-15095929D02*
X14983502Y-15105453D01*
X15193026Y-15219739D02*
X15173979Y-15210215D01*
X15173979Y-15210215D02*
X15164455Y-15200691D01*
X15164455Y-15200691D02*
X15154931Y-15181643D01*
X15154931Y-15181643D02*
X15154931Y-15124501D01*
X15154931Y-15124501D02*
X15164455Y-15105453D01*
X15164455Y-15105453D02*
X15173979Y-15095929D01*
X15173979Y-15095929D02*
X15193026Y-15086405D01*
X15193026Y-15086405D02*
X15221598Y-15086405D01*
X15221598Y-15086405D02*
X15240645Y-15095929D01*
X15240645Y-15095929D02*
X15250169Y-15105453D01*
X15250169Y-15105453D02*
X15259693Y-15124501D01*
X15259693Y-15124501D02*
X15259693Y-15181643D01*
X15259693Y-15181643D02*
X15250169Y-15200691D01*
X15250169Y-15200691D02*
X15240645Y-15210215D01*
X15240645Y-15210215D02*
X15221598Y-15219739D01*
X15221598Y-15219739D02*
X15193026Y-15219739D01*
X15373979Y-15219739D02*
X15354931Y-15210215D01*
X15354931Y-15210215D02*
X15345407Y-15191167D01*
X15345407Y-15191167D02*
X15345407Y-15019739D01*
X15526360Y-15210215D02*
X15507312Y-15219739D01*
X15507312Y-15219739D02*
X15469217Y-15219739D01*
X15469217Y-15219739D02*
X15450169Y-15210215D01*
X15450169Y-15210215D02*
X15440645Y-15191167D01*
X15440645Y-15191167D02*
X15440645Y-15114977D01*
X15440645Y-15114977D02*
X15450169Y-15095929D01*
X15450169Y-15095929D02*
X15469217Y-15086405D01*
X15469217Y-15086405D02*
X15507312Y-15086405D01*
X15507312Y-15086405D02*
X15526360Y-15095929D01*
X15526360Y-15095929D02*
X15535883Y-15114977D01*
X15535883Y-15114977D02*
X15535883Y-15134024D01*
X15535883Y-15134024D02*
X15440645Y-15153072D01*
X15612074Y-15210215D02*
X15631121Y-15219739D01*
X15631121Y-15219739D02*
X15669217Y-15219739D01*
X15669217Y-15219739D02*
X15688264Y-15210215D01*
X15688264Y-15210215D02*
X15697788Y-15191167D01*
X15697788Y-15191167D02*
X15697788Y-15181643D01*
X15697788Y-15181643D02*
X15688264Y-15162596D01*
X15688264Y-15162596D02*
X15669217Y-15153072D01*
X15669217Y-15153072D02*
X15640645Y-15153072D01*
X15640645Y-15153072D02*
X15621598Y-15143548D01*
X15621598Y-15143548D02*
X15612074Y-15124501D01*
X15612074Y-15124501D02*
X15612074Y-15114977D01*
X15612074Y-15114977D02*
X15621598Y-15095929D01*
X15621598Y-15095929D02*
X15640645Y-15086405D01*
X15640645Y-15086405D02*
X15669217Y-15086405D01*
X15669217Y-15086405D02*
X15688264Y-15095929D01*
X15764455Y-15295929D02*
X15773979Y-15286405D01*
X15773979Y-15286405D02*
X15793026Y-15257834D01*
X15793026Y-15257834D02*
X15802550Y-15238786D01*
X15802550Y-15238786D02*
X15812074Y-15210215D01*
X15812074Y-15210215D02*
X15821598Y-15162596D01*
X15821598Y-15162596D02*
X15821598Y-15124501D01*
X15821598Y-15124501D02*
X15812074Y-15076881D01*
X15812074Y-15076881D02*
X15802550Y-15048310D01*
X15802550Y-15048310D02*
X15793026Y-15029262D01*
X15793026Y-15029262D02*
X15773979Y-15000691D01*
X15773979Y-15000691D02*
X15764455Y-14991167D01*
X10960103Y-15488966D02*
X10960103Y-15347543D01*
X10818681Y-15347543D01*
X10818681Y-15488966D01*
X10960103Y-15488966D01*
X10989392Y-15418255D02*
G75*
G02*
X10789392Y-15418255I-100000J0D01*
G01*
X10789392Y-15418255D02*
G75*
G02*
X10989392Y-15418255I100000J0D01*
G01*
X11240645Y-15328786D02*
X11250169Y-15319262D01*
X11250169Y-15319262D02*
X11269216Y-15309739D01*
X11269216Y-15309739D02*
X11316835Y-15309739D01*
X11316835Y-15309739D02*
X11335883Y-15319262D01*
X11335883Y-15319262D02*
X11345407Y-15328786D01*
X11345407Y-15328786D02*
X11354931Y-15347834D01*
X11354931Y-15347834D02*
X11354931Y-15366881D01*
X11354931Y-15366881D02*
X11345407Y-15395453D01*
X11345407Y-15395453D02*
X11231121Y-15509739D01*
X11231121Y-15509739D02*
X11354931Y-15509739D01*
X11440645Y-15490691D02*
X11450169Y-15500215D01*
X11450169Y-15500215D02*
X11440645Y-15509739D01*
X11440645Y-15509739D02*
X11431121Y-15500215D01*
X11431121Y-15500215D02*
X11440645Y-15490691D01*
X11440645Y-15490691D02*
X11440645Y-15509739D01*
X11516835Y-15309739D02*
X11650169Y-15309739D01*
X11650169Y-15309739D02*
X11564454Y-15509739D01*
X11764454Y-15309739D02*
X11783502Y-15309739D01*
X11783502Y-15309739D02*
X11802550Y-15319262D01*
X11802550Y-15319262D02*
X11812073Y-15328786D01*
X11812073Y-15328786D02*
X11821597Y-15347834D01*
X11821597Y-15347834D02*
X11831121Y-15385929D01*
X11831121Y-15385929D02*
X11831121Y-15433548D01*
X11831121Y-15433548D02*
X11821597Y-15471643D01*
X11821597Y-15471643D02*
X11812073Y-15490691D01*
X11812073Y-15490691D02*
X11802550Y-15500215D01*
X11802550Y-15500215D02*
X11783502Y-15509739D01*
X11783502Y-15509739D02*
X11764454Y-15509739D01*
X11764454Y-15509739D02*
X11745407Y-15500215D01*
X11745407Y-15500215D02*
X11735883Y-15490691D01*
X11735883Y-15490691D02*
X11726359Y-15471643D01*
X11726359Y-15471643D02*
X11716835Y-15433548D01*
X11716835Y-15433548D02*
X11716835Y-15385929D01*
X11716835Y-15385929D02*
X11726359Y-15347834D01*
X11726359Y-15347834D02*
X11735883Y-15328786D01*
X11735883Y-15328786D02*
X11745407Y-15319262D01*
X11745407Y-15319262D02*
X11764454Y-15309739D01*
X11954931Y-15309739D02*
X11973978Y-15309739D01*
X11973978Y-15309739D02*
X11993026Y-15319262D01*
X11993026Y-15319262D02*
X12002550Y-15328786D01*
X12002550Y-15328786D02*
X12012073Y-15347834D01*
X12012073Y-15347834D02*
X12021597Y-15385929D01*
X12021597Y-15385929D02*
X12021597Y-15433548D01*
X12021597Y-15433548D02*
X12012073Y-15471643D01*
X12012073Y-15471643D02*
X12002550Y-15490691D01*
X12002550Y-15490691D02*
X11993026Y-15500215D01*
X11993026Y-15500215D02*
X11973978Y-15509739D01*
X11973978Y-15509739D02*
X11954931Y-15509739D01*
X11954931Y-15509739D02*
X11935883Y-15500215D01*
X11935883Y-15500215D02*
X11926359Y-15490691D01*
X11926359Y-15490691D02*
X11916835Y-15471643D01*
X11916835Y-15471643D02*
X11907312Y-15433548D01*
X11907312Y-15433548D02*
X11907312Y-15385929D01*
X11907312Y-15385929D02*
X11916835Y-15347834D01*
X11916835Y-15347834D02*
X11926359Y-15328786D01*
X11926359Y-15328786D02*
X11935883Y-15319262D01*
X11935883Y-15319262D02*
X11954931Y-15309739D01*
X12107312Y-15509739D02*
X12107312Y-15376405D01*
X12107312Y-15395453D02*
X12116835Y-15385929D01*
X12116835Y-15385929D02*
X12135883Y-15376405D01*
X12135883Y-15376405D02*
X12164454Y-15376405D01*
X12164454Y-15376405D02*
X12183502Y-15385929D01*
X12183502Y-15385929D02*
X12193026Y-15404977D01*
X12193026Y-15404977D02*
X12193026Y-15509739D01*
X12193026Y-15404977D02*
X12202550Y-15385929D01*
X12202550Y-15385929D02*
X12221597Y-15376405D01*
X12221597Y-15376405D02*
X12250169Y-15376405D01*
X12250169Y-15376405D02*
X12269216Y-15385929D01*
X12269216Y-15385929D02*
X12278740Y-15404977D01*
X12278740Y-15404977D02*
X12278740Y-15509739D01*
X12373978Y-15509739D02*
X12373978Y-15376405D01*
X12373978Y-15395453D02*
X12383502Y-15385929D01*
X12383502Y-15385929D02*
X12402550Y-15376405D01*
X12402550Y-15376405D02*
X12431121Y-15376405D01*
X12431121Y-15376405D02*
X12450169Y-15385929D01*
X12450169Y-15385929D02*
X12459693Y-15404977D01*
X12459693Y-15404977D02*
X12459693Y-15509739D01*
X12459693Y-15404977D02*
X12469216Y-15385929D01*
X12469216Y-15385929D02*
X12488264Y-15376405D01*
X12488264Y-15376405D02*
X12516835Y-15376405D01*
X12516835Y-15376405D02*
X12535883Y-15385929D01*
X12535883Y-15385929D02*
X12545407Y-15404977D01*
X12545407Y-15404977D02*
X12545407Y-15509739D01*
X12935883Y-15300215D02*
X12764455Y-15557358D01*
X13193026Y-15309739D02*
X13212074Y-15309739D01*
X13212074Y-15309739D02*
X13231121Y-15319262D01*
X13231121Y-15319262D02*
X13240645Y-15328786D01*
X13240645Y-15328786D02*
X13250169Y-15347834D01*
X13250169Y-15347834D02*
X13259693Y-15385929D01*
X13259693Y-15385929D02*
X13259693Y-15433548D01*
X13259693Y-15433548D02*
X13250169Y-15471643D01*
X13250169Y-15471643D02*
X13240645Y-15490691D01*
X13240645Y-15490691D02*
X13231121Y-15500215D01*
X13231121Y-15500215D02*
X13212074Y-15509739D01*
X13212074Y-15509739D02*
X13193026Y-15509739D01*
X13193026Y-15509739D02*
X13173978Y-15500215D01*
X13173978Y-15500215D02*
X13164455Y-15490691D01*
X13164455Y-15490691D02*
X13154931Y-15471643D01*
X13154931Y-15471643D02*
X13145407Y-15433548D01*
X13145407Y-15433548D02*
X13145407Y-15385929D01*
X13145407Y-15385929D02*
X13154931Y-15347834D01*
X13154931Y-15347834D02*
X13164455Y-15328786D01*
X13164455Y-15328786D02*
X13173978Y-15319262D01*
X13173978Y-15319262D02*
X13193026Y-15309739D01*
X13345407Y-15490691D02*
X13354931Y-15500215D01*
X13354931Y-15500215D02*
X13345407Y-15509739D01*
X13345407Y-15509739D02*
X13335883Y-15500215D01*
X13335883Y-15500215D02*
X13345407Y-15490691D01*
X13345407Y-15490691D02*
X13345407Y-15509739D01*
X13545407Y-15509739D02*
X13431121Y-15509739D01*
X13488264Y-15509739D02*
X13488264Y-15309739D01*
X13488264Y-15309739D02*
X13469216Y-15338310D01*
X13469216Y-15338310D02*
X13450169Y-15357358D01*
X13450169Y-15357358D02*
X13431121Y-15366881D01*
X13669216Y-15309739D02*
X13688264Y-15309739D01*
X13688264Y-15309739D02*
X13707312Y-15319262D01*
X13707312Y-15319262D02*
X13716836Y-15328786D01*
X13716836Y-15328786D02*
X13726359Y-15347834D01*
X13726359Y-15347834D02*
X13735883Y-15385929D01*
X13735883Y-15385929D02*
X13735883Y-15433548D01*
X13735883Y-15433548D02*
X13726359Y-15471643D01*
X13726359Y-15471643D02*
X13716836Y-15490691D01*
X13716836Y-15490691D02*
X13707312Y-15500215D01*
X13707312Y-15500215D02*
X13688264Y-15509739D01*
X13688264Y-15509739D02*
X13669216Y-15509739D01*
X13669216Y-15509739D02*
X13650169Y-15500215D01*
X13650169Y-15500215D02*
X13640645Y-15490691D01*
X13640645Y-15490691D02*
X13631121Y-15471643D01*
X13631121Y-15471643D02*
X13621597Y-15433548D01*
X13621597Y-15433548D02*
X13621597Y-15385929D01*
X13621597Y-15385929D02*
X13631121Y-15347834D01*
X13631121Y-15347834D02*
X13640645Y-15328786D01*
X13640645Y-15328786D02*
X13650169Y-15319262D01*
X13650169Y-15319262D02*
X13669216Y-15309739D01*
X13907312Y-15309739D02*
X13869216Y-15309739D01*
X13869216Y-15309739D02*
X13850169Y-15319262D01*
X13850169Y-15319262D02*
X13840645Y-15328786D01*
X13840645Y-15328786D02*
X13821597Y-15357358D01*
X13821597Y-15357358D02*
X13812074Y-15395453D01*
X13812074Y-15395453D02*
X13812074Y-15471643D01*
X13812074Y-15471643D02*
X13821597Y-15490691D01*
X13821597Y-15490691D02*
X13831121Y-15500215D01*
X13831121Y-15500215D02*
X13850169Y-15509739D01*
X13850169Y-15509739D02*
X13888264Y-15509739D01*
X13888264Y-15509739D02*
X13907312Y-15500215D01*
X13907312Y-15500215D02*
X13916836Y-15490691D01*
X13916836Y-15490691D02*
X13926359Y-15471643D01*
X13926359Y-15471643D02*
X13926359Y-15424024D01*
X13926359Y-15424024D02*
X13916836Y-15404977D01*
X13916836Y-15404977D02*
X13907312Y-15395453D01*
X13907312Y-15395453D02*
X13888264Y-15385929D01*
X13888264Y-15385929D02*
X13850169Y-15385929D01*
X13850169Y-15385929D02*
X13831121Y-15395453D01*
X13831121Y-15395453D02*
X13821597Y-15404977D01*
X13821597Y-15404977D02*
X13812074Y-15424024D01*
X13993026Y-15309739D02*
X14116836Y-15309739D01*
X14116836Y-15309739D02*
X14050169Y-15385929D01*
X14050169Y-15385929D02*
X14078740Y-15385929D01*
X14078740Y-15385929D02*
X14097788Y-15395453D01*
X14097788Y-15395453D02*
X14107312Y-15404977D01*
X14107312Y-15404977D02*
X14116836Y-15424024D01*
X14116836Y-15424024D02*
X14116836Y-15471643D01*
X14116836Y-15471643D02*
X14107312Y-15490691D01*
X14107312Y-15490691D02*
X14097788Y-15500215D01*
X14097788Y-15500215D02*
X14078740Y-15509739D01*
X14078740Y-15509739D02*
X14021597Y-15509739D01*
X14021597Y-15509739D02*
X14002550Y-15500215D01*
X14002550Y-15500215D02*
X13993026Y-15490691D01*
X14193026Y-15309739D02*
X14193026Y-15347834D01*
X14269217Y-15309739D02*
X14269217Y-15347834D01*
X14564455Y-15585929D02*
X14554931Y-15576405D01*
X14554931Y-15576405D02*
X14535883Y-15547834D01*
X14535883Y-15547834D02*
X14526359Y-15528786D01*
X14526359Y-15528786D02*
X14516836Y-15500215D01*
X14516836Y-15500215D02*
X14507312Y-15452596D01*
X14507312Y-15452596D02*
X14507312Y-15414501D01*
X14507312Y-15414501D02*
X14516836Y-15366881D01*
X14516836Y-15366881D02*
X14526359Y-15338310D01*
X14526359Y-15338310D02*
X14535883Y-15319262D01*
X14535883Y-15319262D02*
X14554931Y-15290691D01*
X14554931Y-15290691D02*
X14564455Y-15281167D01*
X14631121Y-15328786D02*
X14640645Y-15319262D01*
X14640645Y-15319262D02*
X14659693Y-15309739D01*
X14659693Y-15309739D02*
X14707312Y-15309739D01*
X14707312Y-15309739D02*
X14726359Y-15319262D01*
X14726359Y-15319262D02*
X14735883Y-15328786D01*
X14735883Y-15328786D02*
X14745407Y-15347834D01*
X14745407Y-15347834D02*
X14745407Y-15366881D01*
X14745407Y-15366881D02*
X14735883Y-15395453D01*
X14735883Y-15395453D02*
X14621598Y-15509739D01*
X14621598Y-15509739D02*
X14745407Y-15509739D01*
X14983502Y-15509739D02*
X14983502Y-15309739D01*
X15069217Y-15509739D02*
X15069217Y-15404977D01*
X15069217Y-15404977D02*
X15059693Y-15385929D01*
X15059693Y-15385929D02*
X15040645Y-15376405D01*
X15040645Y-15376405D02*
X15012074Y-15376405D01*
X15012074Y-15376405D02*
X14993026Y-15385929D01*
X14993026Y-15385929D02*
X14983502Y-15395453D01*
X15193026Y-15509739D02*
X15173979Y-15500215D01*
X15173979Y-15500215D02*
X15164455Y-15490691D01*
X15164455Y-15490691D02*
X15154931Y-15471643D01*
X15154931Y-15471643D02*
X15154931Y-15414501D01*
X15154931Y-15414501D02*
X15164455Y-15395453D01*
X15164455Y-15395453D02*
X15173979Y-15385929D01*
X15173979Y-15385929D02*
X15193026Y-15376405D01*
X15193026Y-15376405D02*
X15221598Y-15376405D01*
X15221598Y-15376405D02*
X15240645Y-15385929D01*
X15240645Y-15385929D02*
X15250169Y-15395453D01*
X15250169Y-15395453D02*
X15259693Y-15414501D01*
X15259693Y-15414501D02*
X15259693Y-15471643D01*
X15259693Y-15471643D02*
X15250169Y-15490691D01*
X15250169Y-15490691D02*
X15240645Y-15500215D01*
X15240645Y-15500215D02*
X15221598Y-15509739D01*
X15221598Y-15509739D02*
X15193026Y-15509739D01*
X15373979Y-15509739D02*
X15354931Y-15500215D01*
X15354931Y-15500215D02*
X15345407Y-15481167D01*
X15345407Y-15481167D02*
X15345407Y-15309739D01*
X15526360Y-15500215D02*
X15507312Y-15509739D01*
X15507312Y-15509739D02*
X15469217Y-15509739D01*
X15469217Y-15509739D02*
X15450169Y-15500215D01*
X15450169Y-15500215D02*
X15440645Y-15481167D01*
X15440645Y-15481167D02*
X15440645Y-15404977D01*
X15440645Y-15404977D02*
X15450169Y-15385929D01*
X15450169Y-15385929D02*
X15469217Y-15376405D01*
X15469217Y-15376405D02*
X15507312Y-15376405D01*
X15507312Y-15376405D02*
X15526360Y-15385929D01*
X15526360Y-15385929D02*
X15535883Y-15404977D01*
X15535883Y-15404977D02*
X15535883Y-15424024D01*
X15535883Y-15424024D02*
X15440645Y-15443072D01*
X15612074Y-15500215D02*
X15631121Y-15509739D01*
X15631121Y-15509739D02*
X15669217Y-15509739D01*
X15669217Y-15509739D02*
X15688264Y-15500215D01*
X15688264Y-15500215D02*
X15697788Y-15481167D01*
X15697788Y-15481167D02*
X15697788Y-15471643D01*
X15697788Y-15471643D02*
X15688264Y-15452596D01*
X15688264Y-15452596D02*
X15669217Y-15443072D01*
X15669217Y-15443072D02*
X15640645Y-15443072D01*
X15640645Y-15443072D02*
X15621598Y-15433548D01*
X15621598Y-15433548D02*
X15612074Y-15414501D01*
X15612074Y-15414501D02*
X15612074Y-15404977D01*
X15612074Y-15404977D02*
X15621598Y-15385929D01*
X15621598Y-15385929D02*
X15640645Y-15376405D01*
X15640645Y-15376405D02*
X15669217Y-15376405D01*
X15669217Y-15376405D02*
X15688264Y-15385929D01*
X15764455Y-15585929D02*
X15773979Y-15576405D01*
X15773979Y-15576405D02*
X15793026Y-15547834D01*
X15793026Y-15547834D02*
X15802550Y-15528786D01*
X15802550Y-15528786D02*
X15812074Y-15500215D01*
X15812074Y-15500215D02*
X15821598Y-15452596D01*
X15821598Y-15452596D02*
X15821598Y-15414501D01*
X15821598Y-15414501D02*
X15812074Y-15366881D01*
X15812074Y-15366881D02*
X15802550Y-15338310D01*
X15802550Y-15338310D02*
X15793026Y-15319262D01*
X15793026Y-15319262D02*
X15773979Y-15290691D01*
X15773979Y-15290691D02*
X15764455Y-15281167D01*
M02*
